<svg width="48" height="48" viewBox="0 0 48 48" fill="none" xmlns="http://www.w3.org/2000/svg">
<g clip-path="url(#clip0_4520_19132)">
<path d="M23.9998 48C37.2546 48 47.9998 37.2548 47.9998 24C47.9998 10.7452 37.2546 0 23.9998 0C10.7449 0 -0.000244141 10.7452 -0.000244141 24C-0.000244141 37.2548 10.7449 48 23.9998 48Z" fill="url(#paint0_radial_4520_19132)"/>
<g style="mix-blend-mode:soft-light">
<path d="M24.0002 48C37.2551 48 48.0002 37.2548 48.0002 24C48.0002 10.7452 37.2551 0 24.0002 0C10.7454 0 0.000244141 10.7452 0.000244141 24C0.000244141 37.2548 10.7454 48 24.0002 48Z" fill="url(#paint1_radial_4520_19132)"/>
</g>
<g style="mix-blend-mode:soft-light">
<path d="M24.0002 48C37.2551 48 48.0002 37.2548 48.0002 24C48.0002 10.7452 37.2551 0 24.0002 0C10.7454 0 0.000244141 10.7452 0.000244141 24C0.000244141 37.2548 10.7454 48 24.0002 48Z" fill="url(#paint2_radial_4520_19132)"/>
</g>
<g style="mix-blend-mode:overlay">
<path d="M23.9701 47.9364C36.5807 47.9364 46.8037 37.2055 46.8037 23.9682C46.8037 10.7309 36.5807 0 23.9701 0C11.3594 0 1.13647 10.7309 1.13647 23.9682C1.13647 37.2055 11.3594 47.9364 23.9701 47.9364Z" fill="url(#paint3_radial_4520_19132)" fill-opacity="0.7"/>
</g>
<g filter="url(#filter0_f_4520_19132)">
<path d="M34.8988 13.2913C40.4137 8.30476 49.7292 20.567 31.5499 26.4103C18.5897 11.8086 32.4979 6.07833 34.8988 13.2913Z" fill="#FF3D00"/>
<path d="M13.0389 13.2925C15.4397 6.07958 29.348 11.8098 16.3877 26.4116C-1.78142 20.5654 7.5239 8.30599 13.0389 13.2925Z" fill="#FF3D00"/>
</g>
<g filter="url(#filter1_f_4520_19132)">
<path d="M34.8988 13.2913C40.4137 8.30476 49.7292 20.567 31.5499 26.4103C18.5897 11.8086 32.4979 6.07833 34.8988 13.2913Z" fill="#FF8A00"/>
<path d="M13.0389 13.2925C15.4397 6.07958 29.348 11.8098 16.3877 26.4116C-1.78142 20.5654 7.5239 8.30599 13.0389 13.2925Z" fill="#FF8A00"/>
</g>
<path d="M13.0389 12.2988C15.4397 5.08592 29.348 10.8162 16.3877 25.4179C-1.78142 19.5717 7.5239 7.31234 13.0389 12.2988Z" fill="url(#paint4_linear_4520_19132)"/>
<mask id="mask0_4520_19132" style="mask-type:alpha" maskUnits="userSpaceOnUse" x="5" y="9" width="17" height="17">
<path d="M13.0389 12.2988C15.4397 5.08592 29.348 10.8162 16.3877 25.4179C-1.78142 19.5717 7.5239 7.31234 13.0389 12.2988Z" fill="url(#paint5_linear_4520_19132)"/>
</mask>
<g mask="url(#mask0_4520_19132)">
<g filter="url(#filter2_f_4520_19132)">
<path d="M7.21956 18.3318C6.76396 17.5195 6.6432 16.4544 6.88986 15.4333C7.13652 14.4122 7.74322 13.4484 8.6048 12.7642C9.03693 12.4274 9.52827 12.1532 10.0667 11.9791C10.6051 11.805 11.1779 11.7232 11.7576 11.7528C12.3372 11.7824 12.9136 11.9262 13.4485 12.161C13.9834 12.3958 14.4566 12.7272 14.8746 13.0968L12.3771 13.7993C12.428 13.6604 12.4816 13.532 12.5324 13.3931C12.5833 13.2541 12.6469 13.1228 12.7107 12.9917C12.7743 12.8605 12.8507 12.737 12.9244 12.603C12.9982 12.4689 13.0874 12.3532 13.1638 12.2297C13.5151 11.7457 13.9458 11.3186 14.4337 10.9888C14.9216 10.6589 15.4666 10.4263 16.0159 10.2945C16.5652 10.1626 17.1212 10.1422 17.6559 10.2071C18.728 10.3475 19.7124 10.8637 20.4124 11.6185C21.1125 12.3734 21.5152 13.3592 21.5075 14.3018C21.1861 13.9729 20.8756 13.6864 20.5482 13.4612C20.2209 13.236 19.8869 13.0694 19.5436 12.9506C18.8798 12.7182 18.2114 12.6795 17.6266 12.7987C17.0417 12.9178 16.535 13.1737 16.1614 13.528C15.7876 13.8824 15.5215 14.3199 15.3307 14.8833L14.5623 17.1163L12.8332 15.5858C12.4022 15.2085 11.9607 14.9588 11.4683 14.8481C10.9758 14.7373 10.4225 14.7683 9.85187 14.9854C9.29128 15.1998 8.72822 15.5734 8.26679 16.1337C8.03607 16.4139 7.82622 16.7335 7.63994 17.1032C7.4738 17.4672 7.32851 17.8706 7.21956 18.3318Z" fill="#FF3E3E"/>
</g>
<g filter="url(#filter3_f_4520_19132)">
<path d="M14.4336 24.6417C14.1769 24.5666 13.9304 24.4886 13.6838 24.4107C13.5541 24.3679 13.4372 24.3328 13.3076 24.2899C13.1879 24.2443 13.0683 24.1986 12.936 24.1452L12.2029 23.8528C11.9583 23.7403 11.7238 23.625 11.4893 23.5097C10.5485 23.0378 9.62636 22.4701 8.79346 21.7865C7.96056 21.1031 7.21145 20.2827 6.65493 19.3289L6.45437 18.9661C6.39178 18.8477 6.33657 18.7159 6.28134 18.5841L6.19985 18.3917C6.17358 18.3312 6.15471 18.2572 6.12844 18.1966L5.99568 17.8034C5.85805 17.2643 5.78087 16.7081 5.8024 16.1582C5.88698 16.7009 6.03934 17.2132 6.22929 17.7036L6.39694 18.0644C6.4232 18.125 6.44946 18.1856 6.48579 18.2434L6.58472 18.4195C6.65738 18.535 6.70721 18.6457 6.77987 18.7611L6.99248 19.0866C7.58046 19.9523 8.31067 20.6986 9.11534 21.3561C9.90991 22.0164 10.779 22.5877 11.6728 23.1294C11.9 23.2582 12.1171 23.3897 12.3469 23.529L13.0358 23.9018C13.148 23.9609 13.2629 24.0305 13.3752 24.0896C13.4874 24.1487 13.6097 24.2049 13.7219 24.264C13.9692 24.3871 14.2064 24.513 14.4336 24.6417Z" fill="#FFA216"/>
</g>
<g filter="url(#filter4_f_4520_19132)">
<path d="M6.01491 16.6083C5.77743 15.6781 5.82393 14.6339 6.18551 13.6825C6.53703 12.7338 7.19896 11.9018 8.02439 11.3297C8.8599 10.7548 9.88441 10.4554 10.9128 10.5514C11.4193 10.5901 11.9299 10.7298 12.3961 10.9499C12.8625 11.17 13.292 11.457 13.6819 11.8006L12.846 12.0357C13.01 11.5364 13.2452 11.0623 13.5442 10.627C13.8433 10.1916 14.2216 9.81326 14.6391 9.50325C15.4866 8.89097 16.5138 8.60205 17.5112 8.66141C18.5087 8.72079 19.4681 9.09675 20.2345 9.73098C21.0009 10.3652 21.5385 11.245 21.776 12.1753C21.7161 12.0676 21.6589 11.9703 21.599 11.8626C21.5418 11.7654 21.4718 11.6604 21.4045 11.566C21.27 11.3772 21.1254 11.1913 20.9734 11.0187C20.6621 10.6871 20.3186 10.3985 19.9456 10.1635C19.1921 9.70691 18.3363 9.4831 17.5021 9.51376C16.668 9.54442 15.8557 9.82954 15.2189 10.3372C14.572 10.8477 14.0981 11.5702 13.8303 12.382L13.582 13.143L13.0045 12.6143C12.376 12.0547 11.6287 11.6643 10.8253 11.5616C10.0219 11.4591 9.19268 11.6356 8.44565 12.0497C7.70868 12.4609 7.07407 13.1039 6.6391 13.8948C6.42529 14.2835 6.2579 14.7272 6.15632 15.175C6.10688 15.4041 6.06752 15.6305 6.04362 15.8751C6.03032 15.9922 6.01703 16.1092 6.0165 16.234C6.01597 16.3588 6.01544 16.4836 6.01491 16.6083Z" fill="#700000"/>
</g>
<g filter="url(#filter5_f_4520_19132)">
<path d="M6.01491 16.6083C5.77743 15.6781 5.82393 14.6339 6.18551 13.6825C6.53703 12.7338 7.19896 11.9018 8.02439 11.3297C8.8599 10.7548 9.88441 10.4554 10.9128 10.5514C11.4193 10.5901 11.9299 10.7298 12.3961 10.9499C12.8625 11.17 13.292 11.457 13.6819 11.8006L12.846 12.0357C13.01 11.5364 13.2452 11.0623 13.5442 10.627C13.8433 10.1916 14.2216 9.81326 14.6391 9.50325C15.4866 8.89097 16.5138 8.60205 17.5112 8.66141C18.5087 8.72079 19.4681 9.09675 20.2345 9.73098C21.0009 10.3652 21.5385 11.245 21.776 12.1753C21.7161 12.0676 21.6589 11.9703 21.599 11.8626C21.5418 11.7654 21.4718 11.6604 21.4045 11.566C21.27 11.3772 21.1254 11.1913 20.9734 11.0187C20.6621 10.6871 20.3186 10.3985 19.9456 10.1635C19.1921 9.70691 18.3363 9.4831 17.5021 9.51376C16.668 9.54442 15.8557 9.82954 15.2189 10.3372C14.572 10.8477 14.0981 11.5702 13.8303 12.382L13.582 13.143L13.0045 12.6143C12.376 12.0547 11.6287 11.6643 10.8253 11.5616C10.0219 11.4591 9.19268 11.6356 8.44565 12.0497C7.70868 12.4609 7.07407 13.1039 6.6391 13.8948C6.42529 14.2835 6.2579 14.7272 6.15632 15.175C6.10688 15.4041 6.06752 15.6305 6.04362 15.8751C6.03032 15.9922 6.01703 16.1092 6.0165 16.234C6.01597 16.3588 6.01544 16.4836 6.01491 16.6083Z" fill="#700000"/>
</g>
<g filter="url(#filter6_f_4520_19132)">
<path d="M6.91683 18.4167C6.46122 17.6044 6.34046 16.5394 6.58712 15.5182C6.83379 14.4971 7.4405 13.5333 8.30207 12.8491C8.7342 12.5123 9.22551 12.2382 9.7639 12.0641C10.3024 11.8899 10.8752 11.8082 11.4548 11.8377C12.0345 11.8673 12.6109 12.0111 13.1458 12.2459C13.6806 12.4807 14.1538 12.8122 14.5719 13.1818L12.0743 13.8842C12.1253 13.7452 12.1789 13.6169 12.2297 13.4779C12.2806 13.339 12.3443 13.2078 12.4079 13.0766C12.4716 12.9454 12.548 12.8219 12.6216 12.6879C12.6954 12.5538 12.7846 12.4381 12.8611 12.3146C13.2124 11.8306 13.6431 11.4035 14.131 11.0736C14.6189 10.7438 15.1639 10.5112 15.7132 10.3794C16.2625 10.2476 16.8185 10.2271 17.3532 10.292C18.4252 10.4324 19.4097 10.9486 20.1097 11.7035C20.8098 12.4583 21.2125 13.4441 21.2048 14.3866C20.8834 14.0579 20.5728 13.7713 20.2455 13.5461C19.9181 13.3209 19.5842 13.1542 19.2408 13.0356C18.5771 12.803 17.9087 12.7644 17.3238 12.8836C16.739 13.0028 16.2323 13.2586 15.8586 13.613C15.4849 13.9674 15.2188 14.4047 15.028 14.9683L14.2595 17.2013L12.5405 15.6679C12.1096 15.2906 11.668 15.0409 11.1756 14.9301C10.6832 14.8193 10.1298 14.8503 9.55921 15.0675C8.99861 15.2818 8.43556 15.6555 7.97413 16.2158C7.74341 16.496 7.53356 16.8156 7.34727 17.1853C7.17105 17.5521 7.02578 17.9555 6.91683 18.4167Z" fill="#FF9797"/>
</g>
<g filter="url(#filter7_f_4520_19132)">
<path d="M17.7573 23.7068C17.8928 23.4762 18.0382 23.2426 18.1864 23.0196C18.2555 22.9096 18.3346 22.7967 18.4037 22.6866C18.4727 22.5766 18.5391 22.4559 18.6081 22.3458L19.0271 21.6615C19.1497 21.423 19.2851 21.1923 19.4205 20.9617C19.9365 20.0233 20.407 19.0753 20.7907 18.0836C21.1643 17.0947 21.4512 16.0623 21.5481 15.0039L21.5772 14.6106C21.5851 14.4723 21.5755 14.3504 21.5835 14.2123L21.5852 14.0077C21.5892 13.9387 21.573 13.8753 21.577 13.8062L21.5503 13.4058C21.4913 12.8785 21.3664 12.3471 21.1838 11.8433C21.4745 12.3054 21.6625 12.8304 21.8001 13.3695L21.8724 13.7797C21.8785 13.8459 21.8974 13.92 21.9036 13.9862L21.9246 14.1956C21.9396 14.3387 21.9518 14.4711 21.9567 14.6171L21.9558 15.0366C21.9282 16.1547 21.6702 17.2583 21.2745 18.2874C20.8787 19.3165 20.3607 20.2893 19.7606 21.1945C19.6125 21.4175 19.4642 21.6405 19.306 21.8663L18.8104 22.5042C18.7286 22.6065 18.6494 22.7194 18.5576 22.8246C18.4657 22.9298 18.3839 23.032 18.2893 23.1266C18.1202 23.3102 17.9466 23.5177 17.7573 23.7068Z" fill="#FFA216"/>
</g>
</g>
<g style="mix-blend-mode:soft-light">
<path d="M13.0434 12.2976C15.4443 5.08468 29.3525 10.815 16.3924 25.4166C-1.78684 19.5733 7.52855 7.31109 13.0434 12.2976Z" fill="url(#paint6_linear_4520_19132)"/>
</g>
<g style="mix-blend-mode:soft-light">
<path d="M13.0434 12.2976C7.52855 7.31109 -1.78684 19.5733 16.3924 25.4166C29.3525 10.815 15.4443 5.08468 13.0434 12.2976Z" fill="url(#paint7_linear_4520_19132)"/>
</g>
<mask id="mask1_4520_19132" style="mask-type:alpha" maskUnits="userSpaceOnUse" x="5" y="9" width="17" height="17">
<path d="M13.0389 12.2988C15.4397 5.08592 29.348 10.8162 16.3877 25.4179C-1.78142 19.5717 7.5239 7.31234 13.0389 12.2988Z" fill="url(#paint8_linear_4520_19132)"/>
</mask>
<g mask="url(#mask1_4520_19132)">
<g filter="url(#filter8_f_4520_19132)">
<path d="M9.80298 11.147C10.0958 11.1099 10.3866 11.1074 10.6854 11.1367C10.9743 11.1687 11.2712 11.2325 11.5562 11.3337C11.8383 11.4244 12.1111 11.5629 12.3665 11.7176C12.6219 11.8724 12.8626 12.054 13.0885 12.2624L13.0079 12.2851C13.1069 11.9966 13.2289 11.713 13.3736 11.4344C13.521 11.1663 13.6914 10.9031 13.8925 10.6765C14.0911 10.4394 14.3078 10.2312 14.5527 10.0489C14.7976 9.86681 15.0507 9.71633 15.3218 9.59473C14.7876 9.86964 14.326 10.26 13.9491 10.7287C13.7606 10.9629 13.5977 11.2127 13.4502 11.4808C13.3128 11.746 13.1909 12.0296 13.0919 12.3181L13.0677 12.3928L13.0213 12.3379C12.7982 12.1401 12.5676 11.9556 12.3122 11.8009C12.0669 11.6433 11.7967 11.5153 11.522 11.4113C10.9824 11.2005 10.3866 11.1074 9.80298 11.147Z" fill="#820010"/>
</g>
<g filter="url(#filter9_f_4520_19132)">
<path d="M9.80298 11.147C10.0958 11.1099 10.3866 11.1074 10.6854 11.1367C10.9743 11.1687 11.2712 11.2325 11.5562 11.3337C11.8383 11.4244 12.1111 11.5629 12.3665 11.7176C12.6219 11.8724 12.8626 12.054 13.0885 12.2624L13.0079 12.2851C13.1069 11.9966 13.2289 11.713 13.3736 11.4344C13.521 11.1663 13.6914 10.9031 13.8925 10.6765C14.0911 10.4394 14.3078 10.2312 14.5527 10.0489C14.7976 9.86681 15.0507 9.71633 15.3218 9.59473C14.7876 9.86964 14.326 10.26 13.9491 10.7287C13.7606 10.9629 13.5977 11.2127 13.4502 11.4808C13.3128 11.746 13.1909 12.0296 13.0919 12.3181L13.0677 12.3928L13.0213 12.3379C12.7982 12.1401 12.5676 11.9556 12.3122 11.8009C12.0669 11.6433 11.7967 11.5153 11.522 11.4113C10.9824 11.2005 10.3866 11.1074 9.80298 11.147Z" fill="#820010"/>
</g>
<g filter="url(#filter10_f_4520_19132)">
<path d="M9.80298 11.147C10.0958 11.1099 10.3866 11.1074 10.6854 11.1367C10.9743 11.1687 11.2712 11.2325 11.5562 11.3337C11.8383 11.4244 12.1111 11.5629 12.3665 11.7176C12.6219 11.8724 12.8626 12.054 13.0885 12.2624L13.0079 12.2851C13.1069 11.9966 13.2289 11.713 13.3736 11.4344C13.521 11.1663 13.6914 10.9031 13.8925 10.6765C14.0911 10.4394 14.3078 10.2312 14.5527 10.0489C14.7976 9.86681 15.0507 9.71633 15.3218 9.59473C14.7876 9.86964 14.326 10.26 13.9491 10.7287C13.7606 10.9629 13.5977 11.2127 13.4502 11.4808C13.3128 11.746 13.1909 12.0296 13.0919 12.3181L13.0677 12.3928L13.0213 12.3379C12.7982 12.1401 12.5676 11.9556 12.3122 11.8009C12.0669 11.6433 11.7967 11.5153 11.522 11.4113C10.9824 11.2005 10.3866 11.1074 9.80298 11.147Z" fill="#820010"/>
</g>
</g>
<path d="M34.8944 12.2961C40.4093 7.30963 49.7247 19.5718 31.5455 25.4152C18.5953 10.8163 32.4935 5.08321 34.8944 12.2961Z" fill="url(#paint9_linear_4520_19132)"/>
<mask id="mask2_4520_19132" style="mask-type:alpha" maskUnits="userSpaceOnUse" x="26" y="9" width="17" height="17">
<path d="M34.8953 12.2961C40.4103 7.30963 49.7256 19.5718 31.5465 25.4152C18.5963 10.8163 32.4944 5.08321 34.8953 12.2961Z" fill="url(#paint10_linear_4520_19132)"/>
</mask>
<g mask="url(#mask2_4520_19132)">
<g filter="url(#filter11_f_4520_19132)">
<path d="M26.9823 14.4665C26.9746 13.524 27.3774 12.5382 28.0774 11.7833C28.7774 11.0285 29.7619 10.5122 30.8339 10.3719C31.3687 10.307 31.9247 10.3274 32.474 10.4592C33.0232 10.5911 33.5582 10.8209 34.0461 11.1507C34.534 11.4805 34.9647 11.9076 35.316 12.3916C35.6674 12.8757 35.9193 13.4111 36.1054 13.9507L33.6078 13.2482C33.7181 13.1546 33.8256 13.0715 33.9358 12.9779C34.0461 12.8843 34.1637 12.8041 34.2813 12.7238C34.399 12.6436 34.524 12.5768 34.6517 12.4994C34.7794 12.422 34.9118 12.3686 35.0367 12.3018C35.5716 12.067 36.148 11.9232 36.7276 11.8936C37.3073 11.864 37.8901 11.9486 38.4286 12.1227C38.967 12.2968 39.4583 12.571 39.8905 12.9078C40.752 13.592 41.3587 14.5558 41.6054 15.5769C41.8521 16.5981 41.7313 17.6631 41.2757 18.4754C41.154 18.022 41.0215 17.6107 40.8453 17.2439C40.669 16.8771 40.4592 16.5575 40.2184 16.2745C39.7543 15.7247 39.1939 15.3405 38.6307 15.1368C38.0674 14.9331 37.5067 14.8886 37.0143 14.9994C36.5218 15.1102 36.083 15.3494 35.6494 15.7372L33.9202 17.2677L33.1518 15.0347C32.9583 14.4818 32.6949 14.0338 32.3212 13.6794C31.9475 13.325 31.4535 13.0615 30.8559 12.9501C30.2683 12.8414 29.6028 12.8695 28.9362 13.1125C28.6029 13.2342 28.269 13.4008 27.9316 13.6231C27.6143 13.8511 27.2963 14.1243 26.9823 14.4665Z" fill="#FF3E3E"/>
</g>
<g filter="url(#filter12_f_4520_19132)">
<path d="M30.225 23.7175C30.0386 23.5178 29.8621 23.3209 29.6857 23.1241C29.5938 23.0188 29.5093 22.9271 29.4174 22.8219C29.3356 22.7196 29.2538 22.6173 29.1645 22.5015L28.669 21.8636C28.5107 21.6378 28.3625 21.4148 28.2144 21.1919C27.6244 20.2895 27.0963 19.3139 26.7005 18.2848C26.3048 17.2557 26.0468 16.152 26.0192 15.0339L26.0183 14.6144C26.0205 14.4791 26.0354 14.336 26.0504 14.1929L26.0714 13.9836C26.0776 13.9173 26.0964 13.8433 26.1026 13.7771L26.1749 13.3668C26.3126 12.8277 26.5106 12.3056 26.7911 11.8406C26.6059 12.3551 26.4938 12.8787 26.4247 13.4031L26.3981 13.8035C26.3919 13.8698 26.3858 13.936 26.3897 14.0051L26.3915 14.2096C26.3995 14.3477 26.3899 14.4697 26.3978 14.6079L26.4269 15.0013C26.5238 16.0596 26.8006 17.0893 27.1843 18.081C27.558 19.0698 28.0384 20.0207 28.5545 20.959C28.6899 21.1896 28.8153 21.4175 28.9479 21.6588L29.367 22.3432C29.436 22.4532 29.5023 22.5739 29.5714 22.6839C29.6404 22.794 29.7195 22.9069 29.7886 23.017C29.9442 23.2533 30.0896 23.4869 30.225 23.7175Z" fill="#FFA216"/>
</g>
<g filter="url(#filter13_f_4520_19132)">
<path d="M26.7603 12.3417C26.9977 11.4115 27.5354 10.5316 28.3017 9.89736C29.058 9.2603 30.0276 8.88717 31.0149 8.82496C32.0123 8.76558 33.0423 9.04395 33.8871 9.6668C34.3071 9.96629 34.6828 10.3552 34.9819 10.7905C35.281 11.2258 35.5161 11.7 35.6901 12.2021L34.8543 11.967C35.2341 11.6206 35.6636 11.3335 36.13 11.1134C36.5963 10.8934 37.1042 10.7643 37.6134 10.7148C38.639 10.6294 39.6662 10.9183 40.5017 11.4932C41.3372 12.0682 41.9891 12.8974 42.3507 13.8488C42.7123 14.8003 42.7587 15.8445 42.5213 16.7747C42.5207 16.6499 42.5175 16.5357 42.517 16.4109C42.5138 16.2967 42.5032 16.1691 42.4899 16.0521C42.4633 15.818 42.4266 15.5811 42.3772 15.3519C42.2656 14.9012 42.1055 14.471 41.8944 14.0717C41.4594 13.2809 40.8248 12.6379 40.0879 12.2267C39.3509 11.8154 38.5115 11.636 37.7183 11.7415C36.915 11.8441 36.1603 12.221 35.5418 12.7835L34.9643 13.3122L34.7159 12.5512C34.4382 11.7366 33.9769 11.0064 33.33 10.4959C32.6832 9.98537 31.8809 9.70306 31.0368 9.66957C30.2026 9.63891 29.3468 9.86272 28.5933 10.3193C28.2231 10.5438 27.8667 10.8401 27.5655 11.1745C27.4135 11.3471 27.2716 11.5225 27.1344 11.7218C27.0671 11.8162 26.9999 11.9105 26.9399 12.0184C26.88 12.1262 26.8202 12.2339 26.7603 12.3417Z" fill="#700000"/>
</g>
<g filter="url(#filter14_f_4520_19132)">
<path d="M26.7603 12.3417C26.9977 11.4115 27.5354 10.5316 28.3017 9.89736C29.058 9.2603 30.0276 8.88717 31.0149 8.82496C32.0123 8.76558 33.0423 9.04395 33.8871 9.6668C34.3071 9.96629 34.6828 10.3552 34.9819 10.7905C35.281 11.2258 35.5161 11.7 35.6901 12.2021L34.8543 11.967C35.2341 11.6206 35.6636 11.3335 36.13 11.1134C36.5963 10.8934 37.1042 10.7643 37.6134 10.7148C38.639 10.6294 39.6662 10.9183 40.5017 11.4932C41.3372 12.0682 41.9891 12.8974 42.3507 13.8488C42.7123 14.8003 42.7587 15.8445 42.5213 16.7747C42.5207 16.6499 42.5175 16.5357 42.517 16.4109C42.5138 16.2967 42.5032 16.1691 42.4899 16.0521C42.4633 15.818 42.4266 15.5811 42.3772 15.3519C42.2656 14.9012 42.1055 14.471 41.8944 14.0717C41.4594 13.2809 40.8248 12.6379 40.0879 12.2267C39.3509 11.8154 38.5115 11.636 37.7183 11.7415C36.915 11.8441 36.1603 12.221 35.5418 12.7835L34.9643 13.3122L34.7159 12.5512C34.4382 11.7366 33.9769 11.0064 33.33 10.4959C32.6832 9.98537 31.8809 9.70306 31.0368 9.66957C30.2026 9.63891 29.3468 9.86272 28.5933 10.3193C28.2231 10.5438 27.8667 10.8401 27.5655 11.1745C27.4135 11.3471 27.2716 11.5225 27.1344 11.7218C27.0671 11.8162 26.9999 11.9105 26.9399 12.0184C26.88 12.1262 26.8202 12.2339 26.7603 12.3417Z" fill="#700000"/>
</g>
<g filter="url(#filter15_f_4520_19132)">
<path d="M26.6805 14.3815C26.6729 13.4389 27.0756 12.4532 27.7756 11.6983C28.4757 10.9434 29.4602 10.4273 30.5322 10.2869C31.0669 10.222 31.623 10.2424 32.1722 10.3743C32.7214 10.5061 33.2564 10.7358 33.7443 11.0657C34.2322 11.3955 34.6629 11.8226 35.0143 12.3067C35.3657 12.7907 35.6175 13.3261 35.8036 13.8657L33.306 13.1632C33.4163 13.0695 33.5239 12.9866 33.6341 12.8928C33.7444 12.7992 33.862 12.719 33.9797 12.6388C34.0972 12.5586 34.2222 12.4918 34.3499 12.4144C34.4776 12.337 34.61 12.2836 34.735 12.2168C35.2699 11.9819 35.8463 11.8382 36.4259 11.8086C37.0055 11.779 37.5884 11.8637 38.1269 12.0378C38.6653 12.2118 39.1565 12.486 39.5887 12.8228C40.4503 13.507 41.057 14.4708 41.3037 15.4919C41.5503 16.513 41.4296 17.5782 40.9739 18.3904C40.8523 17.9369 40.7197 17.5258 40.5435 17.159C40.3672 16.7922 40.1574 16.4726 39.9167 16.1895C39.4525 15.6398 38.8921 15.2556 38.3289 15.0518C37.7657 14.848 37.2049 14.8036 36.7125 14.9144C36.22 15.0252 35.7812 15.2643 35.3476 15.6522L33.6185 17.1827L32.8601 14.9526C32.6666 14.3996 32.4032 13.9516 32.0294 13.5972C31.6558 13.2429 31.1619 12.9793 30.5642 12.8679C29.9766 12.7593 29.3111 12.7873 28.6446 13.0304C28.3113 13.152 27.9773 13.3187 27.6399 13.541C27.3126 13.7662 26.9946 14.0393 26.6805 14.3815Z" fill="#FF9797"/>
</g>
<g filter="url(#filter16_f_4520_19132)">
<path d="M33.5483 24.6523C33.7756 24.5235 34.0127 24.3977 34.2473 24.2824C34.3595 24.2233 34.4818 24.1671 34.594 24.1079C34.7062 24.0489 34.8211 23.9792 34.9334 23.9201L35.6222 23.5473C35.842 23.4052 36.0691 23.2765 36.2963 23.1478C37.1902 22.6061 38.0492 22.0319 38.8538 21.3744C39.6484 20.7142 40.3887 19.9706 40.9767 19.1049L41.1893 18.7795C41.262 18.664 41.3117 18.5534 41.3845 18.4379L41.4834 18.2617C41.5197 18.2039 41.5359 18.1405 41.5722 18.0828L41.7399 17.7221C41.9399 17.2344 42.0849 16.7087 42.1668 16.1765C42.1984 16.7293 42.1111 17.2826 41.9735 17.8217L41.8407 18.215C41.8145 18.2755 41.7955 18.3495 41.7693 18.4102L41.6878 18.6025C41.6326 18.7342 41.5801 18.8555 41.5148 18.9844L41.3142 19.3472C40.7577 20.301 40.0086 21.1214 39.1757 21.8049C38.3428 22.4884 37.4308 23.059 36.4799 23.5281C36.2454 23.6433 36.0108 23.7586 35.7663 23.8711L35.0332 24.1635C34.9136 24.2092 34.7913 24.2655 34.6616 24.3083C34.532 24.3511 34.4123 24.3967 34.2854 24.429C34.0516 24.4993 33.8024 24.5877 33.5483 24.6523Z" fill="#FFA216"/>
</g>
</g>
<g style="mix-blend-mode:soft-light">
<path d="M34.8993 12.2974C40.4142 7.31086 49.7296 19.5731 31.5504 25.4165C18.5902 10.8147 32.4984 5.08443 34.8993 12.2974Z" fill="url(#paint11_linear_4520_19132)"/>
</g>
<g style="mix-blend-mode:soft-light">
<path d="M34.8993 12.2974C32.4984 5.08443 18.5902 10.8147 31.5504 25.4165C49.7296 19.5731 40.4142 7.31086 34.8993 12.2974Z" fill="url(#paint12_linear_4520_19132)"/>
</g>
<mask id="mask3_4520_19132" style="mask-type:alpha" maskUnits="userSpaceOnUse" x="26" y="9" width="17" height="17">
<path d="M34.8951 12.2961C40.41 7.30963 49.7254 19.5718 31.5463 25.4152C18.596 10.8163 32.4942 5.08321 34.8951 12.2961Z" fill="url(#paint13_linear_4520_19132)"/>
</mask>
<g mask="url(#mask3_4520_19132)">
<g filter="url(#filter17_f_4520_19132)">
<path d="M32.6411 9.59985C32.9124 9.72145 33.1653 9.87193 33.4103 10.0542C33.6451 10.2335 33.8719 10.4445 34.0704 10.6817C34.2717 10.9082 34.4419 11.1714 34.5894 11.4395C34.7368 11.7076 34.8588 11.9911 34.9552 12.2902L34.8746 12.2675C35.0977 12.0697 35.3384 11.8881 35.5965 11.7227C35.8519 11.568 36.1248 11.4295 36.4069 11.3388C36.6918 11.2377 36.9786 11.1711 37.2775 11.1419C37.5764 11.1126 37.8672 11.1151 38.16 11.1521C37.5664 11.1098 36.9806 11.2057 36.431 11.4136C36.1562 11.5176 35.8961 11.6484 35.6407 11.8032C35.3954 11.9607 35.1547 12.1424 34.9316 12.3402L34.8751 12.3922L34.861 12.3204C34.762 12.0319 34.6502 11.7511 34.5027 11.4831C34.3653 11.2179 34.1924 10.9653 34.0039 10.7309C33.6371 10.2652 33.1653 9.87193 32.6411 9.59985Z" fill="#820010"/>
</g>
<g filter="url(#filter18_f_4520_19132)">
<path d="M32.6411 9.59985C32.9124 9.72145 33.1653 9.87193 33.4103 10.0542C33.6451 10.2335 33.8719 10.4445 34.0704 10.6817C34.2717 10.9082 34.4419 11.1714 34.5894 11.4395C34.7368 11.7076 34.8588 11.9911 34.9552 12.2902L34.8746 12.2675C35.0977 12.0697 35.3384 11.8881 35.5965 11.7227C35.8519 11.568 36.1248 11.4295 36.4069 11.3388C36.6918 11.2377 36.9786 11.1711 37.2775 11.1419C37.5764 11.1126 37.8672 11.1151 38.16 11.1521C37.5664 11.1098 36.9806 11.2057 36.431 11.4136C36.1562 11.5176 35.8961 11.6484 35.6407 11.8032C35.3954 11.9607 35.1547 12.1424 34.9316 12.3402L34.8751 12.3922L34.861 12.3204C34.762 12.0319 34.6502 11.7511 34.5027 11.4831C34.3653 11.2179 34.1924 10.9653 34.0039 10.7309C33.6371 10.2652 33.1653 9.87193 32.6411 9.59985Z" fill="#820010"/>
</g>
<g filter="url(#filter19_f_4520_19132)">
<path d="M32.6411 9.59985C32.9124 9.72145 33.1653 9.87193 33.4103 10.0542C33.6451 10.2335 33.8719 10.4445 34.0704 10.6817C34.2717 10.9082 34.4419 11.1714 34.5894 11.4395C34.7368 11.7076 34.8588 11.9911 34.9552 12.2902L34.8746 12.2675C35.0977 12.0697 35.3384 11.8881 35.5965 11.7227C35.8519 11.568 36.1248 11.4295 36.4069 11.3388C36.6918 11.2377 36.9786 11.1711 37.2775 11.1419C37.5764 11.1126 37.8672 11.1151 38.16 11.1521C37.5664 11.1098 36.9806 11.2057 36.431 11.4136C36.1562 11.5176 35.8961 11.6484 35.6407 11.8032C35.3954 11.9607 35.1547 12.1424 34.9316 12.3402L34.8751 12.3922L34.861 12.3204C34.762 12.0319 34.6502 11.7511 34.5027 11.4831C34.3653 11.2179 34.1924 10.9653 34.0039 10.7309C33.6371 10.2652 33.1653 9.87193 32.6411 9.59985Z" fill="#820010"/>
</g>
</g>
<path d="M34.8753 31.2477V31.2526C34.8753 33.0961 33.1058 35.4315 30.3726 37.0236C28.3258 38.214 26.0256 38.842 23.6857 38.8492C22.8921 38.8488 22.1001 38.775 21.3188 38.6285C16.2736 37.6894 12.4971 33.9458 12.4971 31.2526C12.5283 29.748 13.9172 29.1816 15.1877 30.1853C16.8748 31.514 20.4062 32.8218 23.6867 32.8218C26.9671 32.8218 30.5032 31.514 32.1865 30.1853C33.458 29.1826 34.8403 29.747 34.8753 31.2477Z" fill="url(#paint14_radial_4520_19132)"/>
<path d="M34.8753 31.2536C34.8753 34.3552 29.8661 38.8491 23.6857 38.8491C17.5054 38.8491 12.4971 34.3552 12.4971 31.2536M34.8753 31.2536C34.845 29.749 33.4599 29.1815 32.1856 30.1853C30.5023 31.515 26.9652 32.8218 23.6857 32.8218C20.4062 32.8218 16.8739 31.515 15.1868 30.1853C13.9125 29.1815 12.5274 29.749 12.4971 31.2536M34.8753 31.2536C34.8753 31.2337 34.8762 31.2735 34.8753 31.2536ZM12.4971 31.2536C12.4971 31.2337 12.4971 31.2735 12.4971 31.2536Z" stroke="url(#paint15_linear_4520_19132)" stroke-width="0.189349" stroke-miterlimit="10"/>
<mask id="mask4_4520_19132" style="mask-type:alpha" maskUnits="userSpaceOnUse" x="12" y="29" width="23" height="10">
<path d="M34.8753 31.2477V31.2526C34.8753 33.0961 33.1058 35.4315 30.3726 37.0236C28.3258 38.214 26.0256 38.842 23.6857 38.8492C22.8921 38.8488 22.1001 38.775 21.3188 38.6285C16.2736 37.6894 12.4971 33.9458 12.4971 31.2526C12.5283 29.748 13.9172 29.1816 15.1877 30.1853C16.8748 31.514 20.4062 32.8218 23.6867 32.8218C26.9671 32.8218 30.5032 31.514 32.1865 30.1853C33.458 29.1826 34.8403 29.747 34.8753 31.2477Z" fill="url(#paint16_radial_4520_19132)"/>
</mask>
<g mask="url(#mask4_4520_19132)">
<g filter="url(#filter20_f_4520_19132)">
<path d="M23.6658 34.4845C29.7312 34.4845 34.6481 32.2154 34.6481 29.4162C34.6481 26.6171 29.7312 24.3479 23.6658 24.3479C17.6005 24.3479 12.6836 26.6171 12.6836 29.4162C12.6836 32.2154 17.6005 34.4845 23.6658 34.4845Z" fill="#371600"/>
</g>
</g>
</g>
<defs>
<filter id="filter0_f_4520_19132" x="0.0177689" y="4.50166" width="47.9064" height="27.5904" filterUnits="userSpaceOnUse" color-interpolation-filters="sRGB">
<feFlood flood-opacity="0" result="BackgroundImageFix"/>
<feBlend mode="normal" in="SourceGraphic" in2="BackgroundImageFix" result="shape"/>
<feGaussianBlur stdDeviation="2.84024" result="effect1_foregroundBlur_4520_19132"/>
</filter>
<filter id="filter1_f_4520_19132" x="1.91126" y="6.39515" width="44.1194" height="23.8035" filterUnits="userSpaceOnUse" color-interpolation-filters="sRGB">
<feFlood flood-opacity="0" result="BackgroundImageFix"/>
<feBlend mode="normal" in="SourceGraphic" in2="BackgroundImageFix" result="shape"/>
<feGaussianBlur stdDeviation="1.89349" result="effect1_foregroundBlur_4520_19132"/>
</filter>
<filter id="filter2_f_4520_19132" x="4.87091" y="8.2779" width="18.5301" height="11.9474" filterUnits="userSpaceOnUse" color-interpolation-filters="sRGB">
<feFlood flood-opacity="0" result="BackgroundImageFix"/>
<feBlend mode="normal" in="SourceGraphic" in2="BackgroundImageFix" result="shape"/>
<feGaussianBlur stdDeviation="0.946746" result="effect1_foregroundBlur_4520_19132"/>
</filter>
<filter id="filter3_f_4520_19132" x="4.85208" y="15.2115" width="10.5283" height="10.3769" filterUnits="userSpaceOnUse" color-interpolation-filters="sRGB">
<feFlood flood-opacity="0" result="BackgroundImageFix"/>
<feBlend mode="normal" in="SourceGraphic" in2="BackgroundImageFix" result="shape"/>
<feGaussianBlur stdDeviation="0.473373" result="effect1_foregroundBlur_4520_19132"/>
</filter>
<filter id="filter4_f_4520_19132" x="3.97467" y="6.76032" width="19.6949" height="11.7416" filterUnits="userSpaceOnUse" color-interpolation-filters="sRGB">
<feFlood flood-opacity="0" result="BackgroundImageFix"/>
<feBlend mode="normal" in="SourceGraphic" in2="BackgroundImageFix" result="shape"/>
<feGaussianBlur stdDeviation="0.946746" result="effect1_foregroundBlur_4520_19132"/>
</filter>
<filter id="filter5_f_4520_19132" x="3.97467" y="6.76032" width="19.6949" height="11.7416" filterUnits="userSpaceOnUse" color-interpolation-filters="sRGB">
<feFlood flood-opacity="0" result="BackgroundImageFix"/>
<feBlend mode="normal" in="SourceGraphic" in2="BackgroundImageFix" result="shape"/>
<feGaussianBlur stdDeviation="0.946746" result="effect1_foregroundBlur_4520_19132"/>
</filter>
<filter id="filter6_f_4520_19132" x="2.67469" y="6.46937" width="22.3171" height="15.7344" filterUnits="userSpaceOnUse" color-interpolation-filters="sRGB">
<feFlood flood-opacity="0" result="BackgroundImageFix"/>
<feBlend mode="normal" in="SourceGraphic" in2="BackgroundImageFix" result="shape"/>
<feGaussianBlur stdDeviation="1.89349" result="effect1_foregroundBlur_4520_19132"/>
</filter>
<filter id="filter7_f_4520_19132" x="16.8106" y="10.8965" width="6.09295" height="13.757" filterUnits="userSpaceOnUse" color-interpolation-filters="sRGB">
<feFlood flood-opacity="0" result="BackgroundImageFix"/>
<feBlend mode="normal" in="SourceGraphic" in2="BackgroundImageFix" result="shape"/>
<feGaussianBlur stdDeviation="0.473373" result="effect1_foregroundBlur_4520_19132"/>
</filter>
<filter id="filter8_f_4520_19132" x="9.23493" y="9.02668" width="6.65489" height="3.93419" filterUnits="userSpaceOnUse" color-interpolation-filters="sRGB">
<feFlood flood-opacity="0" result="BackgroundImageFix"/>
<feBlend mode="normal" in="SourceGraphic" in2="BackgroundImageFix" result="shape"/>
<feGaussianBlur stdDeviation="0.284024" result="effect1_foregroundBlur_4520_19132"/>
</filter>
<filter id="filter9_f_4520_19132" x="9.42428" y="9.21603" width="6.2762" height="3.55549" filterUnits="userSpaceOnUse" color-interpolation-filters="sRGB">
<feFlood flood-opacity="0" result="BackgroundImageFix"/>
<feBlend mode="normal" in="SourceGraphic" in2="BackgroundImageFix" result="shape"/>
<feGaussianBlur stdDeviation="0.189349" result="effect1_foregroundBlur_4520_19132"/>
</filter>
<filter id="filter10_f_4520_19132" x="9.04558" y="8.83733" width="7.03359" height="4.31289" filterUnits="userSpaceOnUse" color-interpolation-filters="sRGB">
<feFlood flood-opacity="0" result="BackgroundImageFix"/>
<feBlend mode="normal" in="SourceGraphic" in2="BackgroundImageFix" result="shape"/>
<feGaussianBlur stdDeviation="0.378698" result="effect1_foregroundBlur_4520_19132"/>
</filter>
<filter id="filter11_f_4520_19132" x="25.0887" y="8.44269" width="18.5358" height="11.9261" filterUnits="userSpaceOnUse" color-interpolation-filters="sRGB">
<feFlood flood-opacity="0" result="BackgroundImageFix"/>
<feBlend mode="normal" in="SourceGraphic" in2="BackgroundImageFix" result="shape"/>
<feGaussianBlur stdDeviation="0.946746" result="effect1_foregroundBlur_4520_19132"/>
</filter>
<filter id="filter12_f_4520_19132" x="25.0716" y="10.8938" width="6.10028" height="13.7704" filterUnits="userSpaceOnUse" color-interpolation-filters="sRGB">
<feFlood flood-opacity="0" result="BackgroundImageFix"/>
<feBlend mode="normal" in="SourceGraphic" in2="BackgroundImageFix" result="shape"/>
<feGaussianBlur stdDeviation="0.473373" result="effect1_foregroundBlur_4520_19132"/>
</filter>
<filter id="filter13_f_4520_19132" x="24.8668" y="6.92365" width="19.6947" height="11.7445" filterUnits="userSpaceOnUse" color-interpolation-filters="sRGB">
<feFlood flood-opacity="0" result="BackgroundImageFix"/>
<feBlend mode="normal" in="SourceGraphic" in2="BackgroundImageFix" result="shape"/>
<feGaussianBlur stdDeviation="0.946746" result="effect1_foregroundBlur_4520_19132"/>
</filter>
<filter id="filter14_f_4520_19132" x="24.8668" y="6.92365" width="19.6947" height="11.7445" filterUnits="userSpaceOnUse" color-interpolation-filters="sRGB">
<feFlood flood-opacity="0" result="BackgroundImageFix"/>
<feBlend mode="normal" in="SourceGraphic" in2="BackgroundImageFix" result="shape"/>
<feGaussianBlur stdDeviation="0.946746" result="effect1_foregroundBlur_4520_19132"/>
</filter>
<filter id="filter15_f_4520_19132" x="22.8934" y="6.46424" width="22.3227" height="15.7131" filterUnits="userSpaceOnUse" color-interpolation-filters="sRGB">
<feFlood flood-opacity="0" result="BackgroundImageFix"/>
<feBlend mode="normal" in="SourceGraphic" in2="BackgroundImageFix" result="shape"/>
<feGaussianBlur stdDeviation="1.89349" result="effect1_foregroundBlur_4520_19132"/>
</filter>
<filter id="filter16_f_4520_19132" x="32.6016" y="15.2298" width="10.5185" height="10.3693" filterUnits="userSpaceOnUse" color-interpolation-filters="sRGB">
<feFlood flood-opacity="0" result="BackgroundImageFix"/>
<feBlend mode="normal" in="SourceGraphic" in2="BackgroundImageFix" result="shape"/>
<feGaussianBlur stdDeviation="0.473373" result="effect1_foregroundBlur_4520_19132"/>
</filter>
<filter id="filter17_f_4520_19132" x="32.0731" y="9.03181" width="6.65489" height="3.92858" filterUnits="userSpaceOnUse" color-interpolation-filters="sRGB">
<feFlood flood-opacity="0" result="BackgroundImageFix"/>
<feBlend mode="normal" in="SourceGraphic" in2="BackgroundImageFix" result="shape"/>
<feGaussianBlur stdDeviation="0.284024" result="effect1_foregroundBlur_4520_19132"/>
</filter>
<filter id="filter18_f_4520_19132" x="32.2624" y="9.22116" width="6.2762" height="3.54988" filterUnits="userSpaceOnUse" color-interpolation-filters="sRGB">
<feFlood flood-opacity="0" result="BackgroundImageFix"/>
<feBlend mode="normal" in="SourceGraphic" in2="BackgroundImageFix" result="shape"/>
<feGaussianBlur stdDeviation="0.189349" result="effect1_foregroundBlur_4520_19132"/>
</filter>
<filter id="filter19_f_4520_19132" x="31.8837" y="8.84246" width="7.03359" height="4.30727" filterUnits="userSpaceOnUse" color-interpolation-filters="sRGB">
<feFlood flood-opacity="0" result="BackgroundImageFix"/>
<feBlend mode="normal" in="SourceGraphic" in2="BackgroundImageFix" result="shape"/>
<feGaussianBlur stdDeviation="0.378698" result="effect1_foregroundBlur_4520_19132"/>
</filter>
<filter id="filter20_f_4520_19132" x="8.89661" y="20.5609" width="29.5386" height="17.7107" filterUnits="userSpaceOnUse" color-interpolation-filters="sRGB">
<feFlood flood-opacity="0" result="BackgroundImageFix"/>
<feBlend mode="normal" in="SourceGraphic" in2="BackgroundImageFix" result="shape"/>
<feGaussianBlur stdDeviation="1.89349" result="effect1_foregroundBlur_4520_19132"/>
</filter>
<radialGradient id="paint0_radial_4520_19132" cx="0" cy="0" r="1" gradientUnits="userSpaceOnUse" gradientTransform="translate(23.9818) rotate(90) scale(47.9642)">
<stop stop-color="#FFDE43"/>
<stop offset="1" stop-color="#FFBC00"/>
</radialGradient>
<radialGradient id="paint1_radial_4520_19132" cx="0" cy="0" r="1" gradientUnits="userSpaceOnUse" gradientTransform="translate(23.9823 6.41844) rotate(90) scale(41.5457)">
<stop stop-color="white" stop-opacity="0.5"/>
<stop offset="0.782278"/>
</radialGradient>
<radialGradient id="paint2_radial_4520_19132" cx="0" cy="0" r="1" gradientUnits="userSpaceOnUse" gradientTransform="translate(23.9823 6.41844) rotate(90) scale(41.5457)">
<stop stop-color="white" stop-opacity="0.5"/>
<stop offset="0.782278"/>
</radialGradient>
<radialGradient id="paint3_radial_4520_19132" cx="0" cy="0" r="1" gradientUnits="userSpaceOnUse" gradientTransform="translate(23.953 -5.21739) rotate(90) scale(53.118 68.4341)">
<stop offset="0.0922635" stop-color="white"/>
<stop offset="0.670207" stop-color="white" stop-opacity="0"/>
</radialGradient>
<linearGradient id="paint4_linear_4520_19132" x1="12.5359" y1="10.315" x2="16.7547" y2="25.3144" gradientUnits="userSpaceOnUse">
<stop stop-color="#FF0000"/>
<stop offset="1" stop-color="#610003"/>
</linearGradient>
<linearGradient id="paint5_linear_4520_19132" x1="12.5359" y1="10.315" x2="16.7547" y2="25.3144" gradientUnits="userSpaceOnUse">
<stop stop-color="#FF0000"/>
<stop offset="1" stop-color="#610003"/>
</linearGradient>
<linearGradient id="paint6_linear_4520_19132" x1="22.3491" y1="15.648" x2="6.48193" y2="19.6983" gradientUnits="userSpaceOnUse">
<stop stop-color="#FF8F00"/>
<stop offset="0.0143476" stop-color="#FF9001" stop-opacity="0.9857"/>
<stop offset="0.2987" stop-color="#FF9912" stop-opacity="0.7013"/>
<stop offset="0.6103" stop-color="#FF9F1C" stop-opacity="0.3897"/>
<stop offset="1" stop-color="#FFA11F" stop-opacity="0"/>
</linearGradient>
<linearGradient id="paint7_linear_4520_19132" x1="6.58445" y1="20.082" x2="22.4516" y2="16.0316" gradientUnits="userSpaceOnUse">
<stop stop-color="#FF8F00"/>
<stop offset="0.0143476" stop-color="#FF9001" stop-opacity="0.9857"/>
<stop offset="0.2987" stop-color="#FF9912" stop-opacity="0.7013"/>
<stop offset="0.6103" stop-color="#FF9F1C" stop-opacity="0.3897"/>
<stop offset="1" stop-color="#FFA11F" stop-opacity="0"/>
</linearGradient>
<linearGradient id="paint8_linear_4520_19132" x1="12.5359" y1="10.315" x2="16.7547" y2="25.3144" gradientUnits="userSpaceOnUse">
<stop stop-color="#FF0000"/>
<stop offset="1" stop-color="#610003"/>
</linearGradient>
<linearGradient id="paint9_linear_4520_19132" x1="35.4038" y1="10.3141" x2="31.185" y2="25.3135" gradientUnits="userSpaceOnUse">
<stop stop-color="#FF0000"/>
<stop offset="1" stop-color="#610003"/>
</linearGradient>
<linearGradient id="paint10_linear_4520_19132" x1="35.4047" y1="10.3141" x2="31.1861" y2="25.3135" gradientUnits="userSpaceOnUse">
<stop stop-color="#FF0000"/>
<stop offset="1" stop-color="#610003"/>
</linearGradient>
<linearGradient id="paint11_linear_4520_19132" x1="41.3623" y1="20.0828" x2="25.4952" y2="16.0325" gradientUnits="userSpaceOnUse">
<stop stop-color="#FF8F00"/>
<stop offset="0.0143476" stop-color="#FF9001" stop-opacity="0.9857"/>
<stop offset="0.2987" stop-color="#FF9912" stop-opacity="0.7013"/>
<stop offset="0.6103" stop-color="#FF9F1C" stop-opacity="0.3897"/>
<stop offset="1" stop-color="#FFA11F" stop-opacity="0"/>
</linearGradient>
<linearGradient id="paint12_linear_4520_19132" x1="25.5977" y1="15.6488" x2="41.4648" y2="19.6991" gradientUnits="userSpaceOnUse">
<stop stop-color="#FF8F00"/>
<stop offset="0.0143476" stop-color="#FF9001" stop-opacity="0.9857"/>
<stop offset="0.2987" stop-color="#FF9912" stop-opacity="0.7013"/>
<stop offset="0.6103" stop-color="#FF9F1C" stop-opacity="0.3897"/>
<stop offset="1" stop-color="#FFA11F" stop-opacity="0"/>
</linearGradient>
<linearGradient id="paint13_linear_4520_19132" x1="35.4045" y1="10.3141" x2="31.1857" y2="25.3135" gradientUnits="userSpaceOnUse">
<stop stop-color="#FF0000"/>
<stop offset="1" stop-color="#610003"/>
</linearGradient>
<radialGradient id="paint14_radial_4520_19132" cx="0" cy="0" r="1" gradientUnits="userSpaceOnUse" gradientTransform="translate(23.6707 34.2621) scale(14.2634 4.59195)">
<stop stop-color="#743C1C"/>
<stop offset="1" stop-color="#401C02"/>
</radialGradient>
<linearGradient id="paint15_linear_4520_19132" x1="23.6864" y1="39.1071" x2="23.6864" y2="29.3864" gradientUnits="userSpaceOnUse">
<stop offset="0.265625" stop-color="#FFDE43"/>
<stop offset="1" stop-color="#F79D14"/>
</linearGradient>
<radialGradient id="paint16_radial_4520_19132" cx="0" cy="0" r="1" gradientUnits="userSpaceOnUse" gradientTransform="translate(23.6707 34.2621) scale(14.2634 4.59195)">
<stop stop-color="#743C1C"/>
<stop offset="1" stop-color="#401C02"/>
</radialGradient>
<clipPath id="clip0_4520_19132">
<rect width="48" height="48" fill="white"/>
</clipPath>
</defs>
</svg>
