<svg width="176" height="176" viewBox="0 0 176 176" fill="none" xmlns="http://www.w3.org/2000/svg">
<mask id="mask0_295_34663" style="mask-type:alpha" maskUnits="userSpaceOnUse" x="0" y="0" width="176" height="176">
<path fill-rule="evenodd" clip-rule="evenodd" d="M85.3266 0.0290198L81.6347 0.107326L81.4724 4.67671C80.5711 30.0545 69.0116 50.3709 45.205 68.4191C41.7686 71.0241 38.0229 73.693 36.1287 74.8862C35.3981 75.3462 34.796 75.7873 34.7903 75.8667C34.7844 75.9459 37.283 77.2602 40.3421 78.7869C61.0779 89.1357 72.0456 98.1125 84.5103 114.938C86.37 117.448 87.9548 119.502 88.0323 119.503C88.1098 119.504 89.6313 117.524 91.4134 115.103C96.5291 108.153 101.414 102.603 106.379 98.099L108.525 96.1529L112.653 98.8948L116.781 101.637L114.875 103.297C109.664 107.834 103.098 115.136 99.1905 120.739C95.3011 126.316 91.3475 133.46 89.1459 138.889C88.6274 140.167 88.1186 141.213 88.0152 141.213C87.9117 141.213 87.6029 140.61 87.3288 139.875C86.3885 137.351 83.0646 130.649 81.1473 127.41C74.4048 116.022 65.4417 106.291 54.7848 98.7886C39.7073 88.1738 22.8747 82.6208 2.9093 81.6749L0.201032 81.5468L0.0587467 84.5497C-0.0195822 86.2015 -0.0195822 89.1059 0.0587467 91.0035L0.201032 94.4541H2.64924C5.99062 94.4541 10.5081 94.9268 15.0568 95.7524C48.8166 101.88 74.6372 127.97 80.3992 161.775C80.9703 165.127 81.5195 170.594 81.6296 174.028L81.6928 176H88.0323H94.3719L94.435 174.028C94.9188 158.944 99.2252 144.598 107.085 131.889C112.466 123.187 118.644 116.483 127.479 109.76C130.524 107.442 137.585 102.505 139.936 101.05C140.667 100.598 141.268 100.165 141.272 100.088C141.276 100.01 138.46 98.5266 135.013 96.7906C122.171 90.3227 115.765 86.1471 107.615 78.9311C101.777 73.7623 97.0007 68.4338 91.4134 60.8544C89.6313 58.4367 88.1098 56.4588 88.0323 56.4588C87.9548 56.4588 86.4333 58.4367 84.6512 60.8544C79.5283 67.8037 74.1687 73.8769 69.3996 78.1365L67.5315 79.8049L63.4827 77.0965C61.2557 75.607 59.4544 74.3276 59.4794 74.2532C59.5042 74.1792 61.0998 72.6877 63.0245 70.939C72.6908 62.158 81.2036 50.2461 86.3418 38.3114C87.1879 36.3461 87.9543 34.7383 88.0453 34.7383C88.136 34.7383 88.5065 35.467 88.8686 36.3579C92.0899 44.2869 97.2698 53.0347 102.92 60.0893C105.81 63.6965 112.858 70.7075 116.49 73.5874C129.167 83.6382 143.571 90.1019 159.458 92.8688C164.649 93.7727 175.939 94.6896 175.942 94.2074C175.943 94.1107 175.961 92.5105 175.984 90.6514C176.006 88.7924 176.005 85.9722 175.983 84.3841L175.941 81.4969H173.435C170.011 81.4969 165.872 81.0611 161.008 80.1885C153.219 78.7911 146.855 76.6867 139.453 73.0612C117.013 62.0701 101.154 41.4546 96.1036 16.7097C95.1879 12.2226 94.5136 6.35073 94.5131 2.85764L94.5128 0.130424L91.7656 0.0408524C90.2548 -0.008723 87.3572 -0.0137953 85.3266 0.0290198ZM85.9191 79.5558C84.8344 80.8011 82.5262 83.2002 80.7897 84.8872L77.6329 87.9541L81.3766 91.697C83.4357 93.7555 85.7757 96.1791 86.5765 97.0824L88.0323 98.7246L89.4882 97.0824C90.2889 96.1791 92.6334 93.7513 94.6979 91.6874L98.4518 87.9346L96.0239 85.6373C94.6886 84.3737 92.3818 82.0062 90.8978 80.3761C89.4138 78.7463 88.1301 77.3855 88.0456 77.3523C87.9608 77.319 87.0039 78.3105 85.9191 79.5558Z" fill="white"/>
</mask>
<g mask="url(#mask0_295_34663)">
<g filter="url(#filter0_f_295_34663)">
<ellipse cx="121.44" cy="94.5998" rx="78.32" ry="78.76" fill="#D9D7FF"/>
</g>
<g filter="url(#filter1_f_295_34663)">
<ellipse cx="77.4401" cy="3.9602" rx="78.32" ry="78.76" fill="#CC81F4"/>
</g>
<g filter="url(#filter2_f_295_34663)">
<ellipse cx="23.7599" cy="77.0002" rx="78.32" ry="78.76" fill="#F8C3F9"/>
</g>
<g filter="url(#filter3_f_295_34663)">
<ellipse cx="67.7599" cy="181.72" rx="78.32" ry="78.76" fill="#AEA5FF"/>
</g>
</g>
<defs>
<filter id="filter0_f_295_34663" x="-12.8799" y="-40.1602" width="268.64" height="269.52" filterUnits="userSpaceOnUse" color-interpolation-filters="sRGB">
<feFlood flood-opacity="0" result="BackgroundImageFix"/>
<feBlend mode="normal" in="SourceGraphic" in2="BackgroundImageFix" result="shape"/>
<feGaussianBlur stdDeviation="28" result="effect1_foregroundBlur_295_34663"/>
</filter>
<filter id="filter1_f_295_34663" x="-56.8799" y="-130.8" width="268.64" height="269.52" filterUnits="userSpaceOnUse" color-interpolation-filters="sRGB">
<feFlood flood-opacity="0" result="BackgroundImageFix"/>
<feBlend mode="normal" in="SourceGraphic" in2="BackgroundImageFix" result="shape"/>
<feGaussianBlur stdDeviation="28" result="effect1_foregroundBlur_295_34663"/>
</filter>
<filter id="filter2_f_295_34663" x="-110.56" y="-57.7598" width="268.64" height="269.52" filterUnits="userSpaceOnUse" color-interpolation-filters="sRGB">
<feFlood flood-opacity="0" result="BackgroundImageFix"/>
<feBlend mode="normal" in="SourceGraphic" in2="BackgroundImageFix" result="shape"/>
<feGaussianBlur stdDeviation="28" result="effect1_foregroundBlur_295_34663"/>
</filter>
<filter id="filter3_f_295_34663" x="-66.5601" y="46.96" width="268.64" height="269.52" filterUnits="userSpaceOnUse" color-interpolation-filters="sRGB">
<feFlood flood-opacity="0" result="BackgroundImageFix"/>
<feBlend mode="normal" in="SourceGraphic" in2="BackgroundImageFix" result="shape"/>
<feGaussianBlur stdDeviation="28" result="effect1_foregroundBlur_295_34663"/>
</filter>
</defs>
</svg>
