<svg width="176" height="176" viewBox="0 0 176 176" fill="none" xmlns="http://www.w3.org/2000/svg">
<mask id="mask0_295_35189" style="mask-type:alpha" maskUnits="userSpaceOnUse" x="14" y="0" width="141" height="176">
<path fill-rule="evenodd" clip-rule="evenodd" d="M115.67 1.41375C111.957 7.25767 104.177 9.9713 97.6716 7.6912C95.6305 6.9757 95.5958 7.04646 97.4189 8.20483C99.3168 9.41061 102.131 12.3329 102.997 13.9978C105.011 17.8662 105.247 22.5768 103.66 27.2308C103.546 27.5641 103.934 27.1072 104.522 26.2154C105.939 24.0642 108.721 21.6476 110.975 20.6092C113.808 19.304 117.671 18.8503 120.536 19.4868C121.829 19.7738 123.211 20.1355 123.609 20.2899C124.007 20.4447 123.576 20.06 122.653 19.4358C120.161 17.7516 118.084 15.3339 116.817 12.6422C115.307 9.43539 115.031 5.17045 116.133 2.06531C116.536 0.929208 116.799 0 116.718 0C116.636 0 116.164 0.636116 115.67 1.41375ZM77.6633 6.14276C76.4797 7.44228 75.0029 7.99758 73.2514 7.80111L71.6372 7.62044L72.5815 8.38981C73.8428 9.4178 74.7242 11.6275 74.4429 13.0578C74.2213 14.1856 74.222 14.1863 74.8742 13.4184C75.9974 12.0959 77.8176 11.3926 79.4462 11.6512L80.9057 11.8832L79.9827 11.162C78.7518 10.1997 78.1303 8.60245 78.2999 6.83599C78.3765 6.03932 78.4192 5.38776 78.395 5.38776C78.3711 5.38776 78.0418 5.72754 77.6633 6.14276ZM129.696 25.1044C127.176 30.3654 126.84 30.8905 125.99 30.8977C124.481 30.9103 122.148 32.1541 121.194 33.4547C120.707 34.1185 119.704 36.2115 118.966 38.1065C114.27 50.1564 104.911 60.3691 93.242 66.1756C86.1444 69.7075 80.606 71.173 74.0817 71.2455C69.6749 71.2947 69.2469 71.3637 67.213 72.3497C63.7085 74.049 61.4089 76.6857 59.1115 81.6392L57.1553 85.8557L55.8579 85.5809C53.4975 85.0813 50.318 85.3086 48.5314 86.105C45.1816 87.5984 43.9185 89.2018 40.6031 96.1696L37.5689 102.547L37.4 103.4C37.4 106.119 37.6875 108.866 38.6505 110.594C39.2456 111.661 40.4845 113.178 41.4038 113.965L43.0755 115.396L40.8225 120.106C39.5832 122.697 37.635 126.756 36.493 129.127C35.351 131.497 33.5564 135.296 32.5055 137.567C30.5252 141.847 28.701 145.708 25.4622 152.473C21.7715 160.182 14.52 175.66 14.52 176C14.52 176 22.0445 176 22.44 176C22.5705 176 28.1616 162.944 30.3151 158.4C32.4686 153.856 34.3395 150.139 34.4722 150.139C34.6052 150.139 42.8394 153.95 52.7709 158.608C62.7024 163.266 71.8595 167.559 73.1201 168.148C74.3804 168.737 77.7967 170.354 80.7119 171.741C83.6268 173.127 86.9422 174.653 88.0795 175.131L90.1474 176H108.936C123.573 176 127.787 175.901 128.009 175.551C128.396 174.942 134.565 162.129 135.229 160.555L135.759 159.298L138.36 159.275C141.439 159.248 143.559 158.431 145.824 156.398C146.994 155.348 147.958 153.768 150.011 149.541C152.871 143.652 153.795 141.078 153.795 139.004C153.795 136.99 152.84 134.253 151.54 132.544C150.891 131.692 150.214 130.8 150.034 130.561C149.819 130.276 150.399 128.66 151.724 125.855C154.24 120.531 154.675 118.853 154.417 115.473C154.138 111.798 152.636 108.771 149.649 105.859C146.94 103.217 145.307 100.196 143.306 94.1194C141.357 88.2058 140.664 83.8317 140.657 77.4041C140.646 67.431 142.856 59.7387 148.798 49.0771C149.864 47.1626 150.053 44.6304 149.288 42.4947L148.669 40.7673L151.775 34.1972C153.483 30.5838 154.88 27.3436 154.88 26.997C154.88 25.7897 152.396 20.3197 151.736 20.073C151.377 19.939 147.14 19.8083 142.321 19.782C137.501 19.7562 133.312 19.6412 133.012 19.527C132.597 19.369 131.802 20.7055 129.696 25.1044ZM90.561 21.9792C89.8857 22.7783 88.667 23.7327 87.8532 24.1001C86.2268 24.834 83.5183 24.9848 82.034 24.4241C81.2708 24.1357 81.4396 24.4105 82.8868 25.8109C85.04 27.8946 85.656 29.6743 85.3292 32.8653L85.1083 35.0204L85.7485 34.0589C87.6616 31.1872 91.5327 29.9505 95.0658 31.0823C95.4642 31.2098 95.158 30.7917 94.3645 30.1247C91.8848 28.0397 90.6517 24.2485 91.6253 21.704C92.1665 20.2899 91.9387 20.3488 90.561 21.9792ZM133.201 27.882C132.2 29.9897 131.382 31.824 131.382 31.958C131.382 32.0923 134.35 33.5804 137.979 35.2654L144.576 38.3285L145.13 37.3928C145.434 36.8781 146.69 34.3254 147.921 31.7202C150.108 27.0893 150.147 26.9524 149.681 25.6141L149.204 24.2449L142.112 24.1476L135.02 24.0502L133.201 27.882ZM125.994 37.0857C124.451 41.0913 120.946 47.9327 118.755 51.2131C110.295 63.8833 98.6571 71.6977 82.2158 75.7472L80.9505 76.0589L83.4753 77.2223C85.9889 78.3803 86.0117 78.3836 88.5365 77.9324C92.2529 77.2687 99.1545 74.9236 102.946 73.0357C114.15 67.4583 122.662 59.0035 128.3 47.8519C129.172 46.1285 130.304 43.5869 130.817 42.2041C131.4 40.6291 131.56 40.04 132.826 38.7692L133.904 37.8486L130.635 36.3447C128.838 35.5175 127.253 34.8408 127.113 34.8408C126.973 34.8408 126.47 35.8512 125.994 37.0857ZM70.7826 78.3143C68.043 79.149 67.3525 80.3214 58.1958 99.6864C50.6969 115.546 46.8507 123.649 43.826 129.962C43.3611 130.932 43.2092 131.642 43.4218 131.853C43.6087 132.038 51.7225 135.919 61.4523 140.475C83.9326 151.003 83.6933 150.891 86.9155 152.412C88.4067 153.116 97.1915 157.242 106.437 161.58L123.248 169.469L124.488 166.898C136.628 141.721 147.389 118.652 147.55 117.457C147.811 115.526 147.073 113.397 145.569 111.738C144.392 110.44 142.261 109.33 129.213 103.218C120.961 99.3524 112.502 95.3823 110.414 94.3953C80.6584 80.326 75.8683 78.1857 73.901 78.0783C72.8074 78.0186 71.404 78.125 70.7826 78.3143ZM75.8011 96.7102C75.0867 97.6074 73.4701 101.606 73.683 101.949C74.0369 102.517 78.6936 104.564 79.1972 104.372C79.7937 104.145 81.8543 100.094 81.8543 99.1484C81.8543 98.6028 81.2614 98.1563 79.4546 97.3424C76.7837 96.1391 76.3195 96.059 75.8011 96.7102ZM66.7228 99.611C66.1454 100.302 64.5016 104.089 64.5016 104.728C64.5016 105.333 68.5726 107.395 69.77 107.396C70.3412 107.396 70.792 106.818 71.6679 104.964C72.2995 103.626 72.8164 102.329 72.8164 102.081C72.8164 101.834 71.5761 101.069 70.0599 100.383C66.8493 98.9289 67.2209 99.0151 66.7228 99.611ZM83.5335 99.9809C82.8936 100.483 81.1313 104.18 81.1313 105.02C81.1313 105.712 85.9495 108.184 86.7228 107.889C86.9798 107.791 87.7235 106.562 88.3749 105.158L89.5592 102.605L88.5853 101.833C86.939 100.529 84.142 99.5032 83.5335 99.9809ZM85.6592 111.329C84.9633 112.702 84.4821 114.054 84.5899 114.333C84.8346 114.967 89.7027 117.201 90.189 116.902C90.754 116.555 92.6997 112.524 92.6997 111.701C92.6997 111.141 92.1404 110.694 90.4402 109.895C89.1977 109.311 87.8981 108.833 87.5528 108.833C87.1378 108.833 86.495 109.68 85.6592 111.329ZM116.026 118.153C115.33 119.527 114.851 120.884 114.962 121.17C115.272 121.973 120.15 124.026 120.691 123.581C121.36 123.029 123.067 119.401 123.067 118.531C123.067 117.939 122.539 117.529 120.725 116.712C119.437 116.132 118.138 115.657 117.838 115.657C117.524 115.657 116.752 116.722 116.026 118.153ZM108.352 118.832C107.841 119.156 105.714 123.402 105.714 124.099C105.714 124.717 110.661 127.147 111.388 126.885C111.864 126.715 114.029 122.338 114.029 121.55C114.029 120.772 109.05 118.389 108.352 118.832ZM124.981 119.191C124.479 119.509 122.344 123.756 122.344 124.437C122.344 125.057 126.357 127.151 127.545 127.151C128.157 127.151 128.596 126.624 129.496 124.81C130.135 123.522 130.659 122.231 130.659 121.942C130.659 121.139 125.699 118.736 124.981 119.191ZM80.0395 128.243C79.4332 129.436 79.0356 130.57 79.156 130.764C79.4593 131.251 82.7906 132.898 83.4735 132.898C84.0031 132.898 85.8309 129.42 85.8309 128.412C85.8309 128.042 82.0708 126.073 81.3623 126.073C81.2412 126.073 80.6457 127.05 80.0395 128.243ZM128.568 128.134C127.944 128.353 125.959 132.311 125.959 133.337C125.959 134 126.438 134.374 128.488 135.312C129.879 135.948 131.242 136.383 131.518 136.278C132.166 136.03 134.397 131.231 134.092 130.74C133.721 130.144 129.08 127.954 128.568 128.134ZM83.7269 134.077C83.3755 134.498 81.8543 137.791 81.8543 138.131C81.8543 138.472 86.2543 140.445 86.5753 140.248C87.0539 139.954 88.723 136.645 88.723 135.989C88.723 135.701 87.8088 135.049 86.691 134.541C84.3495 133.476 84.2435 133.459 83.7269 134.077ZM96.522 135.994C96.0104 137.105 95.5918 138.153 95.5918 138.323C95.5918 138.738 99.0099 140.441 99.8425 140.441C100.284 140.441 100.827 139.782 101.482 138.457C102.02 137.367 102.461 136.314 102.461 136.118C102.461 135.741 98.7218 133.976 97.9232 133.976C97.6644 133.976 97.0339 134.884 96.522 135.994ZM88.9533 138.6C88.4288 139.761 88 140.809 88 140.93C88 141.322 92.3566 143.345 92.721 143.122C93.1997 142.828 94.8688 139.518 94.8688 138.863C94.8688 138.364 91.3042 136.49 90.3556 136.49C90.1084 136.49 89.4775 137.439 88.9533 138.6Z" fill="white"/>
</mask>
<g mask="url(#mask0_295_35189)">
<g filter="url(#filter0_f_295_35189)">
<ellipse cx="121.44" cy="94.5998" rx="78.32" ry="78.76" fill="#D9D7FF"/>
</g>
<g filter="url(#filter1_f_295_35189)">
<ellipse cx="77.4401" cy="3.9602" rx="78.32" ry="78.76" fill="#CC81F4"/>
</g>
<g filter="url(#filter2_f_295_35189)">
<ellipse cx="23.7599" cy="77.0002" rx="78.32" ry="78.76" fill="#F8C3F9"/>
</g>
<g filter="url(#filter3_f_295_35189)">
<ellipse cx="67.7599" cy="181.72" rx="78.32" ry="78.76" fill="#AEA5FF"/>
</g>
</g>
<defs>
<filter id="filter0_f_295_35189" x="-12.8799" y="-40.1602" width="268.64" height="269.52" filterUnits="userSpaceOnUse" color-interpolation-filters="sRGB">
<feFlood flood-opacity="0" result="BackgroundImageFix"/>
<feBlend mode="normal" in="SourceGraphic" in2="BackgroundImageFix" result="shape"/>
<feGaussianBlur stdDeviation="28" result="effect1_foregroundBlur_295_35189"/>
</filter>
<filter id="filter1_f_295_35189" x="-56.8799" y="-130.8" width="268.64" height="269.52" filterUnits="userSpaceOnUse" color-interpolation-filters="sRGB">
<feFlood flood-opacity="0" result="BackgroundImageFix"/>
<feBlend mode="normal" in="SourceGraphic" in2="BackgroundImageFix" result="shape"/>
<feGaussianBlur stdDeviation="28" result="effect1_foregroundBlur_295_35189"/>
</filter>
<filter id="filter2_f_295_35189" x="-110.56" y="-57.7598" width="268.64" height="269.52" filterUnits="userSpaceOnUse" color-interpolation-filters="sRGB">
<feFlood flood-opacity="0" result="BackgroundImageFix"/>
<feBlend mode="normal" in="SourceGraphic" in2="BackgroundImageFix" result="shape"/>
<feGaussianBlur stdDeviation="28" result="effect1_foregroundBlur_295_35189"/>
</filter>
<filter id="filter3_f_295_35189" x="-66.5601" y="46.96" width="268.64" height="269.52" filterUnits="userSpaceOnUse" color-interpolation-filters="sRGB">
<feFlood flood-opacity="0" result="BackgroundImageFix"/>
<feBlend mode="normal" in="SourceGraphic" in2="BackgroundImageFix" result="shape"/>
<feGaussianBlur stdDeviation="28" result="effect1_foregroundBlur_295_35189"/>
</filter>
</defs>
</svg>
