<svg width="176" height="176" viewBox="0 0 176 176" fill="none" xmlns="http://www.w3.org/2000/svg">
<g clip-path="url(#clip0_295_35198)">
<mask id="mask0_295_35198" style="mask-type:alpha" maskUnits="userSpaceOnUse" x="0" y="0" width="176" height="176">
<path fill-rule="evenodd" clip-rule="evenodd" d="M77.8779 0.0502165C77.8779 0.106469 78.0134 0.42144 78.179 0.750163C78.3447 1.07889 78.8036 2.06909 79.1989 2.95061C79.594 3.83214 80.5096 5.80975 81.2333 7.34531C81.957 8.88087 82.8171 10.7422 83.1447 11.4815C83.4722 12.2208 83.938 13.2536 84.1796 13.7766L84.6189 14.7275L83.9715 16.1549C83.6155 16.94 83.0001 18.2804 82.6041 19.1334C82.2081 19.9865 81.2212 22.1503 80.4111 23.9418C79.6011 25.7332 78.6926 27.7232 78.3923 28.3638C78.092 29.0043 77.8651 29.5473 77.8882 29.5704C77.9112 29.5934 78.2843 29.4393 78.7172 29.2278C79.1502 29.0164 80.1727 28.5483 80.9893 28.1877C86.1982 25.8873 89.3234 24.4654 90.9953 23.6352C92.1504 23.0616 92.5638 22.9031 92.8028 22.9422C92.9732 22.9702 94.4838 23.6295 96.1596 24.4074C97.8354 25.1852 100.229 26.2765 101.479 26.8324C102.729 27.3883 104.216 28.0537 104.784 28.3112C106.975 29.3041 107.538 29.5427 107.584 29.4969C107.61 29.4708 107.462 29.0827 107.256 28.6345C107.049 28.1862 105.89 25.6324 104.68 22.9594C103.47 20.2864 102.158 17.4014 101.764 16.5483C101.371 15.6952 101.017 14.8712 100.979 14.7171C100.924 14.4982 101.02 14.2272 101.419 13.4763C101.988 12.4059 102.744 10.7773 103.856 8.22425C104.838 5.97065 106.053 3.2204 106.808 1.53997C107.143 0.792559 107.418 0.126426 107.418 0.0595233C107.418 -0.140772 106.885 0.0780321 102.202 2.20041C100.952 2.76686 98.9303 3.68241 97.7089 4.23511C96.4876 4.7877 94.9366 5.50026 94.2625 5.81864C93.5882 6.13692 92.9097 6.3974 92.7547 6.3974C92.5997 6.3974 91.9196 6.15223 91.2435 5.85266C89.0939 4.9001 84.8188 2.95951 82.6291 1.94242C79.2017 0.350504 77.8779 -0.176757 77.8779 0.0502165ZM134.227 19.728C134.267 19.856 134.408 20.177 134.54 20.4414C134.673 20.7058 135.15 21.7528 135.6 22.768C136.049 23.7832 136.754 25.3351 137.166 26.2167C137.577 27.0982 138.624 29.4015 139.492 31.3352C140.36 33.2689 141.31 35.3861 141.604 36.0401C141.898 36.6941 142.41 37.8109 142.742 38.5218C143.075 39.2327 143.378 39.9386 143.415 40.0904C143.467 40.3004 143.33 40.7084 142.842 41.7965C142.49 42.5831 141.957 43.7851 141.659 44.4676C141.36 45.15 140.524 47.0113 139.801 48.6038C139.078 50.1962 138.392 51.7085 138.277 51.9644C138.161 52.2203 137.813 52.9648 137.503 53.6189C137.193 54.2729 136.6 55.5758 136.187 56.5142C135.774 57.4526 135.127 58.8544 134.751 59.6292C134.374 60.404 134.066 61.0702 134.066 61.1096C134.066 61.1491 134.17 61.1492 134.298 61.1099C134.581 61.023 139.518 58.8374 140.883 58.1952C141.422 57.9412 143.049 57.2082 144.498 56.5662C145.946 55.9244 148.038 54.9818 149.146 54.4717C150.253 53.9615 151.508 53.3914 151.934 53.2046C152.36 53.018 153.194 52.6364 153.787 52.3567C154.576 51.9842 154.935 51.8655 155.129 51.9131C155.385 51.976 158.651 53.4204 163.141 55.4568C164.334 55.9978 165.961 56.7317 166.756 57.0875C169.735 58.4202 171.438 59.1966 172.592 59.7471C174.207 60.5183 175.803 61.1919 175.866 61.1291C175.895 61.1006 175.73 60.6672 175.501 60.1658C175.272 59.6645 174.891 58.8124 174.655 58.2721C174.419 57.7318 173.724 56.1962 173.111 54.8597C171.596 51.5573 169.498 46.9239 169.395 46.6532C169.349 46.5317 168.701 45.0751 167.956 43.4164C167.211 41.7576 166.601 40.3117 166.601 40.2034C166.601 40.0949 166.814 39.5675 167.075 39.0313C167.644 37.8618 167.857 37.3953 170.508 31.4903C171.645 28.9595 172.9 26.1868 173.298 25.3287C173.695 24.4707 174.146 23.4702 174.299 23.1055C174.453 22.7408 174.898 21.7969 175.289 21.0081C175.68 20.2193 176 19.5562 176 19.5345C176 19.361 174.035 20.1365 171.042 21.4911C167.595 23.0513 164.756 24.347 163.296 25.026C162.472 25.409 160.985 26.0844 159.991 26.5267C158.996 26.969 157.672 27.574 157.047 27.8711C156.422 28.1683 155.707 28.5005 155.457 28.6092L155.003 28.807L153.577 28.1323C152.793 27.7612 152.125 27.4575 152.094 27.4575C152.063 27.4575 151.352 27.1378 150.514 26.7471C148.439 25.7796 147.963 25.562 146.408 24.8738C145.67 24.5469 144.369 23.9525 143.516 23.553C140.137 21.9685 134.526 19.4954 134.311 19.4954C134.197 19.4954 134.174 19.5575 134.227 19.728ZM95.4366 48.972C91.8481 49.5135 89.1 50.4137 86.1167 52.0249C84.5488 52.8718 83.6225 53.4905 82.061 54.7339C81.1039 55.4961 72.4521 64.0946 44.0711 92.4901C23.8582 112.713 7.0275 129.608 6.66951 130.035C4.711 132.368 2.86434 135.428 1.86546 137.994C0.534714 141.412 0 144.464 0 148.642C0 151.607 0.241483 153.271 1.10361 156.248C1.94705 159.16 3.56069 162.307 5.70699 165.225C6.47926 166.276 8.62638 168.472 9.86385 169.477C14.8989 173.569 19.7487 175.493 26.1873 175.95C29.5216 176.187 33.7379 175.565 37.1954 174.325C39.6691 173.439 43.3627 171.297 45.446 169.541C46.6513 168.525 119.192 95.924 120.372 94.5526C123.925 90.4217 125.977 85.8887 126.801 80.349C126.941 79.4064 126.985 78.4867 126.983 76.523C126.978 72.7667 126.679 70.8328 125.598 67.5785C124.646 64.711 123.626 62.7516 121.735 60.161C119.754 57.4474 117.507 55.3113 114.547 53.3283C110.934 50.908 107.154 49.4964 102.739 48.9184C100.971 48.687 97.139 48.7151 95.4366 48.972ZM98.1221 63.5506C96.2871 63.8023 94.25 64.5165 92.7626 65.4297C91.9817 65.9091 91.1506 66.6945 85.947 71.8698C71.5661 86.1726 66.7336 91.0551 65.9715 92.0519C64.4995 93.9772 63.5974 96.6979 63.5946 99.2203C63.5872 105.908 68.7369 111.562 75.3589 112.138C78.4494 112.406 81.6995 111.681 84.123 109.63C84.6785 109.222 88.7059 105.271 96.2989 97.6836C102.539 91.4482 108.09 85.8579 108.634 85.2607C110.359 83.3669 111.269 81.7161 111.885 79.3666C112.166 78.2957 112.197 78.0181 112.201 76.5747C112.204 75.303 112.159 74.7633 111.982 73.9621C111.672 72.5558 111.304 71.5027 110.758 70.4641C110.108 69.2283 109.467 68.4086 108.187 67.1743C106.646 65.6887 105.359 64.8886 103.516 64.2729C101.687 63.6614 99.4738 63.3652 98.1221 63.5506ZM175.225 117.328C174.885 117.492 173.095 118.297 171.249 119.117C168.031 120.546 164.154 122.293 162.624 123.004C162.227 123.189 161.158 123.677 160.249 124.089C159.34 124.501 157.341 125.409 155.808 126.106C154.274 126.803 152.461 127.617 151.779 127.915C151.098 128.212 149.75 128.83 148.784 129.288C146.393 130.42 146.436 130.411 145.508 129.963C144.564 129.507 141.902 128.287 138.559 126.778C137.138 126.137 134.791 125.078 133.343 124.424C131.894 123.77 129.917 122.863 128.95 122.409C127.982 121.954 126.634 121.337 125.954 121.037C125.275 120.738 123.882 120.124 122.859 119.674C121.837 119.224 120.152 118.455 119.115 117.965C118.078 117.475 117.198 117.107 117.159 117.146C117.007 117.298 116.938 117.139 122.679 129.776C124.358 133.473 126.067 137.242 126.476 138.152C126.886 139.062 127.901 141.283 128.732 143.087C129.564 144.891 130.244 146.452 130.244 146.558C130.244 146.663 129.9 147.445 129.48 148.297C129.059 149.148 128.252 150.89 127.687 152.168C126.179 155.578 124.501 159.29 123.043 162.444C122.335 163.976 121.719 165.325 121.674 165.443C121.629 165.561 120.918 167.147 120.094 168.967C117.605 174.462 116.996 175.85 117.049 175.903C117.142 175.996 120.004 174.741 124.202 172.767C125.818 172.007 126.887 171.524 134.789 167.985C138.982 166.106 140.349 165.481 143.207 164.135C144.229 163.653 145.377 163.135 145.758 162.984L146.449 162.709L147.1 162.954C147.458 163.089 148.216 163.433 148.784 163.718C150.346 164.502 159.209 168.521 162.986 170.158C163.81 170.515 165.483 171.271 166.704 171.837C167.926 172.404 169.878 173.309 171.042 173.849C172.951 174.734 174.621 175.464 175.411 175.759C175.571 175.818 175.729 175.839 175.763 175.805C175.831 175.736 175.066 173.964 173.546 170.673C170.95 165.05 169.956 162.863 168.567 159.712C167.953 158.319 166.907 155.992 166.242 154.542C163.607 148.794 162.676 146.681 162.676 146.454C162.677 146.324 163.076 145.357 163.564 144.305C165.192 140.795 169.611 131.064 170.678 128.639C170.978 127.956 172.095 125.514 173.16 123.21C175.327 118.52 175.912 117.202 175.872 117.1C175.857 117.062 175.566 117.165 175.225 117.328Z" fill="white"/>
</mask>
<g mask="url(#mask0_295_35198)">
<g filter="url(#filter0_f_295_35198)">
<ellipse cx="131.12" cy="102.599" rx="92.4" ry="92.9191" fill="#D9D7FF"/>
</g>
<g filter="url(#filter1_f_295_35198)">
<ellipse cx="77.4401" cy="3.9602" rx="78.32" ry="78.76" fill="#CC81F4"/>
</g>
<g filter="url(#filter2_f_295_35198)">
<ellipse cx="23.7599" cy="77.0002" rx="78.32" ry="78.76" fill="#F8C3F9"/>
</g>
<g filter="url(#filter3_f_295_35198)">
<ellipse cx="67.7599" cy="181.72" rx="78.32" ry="78.76" fill="#AEA5FF"/>
</g>
</g>
</g>
<defs>
<filter id="filter0_f_295_35198" x="-27.3474" y="-56.3872" width="316.935" height="317.973" filterUnits="userSpaceOnUse" color-interpolation-filters="sRGB">
<feFlood flood-opacity="0" result="BackgroundImageFix"/>
<feBlend mode="normal" in="SourceGraphic" in2="BackgroundImageFix" result="shape"/>
<feGaussianBlur stdDeviation="33.0337" result="effect1_foregroundBlur_295_35198"/>
</filter>
<filter id="filter1_f_295_35198" x="-56.8799" y="-130.8" width="268.64" height="269.52" filterUnits="userSpaceOnUse" color-interpolation-filters="sRGB">
<feFlood flood-opacity="0" result="BackgroundImageFix"/>
<feBlend mode="normal" in="SourceGraphic" in2="BackgroundImageFix" result="shape"/>
<feGaussianBlur stdDeviation="28" result="effect1_foregroundBlur_295_35198"/>
</filter>
<filter id="filter2_f_295_35198" x="-110.56" y="-57.7598" width="268.64" height="269.52" filterUnits="userSpaceOnUse" color-interpolation-filters="sRGB">
<feFlood flood-opacity="0" result="BackgroundImageFix"/>
<feBlend mode="normal" in="SourceGraphic" in2="BackgroundImageFix" result="shape"/>
<feGaussianBlur stdDeviation="28" result="effect1_foregroundBlur_295_35198"/>
</filter>
<filter id="filter3_f_295_35198" x="-66.5601" y="46.96" width="268.64" height="269.52" filterUnits="userSpaceOnUse" color-interpolation-filters="sRGB">
<feFlood flood-opacity="0" result="BackgroundImageFix"/>
<feBlend mode="normal" in="SourceGraphic" in2="BackgroundImageFix" result="shape"/>
<feGaussianBlur stdDeviation="28" result="effect1_foregroundBlur_295_35198"/>
</filter>
<clipPath id="clip0_295_35198">
<rect width="176" height="176" fill="white"/>
</clipPath>
</defs>
</svg>
