<svg width="176" height="176" viewBox="0 0 176 176" fill="none" xmlns="http://www.w3.org/2000/svg">
<mask id="mask0_295_35355" style="mask-type:alpha" maskUnits="userSpaceOnUse" x="0" y="32" width="176" height="111">
<path d="M173.593 101.338C170.726 107.98 165.468 113.289 158.871 116.202C152.273 119.114 144.824 119.416 138.014 117.047L137.271 116.772C133.905 115.589 130.978 113.403 128.882 110.504C126.786 107.606 125.621 104.134 125.542 100.553C125.552 97.8495 126.211 95.1886 127.464 92.7958C128.716 90.403 130.525 88.3489 132.736 86.8078C133.451 86.3137 133.969 85.5812 134.198 84.7402C134.427 83.8993 134.352 83.004 133.987 82.2131C133.673 81.5698 133.191 81.0249 132.591 80.6373C131.992 80.2496 131.298 80.0341 130.585 80.0139C129.89 80.0143 129.211 80.219 128.631 80.6029C125.566 82.741 123.029 85.5545 121.213 88.8284C119.397 92.1023 118.35 95.7499 118.152 99.4924C118.015 104.254 119.238 108.955 121.677 113.04C124.116 117.126 127.668 120.424 131.915 122.545C129.618 127.107 126.148 130.969 121.866 133.731C117.583 136.493 112.643 138.054 107.557 138.253C104.696 138.349 101.858 137.715 99.308 136.41C96.7577 135.105 94.5783 133.172 92.9737 130.792C92.6178 130.289 92.1492 129.878 91.6058 129.592C91.0624 129.305 90.4595 129.151 89.8459 129.142C89.2388 129.172 88.6471 129.344 88.1177 129.644C87.5884 129.944 87.1359 130.364 86.7963 130.87C83.6926 136.089 78.7324 139.93 72.9179 141.617C67.1033 143.305 60.868 142.712 55.4717 139.96C50.0753 137.207 45.9203 132.5 43.8461 126.789C41.7719 121.078 41.9332 114.789 44.2974 109.192C45.4005 105.876 47.6665 103.075 50.6733 101.312C53.68 99.5488 57.2223 98.9441 60.6401 99.6102C64.1512 100.422 67.2169 102.56 69.2024 105.579C69.6835 106.178 70.329 106.622 71.0589 106.855C71.7887 107.089 72.5708 107.102 73.3079 106.892C74.0451 106.683 74.7048 106.261 75.2052 105.679C75.7056 105.096 76.0246 104.379 76.1227 103.616C76.1235 102.99 75.9472 102.377 75.6144 101.849C73.6325 98.6917 70.8618 96.1112 67.5782 94.3644C64.2946 92.6176 60.6126 91.7653 56.8991 91.8924C53.1855 92.0195 49.5699 93.1216 46.4123 95.0889C43.2546 97.0562 40.6652 99.8201 38.9019 103.105C35.9235 108.71 34.7229 115.096 35.4614 121.406C28.8569 122.281 22.1438 121.11 16.2193 118.05C10.2949 114.991 5.44113 110.188 2.30675 104.283C0.87106 101.612 0.0808761 98.6392 0 95.6045C4.37012 96.8769 9.01431 96.8453 13.3668 95.5135C17.7194 94.1817 21.5924 91.6073 24.5141 88.1037C26.4692 85.4297 29.217 83.4461 32.3635 82.4373C35.5101 81.4285 38.8938 81.4462 42.0297 82.488C42.5846 82.657 43.1714 82.6917 43.7422 82.5893C44.313 82.4869 44.8516 82.2503 45.3139 81.8989C45.7781 81.5477 46.1516 81.0898 46.4033 80.5637C46.655 80.0375 46.7775 79.4585 46.7605 78.875C46.6221 73.5714 47.9616 68.3345 50.6282 63.7548C53.2948 59.1751 57.1822 55.4349 61.8521 52.956C63.8491 51.8964 66.0386 51.2529 68.2893 51.0639C70.5399 50.875 72.8054 51.1445 74.9498 51.8564C74.9498 52.3669 74.637 52.7989 74.5197 53.2702C73.2427 58.5116 73.7096 64.0289 75.849 68.9787C77.4196 72.6587 79.8735 75.8904 82.9915 78.3849C86.1095 80.8794 89.7943 82.559 93.7165 83.2734C95.1595 83.5549 96.6256 83.6995 98.0954 83.7054C103.062 83.6531 107.893 82.0798 111.946 79.1956C115.998 76.3115 119.077 72.2538 120.772 67.5649C120.944 67.0595 121.004 66.5227 120.949 65.9916C120.895 65.4605 120.726 64.9476 120.454 64.4884C120.183 64.0292 119.816 63.6346 119.378 63.3318C118.94 63.029 118.442 62.8252 117.918 62.7345C117.061 62.6169 116.189 62.7883 115.439 63.2218C114.689 63.6553 114.103 64.3264 113.774 65.1301C112.587 68.3236 110.442 71.0681 107.635 72.9843C105.722 74.3201 103.553 75.2428 101.267 75.6941C98.9804 76.1453 96.6256 76.1154 94.3512 75.6061C92.0769 75.0968 89.9324 74.1192 88.0533 72.7351C86.1741 71.3511 84.6012 69.5906 83.4339 67.5649C81.2616 62.8375 80.8726 57.4786 82.3392 52.4847L82.9256 50.9532C85.1941 45.0514 89.3374 40.0661 94.7133 36.77C100.089 33.4739 106.398 32.0512 112.66 32.7223C118.923 33.3934 124.791 36.1209 129.353 40.482C133.916 44.8431 136.919 50.5942 137.897 56.8439C138.087 57.737 138.582 58.5354 139.296 59.1017C140.009 59.6679 140.897 59.9666 141.806 59.9463C147.717 59.848 153.581 61.0126 159.009 63.3629C165.928 66.4898 171.339 72.2311 174.069 79.3407C176.8 86.4503 176.628 94.3546 173.593 101.338Z" fill="white"/>
</mask>
<g mask="url(#mask0_295_35355)">
<g filter="url(#filter0_f_295_35355)">
<ellipse cx="121.44" cy="94.5998" rx="78.32" ry="78.76" fill="#D9D7FF"/>
</g>
<g filter="url(#filter1_f_295_35355)">
<ellipse cx="77.4401" cy="3.9602" rx="78.32" ry="78.76" fill="#CC81F4"/>
</g>
<g filter="url(#filter2_f_295_35355)">
<ellipse cx="23.7599" cy="77.0002" rx="78.32" ry="78.76" fill="#F8C3F9"/>
</g>
<g filter="url(#filter3_f_295_35355)">
<ellipse cx="67.7599" cy="181.72" rx="78.32" ry="78.76" fill="#AEA5FF"/>
</g>
</g>
<defs>
<filter id="filter0_f_295_35355" x="-12.8799" y="-40.1602" width="268.64" height="269.52" filterUnits="userSpaceOnUse" color-interpolation-filters="sRGB">
<feFlood flood-opacity="0" result="BackgroundImageFix"/>
<feBlend mode="normal" in="SourceGraphic" in2="BackgroundImageFix" result="shape"/>
<feGaussianBlur stdDeviation="28" result="effect1_foregroundBlur_295_35355"/>
</filter>
<filter id="filter1_f_295_35355" x="-56.8799" y="-130.8" width="268.64" height="269.52" filterUnits="userSpaceOnUse" color-interpolation-filters="sRGB">
<feFlood flood-opacity="0" result="BackgroundImageFix"/>
<feBlend mode="normal" in="SourceGraphic" in2="BackgroundImageFix" result="shape"/>
<feGaussianBlur stdDeviation="28" result="effect1_foregroundBlur_295_35355"/>
</filter>
<filter id="filter2_f_295_35355" x="-110.56" y="-57.7598" width="268.64" height="269.52" filterUnits="userSpaceOnUse" color-interpolation-filters="sRGB">
<feFlood flood-opacity="0" result="BackgroundImageFix"/>
<feBlend mode="normal" in="SourceGraphic" in2="BackgroundImageFix" result="shape"/>
<feGaussianBlur stdDeviation="28" result="effect1_foregroundBlur_295_35355"/>
</filter>
<filter id="filter3_f_295_35355" x="-66.5601" y="46.96" width="268.64" height="269.52" filterUnits="userSpaceOnUse" color-interpolation-filters="sRGB">
<feFlood flood-opacity="0" result="BackgroundImageFix"/>
<feBlend mode="normal" in="SourceGraphic" in2="BackgroundImageFix" result="shape"/>
<feGaussianBlur stdDeviation="28" result="effect1_foregroundBlur_295_35355"/>
</filter>
</defs>
</svg>
