<svg width="176" height="176" viewBox="0 0 176 176" fill="none" xmlns="http://www.w3.org/2000/svg">
<mask id="mask0_295_35447" style="mask-type:alpha" maskUnits="userSpaceOnUse" x="0" y="1" width="177" height="174">
<path fill-rule="evenodd" clip-rule="evenodd" d="M135.286 2.32457C132.882 3.63642 128.461 9.849 125.389 16.2347C121.524 24.2656 118.987 34.2751 118.157 44.7655L117.918 47.7725H72.5488L71.5436 48.7769C69.9076 50.412 70.2646 53.2424 72.2546 54.417C73.0697 54.8982 74.2909 54.9892 79.9327 54.9892H86.6409L86.8881 57.9961C87.0238 59.6503 87.2314 61.6786 87.3489 62.5049L87.5625 64.0067L90.8298 64.9745C110.511 70.8032 127.962 84.7436 133.482 99.0461C135.718 104.84 136.371 108.003 136.376 113.066C136.379 117.236 136.29 117.939 135.491 120.012L134.603 122.319L136.784 122.302C140.09 122.276 142.238 123.141 144.508 125.409C148.869 129.767 149.051 136.024 144.951 140.568C143.655 142.004 140.378 143.358 138.907 143.965L138.907 143.966L138.906 143.966L138.904 143.966L138.836 143.995C137.915 144.375 133.878 147.773 133.534 148.548C133.499 148.626 133.639 148.696 133.887 148.743C134.092 148.782 134.371 148.806 134.685 148.806H135.952L135.79 156.109C135.607 164.366 135.341 165.747 133.024 170.456L132.488 171.548C132.228 172.077 131.997 172.549 131.821 172.91C131.626 173.312 131.497 173.578 131.471 173.635C131.408 173.777 135.234 173.893 139.976 173.893H148.596L148.758 173.119C148.847 172.694 150.179 158.892 151.717 142.449C153.254 126.005 154.966 107.757 155.52 101.898C156.074 96.0384 157.222 83.8217 158.07 74.7491C158.919 65.6769 159.704 57.5283 159.816 56.641L160.017 55.0281L167.011 54.9227C173.86 54.8194 174.024 54.8002 174.887 53.9891C176.609 52.3705 176.282 49.1995 174.285 48.1531C173.759 47.8775 166.559 47.7409 149.469 47.6826L125.394 47.6007L125.497 45.7106C126.251 31.8471 131.448 17.3519 138.588 9.19928C139.526 8.12839 140.394 6.79708 140.516 6.24133C140.859 4.67644 139.925 2.82663 138.487 2.22624C136.948 1.58424 136.626 1.59364 135.286 2.32457ZM0.894045 137.643C6.9127 144.516 21.9765 155.066 37.5218 139.533C40.0946 136.962 43.5029 137.638 48.6993 139.876C50.6171 140.702 52.6338 141.852 54.7568 143.063L54.7569 143.063C61.9234 147.15 70.3003 151.926 80.1683 147.265C83.7668 145.565 86.4441 143.911 88.6191 142.568C93.699 139.43 96.0389 137.985 100.976 141.595C101.65 142.088 102.325 142.605 103.006 143.127L103.006 143.127C109.445 148.059 116.475 153.445 129.693 143.656C130.04 143.359 130.381 143.061 130.717 142.767L130.718 142.767C132.714 141.021 134.586 139.384 137.087 138.502C139.202 137.756 140.512 136.886 140.699 135.581C140.985 133.576 139.495 129.739 133.132 131.629C131.568 132.343 129.853 133.847 127.981 135.488C122.649 140.163 116.044 145.953 108.026 137.815C104.587 134.034 95.1332 128.12 85.4991 135.581C72.9885 145.269 66.1382 141.32 56.2309 135.61C55.2439 135.041 54.2266 134.455 53.1703 133.863C46.4296 130.948 37.5218 128.714 30.2994 136.44C26.1381 140.227 16.2674 143.897 6.91269 133.175C5.88093 132.259 3.3015 130.872 1.23797 132.659C-0.825569 134.446 0.148879 136.726 0.894045 137.643ZM128.12 156.64H11.5196C10.4636 171.072 20.173 174.386 25.1596 174.24C50.533 174.386 104.096 174.592 115.36 174.24C126.624 173.888 128.56 162.36 128.12 156.64ZM120.135 125.4H17.6154C14.9721 125.4 9.34822 123.204 9.69537 114.84C10.1336 104.28 25.08 71.2798 68.2154 71.2798C114.4 71.2798 128.744 105.991 128.744 114.351C128.744 124.978 123.223 125.248 120.452 125.384C120.342 125.389 120.236 125.394 120.135 125.4ZM43.12 102.08C43.12 104.51 41.1501 106.48 38.72 106.48C36.2899 106.48 34.32 104.51 34.32 102.08C34.32 99.6497 36.2899 97.6798 38.72 97.6798C41.1501 97.6798 43.12 99.6497 43.12 102.08ZM95.92 106.48C98.3501 106.48 100.32 104.51 100.32 102.08C100.32 99.6497 98.3501 97.6798 95.92 97.6798C93.4899 97.6798 91.52 99.6497 91.52 102.08C91.52 104.51 93.4899 106.48 95.92 106.48ZM73.04 87.1198C73.04 90.0358 70.6761 92.3998 67.76 92.3998C64.8439 92.3998 62.48 90.0358 62.48 87.1198C62.48 84.2037 64.8439 81.8398 67.76 81.8398C70.6761 81.8398 73.04 84.2037 73.04 87.1198Z" fill="white"/>
</mask>
<g mask="url(#mask0_295_35447)">
<g filter="url(#filter0_f_295_35447)">
<ellipse cx="121.44" cy="94.5998" rx="78.32" ry="78.76" fill="#D9D7FF"/>
</g>
<g filter="url(#filter1_f_295_35447)">
<ellipse cx="77.4401" cy="3.9602" rx="78.32" ry="78.76" fill="#CC81F4"/>
</g>
<g filter="url(#filter2_f_295_35447)">
<ellipse cx="23.7599" cy="77.0002" rx="78.32" ry="78.76" fill="#F8C3F9"/>
</g>
<g filter="url(#filter3_f_295_35447)">
<ellipse cx="67.7599" cy="181.72" rx="78.32" ry="78.76" fill="#AEA5FF"/>
</g>
</g>
<defs>
<filter id="filter0_f_295_35447" x="-12.8799" y="-40.1602" width="268.64" height="269.52" filterUnits="userSpaceOnUse" color-interpolation-filters="sRGB">
<feFlood flood-opacity="0" result="BackgroundImageFix"/>
<feBlend mode="normal" in="SourceGraphic" in2="BackgroundImageFix" result="shape"/>
<feGaussianBlur stdDeviation="28" result="effect1_foregroundBlur_295_35447"/>
</filter>
<filter id="filter1_f_295_35447" x="-56.8799" y="-130.8" width="268.64" height="269.52" filterUnits="userSpaceOnUse" color-interpolation-filters="sRGB">
<feFlood flood-opacity="0" result="BackgroundImageFix"/>
<feBlend mode="normal" in="SourceGraphic" in2="BackgroundImageFix" result="shape"/>
<feGaussianBlur stdDeviation="28" result="effect1_foregroundBlur_295_35447"/>
</filter>
<filter id="filter2_f_295_35447" x="-110.56" y="-57.7598" width="268.64" height="269.52" filterUnits="userSpaceOnUse" color-interpolation-filters="sRGB">
<feFlood flood-opacity="0" result="BackgroundImageFix"/>
<feBlend mode="normal" in="SourceGraphic" in2="BackgroundImageFix" result="shape"/>
<feGaussianBlur stdDeviation="28" result="effect1_foregroundBlur_295_35447"/>
</filter>
<filter id="filter3_f_295_35447" x="-66.5601" y="46.96" width="268.64" height="269.52" filterUnits="userSpaceOnUse" color-interpolation-filters="sRGB">
<feFlood flood-opacity="0" result="BackgroundImageFix"/>
<feBlend mode="normal" in="SourceGraphic" in2="BackgroundImageFix" result="shape"/>
<feGaussianBlur stdDeviation="28" result="effect1_foregroundBlur_295_35447"/>
</filter>
</defs>
</svg>
