<svg width="176" height="176" viewBox="0 0 176 176" fill="none" xmlns="http://www.w3.org/2000/svg">
<mask id="mask0_295_34631" style="mask-type:alpha" maskUnits="userSpaceOnUse" x="-1" y="-1" width="177" height="177">
<path d="M171.826 56.1236C168.679 43.8894 169.339 32.3421 173.343 23.1485C175.868 17.2703 176.164 10.6205 174.174 4.52544C173.121 1.21935 169.39 -0.757502 166.259 0.272216C162.821 1.40048 159.488 2.84832 156.301 4.59814C136.739 15.3559 119.972 33.537 107.85 58.7004L91.2068 93.0227C90.7821 91.5955 90.3895 90.4881 90.16 89.8737C90.8695 89.5391 91.4956 89.0403 91.9905 88.4156C92.4853 87.7909 92.8358 87.0569 93.0149 86.2698C93.194 85.4827 93.197 84.6635 93.0237 83.8751C92.8504 83.0866 92.5054 82.3498 92.0152 81.7212L95.7499 69.0926C98.7557 58.9898 104.023 49.7687 111.12 42.1833C111.4 42.1576 111.667 42.0479 111.888 41.8677C112.109 41.6874 112.275 41.4444 112.365 41.1681C112.456 40.8918 112.467 40.5942 112.397 40.3116C112.327 40.029 112.18 39.7734 111.973 39.5761C111.766 39.3788 111.508 39.2483 111.231 39.2004C110.953 39.1525 110.669 39.1893 110.411 39.3063C110.154 39.4233 109.934 39.6155 109.78 39.8595C109.626 40.1035 109.544 40.3887 109.543 40.6804C102.229 48.5099 96.8019 58.0217 93.7023 68.441L90.2172 80.2253C89.5274 79.8697 88.7677 79.6847 87.9975 79.6847C87.2273 79.6847 86.4676 79.8697 85.7778 80.2253L82.2933 68.4404C79.1945 58.0206 73.7669 48.5084 66.4531 40.6793C66.4537 40.3853 66.3718 40.0976 66.2174 39.8512C66.063 39.6048 65.8428 39.4105 65.5836 39.2919C65.3244 39.1734 65.0376 39.1358 64.7582 39.1838C64.4788 39.2318 64.2189 39.3632 64.0103 39.5621C63.8018 39.7609 63.6536 40.0185 63.5839 40.3034C63.5141 40.5883 63.5259 40.8881 63.6178 41.1661C63.7096 41.4442 63.8776 41.6884 64.1011 41.8689C64.3245 42.0495 64.5939 42.1585 64.8761 42.1827C71.9737 49.7679 77.2405 58.9891 80.2456 69.0921L83.9798 81.7212C83.4898 82.3499 83.1449 83.0867 82.9719 83.8752C82.7988 84.6637 82.8019 85.4828 82.9812 86.2698C83.1604 87.0568 83.5109 87.7907 84.0059 88.4153C84.5008 89.0399 85.127 89.5386 85.8364 89.8731C85.6072 90.4876 85.2143 91.5949 84.7895 93.0222L68.146 58.6998C56.0245 33.5364 39.2579 15.3554 19.6944 4.59756C16.5074 2.84754 13.1747 1.39969 9.73689 0.271639C6.60628 -0.758079 2.87492 1.21877 1.82167 4.52486C-0.168701 10.6205 0.127935 17.2709 2.65244 23.1496C6.65642 32.3432 7.31683 43.8906 4.16912 56.1248L0.974894 68.5404C-1.77298 79.2226 1.38567 90.1334 9.07506 95.1063C17.512 100.585 27.1971 103.646 37.1444 103.977L48.5707 104.445L35.1191 106.048C27.6957 106.933 20.6945 111.377 15.8577 118.276C13.0403 122.309 11.5173 127.16 11.5044 132.141C11.474 135.902 12.4227 139.602 14.2502 142.849L31.3362 172.559C32.0843 173.918 33.2599 174.968 34.6657 175.534C36.0716 176.1 37.6222 176.148 39.0576 175.668C43.0924 174.377 46.7108 171.509 49.2606 167.575C52.341 162.808 56.0109 158.482 60.1764 154.707C69.7168 146.091 77.4812 135.165 82.8873 122.866C82.8226 129.088 84.2914 136.163 87.998 138.669C91.705 136.162 93.1738 129.088 93.1091 122.866C98.5168 135.165 106.28 146.091 115.821 154.707C119.986 158.483 123.656 162.81 126.736 167.577C129.286 171.51 132.903 174.379 136.938 175.67C138.373 176.149 139.924 176.102 141.33 175.536C142.736 174.97 143.911 173.92 144.659 172.561L161.747 142.85C163.575 139.602 164.523 135.902 164.493 132.141C164.48 127.159 162.956 122.308 160.139 118.275C155.302 111.377 148.301 106.932 140.877 106.047L127.425 104.444L138.851 103.976C148.799 103.645 158.484 100.584 166.921 95.1046C174.611 90.1319 177.769 79.2209 175.021 68.5387L171.826 56.1236Z" fill="white"/>
</mask>
<g mask="url(#mask0_295_34631)">
<g filter="url(#filter0_f_295_34631)">
<circle cx="149.6" cy="83.6002" r="92.4" fill="#D9D7FF"/>
</g>
<g filter="url(#filter1_f_295_34631)">
<ellipse cx="77.4401" cy="3.9602" rx="78.32" ry="78.76" fill="#CC81F4"/>
</g>
<g filter="url(#filter2_f_295_34631)">
<ellipse cx="23.7599" cy="77.0002" rx="78.32" ry="78.76" fill="#F8C3F9"/>
</g>
<g filter="url(#filter3_f_295_34631)">
<ellipse cx="67.7599" cy="181.72" rx="78.32" ry="78.76" fill="#AEA5FF"/>
</g>
</g>
<defs>
<filter id="filter0_f_295_34631" x="1.2002" y="-64.7998" width="296.8" height="296.8" filterUnits="userSpaceOnUse" color-interpolation-filters="sRGB">
<feFlood flood-opacity="0" result="BackgroundImageFix"/>
<feBlend mode="normal" in="SourceGraphic" in2="BackgroundImageFix" result="shape"/>
<feGaussianBlur stdDeviation="28" result="effect1_foregroundBlur_295_34631"/>
</filter>
<filter id="filter1_f_295_34631" x="-56.8799" y="-130.8" width="268.64" height="269.52" filterUnits="userSpaceOnUse" color-interpolation-filters="sRGB">
<feFlood flood-opacity="0" result="BackgroundImageFix"/>
<feBlend mode="normal" in="SourceGraphic" in2="BackgroundImageFix" result="shape"/>
<feGaussianBlur stdDeviation="28" result="effect1_foregroundBlur_295_34631"/>
</filter>
<filter id="filter2_f_295_34631" x="-110.56" y="-57.7598" width="268.64" height="269.52" filterUnits="userSpaceOnUse" color-interpolation-filters="sRGB">
<feFlood flood-opacity="0" result="BackgroundImageFix"/>
<feBlend mode="normal" in="SourceGraphic" in2="BackgroundImageFix" result="shape"/>
<feGaussianBlur stdDeviation="28" result="effect1_foregroundBlur_295_34631"/>
</filter>
<filter id="filter3_f_295_34631" x="-66.5601" y="46.96" width="268.64" height="269.52" filterUnits="userSpaceOnUse" color-interpolation-filters="sRGB">
<feFlood flood-opacity="0" result="BackgroundImageFix"/>
<feBlend mode="normal" in="SourceGraphic" in2="BackgroundImageFix" result="shape"/>
<feGaussianBlur stdDeviation="28" result="effect1_foregroundBlur_295_34631"/>
</filter>
</defs>
</svg>
