<svg width="176" height="176" viewBox="0 0 176 176" fill="none" xmlns="http://www.w3.org/2000/svg">
<mask id="mask0_295_35377" style="mask-type:alpha" maskUnits="userSpaceOnUse" x="49" y="0" width="78" height="176">
<path fill-rule="evenodd" clip-rule="evenodd" d="M86.2569 4.01708C76.3034 16.0843 67.5649 29.7551 62.2901 41.5106C53.5765 60.9303 52.233 77.084 58.2459 90.1435C61.9636 98.2189 68.3842 104.84 77.5971 110.098C82.7091 113.016 82.8495 113.018 80.4421 110.141C77.4972 106.622 76.6198 104.163 76.7013 99.6597C76.8351 92.2583 79.4341 86.1249 86.4799 76.5823C87.9868 74.5414 89.3382 72.8719 89.4836 72.8719C89.8696 72.8719 94.1141 78.4274 96.0359 81.4483C98.2726 84.9647 99.5818 87.633 100.975 91.5147C102.494 95.749 102.877 101.332 101.858 104.409C100.938 107.188 99.3906 109.543 97.2491 111.423C96.2271 112.32 95.6318 113.051 95.9258 113.047C96.2202 113.044 97.8408 112.298 99.5274 111.391C113.372 103.936 121.543 93.5213 123.885 80.3453C124.395 77.479 124.477 75.6299 124.306 70.9334C124.011 62.8337 122.662 56.637 119.133 47.17C117.468 42.7066 112.691 32.8925 109.907 28.2202C105.394 20.6433 97.4645 9.54477 90.8513 1.54825L89.5709 0L86.2569 4.01708ZM84.7359 118.92C75.579 119.434 66.7063 120.299 62.7642 121.061C58.2838 121.926 51.4426 124.068 50.6644 124.849C49.462 126.056 49.2304 128.244 49.2881 137.85C49.3721 151.926 49.7088 158.58 50.3697 159.244C51.023 159.899 52.2684 159.781 52.6454 159.027C52.7947 158.729 53.079 157.201 53.2775 155.633C53.7003 152.286 54.4633 151.029 56.3671 150.545C58.3242 150.047 59.4173 151.017 60.6396 154.336C61.8958 157.747 62.8803 158.764 64.9273 158.764C67.0432 158.764 68.3283 157.342 68.662 154.631C69.0765 151.26 69.2644 150.691 70.1545 150.105C70.7436 149.718 71.415 149.608 72.2382 149.763C74.4999 150.189 75.6479 152.375 76.1252 157.168C76.3164 159.087 76.6519 161.468 76.8712 162.46C77.6252 165.874 79.9922 168.697 83.1125 169.903C84.9376 170.608 88.3248 170.433 90.4292 169.525C94.0827 167.948 95.8908 164.777 96.814 158.33C97.4169 154.121 98.0194 152.094 98.8141 151.601C99.0576 151.45 99.9192 151.326 100.729 151.326C103.054 151.326 104.221 153.068 105.151 157.93L105.392 159.186L106.602 157.749C107.891 156.22 110.228 151.702 111.279 148.71C111.629 147.715 112.439 146.371 113.081 145.724C114.095 144.7 114.488 144.547 116.105 144.547C119.038 144.547 120.63 145.699 121.357 148.348C121.521 148.946 121.677 154.728 121.702 161.199C121.753 174.288 121.956 175.762 123.73 175.969C125.425 176.167 125.366 172.163 124.96 165.88C124.539 159.365 124.87 158.288 125.924 145.633C126.33 140.755 126.685 134.647 126.714 132.058C126.772 126.757 126.47 125.777 124.257 124.083C121.876 122.261 114.83 121.004 97.002 119.22C91.2261 118.642 90.146 118.616 84.7359 118.92ZM57.2502 129.953C57.5103 130.057 57.8217 130.044 57.9414 129.924C58.0612 129.804 57.8484 129.718 57.4681 129.734C57.0478 129.751 56.9623 129.837 57.2502 129.953ZM118.22 129.953C118.48 130.057 118.791 130.044 118.911 129.924C119.031 129.804 118.818 129.718 118.438 129.734C118.017 129.751 117.932 129.837 118.22 129.953ZM58.4339 130.222C58.519 130.307 60.0476 130.625 61.8312 130.929C76.5476 133.433 100.516 133.367 115.15 130.782C119.066 130.09 117.72 130 112.542 130.607C98.6756 132.233 77.4416 132.231 63.3263 130.602C58.1283 130.002 58.2221 130.009 58.4339 130.222Z" fill="white"/>
</mask>
<g mask="url(#mask0_295_35377)">
<g filter="url(#filter0_f_295_35377)">
<ellipse cx="121.44" cy="94.5998" rx="78.32" ry="78.76" fill="#D9D7FF"/>
</g>
<g filter="url(#filter1_f_295_35377)">
<ellipse cx="77.4401" cy="3.9602" rx="78.32" ry="78.76" fill="#CC81F4"/>
</g>
<g filter="url(#filter2_f_295_35377)">
<ellipse cx="23.7599" cy="77.0002" rx="78.32" ry="78.76" fill="#F8C3F9"/>
</g>
<g filter="url(#filter3_f_295_35377)">
<ellipse cx="67.7599" cy="181.72" rx="78.32" ry="78.76" fill="#AEA5FF"/>
</g>
</g>
<defs>
<filter id="filter0_f_295_35377" x="-12.8799" y="-40.1602" width="268.64" height="269.52" filterUnits="userSpaceOnUse" color-interpolation-filters="sRGB">
<feFlood flood-opacity="0" result="BackgroundImageFix"/>
<feBlend mode="normal" in="SourceGraphic" in2="BackgroundImageFix" result="shape"/>
<feGaussianBlur stdDeviation="28" result="effect1_foregroundBlur_295_35377"/>
</filter>
<filter id="filter1_f_295_35377" x="-56.8799" y="-130.8" width="268.64" height="269.52" filterUnits="userSpaceOnUse" color-interpolation-filters="sRGB">
<feFlood flood-opacity="0" result="BackgroundImageFix"/>
<feBlend mode="normal" in="SourceGraphic" in2="BackgroundImageFix" result="shape"/>
<feGaussianBlur stdDeviation="28" result="effect1_foregroundBlur_295_35377"/>
</filter>
<filter id="filter2_f_295_35377" x="-110.56" y="-57.7598" width="268.64" height="269.52" filterUnits="userSpaceOnUse" color-interpolation-filters="sRGB">
<feFlood flood-opacity="0" result="BackgroundImageFix"/>
<feBlend mode="normal" in="SourceGraphic" in2="BackgroundImageFix" result="shape"/>
<feGaussianBlur stdDeviation="28" result="effect1_foregroundBlur_295_35377"/>
</filter>
<filter id="filter3_f_295_35377" x="-66.5601" y="46.96" width="268.64" height="269.52" filterUnits="userSpaceOnUse" color-interpolation-filters="sRGB">
<feFlood flood-opacity="0" result="BackgroundImageFix"/>
<feBlend mode="normal" in="SourceGraphic" in2="BackgroundImageFix" result="shape"/>
<feGaussianBlur stdDeviation="28" result="effect1_foregroundBlur_295_35377"/>
</filter>
</defs>
</svg>
