<svg width="176" height="176" viewBox="0 0 176 176" fill="none" xmlns="http://www.w3.org/2000/svg">
<mask id="mask0_295_35665" style="mask-type:alpha" maskUnits="userSpaceOnUse" x="0" y="0" width="176" height="176">
<path fill-rule="evenodd" clip-rule="evenodd" d="M87.8433 0.0586038C87.9231 0.0909286 88.0536 0.0909286 88.1333 0.0586038C88.2131 0.0263953 88.1478 0 87.9883 0C87.8288 0 87.7637 0.0263953 87.8433 0.0586038ZM85.8425 0.175229C85.6511 0.198484 84.6594 0.2979 83.6387 0.395921C60.1153 2.65587 43.763 9.20931 28.6593 22.4299C25.5592 25.1434 19.9191 30.9869 17.0501 34.4575C13.8222 38.3624 11.2153 42.431 8.66896 47.5386C6.7775 51.3322 5.74879 53.8087 4.4004 57.8137C-0.316463 71.8244 -1.2822 87.9703 1.70119 102.944C2.63294 107.621 3.83657 112.129 5.12244 115.757C9.51418 128.15 15.5583 138.24 24.2635 147.711C25.8153 149.399 30.3147 153.682 33.1731 156.192C35.6593 158.375 37.3212 159.644 40.0642 161.455C52.7047 169.799 69.0433 174.968 85.7845 175.918C88.4721 176.071 95.7393 175.999 98.1375 175.796C112.671 174.567 125.45 170.232 136.646 162.733C141.514 159.473 145.209 156.438 149.622 152.075C154.443 147.309 155.919 145.64 159.044 141.423C166.676 131.124 171.493 119.467 173.876 105.525C174.782 100.224 175.288 95.6884 175.851 87.8424C176.079 84.6648 176.066 84.5509 175.669 86.2004C173.68 94.4528 170.485 101.967 165.707 109.63C160.677 117.699 153.519 125.806 146.041 131.903C136.107 140.004 125.855 145.099 114.376 147.64C112.311 148.098 108.82 148.64 105.909 148.955C103.677 149.197 94.7285 149.158 92.164 148.896C80.9819 147.751 71.0329 144.628 62.0385 139.438C55.7406 135.805 50.8818 131.704 44.8652 124.944C35.126 114.002 28.6552 99.5727 26.7605 84.5726C26.2312 80.3813 26.1396 72.7409 26.5649 68.2358C27.444 58.9224 30.1216 49.5392 34.3456 40.969C36.2894 37.0254 38.0334 34.2892 42.0536 28.8763C48.4471 20.2679 54.4635 14.1956 61.1366 9.61627C67.8343 5.01988 76.1883 1.86879 85.4365 0.450454C86.938 0.220227 87.3734 0.123137 86.8864 0.12709C86.5037 0.13023 86.0339 0.151857 85.8425 0.175229ZM85.2743 115.71L55.7039 86.0148L40.04 106.04C75.68 158.4 138.6 140.36 156.2 109.12L103.503 56.32L73.1221 86.0148L85.2743 115.71ZM127.407 27.5605C127.499 27.141 127.596 26.5104 127.622 26.1589C127.649 25.8076 127.696 25.52 127.728 25.52C127.759 25.52 127.807 25.8241 127.836 26.1957C127.97 27.9601 128.766 30.3213 129.837 32.1282C131.606 35.115 134.366 37.4102 137.604 38.5876C138.577 38.9413 140.015 39.2707 140.869 39.3356C141.849 39.4101 141.949 39.4925 141.125 39.5472C139.604 39.6485 137.694 40.1876 136.105 40.9643C131.638 43.1469 128.452 47.6308 127.888 52.527C127.728 53.9238 127.702 53.9795 127.638 53.0808C127.413 49.9206 125.907 46.592 123.583 44.1229C121.084 41.4677 117.77 39.8346 114.281 39.5393L113.52 39.4748L114.003 39.4178C116.318 39.1441 117.822 38.7153 119.542 37.8385C123.525 35.8074 126.434 32.0062 127.407 27.5605Z" fill="white"/>
</mask>
<g mask="url(#mask0_295_35665)">
<g filter="url(#filter0_f_295_35665)">
<ellipse cx="139.04" cy="106.119" rx="92.4" ry="92.9191" fill="#D9D7FF"/>
</g>
<g filter="url(#filter1_f_295_35665)">
<ellipse cx="77.4401" cy="3.9602" rx="78.32" ry="78.76" fill="#CC81F4"/>
</g>
<g filter="url(#filter2_f_295_35665)">
<ellipse cx="23.7599" cy="77.0002" rx="78.32" ry="78.76" fill="#F8C3F9"/>
</g>
<g filter="url(#filter3_f_295_35665)">
<ellipse cx="67.7599" cy="181.72" rx="78.32" ry="78.76" fill="#AEA5FF"/>
</g>
</g>
<defs>
<filter id="filter0_f_295_35665" x="-19.4275" y="-52.8672" width="316.935" height="317.973" filterUnits="userSpaceOnUse" color-interpolation-filters="sRGB">
<feFlood flood-opacity="0" result="BackgroundImageFix"/>
<feBlend mode="normal" in="SourceGraphic" in2="BackgroundImageFix" result="shape"/>
<feGaussianBlur stdDeviation="33.0337" result="effect1_foregroundBlur_295_35665"/>
</filter>
<filter id="filter1_f_295_35665" x="-56.8799" y="-130.8" width="268.64" height="269.52" filterUnits="userSpaceOnUse" color-interpolation-filters="sRGB">
<feFlood flood-opacity="0" result="BackgroundImageFix"/>
<feBlend mode="normal" in="SourceGraphic" in2="BackgroundImageFix" result="shape"/>
<feGaussianBlur stdDeviation="28" result="effect1_foregroundBlur_295_35665"/>
</filter>
<filter id="filter2_f_295_35665" x="-110.56" y="-57.7598" width="268.64" height="269.52" filterUnits="userSpaceOnUse" color-interpolation-filters="sRGB">
<feFlood flood-opacity="0" result="BackgroundImageFix"/>
<feBlend mode="normal" in="SourceGraphic" in2="BackgroundImageFix" result="shape"/>
<feGaussianBlur stdDeviation="28" result="effect1_foregroundBlur_295_35665"/>
</filter>
<filter id="filter3_f_295_35665" x="-66.5601" y="46.96" width="268.64" height="269.52" filterUnits="userSpaceOnUse" color-interpolation-filters="sRGB">
<feFlood flood-opacity="0" result="BackgroundImageFix"/>
<feBlend mode="normal" in="SourceGraphic" in2="BackgroundImageFix" result="shape"/>
<feGaussianBlur stdDeviation="28" result="effect1_foregroundBlur_295_35665"/>
</filter>
</defs>
</svg>
