<svg width="176" height="176" viewBox="0 0 176 176" fill="none" xmlns="http://www.w3.org/2000/svg">
<mask id="mask0_295_35998" style="mask-type:alpha" maskUnits="userSpaceOnUse" x="5" y="0" width="167" height="176">
<path fill-rule="evenodd" clip-rule="evenodd" d="M74.5659 0.314404C66.8574 1.43674 58.2745 7.34421 54.325 14.2468C52.0855 18.1614 50.5111 24.7373 50.4943 30.2418C50.4847 33.5933 50.3549 33.9698 49.3533 33.5455C42.6819 30.7216 37.4919 29.3822 33.1885 29.3739C21.041 29.3519 10.0636 37.2599 6.57842 48.5453C5.34501 52.5375 5.27979 54.5116 5.27979 87.7394C5.27979 126.275 5.3082 126.605 9.31647 134.25C11.8091 139.005 19.2102 146.579 23.6841 148.953C26.7805 150.598 81.546 172.067 89.5522 174.776C95.6411 176.836 103.018 176.271 109.287 173.263C116.8 169.66 123.853 161.377 124.288 155.647C124.416 153.961 124.081 153.731 117.999 151.349C114.465 149.965 111.364 148.832 111.107 148.832C110.85 148.832 110.296 149.874 109.876 151.148C108.88 154.164 105.8 157.629 102.716 159.202C97.767 161.727 96.1338 161.313 68.1935 150.456C51.3539 143.912 41.9179 139.915 40.8931 138.89C38.5981 136.595 38.2306 131.71 40.1679 129.255C42.2202 126.655 45.839 124.545 51.6012 122.589C55.6837 121.203 57.8212 120.883 63.0758 120.872C66.6275 120.864 70.8411 121.224 72.4394 121.672C74.0377 122.121 88.4221 127.584 104.405 133.813C120.387 140.041 135.062 145.528 137.016 146.006C151.46 149.538 166.486 140.46 170.246 125.933C171.71 120.276 171.706 56.9235 170.241 50.7099C167.944 40.9647 160.437 31.08 152.191 26.9432C146.521 24.0986 87.044 1.07253 84.2123 0.625665C79.5073 -0.116965 77.8884 -0.169274 74.5659 0.314404ZM76.3101 15.734C73.5662 16.6161 70.8889 18.1944 69.4476 19.7791C66.5365 22.9795 65.9817 25.0537 65.9837 32.7234L65.9863 40.0206L83.9037 46.9432C93.7587 50.7506 103.129 54.1583 104.728 54.5154C108.965 55.4621 117.358 55.3201 122.008 54.2236C126.667 53.1258 133.263 49.9667 135.437 47.793C138.468 44.7624 137.856 38.5411 134.299 36.2106C131.702 34.509 83.245 15.8903 80.5056 15.5416C79.0882 15.3607 77.2 15.4473 76.3101 15.734ZM28.2045 45.9351C25.1997 47.516 22.667 50.1055 21.3568 52.9359C20.2525 55.3207 20.1602 57.6254 20.1492 82.964C20.1376 109.059 20.1989 110.51 21.3981 112.476C22.8724 114.895 25.7331 116.544 28.4537 116.544C33.1562 116.544 42.7374 107.492 46.6281 99.3742C49.7801 92.7964 50.4633 88.4775 50.4737 75.0534C50.4814 65.7879 50.6726 62.9517 51.2906 62.973C51.7349 62.9879 55.149 64.2232 58.8783 65.7175L65.6589 68.4343L66.0579 76.1835C66.6443 87.5741 69.6723 94.9552 76.8577 102.505C82.0923 108.005 86.3266 110.493 98.7634 115.373C104.93 117.793 110.131 119.773 110.323 119.773C110.514 119.773 110.541 113.742 110.383 106.373C110.067 91.6482 109.423 88.4969 105.213 81.0913C102.546 76.4004 95.9743 69.5663 91.5915 66.9258C89.6245 65.7414 76.4993 60.2925 62.4229 54.8177C35.0082 44.1548 32.7171 43.56 28.2045 45.9351ZM142.793 61.5465C138.178 64.488 132.164 71.4235 129.686 76.6633C125.97 84.5222 125.715 86.4828 125.715 107.173V125.894L132.818 128.654C138.568 130.889 140.55 131.374 143.219 131.199C147.776 130.9 151.989 128.323 154.273 124.437L156.066 121.387L156.26 94.5755C156.475 64.6914 156.371 63.7441 152.58 61.1933C149.562 59.1617 146.352 59.278 142.793 61.5465Z" fill="white"/>
</mask>
<g mask="url(#mask0_295_35998)">
<g filter="url(#filter0_f_295_35998)">
<ellipse cx="139.04" cy="106.119" rx="92.4" ry="92.9191" fill="#D9D7FF"/>
</g>
<g filter="url(#filter1_f_295_35998)">
<ellipse cx="77.4401" cy="3.95995" rx="78.32" ry="78.76" fill="#CC81F4"/>
</g>
<g filter="url(#filter2_f_295_35998)">
<ellipse cx="23.7599" cy="77" rx="78.32" ry="78.76" fill="#F8C3F9"/>
</g>
<g filter="url(#filter3_f_295_35998)">
<ellipse cx="67.7599" cy="181.72" rx="78.32" ry="78.76" fill="#AEA5FF"/>
</g>
</g>
<defs>
<filter id="filter0_f_295_35998" x="-19.4273" y="-52.8675" width="316.935" height="317.973" filterUnits="userSpaceOnUse" color-interpolation-filters="sRGB">
<feFlood flood-opacity="0" result="BackgroundImageFix"/>
<feBlend mode="normal" in="SourceGraphic" in2="BackgroundImageFix" result="shape"/>
<feGaussianBlur stdDeviation="33.0337" result="effect1_foregroundBlur_295_35998"/>
</filter>
<filter id="filter1_f_295_35998" x="-56.8799" y="-130.8" width="268.64" height="269.52" filterUnits="userSpaceOnUse" color-interpolation-filters="sRGB">
<feFlood flood-opacity="0" result="BackgroundImageFix"/>
<feBlend mode="normal" in="SourceGraphic" in2="BackgroundImageFix" result="shape"/>
<feGaussianBlur stdDeviation="28" result="effect1_foregroundBlur_295_35998"/>
</filter>
<filter id="filter2_f_295_35998" x="-110.56" y="-57.76" width="268.64" height="269.52" filterUnits="userSpaceOnUse" color-interpolation-filters="sRGB">
<feFlood flood-opacity="0" result="BackgroundImageFix"/>
<feBlend mode="normal" in="SourceGraphic" in2="BackgroundImageFix" result="shape"/>
<feGaussianBlur stdDeviation="28" result="effect1_foregroundBlur_295_35998"/>
</filter>
<filter id="filter3_f_295_35998" x="-66.5601" y="46.96" width="268.64" height="269.52" filterUnits="userSpaceOnUse" color-interpolation-filters="sRGB">
<feFlood flood-opacity="0" result="BackgroundImageFix"/>
<feBlend mode="normal" in="SourceGraphic" in2="BackgroundImageFix" result="shape"/>
<feGaussianBlur stdDeviation="28" result="effect1_foregroundBlur_295_35998"/>
</filter>
</defs>
</svg>
