<svg width="176" height="176" viewBox="0 0 176 176" fill="none" xmlns="http://www.w3.org/2000/svg">
<mask id="mask0_295_35154" style="mask-type:alpha" maskUnits="userSpaceOnUse" x="8" y="0" width="160" height="176">
<path fill-rule="evenodd" clip-rule="evenodd" d="M84.1102 0.561051C79.4592 2.04927 75.8475 6.27078 74.9093 11.3164C73.8638 16.9374 77.2081 23.292 82.4865 25.7149L84.4547 26.6183V30.0261V33.4338L79.6392 33.4345C70.8789 33.4351 54.3162 34.4216 44.6679 35.517C36.4427 36.451 31.2799 39.0473 26.6236 44.5912C23.6244 48.1626 21.7307 52.769 20.4844 59.5271C20.3805 60.0898 20.061 60.2363 18.5412 60.4175C15.4713 60.7835 14.3424 61.2657 12.4465 63.0207C9.72364 65.5418 9.38039 66.5981 8.97747 73.6962C8.74159 77.8549 8.74096 81.4392 8.97526 85.7867C9.26735 91.2053 9.40123 92.1693 10.0621 93.6133C11.5706 96.9081 14.4352 98.8987 18.2254 99.2858C20.0619 99.4734 20.3796 99.5978 20.4973 100.177C21.4244 104.735 21.8192 106.259 22.6073 108.316C24.7789 113.988 29.2328 118.863 34.7944 121.656C37.6748 123.102 41.6153 123.999 47.3519 124.515C75.623 127.055 100.865 127.055 129.136 124.515C134.873 123.999 138.813 123.102 141.693 121.656C147.255 118.863 151.709 113.988 153.881 108.316C154.669 106.259 155.063 104.735 155.991 100.177C156.108 99.5978 156.426 99.4734 158.262 99.2858C162.053 98.8987 164.917 96.9081 166.426 93.6133C167.087 92.1693 167.221 91.2053 167.513 85.7867C167.748 81.4285 167.746 77.8549 167.508 73.6628C167.122 66.8576 166.723 65.5425 164.339 63.2073C162.588 61.4918 161.305 60.9032 158.446 60.5018C156.468 60.2246 156.104 60.0771 156 59.5144C154.772 52.8072 152.86 48.1584 149.864 44.5912C145.208 39.0473 140.045 36.451 131.82 35.517C122.305 34.4367 105.476 33.4338 96.8632 33.4338H92.0332V30.0261V26.6183L94.0013 25.7149C99.2797 23.292 102.624 16.9374 101.579 11.3164C100.62 6.16184 96.8502 1.86612 92.0546 0.463795C89.8174 -0.190478 86.3256 -0.147534 84.1102 0.561051ZM49.5604 43.8387C46.433 44.1396 43.0938 44.57 42.1398 44.7952C37.0376 45.9986 32.4893 50.0284 30.6427 54.9819C29.8321 57.1566 28.4819 64.2585 27.8961 69.4315C27.3981 73.827 27.401 85.7245 27.9012 90.2722C28.3878 94.698 29.6635 101.861 30.3474 104.008C32.0829 109.457 37.0553 113.906 42.6937 115.054C45.0383 115.532 56.9822 116.564 67.0874 117.163C70.6477 117.374 80.1681 117.546 88.2439 117.546C96.3197 117.546 105.84 117.374 109.4 117.163C119.506 116.564 131.45 115.532 133.794 115.054C139.433 113.906 144.405 109.457 146.14 104.008C146.821 101.873 148.097 94.7189 148.591 90.2722C149.092 85.7611 149.092 73.8658 148.591 69.4315C148.007 64.2655 146.657 57.1585 145.845 54.9819C144.054 50.1784 139.754 46.2496 134.82 44.9089C133.081 44.4365 121.099 43.2227 118.173 43.2227C114.211 43.2227 112.671 44.6443 110.513 50.2924C108.927 54.4416 107.917 55.8976 105.833 57.0369C104.906 57.544 103.443 57.5901 88.2439 57.5901C73.0454 57.5901 71.5818 57.544 70.6547 57.0369C68.5706 55.8976 67.5605 54.4416 65.975 50.2924C63.1555 42.9126 62.3755 42.606 49.5604 43.8387ZM56.518 68.1895C49.1208 69.4258 44.2457 75.6069 44.7575 83.1014C45.3158 91.276 53.2353 97.298 61.2482 95.6412C71.8754 93.4441 76.1165 80.4177 68.7639 72.5572C65.5307 69.1008 60.9154 67.4547 56.518 68.1895ZM116.505 68.073C114.55 68.332 112.036 69.1978 110.616 70.1015C101.285 76.0383 102.058 89.8367 111.983 94.5335C122.461 99.492 133.893 90.2839 131.465 78.8411C130.493 74.2593 126.664 70.0753 122.189 68.7058C120.413 68.1621 117.924 67.8851 116.505 68.073ZM84.9284 130.574C74.2481 131.08 65.7937 132.575 64.2509 134.231C63.4719 135.067 63.4296 136.644 64.0781 140.637C66.0021 152.477 71.4356 164.074 78.2922 170.974C80.4261 173.122 81.6921 174.111 83.347 174.922C85.3723 175.914 85.792 176.003 88.4299 176C91.1702 175.997 91.4313 175.934 93.9903 174.666C103.843 169.784 110.986 155.759 112.714 137.901C113.055 134.384 112.15 133.51 106.716 132.11C102.729 131.082 91.2608 130.274 84.9284 130.574ZM48.615 139.483C40.3235 142.473 36.7736 144.703 36.7736 146.922C36.7736 148.737 38.5183 150.118 41.8259 150.921C45.0281 151.697 55.4842 151.233 57.3668 150.23C58.784 149.476 58.8876 144.622 57.549 141.699C56.7103 139.867 54.8072 137.63 54.1037 137.65C53.8637 137.656 51.3937 138.481 48.615 139.483ZM120.871 138.779C119.221 140.53 118.225 142.765 118.027 145.168C117.83 147.558 118.314 149.801 119.121 150.23C121.004 151.233 131.46 151.697 134.662 150.921C137.97 150.118 139.714 148.737 139.714 146.922C139.714 144.692 135.972 142.363 127.634 139.403C124.899 138.432 122.5 137.637 122.304 137.637C122.108 137.637 121.463 138.151 120.871 138.779Z" fill="white"/>
</mask>
<g mask="url(#mask0_295_35154)">
<g filter="url(#filter0_f_295_35154)">
<ellipse cx="121.44" cy="94.5998" rx="78.32" ry="78.76" fill="#D9D7FF"/>
</g>
<g filter="url(#filter1_f_295_35154)">
<ellipse cx="77.4401" cy="3.9602" rx="78.32" ry="78.76" fill="#CC81F4"/>
</g>
<g filter="url(#filter2_f_295_35154)">
<ellipse cx="23.7599" cy="77.0002" rx="78.32" ry="78.76" fill="#F8C3F9"/>
</g>
<g filter="url(#filter3_f_295_35154)">
<ellipse cx="67.7599" cy="181.72" rx="78.32" ry="78.76" fill="#AEA5FF"/>
</g>
</g>
<defs>
<filter id="filter0_f_295_35154" x="-12.8799" y="-40.1602" width="268.64" height="269.52" filterUnits="userSpaceOnUse" color-interpolation-filters="sRGB">
<feFlood flood-opacity="0" result="BackgroundImageFix"/>
<feBlend mode="normal" in="SourceGraphic" in2="BackgroundImageFix" result="shape"/>
<feGaussianBlur stdDeviation="28" result="effect1_foregroundBlur_295_35154"/>
</filter>
<filter id="filter1_f_295_35154" x="-56.8799" y="-130.8" width="268.64" height="269.52" filterUnits="userSpaceOnUse" color-interpolation-filters="sRGB">
<feFlood flood-opacity="0" result="BackgroundImageFix"/>
<feBlend mode="normal" in="SourceGraphic" in2="BackgroundImageFix" result="shape"/>
<feGaussianBlur stdDeviation="28" result="effect1_foregroundBlur_295_35154"/>
</filter>
<filter id="filter2_f_295_35154" x="-110.56" y="-57.7598" width="268.64" height="269.52" filterUnits="userSpaceOnUse" color-interpolation-filters="sRGB">
<feFlood flood-opacity="0" result="BackgroundImageFix"/>
<feBlend mode="normal" in="SourceGraphic" in2="BackgroundImageFix" result="shape"/>
<feGaussianBlur stdDeviation="28" result="effect1_foregroundBlur_295_35154"/>
</filter>
<filter id="filter3_f_295_35154" x="-66.5601" y="46.96" width="268.64" height="269.52" filterUnits="userSpaceOnUse" color-interpolation-filters="sRGB">
<feFlood flood-opacity="0" result="BackgroundImageFix"/>
<feBlend mode="normal" in="SourceGraphic" in2="BackgroundImageFix" result="shape"/>
<feGaussianBlur stdDeviation="28" result="effect1_foregroundBlur_295_35154"/>
</filter>
</defs>
</svg>
