<svg width="176" height="176" viewBox="0 0 176 176" fill="none" xmlns="http://www.w3.org/2000/svg">
<mask id="mask0_295_34872" style="mask-type:alpha" maskUnits="userSpaceOnUse" x="0" y="0" width="176" height="176">
<path fill-rule="evenodd" clip-rule="evenodd" d="M11.693 0.337964C6.17923 1.41473 1.4365 6.28219 0.357664 11.9722C-0.119221 14.4868 -0.119221 161.346 0.357664 163.861C1.46467 169.698 6.20054 174.445 11.9974 175.527C14.5447 176.002 161.39 176.002 163.937 175.527C169.577 174.474 174.795 169.34 175.49 164.159C175.59 163.411 175.806 162.717 175.969 162.616C176.136 162.513 175.576 163.612 175.529 121.696C175.651 122.486 175.434 152.12 175.529 121.696C174.702 116.341 169.605 111.309 163.937 110.251C162.807 110.04 152.574 109.905 137.661 109.905H113.237L135.952 87.1434C148.445 74.6245 158.933 63.8537 159.258 63.2088C161.735 58.3032 161.791 53.444 159.427 48.7078C158.38 46.6123 129.271 17.5031 127.176 16.4569C122.44 14.0924 117.58 14.1487 112.675 16.6252C112.03 16.9509 101.259 27.439 88.7401 39.9318L65.9781 62.6467V38.2221C65.9781 23.2522 65.8442 13.0909 65.6318 11.9722C64.5248 6.13445 59.7889 1.38794 53.9921 0.306011C51.7039 -0.121055 13.8967 -0.0925381 11.693 0.337964ZM0.180034 87.9165C0.180034 129.206 0.220233 146.097 0.269021 125.452C0.317809 104.808 0.317809 71.0255 0.269021 50.3807C0.220233 29.7358 0.180034 46.6271 0.180034 87.9165ZM16.9799 22.2812C16.581 22.4454 15.9238 23 15.5197 23.5136C14.7889 24.4426 14.7852 24.5471 14.7852 43.9795V63.5115L15.7877 64.6336L16.7903 65.7557H32.9947H49.1992L50.2018 64.6336L51.2043 63.5115V43.9386V24.3657L50.2021 23.2436L49.1996 22.1214L33.4527 22.052C24.7918 22.0139 17.3792 22.117 16.9799 22.2812ZM100.944 49.0063C86.0832 63.8355 85.9644 63.9839 87.0765 66.3278C87.3861 66.9802 92.4676 72.3194 98.3682 78.1925C109.868 89.6378 110.114 89.8243 112.411 88.8321C113.097 88.5363 119.028 82.8473 127.049 74.7935L140.534 61.2525V59.7304V58.2084L129.105 46.7789L117.675 35.3492H116.153H114.631L100.944 49.0063ZM79.0382 71.7034C78.4902 71.7893 75.9938 74.006 72.0808 77.8809L65.9781 83.9241V101.156V118.388L69.5641 121.877C73.0974 125.315 73.1744 125.366 74.7947 125.366H76.4394L90.2371 111.537C99.4048 102.349 104.084 97.4201 104.183 96.8495C104.535 94.8065 103.94 94.0795 92.8699 83.0205C81.8263 71.9879 81.0859 71.3818 79.0382 71.7034ZM16.9765 73.6364C14.6845 74.6341 14.7852 73.635 14.7852 95.3535V115.006L15.8423 116.063L16.8995 117.12H32.9947H49.09L50.1471 116.063L51.2043 115.006V95.3535C51.2043 73.5577 51.3146 74.6152 48.9371 73.6216C47.281 72.9296 18.57 72.943 16.9765 73.6364ZM82.2108 140.915L65.9781 157.15V159.124V161.098H83.0804C98.3359 161.098 100.269 161.038 100.983 160.538C102.683 159.347 102.741 158.768 102.741 142.889C102.741 127.01 102.683 126.43 100.983 125.24C99.134 123.944 99.4013 123.721 82.2108 140.915ZM111.25 125.682L110.128 126.684V142.889V159.093L111.25 160.096L112.372 161.098H131.945H151.518L152.64 160.096L153.762 159.093V142.889V126.684L152.64 125.682L151.518 124.679H131.945H112.372L111.25 125.682ZM29.662 132.513C25.9298 133.847 23.5515 136.355 22.4603 140.108C21.4406 143.615 22.5974 147.93 25.2756 150.608C29.4531 154.785 36.5363 154.785 40.7139 150.608C44.8911 146.43 44.8911 139.347 40.7139 135.17C37.9192 132.375 33.2136 131.244 29.662 132.513Z" fill="white"/>
</mask>
<g mask="url(#mask0_295_34872)">
<g filter="url(#filter0_f_295_34872)">
<ellipse cx="133.76" cy="113.159" rx="92.4" ry="92.9191" fill="#D9D7FF"/>
</g>
<g filter="url(#filter1_f_295_34872)">
<ellipse cx="77.4401" cy="3.9602" rx="78.32" ry="78.76" fill="#CC81F4"/>
</g>
<g filter="url(#filter2_f_295_34872)">
<ellipse cx="23.7599" cy="77.0002" rx="78.32" ry="78.76" fill="#F8C3F9"/>
</g>
<g filter="url(#filter3_f_295_34872)">
<ellipse cx="67.7599" cy="181.72" rx="78.32" ry="78.76" fill="#AEA5FF"/>
</g>
</g>
<defs>
<filter id="filter0_f_295_34872" x="-24.7073" y="-45.8272" width="316.935" height="317.973" filterUnits="userSpaceOnUse" color-interpolation-filters="sRGB">
<feFlood flood-opacity="0" result="BackgroundImageFix"/>
<feBlend mode="normal" in="SourceGraphic" in2="BackgroundImageFix" result="shape"/>
<feGaussianBlur stdDeviation="33.0337" result="effect1_foregroundBlur_295_34872"/>
</filter>
<filter id="filter1_f_295_34872" x="-56.8799" y="-130.8" width="268.64" height="269.52" filterUnits="userSpaceOnUse" color-interpolation-filters="sRGB">
<feFlood flood-opacity="0" result="BackgroundImageFix"/>
<feBlend mode="normal" in="SourceGraphic" in2="BackgroundImageFix" result="shape"/>
<feGaussianBlur stdDeviation="28" result="effect1_foregroundBlur_295_34872"/>
</filter>
<filter id="filter2_f_295_34872" x="-110.56" y="-57.7598" width="268.64" height="269.52" filterUnits="userSpaceOnUse" color-interpolation-filters="sRGB">
<feFlood flood-opacity="0" result="BackgroundImageFix"/>
<feBlend mode="normal" in="SourceGraphic" in2="BackgroundImageFix" result="shape"/>
<feGaussianBlur stdDeviation="28" result="effect1_foregroundBlur_295_34872"/>
</filter>
<filter id="filter3_f_295_34872" x="-66.5601" y="46.96" width="268.64" height="269.52" filterUnits="userSpaceOnUse" color-interpolation-filters="sRGB">
<feFlood flood-opacity="0" result="BackgroundImageFix"/>
<feBlend mode="normal" in="SourceGraphic" in2="BackgroundImageFix" result="shape"/>
<feGaussianBlur stdDeviation="28" result="effect1_foregroundBlur_295_34872"/>
</filter>
</defs>
</svg>
