<svg width="176" height="176" viewBox="0 0 176 176" fill="none" xmlns="http://www.w3.org/2000/svg">
<mask id="mask0_295_35483" style="mask-type:alpha" maskUnits="userSpaceOnUse" x="21" y="0" width="134" height="176">
<path fill-rule="evenodd" clip-rule="evenodd" d="M100.558 1.75652C82.7939 9.06891 75.6255 18.04 75.6255 32.9611C75.6255 44.8163 80.2189 55.5082 87.719 61.1104C89.7926 62.6592 91.3535 64.0626 91.1869 64.2293C91.021 64.3953 89.0239 63.9906 86.7495 63.3291C77.7522 60.7118 70.8595 51.0466 68.3231 37.491C67.621 33.7401 66.9439 30.5408 66.8182 30.3817C66.0707 29.4352 54.0598 37.4993 49.4573 42.0375C43.4136 47.9958 40.722 53.4206 39.258 62.5888C36.967 76.9339 45.0086 93.9108 57.6254 101.368C60.6405 103.149 60.208 103.743 56.5023 102.912C49.2566 101.287 41.8436 94.4594 37.3609 85.2829C33.8581 78.1122 32.354 71.7183 32.2396 63.5026L32.1442 56.6843L30.0546 59.2114C24.6161 65.7895 21.1163 75.6836 21.1201 84.4721C21.13 107.949 38.8112 127.215 67.1386 134.615C76.2291 136.989 93.8694 137.855 103.739 136.411C120.592 133.946 136.659 125.81 144.649 115.696C147.518 112.065 151.361 105.356 151.361 103.978C151.361 103.635 148.719 104.629 145.492 106.187C125.462 115.856 103.505 116.579 88.955 108.047C86.0611 106.35 80.927 101.028 80.927 99.7243C80.927 99.4811 82.9809 100.61 85.4916 102.233C91.7451 106.277 98.0069 108.249 107.644 109.208C129.57 111.391 146.646 104.754 152.767 91.6708C155.628 85.5534 155.58 77.0734 152.648 71.0749C148.307 62.1955 136.883 53.1978 123.127 47.8261C118.87 46.1643 114.501 44.5836 113.42 44.3146L111.453 43.8259L113.324 49.3727C115.618 56.166 116.409 66.5844 115.011 71.5781C113.621 76.5482 109.061 81.3858 103.973 83.29C93.3984 87.2486 76.8062 83.318 70.7921 75.429C67.3272 70.8832 65.0361 65.122 65.0483 60.9815L65.0581 57.1927L66.9053 61.7393C69.3652 67.7946 76.6282 74.8592 82.9264 77.3227C91.0574 80.5037 98.993 79.5376 104.289 74.722C111.174 68.4629 110.452 55.872 102.5 43.4917C95.5508 32.6731 94.1497 31.6713 94.2049 25.0061C94.202 18.403 96.9064 12.0992 101.76 4.85804C103.558 2.17632 104.973 -0.00981772 104.906 3.31614e-05C104.839 0.00988405 102.883 0.800229 100.558 1.75652ZM29.932 124.76C27.7652 126.927 35.6061 149.622 41.9694 159.603C48.2494 169.452 65.9897 175.913 86.9858 175.999C100.97 176.056 112.096 173.773 122.458 168.723C129.439 165.321 132.574 161.874 136.877 152.874C141.321 143.577 146.225 129.307 145.908 126.591C145.589 123.854 143.614 123.788 140.623 126.416C137.693 128.99 136.363 131.518 130.918 144.865C127.011 154.443 124.489 158.354 122.22 158.354C120.347 158.354 119.358 154.669 119.883 149.64C121.242 136.616 121.276 135.621 120.363 135.621C117.091 135.621 114.981 138.904 111.599 149.261C109.233 156.506 106.588 162.159 104.916 163.548C104.299 164.06 102.699 164.794 101.359 165.178C95.9711 166.724 92.9583 162.613 91.4611 151.67C90.6976 146.094 89.2405 142.441 87.7796 142.441C87.1252 142.441 84.7138 144.526 84.7138 145.092C84.7138 146.812 82.9476 157.782 82.3834 159.568C81.317 162.943 78.4005 165.418 75.5846 165.339C70.3581 165.189 67.515 161.217 63.1731 147.996C60.4754 139.78 57.8958 135.621 55.4973 135.621C53.7319 135.621 53.6258 136.905 54.7664 144.503C55.9441 152.348 55.7646 155.778 54.0878 157.481C51.5643 160.041 48.7371 155.973 43.0221 141.556C39.0452 131.521 36.711 127.549 33.7218 125.725C31.0846 124.117 30.678 124.013 29.932 124.76Z" fill="white"/>
</mask>
<g mask="url(#mask0_295_35483)">
<g filter="url(#filter0_f_295_35483)">
<ellipse cx="121.44" cy="94.5998" rx="78.32" ry="78.76" fill="#D9D7FF"/>
</g>
<g filter="url(#filter1_f_295_35483)">
<ellipse cx="77.4401" cy="3.9602" rx="78.32" ry="78.76" fill="#CC81F4"/>
</g>
<g filter="url(#filter2_f_295_35483)">
<ellipse cx="23.7599" cy="77.0002" rx="78.32" ry="78.76" fill="#F8C3F9"/>
</g>
<g filter="url(#filter3_f_295_35483)">
<ellipse cx="67.7599" cy="181.72" rx="78.32" ry="78.76" fill="#AEA5FF"/>
</g>
</g>
<defs>
<filter id="filter0_f_295_35483" x="-12.8799" y="-40.1602" width="268.64" height="269.52" filterUnits="userSpaceOnUse" color-interpolation-filters="sRGB">
<feFlood flood-opacity="0" result="BackgroundImageFix"/>
<feBlend mode="normal" in="SourceGraphic" in2="BackgroundImageFix" result="shape"/>
<feGaussianBlur stdDeviation="28" result="effect1_foregroundBlur_295_35483"/>
</filter>
<filter id="filter1_f_295_35483" x="-56.8799" y="-130.8" width="268.64" height="269.52" filterUnits="userSpaceOnUse" color-interpolation-filters="sRGB">
<feFlood flood-opacity="0" result="BackgroundImageFix"/>
<feBlend mode="normal" in="SourceGraphic" in2="BackgroundImageFix" result="shape"/>
<feGaussianBlur stdDeviation="28" result="effect1_foregroundBlur_295_35483"/>
</filter>
<filter id="filter2_f_295_35483" x="-110.56" y="-57.7598" width="268.64" height="269.52" filterUnits="userSpaceOnUse" color-interpolation-filters="sRGB">
<feFlood flood-opacity="0" result="BackgroundImageFix"/>
<feBlend mode="normal" in="SourceGraphic" in2="BackgroundImageFix" result="shape"/>
<feGaussianBlur stdDeviation="28" result="effect1_foregroundBlur_295_35483"/>
</filter>
<filter id="filter3_f_295_35483" x="-66.5601" y="46.96" width="268.64" height="269.52" filterUnits="userSpaceOnUse" color-interpolation-filters="sRGB">
<feFlood flood-opacity="0" result="BackgroundImageFix"/>
<feBlend mode="normal" in="SourceGraphic" in2="BackgroundImageFix" result="shape"/>
<feGaussianBlur stdDeviation="28" result="effect1_foregroundBlur_295_35483"/>
</filter>
</defs>
</svg>
