<svg width="176" height="176" viewBox="0 0 176 176" fill="none" xmlns="http://www.w3.org/2000/svg">
<mask id="mask0_295_35420" style="mask-type:alpha" maskUnits="userSpaceOnUse" x="0" y="11" width="176" height="154">
<path fill-rule="evenodd" clip-rule="evenodd" d="M84.1648 35.9917C86.2875 28.373 87.0955 22.0227 87.2584 11.6779C87.2824 10.1518 88.4082 16.1942 89.4236 23.2993C90.437 30.3909 90.909 33.0246 91.7945 36.5326C93.436 43.0346 95.4331 47.559 102.401 60.5612C105.84 66.9791 107.081 69.9844 107.984 74.0845C108.276 75.4093 108.338 76.2612 108.344 79.0447C108.351 82.0776 108.308 82.6111 107.902 84.5154C106.579 90.7274 103.601 96.2464 99.1526 100.728C98.061 101.828 96.6957 102.803 96.5097 102.616C96.4767 102.583 97.02 101.613 97.7174 100.462C101.782 93.7489 103.536 88.5171 103.684 82.6573C103.749 80.0891 103.582 78.3821 103.011 75.807C101.977 71.1347 100.589 68.2925 95.9202 61.2819C91.258 54.2811 89.0134 49.3901 87.5102 42.9563C87.256 41.8685 87.0209 41.0058 86.9877 41.0392C86.9545 41.0727 86.7724 41.6981 86.5833 42.429C85.5302 46.4977 83.9206 50.6937 80.885 57.2845C77.3952 64.8621 76.0646 68.6549 75.5049 72.6223C74.7546 77.9392 75.8383 83.4686 78.7211 89.0348C80.2427 91.9725 82.8118 96.7169 84.3645 99.4561C84.7561 100.147 85.0476 100.741 85.0126 100.776C84.871 100.919 81.5612 98.0837 79.8344 96.3405C75.2066 91.6687 72.2895 86.387 70.9784 80.3049C70.5357 78.251 70.5342 71.9529 70.9759 69.8869C71.8591 65.7567 72.6369 63.7472 77.676 52.5797C81.7267 43.6024 82.8307 40.7801 84.1648 35.9917ZM81.0958 18.4692C81.2047 17.4064 81.3213 16.4424 81.355 16.3268C81.3886 16.2114 81.5371 16.1168 81.6848 16.1168C81.8894 16.1168 81.9311 16.2268 81.8596 16.5788C81.8081 16.8331 81.3906 19.328 80.9321 22.1234C79.0501 33.5961 77.9101 36.9742 71.3347 50.5633C67.0158 59.4889 65.8625 62.3638 65.0657 66.1902C64.5764 68.54 64.5344 72.188 64.9728 74.2558C65.3404 75.9893 66.3836 78.7133 67.1596 79.9658C67.4736 80.4724 67.7067 80.9107 67.6779 80.9399C67.6488 80.969 67.1472 80.7329 66.5631 80.4153C64.5419 79.3164 63.4281 79.0436 60.9982 79.0526C59.0739 79.0596 58.6803 79.1129 57.4961 79.5257C54.1148 80.7051 51.5599 82.8654 49.993 85.8699C47.8205 90.0354 48.004 93.7967 50.5648 97.5964C51.3876 98.8173 53.3422 100.799 54.9175 102.009C55.5485 102.494 56.0491 102.902 56.0301 102.916C56.0109 102.93 47.2152 102.732 36.484 102.477C25.7527 102.222 14.909 101.968 12.3867 101.912C9.86437 101.856 6.24344 101.763 4.34034 101.704L0.88 101.596V101.195C0.88 100.975 0.973888 100.764 1.08845 100.728C1.20319 100.692 5.46182 100.313 10.5523 99.8873C15.6427 99.4614 22.8094 98.8539 26.4782 98.5373C30.147 98.2206 36.5101 97.6775 40.6187 97.3302C44.7272 96.9829 48.1647 96.6514 48.2578 96.5934C48.364 96.5272 48.2711 96.0883 48.0078 95.4118C47.2053 93.3509 47.0072 92.2807 47.0002 89.9667C46.9929 87.5526 47.2822 86.2584 48.2761 84.2595C49.4878 81.8227 51.7977 79.335 53.8645 78.2406C55.829 77.2005 57.3154 76.8663 59.9142 76.8806C61.3205 76.8883 62.6029 76.9925 63.331 77.1585C63.9721 77.3045 64.5217 77.3986 64.5527 77.3675C64.5836 77.3363 64.3745 76.5731 64.0878 75.6714C62.4605 70.5528 62.8474 65.5739 65.3514 59.4093C66.0919 57.586 67.9525 53.7856 69.9762 49.9627C71.9634 46.2086 74.6918 40.747 75.4681 38.9691C78.4504 32.1386 80.4366 24.9035 81.0958 18.4692ZM97.0464 40.2046C94.8266 34.5346 93.4785 28.7422 93.3564 24.3503C93.3219 23.1027 93.3281 22.3465 93.3704 22.67C94.4767 31.1324 96.4755 37.4358 100.179 44.1401C101.378 46.3124 103.398 49.6413 109.171 58.9649C112.218 63.8867 113.414 66.3364 114.213 69.2988C114.622 70.813 114.669 71.2698 114.682 73.9197C114.689 75.537 114.64 77.1141 114.571 77.4245C114.45 77.9753 114.458 77.9859 114.905 77.8708C117.985 77.078 121.022 76.973 123.166 77.5846C127.239 78.7462 131.281 82.2112 133.017 86.0284C133.742 87.6208 133.957 88.6729 133.957 90.6202C133.957 92.4753 133.567 94.1732 132.714 96.0338C132.387 96.7463 132.164 97.3734 132.217 97.4273C132.301 97.5114 138.32 98.1137 155.886 99.7962C167.985 100.955 168.855 101.022 168.934 101.307C168.944 101.345 168.941 101.387 168.947 101.435C169 101.809 168.981 101.813 166.946 101.815C165.816 101.816 163.954 101.857 162.807 101.905C158.517 102.086 124.431 103.009 123.91 102.958C123.425 102.911 123.53 102.837 124.901 102.264C128.553 100.737 130.703 98.5856 131.901 95.2577C132.301 94.1487 132.354 93.7602 132.352 91.9831C132.35 90.2584 132.285 89.7721 131.908 88.6225C130.457 84.1979 126.334 80.422 121.7 79.2737C120.564 78.9922 119.693 78.9008 118.115 78.898C115.664 78.8933 114.654 79.1989 113.214 80.381L112.345 81.0936L112.598 79.9851C112.78 79.1878 112.851 77.933 112.848 75.516C112.845 72.4229 112.808 72.0083 112.388 70.3078C111.465 66.5707 109.85 63.1341 106.579 57.951C101.463 49.8429 99.0916 45.4287 97.0464 40.2046ZM86.1858 78.9435C87.736 75.2105 88.5948 71.9295 88.5968 69.7328C88.5972 69.3247 88.6362 69.0298 88.6835 69.0775C88.7309 69.1252 88.9525 69.7995 89.176 70.5759C90.0927 73.7607 91.0896 75.6602 93.5715 78.9511C95.9904 82.1586 96.7689 84.1085 96.7689 86.9598C96.7689 88.8671 96.3667 90.2848 95.4208 91.7122C94.8484 92.5758 93.1284 94.3361 92.9915 94.1983C92.9682 94.1746 93.1603 93.7044 93.4184 93.1533C94.6468 90.5313 94.4514 88.6638 92.7904 87.1519C91.4425 85.9249 89.3993 85.9059 87.838 87.1058C86.4312 88.1869 86.2016 90.2535 87.2397 92.489C87.531 93.1163 87.7377 93.6617 87.6986 93.7009C87.5562 93.8446 86.6637 93.2539 86.0759 92.627C84.646 91.1024 83.997 89.1706 84.1724 86.9616C84.4219 83.8208 84.8216 82.2284 86.1858 78.9435ZM56.0096 86.8717C57.0285 85.7627 58.718 84.7873 60.081 84.521C64.4985 83.6581 69.5124 87.1387 71.4942 92.4444C71.9849 93.7577 72.6611 96.5865 72.5188 96.73C72.4625 96.7866 71.7806 96.1466 71.0035 95.3074C69.3894 93.5646 68.3958 92.8396 67.1027 92.4607C66.2684 92.2163 66.1165 92.2178 65.1816 92.4796C62.9501 93.1044 62.135 94.5836 62.7805 96.8365C63.0472 97.7671 66.0921 100.84 67.4626 101.562C67.9882 101.839 68.4185 102.115 68.4188 102.176C68.4195 102.373 67.0432 102.534 65.4716 102.52C62.0996 102.491 58.6665 100.967 56.3897 98.4895C54.648 96.5939 53.8732 94.7321 53.8569 92.4032C53.8412 90.1605 54.4684 88.549 56.0096 86.8717ZM115.363 85.3319C116.151 84.9392 117.107 84.6078 117.698 84.5228C120.323 84.1449 122.797 84.9923 124.716 86.9257C126.338 88.5591 127.12 90.4789 127.12 92.8233C127.12 95.2838 126.358 97.0348 124.452 98.9561C122.633 100.789 120.985 101.668 118.281 102.247C117.144 102.491 112.608 102.58 112.616 102.359C112.618 102.29 113.394 101.683 114.341 101.011C116.416 99.5376 117.66 98.3201 118.244 97.1921C119.591 94.592 117.799 91.8695 114.899 92.1068C113.224 92.2439 112.417 92.7293 110.382 94.823L108.569 96.688L108.685 95.9318C109.481 90.7472 111.762 87.1266 115.363 85.3319ZM176 105.002C110.601 114.134 35.4244 108.638 0 103.87C0 115.265 10.6594 164.56 87.8397 164.56C147.067 164.56 176 123.831 176 105.002ZM8.82517 113.479C10.7299 115.068 19.3381 117.648 27.6746 119.128C36.8247 120.752 49.7645 122.059 62.256 122.621C82.0691 124.316 103.049 122.987 120.435 121.519C131.381 120.595 143.219 119.11 151.83 117.581C155.28 116.968 162.422 115.517 162.614 115.389C163.087 115.074 162.469 115.094 159.848 115.478C158.321 115.702 153.688 116.172 149.553 116.524C132.633 117.961 130.383 118.144 127.316 118.332C125.556 118.44 124.029 118.557 123.925 118.594C122.815 118.977 87.2913 120.133 79.6589 120.034C55.3468 119.717 36.0333 118.341 21.7617 115.908C18.5443 115.359 10.1015 113.591 8.65546 113.163C8.41813 113.092 8.46328 113.177 8.82517 113.479Z" fill="white"/>
</mask>
<g mask="url(#mask0_295_35420)">
<g filter="url(#filter0_f_295_35420)">
<ellipse cx="121.44" cy="94.5998" rx="78.32" ry="78.76" fill="#D9D7FF"/>
</g>
<g filter="url(#filter1_f_295_35420)">
<ellipse cx="77.4401" cy="3.9602" rx="78.32" ry="78.76" fill="#CC81F4"/>
</g>
<g filter="url(#filter2_f_295_35420)">
<ellipse cx="23.7599" cy="77.0002" rx="78.32" ry="78.76" fill="#F8C3F9"/>
</g>
<g filter="url(#filter3_f_295_35420)">
<ellipse cx="67.7599" cy="181.72" rx="78.32" ry="78.76" fill="#AEA5FF"/>
</g>
</g>
<defs>
<filter id="filter0_f_295_35420" x="-12.8799" y="-40.1602" width="268.64" height="269.52" filterUnits="userSpaceOnUse" color-interpolation-filters="sRGB">
<feFlood flood-opacity="0" result="BackgroundImageFix"/>
<feBlend mode="normal" in="SourceGraphic" in2="BackgroundImageFix" result="shape"/>
<feGaussianBlur stdDeviation="28" result="effect1_foregroundBlur_295_35420"/>
</filter>
<filter id="filter1_f_295_35420" x="-56.8799" y="-130.8" width="268.64" height="269.52" filterUnits="userSpaceOnUse" color-interpolation-filters="sRGB">
<feFlood flood-opacity="0" result="BackgroundImageFix"/>
<feBlend mode="normal" in="SourceGraphic" in2="BackgroundImageFix" result="shape"/>
<feGaussianBlur stdDeviation="28" result="effect1_foregroundBlur_295_35420"/>
</filter>
<filter id="filter2_f_295_35420" x="-110.56" y="-57.7598" width="268.64" height="269.52" filterUnits="userSpaceOnUse" color-interpolation-filters="sRGB">
<feFlood flood-opacity="0" result="BackgroundImageFix"/>
<feBlend mode="normal" in="SourceGraphic" in2="BackgroundImageFix" result="shape"/>
<feGaussianBlur stdDeviation="28" result="effect1_foregroundBlur_295_35420"/>
</filter>
<filter id="filter3_f_295_35420" x="-66.5601" y="46.96" width="268.64" height="269.52" filterUnits="userSpaceOnUse" color-interpolation-filters="sRGB">
<feFlood flood-opacity="0" result="BackgroundImageFix"/>
<feBlend mode="normal" in="SourceGraphic" in2="BackgroundImageFix" result="shape"/>
<feGaussianBlur stdDeviation="28" result="effect1_foregroundBlur_295_35420"/>
</filter>
</defs>
</svg>
