<svg width="176" height="177" viewBox="0 0 176 177" fill="none" xmlns="http://www.w3.org/2000/svg">
<mask id="mask0_295_35989" style="mask-type:alpha" maskUnits="userSpaceOnUse" x="0" y="0" width="176" height="177">
<path fill-rule="evenodd" clip-rule="evenodd" d="M80.7674 0.280874C59.488 1.8456 39.7673 11.2858 24.4843 27.224C-3.83705 56.7572 -8.06734 101.972 14.2974 136.102C36.6574 170.225 79.0054 184.619 117.462 171.168C146.487 161.014 168.711 135.262 174.812 104.711C176.243 97.5425 176.424 78.7355 175.12 72.5446C172.363 59.445 166.568 45.9139 159.708 36.5545C154.4 29.3119 144.045 19.329 137.053 14.7122C120.028 3.47161 101.607 -1.25086 80.7674 0.280874ZM73.982 9.9251C57.8418 12.9684 43.6838 20.248 32.3887 31.3102C25.0199 38.5284 20.5812 46.0706 20.5388 56.3977C20.4905 67.8421 26.5736 77.0423 37.023 82.3174C39.3963 83.5152 46.5696 86.2669 52.9631 88.4322C66.1731 92.9056 68.0334 93.7613 73.8278 98.0293C80.8859 103.228 84.1978 108.748 91.7905 127.971C93.4461 132.164 95.8094 137.271 97.0422 139.319C99.9508 144.153 105.953 149.692 110.868 152.078C114.334 153.76 115.518 153.973 121.502 153.992C129.386 154.016 132.581 153.039 139.516 148.478C149.743 141.755 160.543 125.084 164.558 109.825C172.08 81.2334 164.742 53.1417 144.429 32.7625C133.574 21.8727 121.697 14.9748 107.224 11.1559C98.9591 8.97441 82.2958 8.35768 73.982 9.9251ZM76.2846 24.6816C54.0323 28.9294 34.8651 45.0743 34.7937 59.6295C34.7668 64.9848 36.6459 69.0105 41.3805 73.7457C45.7589 78.1235 49.2075 80.0329 59.7264 83.901C71.6416 88.2834 75.5945 90.5867 81.8399 96.7884C87.5535 102.462 88.1871 103.529 96.5063 121.537C103.632 136.96 115.573 143.419 126.803 137.925C137.264 132.807 146.931 118.969 150.842 103.516C152.78 95.8566 152.927 83.3724 151.174 75.2997C145.867 50.8585 127.729 32.1282 103.104 25.6592C96.3851 23.8939 82.9718 23.4051 76.2846 24.6816ZM79.5023 39.3021C69.9011 40.8972 61.3369 45.2662 54.4302 52.0933C50.8409 55.6416 49.6775 57.3161 48.743 60.2819C47.7276 63.5009 47.6845 64.4267 48.4252 67.0707C49.9919 72.6664 52.8999 75.1394 64.5114 80.7506C83.4821 89.9175 87.2593 93.4886 96.8819 111.358C99.2048 115.672 101.983 120.265 103.055 121.566C106.868 126.191 113.88 128.028 118.804 125.691C124.846 122.825 131.793 113.828 134.967 104.764C137.442 97.6906 138.071 85.0597 136.337 77.263C134.962 71.0835 130.378 61.712 126.411 56.9727C114.81 43.1103 96.9897 36.3976 79.5023 39.3021ZM78.7475 54.9541C73.5928 56.4441 69.6123 58.4829 66.6707 61.1404C63.2113 64.2658 61.9152 66.6593 61.9152 69.9228C61.9152 73.9268 64.4724 76.5668 71.678 80.0019C83.4585 85.6192 90.4136 92.1185 96.8819 103.554C99.3381 107.896 101.436 110.738 102.925 111.742C111.276 117.37 121.157 106.638 122.276 90.7234C123.346 75.4922 114.055 61.0858 99.8101 55.8887C94.9913 54.1307 83.3798 53.6156 78.7475 54.9541ZM84.7869 67.0734C80.3627 68.0147 77.2117 70.0877 76.09 72.7944C74.8559 75.775 76.492 78.1915 82.6782 82.5268C85.601 84.5749 89.6239 88.138 91.6175 90.4454C100.777 101.043 101.971 101.635 106.023 97.5843C111.792 91.8148 110.554 79.944 103.449 72.9095C98.1673 67.68 91.5966 65.6251 84.7869 67.0734Z" fill="white"/>
</mask>
<g mask="url(#mask0_295_35989)">
<g filter="url(#filter0_f_295_35989)">
<ellipse cx="139.04" cy="106.119" rx="92.4" ry="92.9191" fill="#D9D7FF"/>
</g>
<g filter="url(#filter1_f_295_35989)">
<ellipse cx="77.4401" cy="3.95995" rx="78.32" ry="78.76" fill="#CC81F4"/>
</g>
<g filter="url(#filter2_f_295_35989)">
<ellipse cx="23.7599" cy="77" rx="78.32" ry="78.76" fill="#F8C3F9"/>
</g>
<g filter="url(#filter3_f_295_35989)">
<ellipse cx="67.7599" cy="181.72" rx="78.32" ry="78.76" fill="#AEA5FF"/>
</g>
</g>
<defs>
<filter id="filter0_f_295_35989" x="-19.4275" y="-52.8675" width="316.935" height="317.973" filterUnits="userSpaceOnUse" color-interpolation-filters="sRGB">
<feFlood flood-opacity="0" result="BackgroundImageFix"/>
<feBlend mode="normal" in="SourceGraphic" in2="BackgroundImageFix" result="shape"/>
<feGaussianBlur stdDeviation="33.0337" result="effect1_foregroundBlur_295_35989"/>
</filter>
<filter id="filter1_f_295_35989" x="-56.8799" y="-130.8" width="268.64" height="269.52" filterUnits="userSpaceOnUse" color-interpolation-filters="sRGB">
<feFlood flood-opacity="0" result="BackgroundImageFix"/>
<feBlend mode="normal" in="SourceGraphic" in2="BackgroundImageFix" result="shape"/>
<feGaussianBlur stdDeviation="28" result="effect1_foregroundBlur_295_35989"/>
</filter>
<filter id="filter2_f_295_35989" x="-110.56" y="-57.76" width="268.64" height="269.52" filterUnits="userSpaceOnUse" color-interpolation-filters="sRGB">
<feFlood flood-opacity="0" result="BackgroundImageFix"/>
<feBlend mode="normal" in="SourceGraphic" in2="BackgroundImageFix" result="shape"/>
<feGaussianBlur stdDeviation="28" result="effect1_foregroundBlur_295_35989"/>
</filter>
<filter id="filter3_f_295_35989" x="-66.5601" y="46.96" width="268.64" height="269.52" filterUnits="userSpaceOnUse" color-interpolation-filters="sRGB">
<feFlood flood-opacity="0" result="BackgroundImageFix"/>
<feBlend mode="normal" in="SourceGraphic" in2="BackgroundImageFix" result="shape"/>
<feGaussianBlur stdDeviation="28" result="effect1_foregroundBlur_295_35989"/>
</filter>
</defs>
</svg>
