<svg width="176" height="176" viewBox="0 0 176 176" fill="none" xmlns="http://www.w3.org/2000/svg">
<mask id="mask0_295_34756" style="mask-type:alpha" maskUnits="userSpaceOnUse" x="0" y="0" width="176" height="176">
<path fill-rule="evenodd" clip-rule="evenodd" d="M86.4469 0.109992C84.9668 0.523814 84.0106 1.63766 77.3393 10.7166C73.5263 15.9057 70.2532 20.2459 70.0661 20.3615C69.8787 20.4774 64.7555 18.4523 58.6809 15.861C48.9031 11.6901 47.4688 11.169 46.171 11.3152C44.3732 11.5178 42.8347 12.5656 42.141 14.0592C41.8342 14.7196 41.0424 19.9948 40.2224 26.8354C39.4547 33.2436 38.7719 38.5414 38.7049 38.6081C38.6381 38.6749 33.3299 39.3615 26.909 40.1341C18.6421 41.1286 14.8827 41.7175 14.0304 42.1512C12.3763 42.9933 11.211 45.0562 11.3868 46.8312C11.4614 47.588 13.5685 52.9815 16.0687 58.8169C18.5689 64.6521 20.5404 69.62 20.4496 69.8563C20.3591 70.0926 15.9927 73.4445 10.747 77.3047C5.50107 81.1654 0.984281 84.6668 0.709463 85.0858C-0.112928 86.3417 -0.237783 88.4893 0.42639 89.9623C0.916178 91.0489 2.72055 92.5305 10.918 98.5775L20.818 105.88L16.0484 117.002C13.425 123.12 11.2788 128.53 11.2788 129.026C11.2788 131.292 13.3401 133.818 15.5022 134.203C16.1117 134.311 21.5289 134.992 27.5405 135.717C33.5521 136.441 38.5501 137.113 38.6471 137.21C38.7441 137.308 39.4341 142.476 40.1808 148.695C40.9271 154.915 41.6175 160.341 41.7141 160.752C42.1437 162.574 44.8228 164.648 46.7475 164.648C47.1606 164.648 52.4234 162.56 58.4419 160.008C64.4607 157.456 69.5371 155.327 69.7232 155.278C69.9089 155.229 73.2449 159.523 77.1364 164.82C84.5163 174.866 85.6159 176 87.9802 176C90.3445 176 91.4442 174.866 98.824 164.82C102.715 159.523 106.085 155.234 106.313 155.29C106.54 155.346 111.609 157.475 117.578 160.02C123.546 162.566 128.775 164.648 129.197 164.648C131.138 164.648 133.82 162.578 134.244 160.752C134.339 160.341 135.029 154.915 135.777 148.695C136.525 142.475 137.213 137.311 137.305 137.218C137.398 137.126 142.396 136.458 148.412 135.732C154.428 135.007 159.849 134.322 160.458 134.21C162.627 133.81 164.682 131.288 164.682 129.026C164.682 128.53 162.538 123.127 159.919 117.019L155.156 105.913L164.888 98.7316C175.618 90.8143 176.256 90.16 175.944 87.3937C175.85 86.5633 175.537 85.5234 175.248 85.0821C174.959 84.6411 170.435 81.1268 165.195 77.2728C159.955 73.4187 155.595 70.0768 155.507 69.846C155.418 69.6155 157.372 64.6954 159.848 58.9129C162.325 53.1301 164.445 47.9272 164.561 47.3507C164.848 45.9135 163.831 43.3955 162.613 42.5283C161.368 41.6414 160.219 41.4419 147.658 39.9332C141.984 39.2517 137.295 38.6473 137.238 38.5902C137.181 38.5331 136.506 33.2436 135.738 26.8354C134.918 19.9948 134.126 14.7196 133.819 14.0592C133.127 12.5687 131.588 11.5181 129.801 11.3165C128.517 11.1717 127.063 11.7025 117.389 15.8476C111.362 18.4296 106.246 20.4715 106.02 20.3848C105.795 20.2982 102.477 15.9646 98.6493 10.7548C94.8211 5.54506 91.3196 1.04049 90.8691 0.745344C89.9775 0.161247 87.5241 -0.191344 86.4469 0.109992ZM73.6333 58.2659C76.3852 59.5589 79.5661 62.4474 80.8635 64.8309C86.0283 74.3213 80.4401 85.832 69.7806 87.6603C62.1421 88.9702 54.3544 83.9376 52.399 76.4283C50.9341 70.8023 52.5345 65.2214 56.7586 61.2259C60.1624 58.0068 62.9903 56.9501 67.859 57.0784C70.903 57.1585 71.5668 57.2951 73.6333 58.2659ZM111.286 57.6652C113.504 59.0171 114.438 62.0673 113.302 64.2444C112.572 65.6424 71.6683 116.606 70.4582 117.624C66.8787 120.637 61.4405 117.292 62.3176 112.617C62.4837 111.73 67.8758 104.739 83.6344 84.9785C95.2366 70.4301 105.24 58.1788 105.864 57.753C107.328 56.755 109.73 56.7162 111.286 57.6652ZM64.7723 68.0841C62.0283 69.6386 61.4711 73.2952 63.6081 75.7289C66.1406 78.614 70.7592 77.7155 72.1364 74.0702C72.6681 72.6633 72.5918 71.8287 71.7783 70.1477C70.4857 67.4773 67.4318 66.5777 64.7723 68.0841ZM114.946 89.2474C121.634 92.3774 125.219 99.4695 123.708 106.583C122.046 114.411 114.12 119.911 106.355 118.624C95.6417 116.849 89.9356 105.275 95.0969 95.7902C96.3778 93.4369 99.5965 90.4944 102.164 89.33C104.982 88.0521 105.436 87.9733 109.344 88.0813C112.217 88.1611 112.951 88.3138 114.946 89.2474ZM106.204 98.8957C101.635 101.327 103.431 108.406 108.617 108.406C111.273 108.406 113.388 106.437 113.657 103.715C113.935 100.899 111.496 98.2579 108.617 98.2579C107.949 98.2579 106.864 98.5448 106.204 98.8957Z" fill="white"/>
</mask>
<g mask="url(#mask0_295_34756)">
<g filter="url(#filter0_f_295_34756)">
<ellipse cx="121.44" cy="94.5998" rx="78.32" ry="78.76" fill="#D9D7FF"/>
</g>
<g filter="url(#filter1_f_295_34756)">
<ellipse cx="77.4401" cy="3.9602" rx="78.32" ry="78.76" fill="#CC81F4"/>
</g>
<g filter="url(#filter2_f_295_34756)">
<ellipse cx="23.7599" cy="77.0002" rx="78.32" ry="78.76" fill="#F8C3F9"/>
</g>
<g filter="url(#filter3_f_295_34756)">
<ellipse cx="67.7599" cy="181.72" rx="78.32" ry="78.76" fill="#AEA5FF"/>
</g>
</g>
<defs>
<filter id="filter0_f_295_34756" x="-12.8799" y="-40.1602" width="268.64" height="269.52" filterUnits="userSpaceOnUse" color-interpolation-filters="sRGB">
<feFlood flood-opacity="0" result="BackgroundImageFix"/>
<feBlend mode="normal" in="SourceGraphic" in2="BackgroundImageFix" result="shape"/>
<feGaussianBlur stdDeviation="28" result="effect1_foregroundBlur_295_34756"/>
</filter>
<filter id="filter1_f_295_34756" x="-56.8799" y="-130.8" width="268.64" height="269.52" filterUnits="userSpaceOnUse" color-interpolation-filters="sRGB">
<feFlood flood-opacity="0" result="BackgroundImageFix"/>
<feBlend mode="normal" in="SourceGraphic" in2="BackgroundImageFix" result="shape"/>
<feGaussianBlur stdDeviation="28" result="effect1_foregroundBlur_295_34756"/>
</filter>
<filter id="filter2_f_295_34756" x="-110.56" y="-57.7598" width="268.64" height="269.52" filterUnits="userSpaceOnUse" color-interpolation-filters="sRGB">
<feFlood flood-opacity="0" result="BackgroundImageFix"/>
<feBlend mode="normal" in="SourceGraphic" in2="BackgroundImageFix" result="shape"/>
<feGaussianBlur stdDeviation="28" result="effect1_foregroundBlur_295_34756"/>
</filter>
<filter id="filter3_f_295_34756" x="-66.5601" y="46.96" width="268.64" height="269.52" filterUnits="userSpaceOnUse" color-interpolation-filters="sRGB">
<feFlood flood-opacity="0" result="BackgroundImageFix"/>
<feBlend mode="normal" in="SourceGraphic" in2="BackgroundImageFix" result="shape"/>
<feGaussianBlur stdDeviation="28" result="effect1_foregroundBlur_295_34756"/>
</filter>
</defs>
</svg>
