<svg width="176" height="176" viewBox="0 0 176 176" fill="none" xmlns="http://www.w3.org/2000/svg">
<mask id="mask0_295_34765" style="mask-type:alpha" maskUnits="userSpaceOnUse" x="0" y="0" width="176" height="176">
<path fill-rule="evenodd" clip-rule="evenodd" d="M93.6221 0.390674C85.3672 1.96218 80.8218 4.63996 68.6539 15.1C48.8949 32.0858 32.1289 48.8619 15.1533 68.6328C4.44971 81.0989 1.92852 85.4466 0.431484 94.0187C-0.316172 98.2991 -0.0652274 105.382 0.975486 109.388C1.95821 113.17 4.30887 118.137 6.59361 121.258C8.86454 124.36 14.5648 131.614 16.0111 133.243L17.105 134.474L18.542 133.198C21.3873 130.671 25.1508 129.357 29.5055 129.369C32.8078 129.378 34.5448 129.785 37.3639 131.209C45.9995 135.571 49.2908 146.699 44.4593 155.198C43.905 156.173 43.2112 157.171 42.9171 157.415C41.4546 158.629 41.5964 158.977 44.5822 161.493C54.0063 169.433 60.7438 173.579 66.5829 175.03C70.3384 175.963 77.2202 176.288 81.1249 175.717C86.6529 174.908 92.1254 172.725 96.6134 169.539C105.432 163.278 128.953 141.867 141.363 128.804C152.153 117.446 165.134 102.647 169.149 97.1272C173.829 90.693 176.009 83.8074 176 75.4863C175.993 68.9599 174.625 63.4396 171.74 58.2913C169.803 54.8364 159.659 41.7528 158.885 41.7124C158.678 41.7017 158.228 42.0018 157.886 42.3797C155.681 44.817 150.967 46.5775 146.644 46.5775C141.538 46.5775 137.905 45.0806 134.332 41.5058C127.929 35.0986 127.55 24.5967 133.489 18.1259C134.347 17.1913 134.349 17.1751 133.693 16.4432C132.817 15.4675 125.909 9.94406 121.92 7.02969C118.226 4.33153 113.467 1.98601 109.558 0.93673C105.99 -0.0206815 97.3397 -0.317023 93.6221 0.390674ZM76.9327 46.1316C75.1606 47.0738 74.1768 48.7109 74.1768 50.7176C74.1768 51.6357 75.1033 56.7187 76.2354 62.0128C77.368 67.3069 79.8622 79.0832 81.779 88.182C87.1973 113.904 89.0167 121.895 89.7551 123.21C90.7833 125.041 92.5286 126.078 94.8333 126.225C97.1961 126.377 98.8239 125.649 99.972 123.93C101.089 122.257 100.986 120.788 99.1971 112.856C97.1961 103.985 95.1495 94.5023 90.0264 70.3598C87.7489 59.6269 85.7289 50.355 85.538 49.7557C84.4973 46.4904 79.8995 44.5542 76.9327 46.1316ZM113.872 66.2642C109.163 67.0427 104.155 70.8509 101.96 75.3223C100.439 78.4228 99.9337 81.1275 100.178 84.866C100.501 89.7978 102.207 93.5145 105.803 97.1182C111.817 103.145 120.604 104.772 127.889 101.21C130.571 99.8986 133.807 96.6091 135.164 93.8153C139.717 84.4381 135.514 72.6842 125.932 67.9966C121.894 66.021 118.389 65.5178 113.872 66.2642ZM52.0005 72.8065C46.6188 74.0758 41.738 79.1378 40.1784 85.0667C39.4764 87.7361 39.4764 93.3936 40.1784 96.0631C41.3117 100.371 44.6102 104.837 48.4689 107.286C52.4954 109.843 58.9175 110.537 63.5153 108.913C68.9291 107.001 72.7067 103.171 74.5917 97.6829C75.688 94.4916 75.679 89.4548 74.571 86.1819C72.3981 79.7612 66.9004 74.5731 60.5561 72.9564C58.3334 72.3899 54.0819 72.3157 52.0005 72.8065ZM115.824 78.1054C111.281 79.765 110.465 84.9624 114.148 88.7809C115.86 90.5552 117.648 91.4283 119.571 91.4283C124.276 91.4283 126.972 86.2555 124.39 82.1813C122.189 78.7095 118.708 77.0523 115.824 78.1054ZM54.329 84.8163C52.7271 85.5695 51.5942 86.7062 51.073 88.0833C49.4413 92.392 53.366 98.1123 57.9534 98.1123C60.9927 98.1123 63.4493 95.8724 63.741 92.8354C63.9523 90.6367 63.3958 89.0635 61.7424 87.1839C59.4649 84.5952 56.6859 83.7076 54.329 84.8163Z" fill="white"/>
</mask>
<g mask="url(#mask0_295_34765)">
<g filter="url(#filter0_f_295_34765)">
<ellipse cx="121.44" cy="94.5998" rx="78.32" ry="78.76" fill="#D9D7FF"/>
</g>
<g filter="url(#filter1_f_295_34765)">
<ellipse cx="77.4401" cy="3.9602" rx="78.32" ry="78.76" fill="#CC81F4"/>
</g>
<g filter="url(#filter2_f_295_34765)">
<ellipse cx="23.7599" cy="77.0002" rx="78.32" ry="78.76" fill="#F8C3F9"/>
</g>
<g filter="url(#filter3_f_295_34765)">
<ellipse cx="67.7599" cy="181.72" rx="78.32" ry="78.76" fill="#AEA5FF"/>
</g>
</g>
<defs>
<filter id="filter0_f_295_34765" x="-12.8799" y="-40.1602" width="268.64" height="269.52" filterUnits="userSpaceOnUse" color-interpolation-filters="sRGB">
<feFlood flood-opacity="0" result="BackgroundImageFix"/>
<feBlend mode="normal" in="SourceGraphic" in2="BackgroundImageFix" result="shape"/>
<feGaussianBlur stdDeviation="28" result="effect1_foregroundBlur_295_34765"/>
</filter>
<filter id="filter1_f_295_34765" x="-56.8799" y="-130.8" width="268.64" height="269.52" filterUnits="userSpaceOnUse" color-interpolation-filters="sRGB">
<feFlood flood-opacity="0" result="BackgroundImageFix"/>
<feBlend mode="normal" in="SourceGraphic" in2="BackgroundImageFix" result="shape"/>
<feGaussianBlur stdDeviation="28" result="effect1_foregroundBlur_295_34765"/>
</filter>
<filter id="filter2_f_295_34765" x="-110.56" y="-57.7598" width="268.64" height="269.52" filterUnits="userSpaceOnUse" color-interpolation-filters="sRGB">
<feFlood flood-opacity="0" result="BackgroundImageFix"/>
<feBlend mode="normal" in="SourceGraphic" in2="BackgroundImageFix" result="shape"/>
<feGaussianBlur stdDeviation="28" result="effect1_foregroundBlur_295_34765"/>
</filter>
<filter id="filter3_f_295_34765" x="-66.5601" y="46.96" width="268.64" height="269.52" filterUnits="userSpaceOnUse" color-interpolation-filters="sRGB">
<feFlood flood-opacity="0" result="BackgroundImageFix"/>
<feBlend mode="normal" in="SourceGraphic" in2="BackgroundImageFix" result="shape"/>
<feGaussianBlur stdDeviation="28" result="effect1_foregroundBlur_295_34765"/>
</filter>
</defs>
</svg>
