<svg width="176" height="176" viewBox="0 0 176 176" fill="none" xmlns="http://www.w3.org/2000/svg">
<mask id="mask0_295_35918" style="mask-type:alpha" maskUnits="userSpaceOnUse" x="0" y="7" width="176" height="162">
<path fill-rule="evenodd" clip-rule="evenodd" d="M136.401 137.918C145.944 124.826 151.066 109.002 151.015 92.7669L151.021 56.5303C160.956 52.0331 170.395 41.0399 174.866 33.5445C178.442 27.5483 172.713 27.0486 169.401 27.5483C154.995 30.0467 140.092 22.5514 137.608 15.056C135.621 9.05971 130.818 7.2272 128.664 7.06048C123.1 6.66073 121.709 12.2239 121.709 15.0555L121.074 92.8622C121.105 102.659 118.014 112.209 112.255 120.11C106.496 128.011 98.3715 133.848 89.0734 136.764C79.7752 139.681 69.7926 139.524 60.5896 136.317C51.3866 133.109 43.4474 127.02 37.9365 118.942C32.4255 110.863 29.6328 101.222 29.9679 91.4303C30.303 81.6388 33.7482 72.213 39.7983 64.5352C45.8484 56.8574 54.1851 51.3316 63.5856 48.7683C72.9861 46.2049 88.4264 45.5366 101.342 54.5311C103.495 55.697 107.899 56.5298 108.297 50.5335C108.694 44.5373 108.462 34.0438 108.297 29.5465C108.501 27.4969 107.706 23.163 102.891 22.2247C87.8498 16.3371 71.3292 15.4523 55.7518 19.7C40.1745 23.9476 26.36 33.1043 16.3345 45.827C6.30898 58.5497 0.599957 74.169 0.044716 90.3941C-0.510525 106.619 4.11723 122.596 13.2493 135.983C22.3813 149.369 35.5371 159.459 50.7872 164.774C66.0374 170.089 82.5793 170.349 97.9871 165.516C113.395 160.683 126.858 151.011 136.401 137.918ZM80.4175 92.4829C80.4175 95.5738 77.9119 98.0795 74.821 98.0795C71.73 98.0795 69.2244 95.5738 69.2244 92.4829C69.2244 89.392 71.73 86.8863 74.821 86.8863C77.9119 86.8863 80.4175 89.392 80.4175 92.4829ZM73.7283 92.4829C73.7283 93.0863 74.2175 93.5755 74.821 93.5755C75.4244 93.5755 75.9136 93.0863 75.9136 92.4829C75.9136 91.8794 75.4244 91.3902 74.821 91.3902C74.2175 91.3902 73.7283 91.8794 73.7283 92.4829ZM74.8 124.96C92.7824 124.96 107.36 110.382 107.36 92.4C107.36 74.4176 92.7824 59.84 74.8 59.84C56.8176 59.84 42.24 74.4176 42.24 92.4C42.24 110.382 56.8176 124.96 74.8 124.96ZM74.8 102.385C69.2852 102.385 64.8146 97.9148 64.8146 92.4C64.8146 86.8852 69.2852 82.4146 74.8 82.4146C80.3148 82.4146 84.7854 86.8852 84.7854 92.4C84.7854 97.9148 80.3148 102.385 74.8 102.385ZM75.0309 62.5123C72.3618 62.283 71.7998 62.1951 72.6722 62.1435C74.3459 62.0447 78.8605 62.4531 80.8141 62.8801C90.8178 65.0673 99.1279 71.9033 103.131 81.2388C103.684 82.5275 104.178 83.7988 104.23 84.0639C104.282 84.329 103.916 83.6227 103.417 82.4943C99.2508 73.0664 91.0011 66.0857 80.8888 63.4314C79.0857 62.9579 77.7144 62.7428 75.0309 62.5123ZM70.6339 64.5813C70.6665 64.5519 71.5396 64.5007 72.5742 64.4674C85.0548 64.0651 96.1785 71.0984 101.181 82.5553C101.957 84.332 102.524 85.9103 102.505 86.2391C102.501 86.3043 102.059 85.3431 101.524 84.103C98.2363 76.4934 92.9368 71.0739 85.2888 67.5013C81.7806 65.8623 78.3775 65.0641 73.8311 64.8141C72.0402 64.7155 70.6013 64.6109 70.6339 64.5813ZM74.3996 67.2596C72.0346 67.063 70.8528 66.9069 71.3767 66.8603C73.0468 66.7115 77.0907 66.9863 79.1901 67.3912C81.7553 67.8859 85.2632 69.2186 87.6727 70.6139C93.0904 73.7514 97.4774 79.0541 99.7458 85.2075C100.101 86.1711 100.363 87.0333 100.327 87.1234C100.291 87.2137 100.004 86.6086 99.6872 85.779C97.786 80.7936 94.0436 75.9666 89.5468 72.6999C87.8262 71.45 84.4867 69.6481 82.6791 68.9945C79.3544 67.7923 78.3988 67.592 74.3996 67.2596ZM69.8767 69.318C69.9677 69.2928 70.8504 69.243 71.8382 69.2074C75.6024 69.0715 78.0573 69.3914 81.3656 70.4491C87.3724 72.3695 92.2555 76.275 95.4389 81.7053C96.6004 83.6863 97.695 86.1806 98.2363 88.0797C98.6664 89.589 98.5873 89.8336 98.1271 88.4169C96.951 84.7956 95.0336 81.5342 92.2741 78.4622C88.5099 74.271 84.4969 71.8365 78.8056 70.2912C77.1683 69.8465 76.2354 69.7232 73.2736 69.5601C71.3142 69.4521 69.7856 69.3431 69.8767 69.318ZM72.1835 71.912C69.1727 71.8388 69.0116 71.8057 70.8435 71.636C72.7924 71.4558 76.6278 71.706 78.5319 72.1377C87.0697 74.0738 93.4822 80.2644 96.0652 89.0644C96.6834 91.1708 96.5359 91.1144 95.7859 88.9575C93.4562 82.2591 88.7821 77.0351 82.5215 74.1323C79.2618 72.6209 76.4423 72.0153 72.1835 71.912ZM69.0311 74.0545C69.1195 74.0313 69.7932 73.9682 70.5286 73.9139C79.1886 73.2769 86.5226 76.7337 91.0494 83.5863C92.541 85.8441 94.2166 89.9217 94.4843 91.9456C94.5332 92.3156 94.2776 91.7136 93.9163 90.6079C91.6806 83.7668 86.999 78.557 80.7872 75.9978C77.7218 74.735 76.5481 74.4912 72.5386 74.2851C70.5213 74.1815 68.9429 74.0777 69.0311 74.0545ZM68.65 74.2853C68.5837 74.3452 68.4196 74.3434 68.2857 74.2812C68.1375 74.2124 68.1849 74.1697 68.4064 74.1723C68.6068 74.1746 68.7164 74.2255 68.65 74.2853ZM68.4418 76.5637C68.3698 76.4834 70.4069 76.2362 71.6458 76.1751C74.3069 76.0435 77.6505 76.5848 80.0466 77.5351C86.094 79.9332 90.1098 84.6874 92.0607 91.7573C92.3694 92.8761 92.5829 93.8266 92.5354 93.8695C92.4878 93.9126 92.249 93.2693 92.0049 92.44C90.995 89.0115 89.6418 86.3845 87.613 83.9155C83.6526 79.0949 77.0311 76.2355 70.5481 76.5459C69.429 76.5996 68.4812 76.6076 68.4418 76.5637ZM68.1399 76.7391C68.0736 76.799 67.9095 76.7972 67.7756 76.735C67.6274 76.6663 67.6748 76.6236 67.8963 76.6261C68.0967 76.6285 68.2063 76.6793 68.1399 76.7391ZM67.8984 79.1911C68.5177 78.999 70.245 78.7783 71.9898 78.6681C76.6499 78.3742 81.5075 80.1682 84.7818 83.3923C87.3391 85.9102 89.6827 90.7749 89.9832 94.1887C90.0425 94.8609 89.9787 94.731 89.6956 93.601C87.8984 86.434 83.1811 81.3726 76.6941 79.6511C74.7725 79.1412 70.9873 78.9358 68.9161 79.229C67.1009 79.4862 66.9636 79.481 67.8984 79.1911ZM104.465 85.1245C104.365 85.0551 104.288 84.9178 104.293 84.8193C104.307 84.5456 104.44 84.6131 104.549 84.9494C104.605 85.1222 104.569 85.1968 104.465 85.1245ZM100.507 88.0655C100.414 87.9031 100.342 87.6847 100.348 87.58C100.354 87.4754 100.434 87.5225 100.527 87.6849C100.62 87.8472 100.691 88.0657 100.686 88.1703C100.68 88.275 100.6 88.2278 100.507 88.0655ZM73.4633 123.101C74.3365 123.135 73.786 122.993 71.1526 122.501C68.5049 122.007 67.1614 121.658 65.4138 121.009C55.6126 117.37 48.0916 109.61 44.8754 99.817C44.4903 98.645 44.1961 97.9061 44.2214 98.175C44.2466 98.4439 44.6131 99.7577 45.0361 101.095C48.0992 110.779 55.6945 118.402 65.4338 121.565C67.3358 122.182 71.788 123.034 73.4633 123.101ZM73.7901 120.798C74.8229 120.867 75.6968 120.902 75.7321 120.876C75.7675 120.85 74.3459 120.604 72.5734 120.329C68.0739 119.632 64.7661 118.502 61.4366 116.525C54.1783 112.215 49.4391 106.3 46.9181 98.4029C46.5073 97.1161 46.1627 96.116 46.1524 96.1805C46.1007 96.5057 46.5092 98.1322 47.1061 99.9769C50.9548 111.871 61.3307 119.967 73.7901 120.798ZM75.2177 118.535C75.7437 118.54 74.5831 118.268 72.2489 117.839C68.302 117.114 67.3708 116.821 64.1809 115.296C62.4465 114.468 59.3011 112.345 57.7121 110.932C53.5594 107.237 50.3113 102.065 48.911 96.9162C48.678 96.0594 48.4513 95.4289 48.4069 95.5153C48.3626 95.6014 48.538 96.4853 48.7964 97.4791C50.4468 103.826 54.2894 109.536 59.3714 113.192C61.6315 114.818 64.9908 116.491 67.4948 117.236C69.544 117.846 73.5411 118.518 75.2177 118.535ZM74.99 116.154C75.9764 116.215 76.8598 116.253 76.9527 116.237C77.0459 116.221 75.5355 115.962 73.5963 115.661C70.6651 115.207 69.7488 114.992 68.1634 114.388C62.6522 112.289 58.8989 109.47 55.5664 104.928C53.1234 101.599 51.5369 98.1646 50.7237 94.4451C50.4055 92.9898 50.3026 93.2255 50.5818 94.7698C50.9331 96.713 51.7764 99.3031 52.7369 101.389C55.3692 107.107 59.8433 111.475 65.6314 113.978C68.8194 115.357 71.2307 115.918 74.99 116.154ZM76.2193 113.835C78.0591 113.847 77.902 113.798 74.913 113.428C70.6852 112.905 67.9391 112.025 64.8444 110.199C58.9006 106.693 54.7646 101.033 53.1068 94.138C52.5731 91.9176 52.4319 91.8469 52.8394 94.004C54.542 103.016 60.3127 109.809 68.6179 112.577C70.4701 113.195 74.2621 113.822 76.2193 113.835ZM76.7573 111.599C77.4944 111.618 78.1712 111.621 78.2614 111.607C78.3514 111.593 76.791 111.334 74.7938 111.031C70.8241 110.431 69.6802 110.073 66.7543 108.514C60.8251 105.354 56.6801 99.7083 55.1301 92.68C54.8796 91.5441 54.6845 90.9198 54.6967 91.2928C54.7635 93.3332 56.0288 97.5562 57.2905 99.9501C61.1194 107.216 68.0767 111.379 76.7573 111.599ZM79.0255 111.455C78.8984 111.38 78.7353 111.362 78.6634 111.415C78.5915 111.468 78.6955 111.529 78.8947 111.551C79.1149 111.576 79.1662 111.538 79.0255 111.455ZM75.8686 109.239C77.1075 109.3 79.159 109.255 79.0953 109.168C79.0604 109.121 78.1164 109.035 76.9975 108.978C70.5155 108.648 64.2083 105.149 60.7426 99.9614C58.9672 97.3044 57.8797 94.5567 57.2128 91.0453C57.0517 90.196 56.8775 89.5323 56.8259 89.5705C56.7744 89.6085 56.8931 90.5754 57.0899 91.7191C58.3341 98.9471 61.8615 104.074 67.6429 107.057C69.9335 108.239 73.2074 109.107 75.8686 109.239ZM79.7751 109.063C79.648 108.988 79.4849 108.97 79.413 109.023C79.3411 109.076 79.4451 109.138 79.6443 109.16C79.8645 109.184 79.9158 109.146 79.7751 109.063ZM75.7722 106.724C77.5192 106.786 79.2599 106.737 79.8952 106.607C80.854 106.411 80.7179 106.392 78.8861 106.469C76.7962 106.557 73.0496 105.979 71.1877 105.282C64.9021 102.929 60.707 97.427 59.6254 90.1177C59.455 88.9653 59.4044 88.8298 59.3971 89.5045C59.3594 92.9313 61.2119 98.0034 63.5084 100.761C66.4487 104.293 71.1058 106.557 75.7722 106.724ZM44.2331 97.4171C44.248 97.3195 44.1845 97.1752 44.092 97.0963C43.9958 97.0142 43.9527 97.0849 43.9912 97.2623C44.0662 97.6077 44.1918 97.6879 44.2331 97.4171ZM48.4311 95.0588C48.4469 94.9552 48.3974 94.7308 48.321 94.5601C48.2447 94.3894 48.1692 94.3345 48.1534 94.4381C48.1376 94.5417 48.1871 94.7661 48.2635 94.9368C48.3399 95.1075 48.4153 95.1624 48.4311 95.0588Z" fill="white"/>
</mask>
<g mask="url(#mask0_295_35918)">
<g filter="url(#filter0_f_295_35918)">
<ellipse cx="139.04" cy="106.119" rx="92.4" ry="92.9191" fill="#D9D7FF"/>
</g>
<g filter="url(#filter1_f_295_35918)">
<ellipse cx="77.4401" cy="3.9602" rx="78.32" ry="78.76" fill="#CC81F4"/>
</g>
<g filter="url(#filter2_f_295_35918)">
<ellipse cx="23.7599" cy="77.0002" rx="78.32" ry="78.76" fill="#F8C3F9"/>
</g>
<g filter="url(#filter3_f_295_35918)">
<ellipse cx="67.7599" cy="181.72" rx="78.32" ry="78.76" fill="#AEA5FF"/>
</g>
</g>
<defs>
<filter id="filter0_f_295_35918" x="-19.4275" y="-52.8672" width="316.935" height="317.973" filterUnits="userSpaceOnUse" color-interpolation-filters="sRGB">
<feFlood flood-opacity="0" result="BackgroundImageFix"/>
<feBlend mode="normal" in="SourceGraphic" in2="BackgroundImageFix" result="shape"/>
<feGaussianBlur stdDeviation="33.0337" result="effect1_foregroundBlur_295_35918"/>
</filter>
<filter id="filter1_f_295_35918" x="-56.8799" y="-130.8" width="268.64" height="269.52" filterUnits="userSpaceOnUse" color-interpolation-filters="sRGB">
<feFlood flood-opacity="0" result="BackgroundImageFix"/>
<feBlend mode="normal" in="SourceGraphic" in2="BackgroundImageFix" result="shape"/>
<feGaussianBlur stdDeviation="28" result="effect1_foregroundBlur_295_35918"/>
</filter>
<filter id="filter2_f_295_35918" x="-110.56" y="-57.7598" width="268.64" height="269.52" filterUnits="userSpaceOnUse" color-interpolation-filters="sRGB">
<feFlood flood-opacity="0" result="BackgroundImageFix"/>
<feBlend mode="normal" in="SourceGraphic" in2="BackgroundImageFix" result="shape"/>
<feGaussianBlur stdDeviation="28" result="effect1_foregroundBlur_295_35918"/>
</filter>
<filter id="filter3_f_295_35918" x="-66.5601" y="46.96" width="268.64" height="269.52" filterUnits="userSpaceOnUse" color-interpolation-filters="sRGB">
<feFlood flood-opacity="0" result="BackgroundImageFix"/>
<feBlend mode="normal" in="SourceGraphic" in2="BackgroundImageFix" result="shape"/>
<feGaussianBlur stdDeviation="28" result="effect1_foregroundBlur_295_35918"/>
</filter>
</defs>
</svg>
