<svg width="176" height="176" viewBox="0 0 176 176" fill="none" xmlns="http://www.w3.org/2000/svg">
<mask id="mask0_295_35951" style="mask-type:alpha" maskUnits="userSpaceOnUse" x="0" y="29" width="176" height="117">
<path fill-rule="evenodd" clip-rule="evenodd" d="M88 42.2399C91.4021 42.2399 94.16 39.482 94.16 36.0799C94.16 32.6778 91.4021 29.9199 88 29.9199C84.5979 29.9199 81.84 32.6778 81.84 36.0799C81.84 39.482 84.5979 42.2399 88 42.2399ZM84.4553 56.7282C84.4593 53.3035 84.6961 51.915 85.4116 51.1247C86.5266 49.8931 89.2128 49.7368 90.1364 50.85C90.5077 51.2971 91.0146 55.9886 91.3313 61.9134C92.1462 77.1395 93.191 81.4171 98.1831 89.973C101.435 95.5466 109.219 103.61 114.891 107.278C115.288 107.535 115.671 107.77 116.032 107.991C117.703 109.014 118.897 109.746 118.68 110.956C118.459 112.185 117.114 112.833 115.439 113.639C115.11 113.798 114.768 113.962 114.42 114.138C113.355 114.677 110.064 115.732 107.107 116.482C100.859 118.067 98.2538 119.271 98.2538 120.574C98.2538 121.392 98.894 121.457 103.57 121.111C119.912 119.905 132.473 116.735 138.341 112.336C144.126 107.998 136.618 103.223 119.518 100.365C116.516 99.8633 113.256 99.1972 112.275 98.8846C109.608 98.0351 107.884 95.8995 107.804 93.3472L107.737 91.1661L112.334 91.3385C114.863 91.4333 120.508 92.0236 124.879 92.6512C160.99 97.8329 180.926 109.588 174.951 122.179C172.575 127.186 163.156 133.118 151.703 136.819C136.404 141.763 117.785 144.396 92.7324 145.156C81.8805 145.485 81.0127 145.222 82.0989 141.932C83.8656 136.578 90.1881 133.998 101.566 133.987C110.425 133.979 131.519 131.244 141.785 128.772C156.723 125.175 165.496 119.942 165.496 114.63C165.496 112.874 165.054 112.097 162.853 109.989C158.744 106.051 151.578 103.554 155.422 107.399C157.536 109.512 157.786 111.176 156.342 113.513C152.248 120.138 133.379 126.148 109.044 128.578C96.2169 129.859 70.4085 129.428 59.1727 127.745C37.0966 124.438 22.0521 118.873 19.2549 112.977C18.2791 110.921 18.6653 108.968 20.3193 107.595C21.7969 106.369 21.413 105.643 19.49 106.028C17.0773 106.511 12.7623 109.585 11.4295 111.77C9.75594 114.515 10.0169 116.401 12.4422 119.085C15.2302 122.171 19.5791 124.305 30.6327 128.01C43.3553 132.274 45.618 133.752 46.9812 138.691C47.9806 142.31 47.5053 142.427 38.9753 140.662C25.0004 137.77 12.9669 133.202 6.6082 128.374C-1.70112 122.066 -2.21435 114.065 5.29611 107.92C16.271 98.9403 40.7311 92.5046 71.3298 90.5465L77.4529 90.1546L79.4857 85.7752C80.6041 83.3666 81.9167 79.8274 82.403 77.9102C83.426 73.8791 84.4484 63.3237 84.4553 56.7282ZM37.0075 107.011C39.773 104.124 46.8685 101.801 58.1141 100.1C62.0153 99.5099 66.3711 99.0151 67.7936 99.0013L70.3798 98.976L66.7723 102.34C60.6176 108.081 52.7474 112.05 44.8197 113.409C40.9294 114.076 40.5351 114.045 38.5696 112.91C37.4155 112.244 36.2276 111.024 35.9305 110.2C35.4736 108.934 35.6414 108.437 37.0075 107.011Z" fill="white"/>
</mask>
<g mask="url(#mask0_295_35951)">
<g filter="url(#filter0_f_295_35951)">
<ellipse cx="139.04" cy="106.119" rx="92.4" ry="92.9191" fill="#D9D7FF"/>
</g>
<g filter="url(#filter1_f_295_35951)">
<ellipse cx="77.4401" cy="3.95995" rx="78.32" ry="78.76" fill="#CC81F4"/>
</g>
<g filter="url(#filter2_f_295_35951)">
<ellipse cx="23.7599" cy="77" rx="78.32" ry="78.76" fill="#F8C3F9"/>
</g>
<g filter="url(#filter3_f_295_35951)">
<ellipse cx="67.7599" cy="181.72" rx="78.32" ry="78.76" fill="#AEA5FF"/>
</g>
</g>
<defs>
<filter id="filter0_f_295_35951" x="-19.4273" y="-52.8675" width="316.935" height="317.973" filterUnits="userSpaceOnUse" color-interpolation-filters="sRGB">
<feFlood flood-opacity="0" result="BackgroundImageFix"/>
<feBlend mode="normal" in="SourceGraphic" in2="BackgroundImageFix" result="shape"/>
<feGaussianBlur stdDeviation="33.0337" result="effect1_foregroundBlur_295_35951"/>
</filter>
<filter id="filter1_f_295_35951" x="-56.8799" y="-130.8" width="268.64" height="269.52" filterUnits="userSpaceOnUse" color-interpolation-filters="sRGB">
<feFlood flood-opacity="0" result="BackgroundImageFix"/>
<feBlend mode="normal" in="SourceGraphic" in2="BackgroundImageFix" result="shape"/>
<feGaussianBlur stdDeviation="28" result="effect1_foregroundBlur_295_35951"/>
</filter>
<filter id="filter2_f_295_35951" x="-110.56" y="-57.76" width="268.64" height="269.52" filterUnits="userSpaceOnUse" color-interpolation-filters="sRGB">
<feFlood flood-opacity="0" result="BackgroundImageFix"/>
<feBlend mode="normal" in="SourceGraphic" in2="BackgroundImageFix" result="shape"/>
<feGaussianBlur stdDeviation="28" result="effect1_foregroundBlur_295_35951"/>
</filter>
<filter id="filter3_f_295_35951" x="-66.5601" y="46.96" width="268.64" height="269.52" filterUnits="userSpaceOnUse" color-interpolation-filters="sRGB">
<feFlood flood-opacity="0" result="BackgroundImageFix"/>
<feBlend mode="normal" in="SourceGraphic" in2="BackgroundImageFix" result="shape"/>
<feGaussianBlur stdDeviation="28" result="effect1_foregroundBlur_295_35951"/>
</filter>
</defs>
</svg>
