<svg width="176" height="176" viewBox="0 0 176 176" fill="none" xmlns="http://www.w3.org/2000/svg">
<mask id="mask0_295_34993" style="mask-type:alpha" maskUnits="userSpaceOnUse" x="0" y="0" width="176" height="176">
<path d="M87.9996 0V69.0779H79.6645C79.6645 69.0779 79.5385 48.6193 70.4454 37.2539C75.018 25.5198 87.9996 0 87.9996 0Z" fill="white"/>
<path d="M105.554 37.2547C96.4615 48.6202 96.3346 69.0788 96.3346 69.0788L87.9996 69.0779V0C87.9996 0 100.982 25.5198 105.554 37.2547Z" fill="white"/>
<path d="M87.9996 0L87.9996 14.5881L70.4454 37.2539C75.0171 25.5198 87.9996 0 87.9996 0Z" fill="white"/>
<path d="M105.554 37.2547L88.0961 14.4629L88.0004 14.5889L87.9996 0C87.9996 0 100.982 25.5198 105.554 37.2547Z" fill="white"/>
<path d="M90.425 69.0788H86.0001C86.2227 51.0352 88.0004 14.5889 88.0004 14.5889C88.7168 18.1497 90.0407 57.3691 90.425 69.0788Z" fill="white"/>
<path d="M87.9996 176V106.922H96.3346C96.3346 106.922 96.4607 127.381 105.554 138.746C100.982 150.48 87.9996 176 87.9996 176Z" fill="white"/>
<path d="M70.4462 138.746C79.5385 127.381 79.6654 106.922 79.6654 106.922H87.9996V176C87.9996 176 75.018 150.48 70.4462 138.746Z" fill="white"/>
<path d="M87.9996 176V161.412L105.553 138.746C100.982 150.48 87.9996 176 87.9996 176Z" fill="white"/>
<path d="M70.4462 138.746L87.9039 161.538L87.9996 161.412V176C87.9996 176 75.018 150.48 70.4462 138.746Z" fill="white"/>
<path d="M85.575 106.922H89.9999C89.7773 124.966 87.9996 161.412 87.9996 161.412C87.2824 157.85 85.9593 118.631 85.575 106.922Z" fill="white"/>
<path d="M176 88.0004H106.922V79.6654C106.922 79.6654 127.381 79.5393 138.746 70.4462C150.48 75.018 176 88.0004 176 88.0004Z" fill="white"/>
<path d="M138.745 105.554C127.38 96.4615 106.921 96.3346 106.921 96.3346V87.9996H175.999C175.999 87.9996 150.48 100.982 138.745 105.554Z" fill="white"/>
<path d="M176 88.0004H161.412L138.746 70.4471C150.48 75.018 176 88.0004 176 88.0004Z" fill="white"/>
<path d="M138.745 105.554L161.537 88.0961L161.411 88.0004H176C176 88.0004 150.48 100.982 138.745 105.554Z" fill="white"/>
<path d="M106.922 90.425V86.0001C124.966 86.2227 161.412 88.0004 161.412 88.0004C157.85 88.7176 118.631 90.0407 106.922 90.425Z" fill="white"/>
<path d="M0 88.0004H69.0779V96.3355C69.0779 96.3355 48.6194 96.4615 37.2539 105.555C25.5198 100.982 0 88.0004 0 88.0004Z" fill="white"/>
<path d="M37.2539 70.4462C48.6194 79.5385 69.0779 79.6654 69.0779 79.6654V88.0004H0C0 88.0004 25.5198 75.018 37.2539 70.4462Z" fill="white"/>
<path d="M0 88.0004H14.5881L37.2539 105.555C25.5198 100.983 0 88.0004 0 88.0004Z" fill="white"/>
<path d="M37.2539 70.4462L14.462 87.9039L14.5881 88.0004H0C0 88.0004 25.5198 75.018 37.2539 70.4462Z" fill="white"/>
<path d="M69.0779 85.5759V90.0007C51.0343 89.7782 14.5881 88.0004 14.5881 88.0004C18.1497 87.2832 57.3691 85.9593 69.0779 85.5759Z" fill="white"/>
<path d="M129.295 46.7051L96.8788 79.1212L92.9677 75.2101C92.9677 75.2101 102.509 65.5502 103.575 55.9503C111.228 52.5887 129.295 46.7051 129.295 46.7051Z" fill="white"/>
<path d="M120.051 72.4248C110.45 73.4915 100.791 83.0323 100.791 83.0323L96.8797 79.1212L129.296 46.7051C129.296 46.7051 123.411 64.7722 120.051 72.4248Z" fill="white"/>
<path d="M129.295 46.7051L122.449 53.551L103.575 55.9503C111.228 52.5887 129.295 46.7051 129.295 46.7051Z" fill="white"/>
<path d="M120.051 72.4248L122.554 53.5371L122.45 53.551L129.296 46.7051C129.296 46.7051 123.411 64.7722 120.051 72.4248Z" fill="white"/>
<path d="M98.0167 80.2591L95.9399 78.1823C104.511 69.8195 122.449 53.551 122.449 53.551C121.115 55.5583 103.332 74.5842 98.0167 80.2591Z" fill="white"/>
<path d="M46.7042 129.296L79.1203 96.8797L83.0314 100.791C83.0314 100.791 73.4906 110.451 72.424 120.051C64.7722 123.412 46.7042 129.296 46.7042 129.296Z" fill="white"/>
<path d="M55.9495 103.576C65.5494 102.509 75.2093 92.9686 75.2093 92.9686L79.1203 96.8797L46.7042 129.296C46.7042 129.296 52.5878 111.228 55.9495 103.576Z" fill="white"/>
<path d="M46.7042 129.296L53.5501 122.45L72.424 120.051C64.7722 123.411 46.7042 129.296 46.7042 129.296Z" fill="white"/>
<path d="M55.9495 103.576L53.4458 122.464L53.5501 122.45L46.7042 129.296C46.7042 129.296 52.5878 111.228 55.9495 103.576Z" fill="white"/>
<path d="M77.9824 95.7417L80.0592 97.8185C71.4877 106.181 53.5501 122.45 53.5501 122.45C54.8854 120.442 72.6682 101.417 77.9824 95.7417Z" fill="white"/>
<path d="M129.295 129.296L96.8788 96.8797L100.79 92.9686C100.79 92.9686 110.45 102.509 120.05 103.576C123.411 111.228 129.295 129.296 129.295 129.296Z" fill="white"/>
<path d="M103.576 120.051C102.509 110.45 92.9686 100.791 92.9686 100.791L96.8797 96.8797L129.296 129.296C129.296 129.296 111.228 123.412 103.576 120.051Z" fill="white"/>
<path d="M129.295 129.296L122.449 122.45L120.05 103.576C123.411 111.228 129.295 129.296 129.295 129.296Z" fill="white"/>
<path d="M103.576 120.051L122.464 122.554L122.45 122.45L129.296 129.296C129.296 129.296 111.228 123.412 103.576 120.051Z" fill="white"/>
<path d="M95.7417 98.0176L97.8185 95.9408C106.181 104.512 122.45 122.45 122.45 122.45C120.442 121.115 101.417 103.332 95.7417 98.0176Z" fill="white"/>
<path d="M46.7042 46.7051L79.1203 79.1212L75.2093 83.0323C75.2093 83.0323 65.5494 73.4915 55.9495 72.4248C52.5878 64.7722 46.7042 46.7051 46.7042 46.7051Z" fill="white"/>
<path d="M72.424 55.9495C73.4906 65.5502 83.0314 75.2093 83.0314 75.2093L79.1203 79.1212L46.7042 46.7051C46.7042 46.7051 64.7722 52.5887 72.424 55.9495Z" fill="white"/>
<path d="M46.7042 46.7051L53.5501 53.551L55.9495 72.4248C52.5878 64.7722 46.7042 46.7051 46.7042 46.7051Z" fill="white"/>
<path d="M72.424 55.9495L53.5362 53.4458L53.5501 53.551L46.7042 46.7051C46.7042 46.7051 64.7722 52.5887 72.424 55.9495Z" fill="white"/>
<path d="M80.2583 77.9833L78.1815 80.0601C69.8186 71.4886 53.5501 53.551 53.5501 53.551C55.5583 54.8854 74.5833 72.6682 80.2583 77.9833Z" fill="white"/>
<path d="M88.0039 66.5317C76.1429 66.5317 66.5308 76.1394 66.5308 88.0004C66.5308 99.8614 76.1438 109.469 88.0039 109.469C99.8545 109.469 109.473 99.8614 109.473 88.0004C109.473 76.1394 99.8545 66.5317 88.0039 66.5317ZM88.0039 98.7348C82.0734 98.7348 77.2643 93.9309 77.2643 88.0004C77.2643 82.0699 82.0734 77.2661 88.0039 77.2661C93.9292 77.2661 98.7383 82.0699 98.7383 88.0004C98.7383 93.9309 93.9292 98.7348 88.0039 98.7348Z" fill="white"/>
<path d="M88.0039 71.9623C79.1438 71.9623 71.9554 79.1403 71.9554 88.0004C71.9554 96.8605 79.1438 104.039 88.0039 104.039C96.864 104.039 104.042 96.8605 104.042 88.0004C104.042 79.1403 96.864 71.9623 88.0039 71.9623ZM88.0039 98.7348C82.0734 98.7348 77.2643 93.9309 77.2643 88.0004C77.2643 82.0699 82.0734 77.2661 88.0039 77.2661C93.9292 77.2661 98.7383 82.0699 98.7383 88.0004C98.7383 93.9309 93.9292 98.7348 88.0039 98.7348Z" fill="white"/>
</mask>
<g mask="url(#mask0_295_34993)">
<g filter="url(#filter0_f_295_34993)">
<ellipse cx="121.44" cy="94.5998" rx="78.32" ry="78.76" fill="#D9D7FF"/>
</g>
<g filter="url(#filter1_f_295_34993)">
<ellipse cx="77.4401" cy="3.9602" rx="78.32" ry="78.76" fill="#CC81F4"/>
</g>
<g filter="url(#filter2_f_295_34993)">
<ellipse cx="23.7599" cy="77.0002" rx="78.32" ry="78.76" fill="#F8C3F9"/>
</g>
<g filter="url(#filter3_f_295_34993)">
<ellipse cx="67.7599" cy="181.72" rx="78.32" ry="78.76" fill="#AEA5FF"/>
</g>
</g>
<defs>
<filter id="filter0_f_295_34993" x="-12.8799" y="-40.1602" width="268.64" height="269.52" filterUnits="userSpaceOnUse" color-interpolation-filters="sRGB">
<feFlood flood-opacity="0" result="BackgroundImageFix"/>
<feBlend mode="normal" in="SourceGraphic" in2="BackgroundImageFix" result="shape"/>
<feGaussianBlur stdDeviation="28" result="effect1_foregroundBlur_295_34993"/>
</filter>
<filter id="filter1_f_295_34993" x="-56.8799" y="-130.8" width="268.64" height="269.52" filterUnits="userSpaceOnUse" color-interpolation-filters="sRGB">
<feFlood flood-opacity="0" result="BackgroundImageFix"/>
<feBlend mode="normal" in="SourceGraphic" in2="BackgroundImageFix" result="shape"/>
<feGaussianBlur stdDeviation="28" result="effect1_foregroundBlur_295_34993"/>
</filter>
<filter id="filter2_f_295_34993" x="-110.56" y="-57.7598" width="268.64" height="269.52" filterUnits="userSpaceOnUse" color-interpolation-filters="sRGB">
<feFlood flood-opacity="0" result="BackgroundImageFix"/>
<feBlend mode="normal" in="SourceGraphic" in2="BackgroundImageFix" result="shape"/>
<feGaussianBlur stdDeviation="28" result="effect1_foregroundBlur_295_34993"/>
</filter>
<filter id="filter3_f_295_34993" x="-66.5601" y="46.96" width="268.64" height="269.52" filterUnits="userSpaceOnUse" color-interpolation-filters="sRGB">
<feFlood flood-opacity="0" result="BackgroundImageFix"/>
<feBlend mode="normal" in="SourceGraphic" in2="BackgroundImageFix" result="shape"/>
<feGaussianBlur stdDeviation="28" result="effect1_foregroundBlur_295_34993"/>
</filter>
</defs>
</svg>
