<svg width="176" height="176" viewBox="0 0 176 176" fill="none" xmlns="http://www.w3.org/2000/svg">
<mask id="mask0_295_35107" style="mask-type:alpha" maskUnits="userSpaceOnUse" x="0" y="39" width="176" height="98">
<path fill-rule="evenodd" clip-rule="evenodd" d="M79.6133 39.8463C70.0787 40.6955 60.0418 43.7423 51.6464 48.336C48.4082 50.1078 47.4241 51.8837 48.1603 54.6268C48.4321 55.6395 49.3841 56.698 56.5281 63.9298C65.1058 72.613 66.4846 74.3075 68.8651 79.0907C70.8983 83.1765 71.1495 84.1575 71.1525 88.028L71.1553 91.4706L70.5038 93.1919L69.8522 94.9132C64.7946 108.274 64.6507 108.706 64.9504 109.616C65.2306 110.468 66.25 111.234 67.1036 111.234C67.3304 111.234 70.8726 109.968 74.9754 108.421C85.0471 104.624 84.6236 104.743 88.0707 104.752C91.3847 104.762 93.1985 105.254 97.0379 107.186C102.083 109.725 108.698 115.186 110.296 118.13C110.917 119.275 110.993 119.651 110.908 121.165C110.793 123.191 110.019 124.602 108.449 125.645C106.986 126.615 101.434 128.94 99.1291 129.546C92.1542 131.381 84.3485 131.259 77.2633 129.206C65.3905 125.765 54.8846 117.007 49.4314 106.006C46.3282 99.7458 45.3551 95.8697 45.1741 89.048C45.0371 83.8889 45.5162 80.2515 46.9055 75.9003C47.8011 73.0957 47.916 71.6595 47.3949 69.784C47.1031 68.7338 46.6111 68.0721 44.4872 65.8739C41.6827 62.9709 40.6488 62.2054 38.562 61.485C35.4242 60.4022 32.0879 60.6848 29.1192 62.285C26.1687 63.8754 13.9453 73.2215 6.9763 79.2154C0.504002 84.7822 0.0108253 85.3963 0.000148315 87.9005C-0.0105287 90.3687 0.540101 91.0789 6.596 96.4086C25.6649 113.191 42.9413 124.265 59.9063 130.582C80.4685 138.238 100.17 138.339 117.687 130.877C120.795 129.553 125.42 127.206 126.318 126.498C127.838 125.299 128.442 122.577 127.572 120.847C127.347 120.399 123.709 116.531 119.488 112.254C115.268 107.976 111.236 103.673 110.529 102.691C106.673 97.3342 104.591 92.217 104.599 88.1188C104.604 85.4287 104.993 83.9502 107.273 77.9552C108.34 75.1501 109.682 71.5479 110.255 69.95L111.297 67.0449L110.806 66.1249C110.445 65.4491 110.076 65.1456 109.415 64.9817C108.457 64.744 108.295 64.7978 96.5869 69.2301C94.21 70.1298 91.4798 71.0136 90.5193 71.1939C86.0485 72.0331 80.6485 70.385 74.6228 66.3419C71.741 64.4084 66.0698 58.9971 65.4129 57.5546C64.4176 55.3686 65.0376 52.3881 66.8001 50.8869C67.806 50.03 72.0352 48.0168 74.698 47.127C78.9175 45.7171 81.4289 45.3438 86.7997 45.3285C92.5584 45.3119 95.0563 45.6811 99.8917 47.2642C115.552 52.3909 127.657 65.9382 130.268 81.2578C131.309 87.3622 130.829 94.3708 128.973 100.183C128.031 103.132 127.968 105.03 128.75 106.854C129.561 108.745 133.967 113.007 136.19 114.051C139.373 115.545 142.673 115.599 145.905 114.212C150.029 112.441 172.833 94.3137 175.07 91.0274C175.892 89.8197 176.146 88.6777 175.923 87.1893C175.673 85.5149 175.105 84.8047 171.166 81.2394C160.024 71.1567 149.073 62.8863 137.77 56.0194C133.867 53.6484 124.996 49.1049 120.868 47.3629C106.75 41.4052 92.0927 38.7345 79.6133 39.8463Z" fill="white"/>
</mask>
<g mask="url(#mask0_295_35107)">
<g filter="url(#filter0_f_295_35107)">
<ellipse cx="121.44" cy="94.5998" rx="78.32" ry="78.76" fill="#D9D7FF"/>
</g>
<g filter="url(#filter1_f_295_35107)">
<ellipse cx="77.4401" cy="3.9602" rx="78.32" ry="78.76" fill="#CC81F4"/>
</g>
<g filter="url(#filter2_f_295_35107)">
<ellipse cx="23.7599" cy="77.0002" rx="78.32" ry="78.76" fill="#F8C3F9"/>
</g>
<g filter="url(#filter3_f_295_35107)">
<ellipse cx="67.7599" cy="181.72" rx="78.32" ry="78.76" fill="#AEA5FF"/>
</g>
</g>
<defs>
<filter id="filter0_f_295_35107" x="-12.8799" y="-40.1602" width="268.64" height="269.52" filterUnits="userSpaceOnUse" color-interpolation-filters="sRGB">
<feFlood flood-opacity="0" result="BackgroundImageFix"/>
<feBlend mode="normal" in="SourceGraphic" in2="BackgroundImageFix" result="shape"/>
<feGaussianBlur stdDeviation="28" result="effect1_foregroundBlur_295_35107"/>
</filter>
<filter id="filter1_f_295_35107" x="-56.8799" y="-130.8" width="268.64" height="269.52" filterUnits="userSpaceOnUse" color-interpolation-filters="sRGB">
<feFlood flood-opacity="0" result="BackgroundImageFix"/>
<feBlend mode="normal" in="SourceGraphic" in2="BackgroundImageFix" result="shape"/>
<feGaussianBlur stdDeviation="28" result="effect1_foregroundBlur_295_35107"/>
</filter>
<filter id="filter2_f_295_35107" x="-110.56" y="-57.7598" width="268.64" height="269.52" filterUnits="userSpaceOnUse" color-interpolation-filters="sRGB">
<feFlood flood-opacity="0" result="BackgroundImageFix"/>
<feBlend mode="normal" in="SourceGraphic" in2="BackgroundImageFix" result="shape"/>
<feGaussianBlur stdDeviation="28" result="effect1_foregroundBlur_295_35107"/>
</filter>
<filter id="filter3_f_295_35107" x="-66.5601" y="46.96" width="268.64" height="269.52" filterUnits="userSpaceOnUse" color-interpolation-filters="sRGB">
<feFlood flood-opacity="0" result="BackgroundImageFix"/>
<feBlend mode="normal" in="SourceGraphic" in2="BackgroundImageFix" result="shape"/>
<feGaussianBlur stdDeviation="28" result="effect1_foregroundBlur_295_35107"/>
</filter>
</defs>
</svg>
