<svg width="176" height="176" viewBox="0 0 176 176" fill="none" xmlns="http://www.w3.org/2000/svg">
<mask id="mask0_295_35962" style="mask-type:alpha" maskUnits="userSpaceOnUse" x="0" y="0" width="176" height="176">
<path fill-rule="evenodd" clip-rule="evenodd" d="M65.837 0.942213C56.3608 3.00272 45.4204 8.84182 44.5716 12.2919C43.8492 15.2268 45.6258 16.0559 51.82 15.6756C62.5987 15.0134 78.2241 7.40698 78.2241 2.82187C78.2241 -0.11829 73.8006 -0.78917 65.837 0.942213ZM107.562 4.95751C106.666 5.11775 104.172 5.56323 102.02 5.94687C99.869 6.33051 91.9477 8.69687 84.4177 11.2049C76.8876 13.7128 64.3564 17.286 56.5708 19.1463C39.1115 23.3166 32.9974 25.2467 26.7198 28.5712C20.4617 31.885 16.074 35.7487 12.9238 40.7201C6.44728 50.9396 14.0184 54.3478 25.8592 46.5426C28.0419 45.1045 33.6024 40.4416 38.2157 36.1823C47.742 27.3864 53.2119 23.4495 59.3175 20.9947C72.9257 15.5233 84.4776 17.2886 105.932 28.1191C124.495 37.4901 134.874 40.2102 141.789 37.5174C145.512 36.0672 148.129 32.7295 148.21 29.3279C148.404 21.1703 136.811 10.0486 124.513 6.59447C119.709 5.24541 110.77 4.38237 107.562 4.95751ZM69.0648 25.8864C60.916 27.1098 52.7608 31.667 47.0725 38.1756C39.1617 47.2281 38.7235 54.7807 45.8892 58.5938C47.9559 59.6942 50.0584 60.0779 55.1808 60.2913C63.7755 60.6483 68.4937 59.6483 85.7216 53.8179C104.168 47.5752 110.522 46.2713 122.892 46.1896L132.68 46.1251L137.235 48.4043C142.02 50.7979 146.435 54.9296 156.683 66.6011C162.14 72.8152 165.435 75.0479 169.146 75.0479C173.984 75.0479 175.595 70.7281 173.421 63.5852C170.84 55.1051 163.116 46.1124 156.962 44.4223C155.411 43.9961 152.604 43.8365 150.596 44.0606C140.027 45.2388 132.622 45.284 128.425 44.1956C126.094 43.5912 117.879 39.9795 110.17 36.1696C102.46 32.3598 94.3736 28.643 92.1987 27.911C84.5833 25.3465 77.0499 24.6876 69.0648 25.8864ZM114.042 54.7873C106.354 56.01 98.6485 58.3079 85.2398 63.3757C58.6349 73.4323 51.1628 73.9522 35.0048 66.8731C26.4486 63.1244 22.3504 62.135 17.509 62.6517C12.5796 63.1769 8.1541 65.4894 4.64072 69.3771C1.2147 73.167 -0.013578 76.0273 0.000113034 80.1796C0.0164119 84.8491 2.10201 88.167 6.51182 90.5373C9.60013 92.1969 10.6074 92.4176 13.8052 92.1331C18.4178 91.7235 22.971 89.6297 30.0395 84.6683C36.7077 79.9881 44.6465 76.0892 50.252 74.7414C57.1419 73.0852 68.9807 73.3831 76.6862 75.4057C83.5043 77.1962 93.4733 81.8033 100.251 86.296C110.003 92.7607 117.289 95.2541 125.338 94.8824C137.047 94.3425 144.795 87.2408 145.813 76.1151C146.816 65.1703 140.081 56.6284 128.767 54.4954C124.01 53.5991 121.163 53.655 114.042 54.7873ZM44.5181 82.2288C33.5086 86.2428 28.3151 96.7727 31.6675 108.284C33.0431 113.009 38.629 118.853 43.3446 120.501C50.6289 123.049 62.0289 122.55 73.4003 119.188C76.5877 118.245 85.3271 115.093 92.8207 112.184C110.558 105.295 115.575 104.071 124.513 104.45C130.59 104.708 132.017 105.02 137.226 107.233C150.989 113.079 151.307 113.176 156.785 113.198C160.954 113.215 162.561 112.92 164.8 111.725C175.767 105.87 179.553 93.1769 172.21 86.8757C169.349 84.4203 166.02 83.4668 161.702 83.8664C157.262 84.2767 153.09 86.3272 144.786 92.1796C133.355 100.237 125.397 102.738 113.171 102.118C100.649 101.483 90.1183 97.7727 77.3172 89.4854C74.1292 87.421 69.2884 84.776 66.56 83.6071C62.276 81.772 60.665 81.4489 54.7538 81.2374C49.2865 81.042 47.2257 81.2414 44.5181 82.2288ZM3.47959 102.807C1.99965 104.434 1.84384 105.079 2.0668 108.658C2.37453 113.609 4.76981 118.859 9.19527 124.282C15.2226 131.668 20.3019 133.395 31.5703 131.886C44.2521 130.189 49.9 131.604 70.5271 141.646C85.2515 148.814 92.1453 150.846 101.745 150.846C112.596 150.846 120.76 147.447 128.64 139.648C137.66 130.719 138.558 121.883 130.843 117.962C127.909 116.471 126.705 116.272 120.636 116.276C112.452 116.281 107.189 117.438 91.9151 122.589C73.3364 128.854 59.5502 131.469 49.2956 130.672C45.0775 130.344 43.0564 129.787 39.3872 127.943C33.532 124.999 29.8994 121.721 23.3459 113.468C14.4115 102.217 7.42651 98.4682 3.47959 102.807ZM157.796 126.358C154.033 127.46 147.421 132.289 138.856 140.192C128.854 149.42 126.701 151.073 120.994 153.894C114.458 157.126 108.001 158.426 100.772 157.964C91.8793 157.396 84.8108 154.985 70.0747 147.493C62.9032 143.848 55.2753 140.396 53.1239 139.823C50.9724 139.249 46.1317 138.632 42.3667 138.45C33.8587 138.039 31.7542 138.9 29.3915 143.762C27.832 146.97 27.8301 147 28.9658 150.674C31.2645 158.111 42.2363 166.923 52.7979 169.815C63.578 172.766 73.2986 171.622 92.6349 165.126C99.6649 162.765 110.52 159.631 116.757 158.162C131.927 154.589 136.759 153.214 143.912 150.429C156.614 145.485 165.523 136.993 165.572 129.783C165.598 125.94 163.052 124.819 157.796 126.358ZM123.311 160.847C109.345 162.772 94.5718 172.271 100.506 175.51C102.268 176.472 108.987 175.968 114.782 174.439C122.269 172.464 131.789 166.952 132.685 164.07C133.621 161.065 130.219 159.895 123.311 160.847Z" fill="white"/>
</mask>
<g mask="url(#mask0_295_35962)">
<g filter="url(#filter0_f_295_35962)">
<ellipse cx="139.04" cy="106.119" rx="92.4" ry="92.9191" fill="#D9D7FF"/>
</g>
<g filter="url(#filter1_f_295_35962)">
<ellipse cx="77.4401" cy="3.95995" rx="78.32" ry="78.76" fill="#CC81F4"/>
</g>
<g filter="url(#filter2_f_295_35962)">
<ellipse cx="23.7599" cy="77" rx="78.32" ry="78.76" fill="#F8C3F9"/>
</g>
<g filter="url(#filter3_f_295_35962)">
<ellipse cx="67.7599" cy="181.72" rx="78.32" ry="78.76" fill="#AEA5FF"/>
</g>
</g>
<defs>
<filter id="filter0_f_295_35962" x="-19.4273" y="-52.8675" width="316.935" height="317.973" filterUnits="userSpaceOnUse" color-interpolation-filters="sRGB">
<feFlood flood-opacity="0" result="BackgroundImageFix"/>
<feBlend mode="normal" in="SourceGraphic" in2="BackgroundImageFix" result="shape"/>
<feGaussianBlur stdDeviation="33.0337" result="effect1_foregroundBlur_295_35962"/>
</filter>
<filter id="filter1_f_295_35962" x="-56.8799" y="-130.8" width="268.64" height="269.52" filterUnits="userSpaceOnUse" color-interpolation-filters="sRGB">
<feFlood flood-opacity="0" result="BackgroundImageFix"/>
<feBlend mode="normal" in="SourceGraphic" in2="BackgroundImageFix" result="shape"/>
<feGaussianBlur stdDeviation="28" result="effect1_foregroundBlur_295_35962"/>
</filter>
<filter id="filter2_f_295_35962" x="-110.56" y="-57.76" width="268.64" height="269.52" filterUnits="userSpaceOnUse" color-interpolation-filters="sRGB">
<feFlood flood-opacity="0" result="BackgroundImageFix"/>
<feBlend mode="normal" in="SourceGraphic" in2="BackgroundImageFix" result="shape"/>
<feGaussianBlur stdDeviation="28" result="effect1_foregroundBlur_295_35962"/>
</filter>
<filter id="filter3_f_295_35962" x="-66.5601" y="46.96" width="268.64" height="269.52" filterUnits="userSpaceOnUse" color-interpolation-filters="sRGB">
<feFlood flood-opacity="0" result="BackgroundImageFix"/>
<feBlend mode="normal" in="SourceGraphic" in2="BackgroundImageFix" result="shape"/>
<feGaussianBlur stdDeviation="28" result="effect1_foregroundBlur_295_35962"/>
</filter>
</defs>
</svg>
