<svg width="176" height="173" viewBox="0 0 176 173" fill="none" xmlns="http://www.w3.org/2000/svg">
<mask id="mask0_295_35292" style="mask-type:alpha" maskUnits="userSpaceOnUse" x="1" y="0" width="174" height="173">
<path fill-rule="evenodd" clip-rule="evenodd" d="M123.03 0.314953C115.572 1.29318 107.312 4.59169 101.125 9.06074C99.1556 10.484 95.5018 13.6118 93.0055 16.0116L88.4669 20.3753L84.2668 16.2476C78.7415 10.8178 75.1816 8.22155 69.5097 5.48625C56.5821 -0.749026 42.9365 -1.30099 30.2191 3.89694C17.1322 9.24557 7.4701 20.5019 3.77763 34.7008C2.95657 37.859 2.82658 39.4017 2.85546 45.6611C2.88562 52.2069 3.00457 53.3587 4.02613 57.019C5.44866 62.1153 7.01603 65.5233 9.95412 69.9091C13.1012 74.6071 14.1542 75.6324 15.8299 75.6324C17.0107 75.6324 17.9214 74.9289 22.505 70.476C28.5273 64.6254 28.721 64.1704 26.5241 61.0305C18.7004 49.8479 19.863 35.8542 29.3959 26.4553C35.6098 20.3291 44.0188 17.722 52.7651 19.2106C56.4121 19.8313 60.1505 21.2128 63.676 23.243C65.2383 24.1425 69.8988 28.3056 76.7727 34.9422C85.6082 43.4724 87.6497 45.2448 88.6372 45.2448C89.6265 45.2448 91.6475 43.4803 100.483 34.9026C108.618 27.0056 111.839 24.1584 114.11 22.8592C128.967 14.3569 146.516 19.5561 153.352 34.486C155.043 38.1799 155.684 41.135 155.684 45.2448C155.684 49.8404 155.023 52.4796 152.663 57.3166C150.742 61.2532 150.678 61.3265 138.507 73.3429C130.494 81.2545 126.178 85.8155 125.985 86.5773C125.714 87.6459 126.132 88.1787 131.135 93.1335C136.078 98.0297 136.72 98.5271 138.088 98.5288C139.497 98.53 140.348 97.7882 151.111 87.1855C162.837 75.6332 166.361 71.5459 169.256 66.141C181.043 44.1413 172.575 17.0893 150.261 5.45627C141.978 1.13791 131.637 -0.814382 123.03 0.314953ZM63.9173 50.8836C63.2555 51.1666 53.3203 60.6442 41.8398 71.9446C20.2079 93.2376 18.5016 95.1532 16.5813 100.307C15.6476 102.815 15.6081 103.507 15.3588 121.838C15.0734 142.789 15.1868 141.898 12.0618 147.767C11.0593 149.65 9.08716 152.115 6.15842 155.145C2.81936 158.6 1.76001 159.965 1.76001 160.815C1.76001 161.687 2.89541 163.059 6.90899 167.038C9.74089 169.845 12.5163 172.254 13.0766 172.392C14.5709 172.76 15.5351 172.12 20.2372 167.64C24.8319 163.263 26.8032 161.965 31.0687 160.509C33.7281 159.601 34.5394 159.557 53.1563 159.305C71.9648 159.05 72.5553 159.017 75.1837 158.079C80.5336 156.168 82.97 154.073 105.084 132.364C124.761 113.048 126.216 111.522 126.216 110.191C126.216 108.919 125.645 108.203 120.994 103.645C116.337 99.0816 115.613 98.5271 114.31 98.5271C112.95 98.5271 111.548 99.8 94.1413 116.843C71.7673 138.749 74.3219 137.329 68.1539 131.284C64.7133 127.913 64.2002 127.225 64.2002 125.992C64.2002 124.679 65.5773 123.223 82.8898 106.228C101.162 88.2911 101.579 87.8453 101.579 86.2501C101.579 84.7187 101.26 84.3061 96.3573 79.5012C92.0629 75.2927 90.9148 74.3836 89.8954 74.3836C88.8279 74.3836 86.0521 76.9286 69.9502 92.6719C57.9375 104.416 50.841 111.057 50.1163 111.231C48.5222 111.614 47.4722 110.965 43.5091 107.143C39.7398 103.509 39.112 102.236 40.1463 100.327C40.4967 99.6802 49.0145 91.0976 59.0754 81.2537C74.8222 65.8468 77.3678 63.1872 77.3678 62.1428C77.3678 61.1496 76.4333 60.0028 72.2269 55.833C69.3993 53.0303 66.6438 50.6542 66.1035 50.5531C65.5637 50.4519 64.5795 50.6005 63.9173 50.8836Z" fill="white"/>
</mask>
<g mask="url(#mask0_295_35292)">
<g filter="url(#filter0_f_295_35292)">
<ellipse cx="121.44" cy="94.5998" rx="78.32" ry="78.76" fill="#D9D7FF"/>
</g>
<g filter="url(#filter1_f_295_35292)">
<ellipse cx="77.4401" cy="3.9602" rx="78.32" ry="78.76" fill="#CC81F4"/>
</g>
<g filter="url(#filter2_f_295_35292)">
<ellipse cx="23.7599" cy="77.0002" rx="78.32" ry="78.76" fill="#F8C3F9"/>
</g>
<g filter="url(#filter3_f_295_35292)">
<ellipse cx="67.7599" cy="181.72" rx="78.32" ry="78.76" fill="#AEA5FF"/>
</g>
</g>
<defs>
<filter id="filter0_f_295_35292" x="-12.8799" y="-40.1602" width="268.64" height="269.52" filterUnits="userSpaceOnUse" color-interpolation-filters="sRGB">
<feFlood flood-opacity="0" result="BackgroundImageFix"/>
<feBlend mode="normal" in="SourceGraphic" in2="BackgroundImageFix" result="shape"/>
<feGaussianBlur stdDeviation="28" result="effect1_foregroundBlur_295_35292"/>
</filter>
<filter id="filter1_f_295_35292" x="-56.8799" y="-130.8" width="268.64" height="269.52" filterUnits="userSpaceOnUse" color-interpolation-filters="sRGB">
<feFlood flood-opacity="0" result="BackgroundImageFix"/>
<feBlend mode="normal" in="SourceGraphic" in2="BackgroundImageFix" result="shape"/>
<feGaussianBlur stdDeviation="28" result="effect1_foregroundBlur_295_35292"/>
</filter>
<filter id="filter2_f_295_35292" x="-110.56" y="-57.7598" width="268.64" height="269.52" filterUnits="userSpaceOnUse" color-interpolation-filters="sRGB">
<feFlood flood-opacity="0" result="BackgroundImageFix"/>
<feBlend mode="normal" in="SourceGraphic" in2="BackgroundImageFix" result="shape"/>
<feGaussianBlur stdDeviation="28" result="effect1_foregroundBlur_295_35292"/>
</filter>
<filter id="filter3_f_295_35292" x="-66.5601" y="46.96" width="268.64" height="269.52" filterUnits="userSpaceOnUse" color-interpolation-filters="sRGB">
<feFlood flood-opacity="0" result="BackgroundImageFix"/>
<feBlend mode="normal" in="SourceGraphic" in2="BackgroundImageFix" result="shape"/>
<feGaussianBlur stdDeviation="28" result="effect1_foregroundBlur_295_35292"/>
</filter>
</defs>
</svg>
