<svg width="176" height="176" viewBox="0 0 176 176" fill="none" xmlns="http://www.w3.org/2000/svg">
<mask id="mask0_295_35465" style="mask-type:alpha" maskUnits="userSpaceOnUse" x="13" y="0" width="150" height="176">
<path fill-rule="evenodd" clip-rule="evenodd" d="M130.403 0.261573C130.403 0.415719 126.791 10.1116 122.376 21.8084C117.962 33.5052 114.146 44.351 113.896 45.91C113.218 50.153 115.238 56.2217 118.328 59.2242C119.737 60.5933 120.893 62.0675 120.898 62.5007C120.908 63.4906 113.257 75.0275 111.112 77.2564L109.513 78.9184L104.068 74.5555C101.074 72.1564 95.4272 68.2852 91.5209 65.9533C86.3815 62.8865 84.5354 61.4108 84.8437 60.6181C85.0789 60.0154 85.4406 57.3357 85.648 54.6634C86.0864 49.017 84.2936 42.1352 80.8206 36.1337C71.162 19.4429 47.5455 8.07845 30.1708 11.7612C24.8838 12.8818 21.5693 14.6833 18.4565 18.1286C14.9929 21.9633 14.5181 22.9437 13.5552 28.2533C10.8361 43.2464 24.0678 64.4338 41.5374 73.0601C49.7159 77.0978 57.3743 78.602 64.0997 77.4916C66.8956 77.0299 70.1662 76.1437 71.368 75.522C73.3836 74.4803 73.6677 74.4956 75.0273 75.7237C78.5639 78.9169 90.9715 95.8686 90.9358 97.4582C90.8926 99.3803 72.8919 110.634 62.7979 115.05C59.5996 116.449 57.0207 118.006 57.0667 118.51C57.2428 120.421 71.4586 154.859 72.0715 154.859C73.1206 154.859 83.5923 148.342 89.4922 144.018C95.8399 139.365 103.919 131.773 110.043 124.705C112.401 121.983 114.331 119.941 114.331 120.168C114.331 120.857 111.396 126.473 108.656 131.03L106.071 135.328L106.919 140.892C107.384 143.953 107.763 147.537 107.761 148.855C107.758 150.274 108.186 151.417 108.811 151.657C109.766 152.024 139.341 149.521 145.918 148.517C149.009 148.045 148.974 148.768 146.382 138.787C143.417 127.37 137.266 113.624 130.599 103.511L127.034 98.1033L128.418 94.8853C130.92 89.0672 134.686 77.1461 135.591 72.1769L136.48 67.2982L140.2 66.7934C147.607 65.7882 152.791 61.4787 154.846 54.6181C156.497 49.1032 162.736 8.63805 162.036 7.9864C161.078 7.0944 156.873 6.42229 156.457 7.09367C156.246 7.4363 154.079 15.2627 151.641 24.4873C146.392 44.3495 146.318 44.546 144.023 44.546C139.945 44.546 139.986 43.5722 144.88 23.9299C149.774 4.29128 149.8 3.63525 145.676 3.63525C143.326 3.63525 144.072 1.66203 137.011 26.5482C134.975 33.7266 133.128 39.8902 132.908 40.246C131.846 41.9643 127.481 40.5696 127.481 38.5131C127.481 37.158 131.26 22.0641 134.837 9.12898C136.686 2.4408 136.648 0.990657 134.604 0.442745C132.741 -0.0562208 130.403 -0.157032 130.403 0.261573ZM47.1203 134.945C42.4996 136.803 38.6123 138.396 38.483 138.486C38.2653 138.637 52.8376 175.41 53.3059 175.893C54.0094 176.618 59.4746 173.481 60.1708 171.953C61.3616 169.34 61.2236 168.044 59.1744 162.6C58.1699 159.931 57.3502 157.016 57.3524 156.121C57.3597 153.142 58.8434 149.086 60.7575 146.811L62.6496 144.563L60.1248 138.205C58.7353 134.705 57.134 131.784 56.5612 131.708C55.9892 131.631 51.741 133.088 47.1203 134.945ZM126.419 154.982C123.222 155.346 120.46 155.791 120.28 155.971C119.928 156.324 121.555 175.477 121.974 175.895C122.113 176.035 130.728 175.303 141.119 174.27C151.509 173.237 160.416 172.392 160.913 172.392C162.587 172.392 161.989 166.83 160.076 164.607C158.386 162.641 158.148 162.589 151.651 162.763C143.537 162.98 139.841 161.631 136.23 157.138C134.899 155.483 133.455 154.172 133.02 154.224C132.585 154.277 129.615 154.618 126.419 154.982Z" fill="white"/>
</mask>
<g mask="url(#mask0_295_35465)">
<g filter="url(#filter0_f_295_35465)">
<ellipse cx="121.44" cy="94.5998" rx="78.32" ry="78.76" fill="#D9D7FF"/>
</g>
<g filter="url(#filter1_f_295_35465)">
<ellipse cx="77.4401" cy="3.9602" rx="78.32" ry="78.76" fill="#CC81F4"/>
</g>
<g filter="url(#filter2_f_295_35465)">
<ellipse cx="23.7599" cy="77.0002" rx="78.32" ry="78.76" fill="#F8C3F9"/>
</g>
<g filter="url(#filter3_f_295_35465)">
<ellipse cx="67.7599" cy="181.72" rx="78.32" ry="78.76" fill="#AEA5FF"/>
</g>
</g>
<defs>
<filter id="filter0_f_295_35465" x="-12.8799" y="-40.1602" width="268.64" height="269.52" filterUnits="userSpaceOnUse" color-interpolation-filters="sRGB">
<feFlood flood-opacity="0" result="BackgroundImageFix"/>
<feBlend mode="normal" in="SourceGraphic" in2="BackgroundImageFix" result="shape"/>
<feGaussianBlur stdDeviation="28" result="effect1_foregroundBlur_295_35465"/>
</filter>
<filter id="filter1_f_295_35465" x="-56.8799" y="-130.8" width="268.64" height="269.52" filterUnits="userSpaceOnUse" color-interpolation-filters="sRGB">
<feFlood flood-opacity="0" result="BackgroundImageFix"/>
<feBlend mode="normal" in="SourceGraphic" in2="BackgroundImageFix" result="shape"/>
<feGaussianBlur stdDeviation="28" result="effect1_foregroundBlur_295_35465"/>
</filter>
<filter id="filter2_f_295_35465" x="-110.56" y="-57.7598" width="268.64" height="269.52" filterUnits="userSpaceOnUse" color-interpolation-filters="sRGB">
<feFlood flood-opacity="0" result="BackgroundImageFix"/>
<feBlend mode="normal" in="SourceGraphic" in2="BackgroundImageFix" result="shape"/>
<feGaussianBlur stdDeviation="28" result="effect1_foregroundBlur_295_35465"/>
</filter>
<filter id="filter3_f_295_35465" x="-66.5601" y="46.96" width="268.64" height="269.52" filterUnits="userSpaceOnUse" color-interpolation-filters="sRGB">
<feFlood flood-opacity="0" result="BackgroundImageFix"/>
<feBlend mode="normal" in="SourceGraphic" in2="BackgroundImageFix" result="shape"/>
<feGaussianBlur stdDeviation="28" result="effect1_foregroundBlur_295_35465"/>
</filter>
</defs>
</svg>
