<svg width="176" height="176" viewBox="0 0 176 176" fill="none" xmlns="http://www.w3.org/2000/svg">
<mask id="mask0_295_35878" style="mask-type:alpha" maskUnits="userSpaceOnUse" x="0" y="0" width="176" height="176">
<path fill-rule="evenodd" clip-rule="evenodd" d="M47.7345 6.57439C51.1665 3.1106 55.09 1.04765 59.8891 0.183687C61.8742 -0.173767 65.9014 0.0101351 68.2386 0.564948C69.1386 0.778523 71.1834 1.57417 72.7829 2.3329C78.3008 4.95101 82.6918 10.4626 84.1901 16.6521C84.5474 18.1271 85.4982 23.1049 86.3033 27.7139C87.1084 32.3228 87.8707 35.9715 87.9977 35.8221C88.1247 35.6727 88.9743 31.2808 89.8861 26.0622C90.7979 20.8436 91.8919 15.6046 92.3173 14.4201C94.1867 9.2132 98.2881 4.67291 103.257 2.30943C106.805 0.621533 108.95 0.115715 112.629 0.0988086C118.591 0.071551 123.538 2.15382 127.907 6.52953C132.296 10.9253 134.261 15.6332 134.261 21.7493C134.261 27.1056 132.444 32.042 129.095 35.7869L127.341 37.7488L128.816 37.9189C129.627 38.0124 134.097 38.3402 138.749 38.648C151.046 39.4605 162.092 40.5129 164.469 41.098C168.183 42.012 171.068 44.5004 172.746 48.2357C174.355 51.8206 176.2 64.886 175.982 71.1659C175.871 74.3813 175.781 74.7715 174.826 76.1496C174.12 77.1688 173.155 77.9617 171.795 78.6411L169.801 79.6379L158.677 79.2362C117.259 77.7416 70.7222 77.7395 19.9063 79.2297L6.18704 79.632L4.19815 78.6383C2.84415 77.9617 1.87853 77.1674 1.17356 76.1496C0.20829 74.7563 0.129577 74.4048 0.0170308 70.9741C-0.156622 65.682 1.01924 56.0014 2.56002 50.042C3.54635 46.2256 6.7515 42.6786 10.3716 41.3965C12.4917 40.6457 30.3827 38.9026 42.0837 38.3071C44.2673 38.1956 46.56 38.0276 47.1787 37.933L48.3031 37.7612L46.5562 35.6206C39.3336 26.7716 39.8293 14.5519 47.7345 6.57439ZM51.7358 17.3667C52.9769 14.0764 56.123 11.0657 59.4572 9.9771C60.3338 9.69107 61.9812 9.54719 63.6608 9.61033C66.9937 9.73592 69.4966 10.7586 71.6758 12.8864C74.2629 15.4124 74.8039 16.9771 76.6412 27.2529C77.5561 32.3701 78.2393 36.6219 78.1596 36.7016C78.0798 36.7817 73.9305 36.1182 68.9387 35.2276C58.5503 33.3745 56.7586 32.7513 54.3205 30.1467C52.0955 27.7691 51.309 25.8234 51.1361 22.2668C51.0194 19.8671 51.1285 18.9766 51.7358 17.3667ZM101.498 16.7653C102.877 13.642 104.862 11.753 108.275 10.3152C111.088 9.13004 115.273 9.28013 118.035 10.6644C120.512 11.9062 122.549 13.9236 123.774 16.3474C124.651 18.0836 124.76 18.6612 124.763 21.5819C124.767 24.5944 124.674 25.0537 123.642 27.1518C122.349 29.7775 120.445 31.6555 117.904 32.81C116.089 33.635 98.1838 37.0456 97.7813 36.6433C97.4333 36.2955 100.781 18.3869 101.498 16.7653ZM12.1844 88.9196C12.8763 88.2278 19.4402 87.9915 51.5776 87.5005C84.6327 86.9957 160.981 87.7123 163.18 88.5483C163.611 88.7119 164.102 89.2108 164.272 89.6566C164.912 91.3383 165.433 105.217 165.221 114.908C164.838 132.371 162.995 147.16 160.438 153.299C156.509 162.732 146.896 171.003 137.309 173.199C134.232 173.904 127.252 174.645 116.999 175.357C105.911 176.127 72.2785 176.232 61.762 175.529C41.8573 174.201 37.2722 173.452 31.7036 170.622C24.9456 167.187 18.4183 160.158 15.5156 153.19C12.4513 145.833 10.3809 124.929 10.8018 105.592C11.068 93.3595 11.3687 89.7349 12.1844 88.9196ZM22.88 103.84C20.936 103.84 19.36 105.416 19.36 107.36C19.36 109.304 20.936 110.88 22.88 110.88H153.12C155.064 110.88 156.64 109.304 156.64 107.36C156.64 105.416 155.064 103.84 153.12 103.84H22.88Z" fill="white"/>
</mask>
<g mask="url(#mask0_295_35878)">
<g filter="url(#filter0_f_295_35878)">
<ellipse cx="139.04" cy="106.119" rx="92.4" ry="92.9191" fill="#D9D7FF"/>
</g>
<g filter="url(#filter1_f_295_35878)">
<ellipse cx="77.4401" cy="3.9602" rx="78.32" ry="78.76" fill="#CC81F4"/>
</g>
<g filter="url(#filter2_f_295_35878)">
<ellipse cx="23.7599" cy="77.0002" rx="78.32" ry="78.76" fill="#F8C3F9"/>
</g>
<g filter="url(#filter3_f_295_35878)">
<ellipse cx="67.7599" cy="181.72" rx="78.32" ry="78.76" fill="#AEA5FF"/>
</g>
</g>
<defs>
<filter id="filter0_f_295_35878" x="-19.4275" y="-52.8672" width="316.935" height="317.973" filterUnits="userSpaceOnUse" color-interpolation-filters="sRGB">
<feFlood flood-opacity="0" result="BackgroundImageFix"/>
<feBlend mode="normal" in="SourceGraphic" in2="BackgroundImageFix" result="shape"/>
<feGaussianBlur stdDeviation="33.0337" result="effect1_foregroundBlur_295_35878"/>
</filter>
<filter id="filter1_f_295_35878" x="-56.8799" y="-130.8" width="268.64" height="269.52" filterUnits="userSpaceOnUse" color-interpolation-filters="sRGB">
<feFlood flood-opacity="0" result="BackgroundImageFix"/>
<feBlend mode="normal" in="SourceGraphic" in2="BackgroundImageFix" result="shape"/>
<feGaussianBlur stdDeviation="28" result="effect1_foregroundBlur_295_35878"/>
</filter>
<filter id="filter2_f_295_35878" x="-110.56" y="-57.7598" width="268.64" height="269.52" filterUnits="userSpaceOnUse" color-interpolation-filters="sRGB">
<feFlood flood-opacity="0" result="BackgroundImageFix"/>
<feBlend mode="normal" in="SourceGraphic" in2="BackgroundImageFix" result="shape"/>
<feGaussianBlur stdDeviation="28" result="effect1_foregroundBlur_295_35878"/>
</filter>
<filter id="filter3_f_295_35878" x="-66.5601" y="46.96" width="268.64" height="269.52" filterUnits="userSpaceOnUse" color-interpolation-filters="sRGB">
<feFlood flood-opacity="0" result="BackgroundImageFix"/>
<feBlend mode="normal" in="SourceGraphic" in2="BackgroundImageFix" result="shape"/>
<feGaussianBlur stdDeviation="28" result="effect1_foregroundBlur_295_35878"/>
</filter>
</defs>
</svg>
