<svg width="176" height="176" viewBox="0 0 176 176" fill="none" xmlns="http://www.w3.org/2000/svg">
<mask id="mask0_295_35364" style="mask-type:alpha" maskUnits="userSpaceOnUse" x="16" y="0" width="144" height="176">
<path fill-rule="evenodd" clip-rule="evenodd" d="M65.0743 6.72941C67.6856 2.31832 68.2431 1.45429 69.0546 0.56039L69.5632 0H87.9229H106.283L106.889 0.630346C107.691 1.46509 109.12 3.65533 110.386 5.98992C110.647 6.47207 110.852 6.80233 111.834 8.31948C113.119 10.3075 114.107 11.9946 114.107 12.2017C114.107 12.5277 114.604 12.7186 115.472 12.7266C116.407 12.7353 120.37 13.4399 122.057 13.8976C126.494 15.1017 131.066 17.4268 134.721 20.3385C138.739 23.5393 142.728 29.6252 144.111 34.6652C144.437 35.8543 144.767 37.5924 145.393 41.4118C145.586 42.5913 145.917 44.5546 146.129 45.7748C146.492 47.8707 146.689 48.9926 147.596 54.1311C147.804 55.3106 148.013 56.4087 148.061 56.5714C148.109 56.7341 148.274 57.6326 148.428 58.5681C149.013 62.1153 149.453 64.6336 149.533 64.8869C149.578 65.0314 149.752 66.0148 149.918 67.0723C150.085 68.1298 150.381 69.9267 150.578 71.0656C150.774 72.2044 151.071 73.9681 151.238 74.9849C151.405 76.0017 151.611 77.0998 151.697 77.4252C151.856 78.0301 152.184 79.9426 152.824 84.0067C153.36 87.408 153.877 90.4794 154.306 92.8067C154.679 94.8389 155.084 97.1924 155.791 101.459C155.987 102.638 156.32 104.568 156.53 105.748C156.741 106.927 157.073 108.824 157.268 109.963C158.16 115.179 158.368 116.337 158.447 116.545C158.61 116.97 159.28 122.033 159.28 122.836C159.28 123.892 158.801 126.012 158.254 127.371C156.926 130.677 154.014 134.818 150.936 137.777C148.875 139.759 148.018 140.449 143.542 143.734C141.234 145.427 136.608 148.347 133.425 150.12C132.648 150.553 131.835 151.029 131.617 151.179C130.995 151.607 123.918 155.109 122.55 155.666C121.873 155.942 121.301 156.222 121.278 156.288C121.216 156.475 122.348 158.379 125.069 162.661L126.001 164.128L126.778 164.22C127.205 164.272 129.138 164.314 131.072 164.315C133.006 164.315 134.697 164.357 134.83 164.408C135.263 164.573 135.688 165.712 136.397 168.605C136.546 169.215 136.837 170.347 137.044 171.119C137.751 173.765 137.991 174.743 138.087 175.371L138.183 176H87.7333C59.9858 176 37.2834 175.965 37.2834 175.922C37.2834 175.879 37.484 175.238 37.7292 174.497C37.9743 173.757 38.175 173.064 38.175 172.958C38.175 172.851 38.3362 172.245 38.5332 171.609C38.8771 170.5 39.2815 169.154 40.0351 166.608C40.2277 165.958 40.4421 165.192 40.5116 164.908L40.6378 164.39L45.2735 164.351L49.9091 164.312L50.1815 163.759C50.8085 162.487 53.6295 157.973 54.3626 157.069C54.6894 156.666 54.7585 156.329 54.5145 156.329C54.4295 156.329 52.9083 155.609 51.134 154.729C47.9574 153.154 46.6493 152.474 43.7828 150.909C42.9851 150.474 42.2982 150.118 42.2566 150.118C42.2148 150.118 41.9313 149.961 41.6267 149.768C41.3219 149.576 40.1364 148.867 38.9922 148.192C32.1233 144.138 27.0028 140.212 23.4854 136.301C19.2962 131.643 17.2475 127.946 16.7842 124.208C16.6222 122.902 16.7858 119.563 17.0725 118.319C17.1569 117.953 17.3677 116.822 17.5411 115.805C17.7146 114.788 18.007 113.124 18.1908 112.108C18.3748 111.091 18.6372 109.593 18.774 108.78C18.9109 107.966 19.1492 106.635 19.3038 105.822C19.4583 105.008 19.6597 103.81 19.7513 103.16C19.843 102.509 19.9777 101.744 20.0505 101.459C20.1233 101.174 20.3249 100.076 20.4986 99.0185C20.6723 97.961 20.9706 96.164 21.1615 95.0252C22.0222 89.8907 22.27 88.3939 22.5576 86.595C22.7267 85.5375 22.9031 84.5392 22.9496 84.3765C23.068 83.9624 23.7214 80.2352 23.9866 78.4605C24.1082 77.6471 24.3388 76.2494 24.499 75.3546C24.6593 74.4598 24.8975 73.0955 25.0284 72.3227C25.1593 71.5499 25.429 70.0192 25.6279 68.921C25.8267 67.8229 26.1574 65.9351 26.363 64.7259C26.5685 63.5166 26.7628 62.485 26.7949 62.4334C26.827 62.3818 26.9634 61.5741 27.0982 60.6387C27.2328 59.7032 27.4045 58.7382 27.4795 58.4941C27.5545 58.2501 27.751 57.2185 27.9161 56.2017C28.4461 52.9352 28.9247 50.1924 29.0151 49.9024C29.0634 49.7472 29.2044 48.9213 29.3283 48.0672C29.4523 47.2131 29.6242 46.2481 29.7104 45.9227C29.8737 45.3061 30.2458 43.1363 30.7499 39.8588C31.7803 33.1631 33.4193 29.284 37.1902 24.6162C39.3979 21.8835 40.6471 20.6611 43.0043 18.9272C45.7408 16.9145 48.1686 15.6847 51.6228 14.562C54.2773 13.6992 56.8641 13.1531 60.0928 12.7739C61.5301 12.6052 61.6649 12.5597 61.8034 12.1971C61.8786 12.0001 62.4681 10.9886 63.1133 9.94962C63.7585 8.91063 64.641 7.46151 65.0743 6.72941ZM56.9802 22.6923C57.3579 22.5645 58.4802 22.3388 59.4743 22.1906C61.465 21.8937 62.2241 21.7779 62.5658 22.102C62.779 22.3043 62.8296 22.6778 62.9155 23.2855C62.9608 23.6062 63.0207 23.8912 63.0486 23.9191C63.0766 23.9469 74.2573 23.9663 87.8947 23.9622C107.356 23.9563 112.725 23.9154 112.854 23.7723C112.944 23.672 113.103 23.2904 113.207 22.9244C113.31 22.5583 113.463 22.1757 113.546 22.0739C113.761 21.8113 114.536 21.8438 116.49 22.1971C122.569 23.2965 126.067 25.0318 129.859 28.8294C131.633 30.6054 132.747 32.1176 133.939 34.3679C134.949 36.2748 135.187 37.2083 136.324 43.7413C136.743 46.1472 137.293 49.2736 137.827 52.2824C138.028 53.4212 138.356 55.4178 138.556 56.7193C138.971 59.4353 139.477 62.3544 140.028 65.2235C140.625 68.3256 141.14 71.1632 141.53 73.5059C141.727 74.6854 142.055 76.6487 142.258 77.8689C142.72 80.6411 143.264 83.7597 143.755 86.4471C143.963 87.5859 144.297 89.516 144.497 90.7361C144.996 93.7796 145.529 96.8501 145.985 99.3143C146.196 100.453 146.527 102.317 146.721 103.455C146.915 104.594 147.25 106.558 147.466 107.818C147.681 109.079 148.02 111.076 148.217 112.255C148.759 115.487 149.253 118.206 149.636 120.055C149.946 121.552 149.962 121.82 149.8 122.76C149.701 123.334 149.45 124.205 149.243 124.697C148.059 127.496 144.761 131.068 139.876 134.841C137.65 136.561 132.487 139.931 129.041 141.913C128.224 142.383 127.254 142.953 126.886 143.179C125.604 143.968 116.862 148.195 116.514 148.195C116.428 148.195 116.008 147.579 115.579 146.827C114.748 145.369 114.075 144.336 113.603 143.795L113.312 143.462L87.6685 143.471L62.0245 143.48L61.4732 144.543C61.1699 145.128 60.6141 146.222 60.2378 146.975C59.8616 147.727 59.5251 148.343 59.4901 148.343C59.184 148.343 49.958 143.76 47.9476 142.61C47.0268 142.083 45.9725 141.48 45.6047 141.272C44.3396 140.553 39.9048 137.674 38.2021 136.465C31.1962 131.491 26.9416 126.862 26.2197 123.428C26.0282 122.517 26.0402 122.239 26.3714 119.907C26.5692 118.515 26.7654 117.268 26.8073 117.137C26.9099 116.815 27.5814 113.11 27.8529 111.368C28.0763 109.935 28.6601 106.474 29.038 104.343C29.1533 103.692 29.353 102.428 29.4815 101.533C29.6101 100.638 29.7487 99.7964 29.7894 99.6626C29.8303 99.5287 30.024 98.4971 30.22 97.3702C30.416 96.2432 30.7504 94.356 30.963 93.1765C31.1757 91.997 31.4758 90.2291 31.6299 89.248C31.7842 88.267 32.0112 86.9691 32.1344 86.3639C32.2577 85.7589 32.4029 84.9311 32.457 84.5244C32.5112 84.1177 32.6234 83.5187 32.7065 83.1933C32.8683 82.5589 33.3899 79.614 33.8722 76.6118C34.0355 75.595 34.2034 74.6685 34.2453 74.5529C34.3451 74.2781 34.992 70.4206 35.3635 67.8857C35.5245 66.7876 35.6916 65.775 35.735 65.6357C35.8637 65.2228 36.8908 59.3315 37.5861 55.0185C37.75 54.0017 37.9191 53.0735 37.9617 52.9559C38.0045 52.8382 38.1729 51.8398 38.3359 50.7374C38.499 49.6348 38.7261 48.2336 38.8407 47.6235C38.9551 47.0134 39.159 45.8487 39.2936 45.0353C40.6138 37.0581 41.0785 35.4983 43.0346 32.479C45.3151 28.9587 47.9197 26.5256 51.4288 24.637C52.5504 24.0333 55.5649 22.9244 56.084 22.9244C56.1991 22.9244 56.6023 22.82 56.9802 22.6923ZM75.0438 35.2117C61.7821 34.7153 56.5341 50.1046 55.7516 52.8705L51.7802 79.1458L47.8088 105.421L47.6691 106.201C46.799 111.08 49.952 116.13 51.7093 118.045C53.7683 120.527 58.7326 126.484 60.9996 128.824C63.33 131.23 68.777 132.512 71.3537 132.725C80.1476 132.748 99.1254 132.782 104.685 132.725C110.574 132.665 114.856 129.321 116.318 127.477C117.38 126.138 119.007 124.245 120.672 122.308C123.272 119.283 125.964 116.15 126.741 114.853C128.102 112.581 128.632 108.612 128.443 106.698L121.068 56.771C118.73 41.6654 108.872 35.7082 103.764 35.2118C102.507 35.1897 100.5 35.2279 97.9446 35.2766L97.9442 35.2766H97.9442C92.2781 35.3845 83.9137 35.5438 75.0438 35.2117ZM91.7824 116.839C119.841 90.5623 104.593 74.4016 94.0755 63.2545L94.0753 63.2544C91.6204 60.6526 89.4232 58.3239 88.0946 56.2034C86.3826 58.2043 84.6629 60.1246 82.9895 61.9932C68.6479 78.0077 57.7033 90.2289 84.1255 116.839L88.0011 79.1999L91.7824 116.839Z" fill="white"/>
</mask>
<g mask="url(#mask0_295_35364)">
<g filter="url(#filter0_f_295_35364)">
<ellipse cx="121.44" cy="94.5998" rx="78.32" ry="78.76" fill="#D9D7FF"/>
</g>
<g filter="url(#filter1_f_295_35364)">
<ellipse cx="77.4401" cy="3.9602" rx="78.32" ry="78.76" fill="#CC81F4"/>
</g>
<g filter="url(#filter2_f_295_35364)">
<ellipse cx="23.7599" cy="77.0002" rx="78.32" ry="78.76" fill="#F8C3F9"/>
</g>
<g filter="url(#filter3_f_295_35364)">
<ellipse cx="67.7599" cy="181.72" rx="78.32" ry="78.76" fill="#AEA5FF"/>
</g>
</g>
<defs>
<filter id="filter0_f_295_35364" x="-12.8799" y="-40.1602" width="268.64" height="269.52" filterUnits="userSpaceOnUse" color-interpolation-filters="sRGB">
<feFlood flood-opacity="0" result="BackgroundImageFix"/>
<feBlend mode="normal" in="SourceGraphic" in2="BackgroundImageFix" result="shape"/>
<feGaussianBlur stdDeviation="28" result="effect1_foregroundBlur_295_35364"/>
</filter>
<filter id="filter1_f_295_35364" x="-56.8799" y="-130.8" width="268.64" height="269.52" filterUnits="userSpaceOnUse" color-interpolation-filters="sRGB">
<feFlood flood-opacity="0" result="BackgroundImageFix"/>
<feBlend mode="normal" in="SourceGraphic" in2="BackgroundImageFix" result="shape"/>
<feGaussianBlur stdDeviation="28" result="effect1_foregroundBlur_295_35364"/>
</filter>
<filter id="filter2_f_295_35364" x="-110.56" y="-57.7598" width="268.64" height="269.52" filterUnits="userSpaceOnUse" color-interpolation-filters="sRGB">
<feFlood flood-opacity="0" result="BackgroundImageFix"/>
<feBlend mode="normal" in="SourceGraphic" in2="BackgroundImageFix" result="shape"/>
<feGaussianBlur stdDeviation="28" result="effect1_foregroundBlur_295_35364"/>
</filter>
<filter id="filter3_f_295_35364" x="-66.5601" y="46.96" width="268.64" height="269.52" filterUnits="userSpaceOnUse" color-interpolation-filters="sRGB">
<feFlood flood-opacity="0" result="BackgroundImageFix"/>
<feBlend mode="normal" in="SourceGraphic" in2="BackgroundImageFix" result="shape"/>
<feGaussianBlur stdDeviation="28" result="effect1_foregroundBlur_295_35364"/>
</filter>
</defs>
</svg>
