<svg width="176" height="176" viewBox="0 0 176 176" fill="none" xmlns="http://www.w3.org/2000/svg">
<mask id="mask0_295_35737" style="mask-type:alpha" maskUnits="userSpaceOnUse" x="7" y="0" width="161" height="177">
<path fill-rule="evenodd" clip-rule="evenodd" d="M83.704 0C64.4691 25.8204 81.6386 43.4617 81.6386 43.4617C79.3079 35.4492 84.8783 19.723 84.8783 19.723C83.0314 26.7988 85.2789 43.0448 85.2789 43.0448C109.264 21.22 83.704 0 83.704 0ZM116.939 22.7597C65.843 54.5131 93.692 93.0761 93.692 93.0761C93.5119 78.8431 109.887 55.5998 109.887 55.5998C103.57 66.3964 99.8277 94.0446 99.8277 94.0446C149.324 69.2596 116.939 22.7597 116.939 22.7597ZM82.9657 105.986C83.6814 102.564 84.2251 100.593 84.5926 100.091C84.8962 99.6761 85.3825 99.3799 85.6732 99.4329C87.0311 99.6807 86.7791 104.93 85.0158 113.127L83.9909 117.892L82.9407 114.509L81.8907 111.127L82.9657 105.986ZM77.2252 105.72C78.2313 100.047 78.3585 99.5746 78.9554 99.2842C79.4103 99.0628 79.7458 99.0867 80.0961 99.3655C80.611 99.7748 80.655 100.128 80.8089 105.076C81.0858 113.989 85.1153 123.4 92.368 132.072C95.7483 136.114 97.5824 137.511 100.126 137.982C102.52 138.425 103.907 137.945 104.316 136.531C104.805 134.84 102.341 130.381 98.1749 125.418C96.9143 123.917 95.6115 122.129 95.2795 121.444C94.0192 118.847 94.3288 116.169 96.0369 114.889C97.7098 113.636 98.7209 114.32 102.287 119.118C105.316 123.192 106.881 124.837 111.089 128.366C116.151 132.611 118.029 134.539 119.884 137.396C121.806 140.358 122.707 143.234 122.977 147.271C123.13 149.569 123.029 150.499 122.228 154.131C121.247 158.585 119.948 161.786 117.58 165.584C116.029 168.074 110.154 176.046 109.904 176C109.793 175.98 108.665 173.01 107.398 169.401C104.769 161.913 103.736 159.817 100.523 155.452C98.3019 152.435 97.2588 151.261 88.3454 141.744C85.7574 138.981 83.102 135.739 81.3298 133.18C78.9179 129.696 78.3561 128.638 77.6831 126.31C76.7764 123.173 76.3425 119.85 76.2225 115.123C76.1539 112.414 76.3284 110.776 77.2252 105.72ZM85.3927 115.787C85.9594 111.683 86.9425 107.969 87.6103 107.41C89.4422 105.874 89.8884 109.885 88.7404 117.563C88.3667 120.06 88.0032 122.687 87.9324 123.401C87.8612 124.115 87.708 124.682 87.5918 124.661C87.4757 124.64 86.8228 123.436 86.1407 121.986L84.9009 119.35L85.3927 115.787ZM110.976 97.1987C110.976 97.1987 124.86 66.5146 167.522 78.1572C167.522 78.1572 153.345 121.378 113.325 101.637C113.325 101.637 132.944 90.6878 142.971 89.5055C142.971 89.5055 120.03 90.237 110.976 97.1987ZM7.91992 87.4861C39.494 118.849 66.9761 98.6997 66.9761 98.6997C55.5689 100.339 35.1006 89.6382 35.1006 89.6382C44.4544 93.5628 67.126 93.643 67.126 93.643C41.8957 56.4575 7.91992 87.4861 7.91992 87.4861ZM73.7149 89.1805C73.7149 89.1805 37.4141 77.6511 45.0469 28.5639C45.0469 28.5639 95.4054 38.784 78.3576 85.9914C78.3576 85.9914 63.5492 65.4998 60.9444 54.4975C60.9444 54.4975 64.7412 79.9629 73.7149 89.1805ZM158.44 38.5094C129.344 44.9977 130.841 67.7723 130.841 67.7723C134.018 60.7152 147.451 53.061 147.451 53.061C141.865 56.9286 133.65 69.6321 133.65 69.6321C163.716 68.8357 158.44 38.5094 158.44 38.5094ZM40.5772 68.5896C40.5772 68.5896 19.4371 72.3551 10.3177 46.0674C10.3177 46.0674 38.158 37.9951 42.0473 65.8229C42.0473 65.8229 29.27 59.522 25.0962 54.7259C25.0962 54.7259 33.6564 66.3764 40.5772 68.5896ZM112.369 110.967C112.369 110.967 133.871 103.338 147.952 129.675C147.952 129.675 120.228 143.033 111.329 114.194C111.329 114.194 125.763 118.639 131.004 123.018C131.004 123.018 120.011 112.133 112.369 110.967ZM29.8671 133.073C60.4035 138.853 68.3078 116.19 68.3078 116.19C62.3732 121.703 46.3784 123.533 46.3784 123.533C53.3296 122.148 66.4264 113.192 66.4264 113.192C37.2472 101.48 29.8671 133.073 29.8671 133.073Z" fill="white"/>
</mask>
<g mask="url(#mask0_295_35737)">
<g filter="url(#filter0_f_295_35737)">
<ellipse cx="139.04" cy="106.119" rx="92.4" ry="92.9191" fill="#D9D7FF"/>
</g>
<g filter="url(#filter1_f_295_35737)">
<ellipse cx="77.4401" cy="3.9602" rx="78.32" ry="78.76" fill="#CC81F4"/>
</g>
<g filter="url(#filter2_f_295_35737)">
<ellipse cx="23.7599" cy="77.0002" rx="78.32" ry="78.76" fill="#F8C3F9"/>
</g>
<g filter="url(#filter3_f_295_35737)">
<ellipse cx="67.7599" cy="181.72" rx="78.32" ry="78.76" fill="#AEA5FF"/>
</g>
</g>
<defs>
<filter id="filter0_f_295_35737" x="-19.4273" y="-52.8672" width="316.935" height="317.973" filterUnits="userSpaceOnUse" color-interpolation-filters="sRGB">
<feFlood flood-opacity="0" result="BackgroundImageFix"/>
<feBlend mode="normal" in="SourceGraphic" in2="BackgroundImageFix" result="shape"/>
<feGaussianBlur stdDeviation="33.0337" result="effect1_foregroundBlur_295_35737"/>
</filter>
<filter id="filter1_f_295_35737" x="-56.8799" y="-130.8" width="268.64" height="269.52" filterUnits="userSpaceOnUse" color-interpolation-filters="sRGB">
<feFlood flood-opacity="0" result="BackgroundImageFix"/>
<feBlend mode="normal" in="SourceGraphic" in2="BackgroundImageFix" result="shape"/>
<feGaussianBlur stdDeviation="28" result="effect1_foregroundBlur_295_35737"/>
</filter>
<filter id="filter2_f_295_35737" x="-110.56" y="-57.7598" width="268.64" height="269.52" filterUnits="userSpaceOnUse" color-interpolation-filters="sRGB">
<feFlood flood-opacity="0" result="BackgroundImageFix"/>
<feBlend mode="normal" in="SourceGraphic" in2="BackgroundImageFix" result="shape"/>
<feGaussianBlur stdDeviation="28" result="effect1_foregroundBlur_295_35737"/>
</filter>
<filter id="filter3_f_295_35737" x="-66.5601" y="46.96" width="268.64" height="269.52" filterUnits="userSpaceOnUse" color-interpolation-filters="sRGB">
<feFlood flood-opacity="0" result="BackgroundImageFix"/>
<feBlend mode="normal" in="SourceGraphic" in2="BackgroundImageFix" result="shape"/>
<feGaussianBlur stdDeviation="28" result="effect1_foregroundBlur_295_35737"/>
</filter>
</defs>
</svg>
