<svg width="176" height="176" viewBox="0 0 176 176" fill="none" xmlns="http://www.w3.org/2000/svg">
<mask id="mask0_295_34711" style="mask-type:alpha" maskUnits="userSpaceOnUse" x="0" y="0" width="176" height="176">
<path fill-rule="evenodd" clip-rule="evenodd" d="M107.185 0.898893C102.212 0.626651 97.2485 0.171195 92.2733 0.00088228C91.2798 -0.0326641 90.2644 0.898891 89.2451 1.35048C84.2674 3.55293 81.5875 7.3282 80.2379 12.6595C79.7141 14.7291 79.0793 16.7741 78.4058 18.8101C79.4367 19.3133 80.4043 19.9455 81.2907 20.7171C83.1939 16.5535 85.1112 12.3989 87.0788 8.26749C87.5562 7.26626 88.7148 6.09214 89.7148 5.92183C94.699 5.06768 99.74 4.53997 104.756 3.85485C106.12 3.66905 106.568 4.49223 106.289 5.48572C105.187 9.38227 103.975 13.2466 102.68 17.0812C102.545 17.4863 101.375 18.0076 101.09 17.8282C99.1271 16.596 97.2731 15.1948 95.0383 13.6001C95.9789 13.3833 96.4383 13.244 96.9079 13.1743C98.5207 12.9317 99.6342 12.1628 99.5116 10.3951C99.4136 9.01971 97.2666 7.35658 95.8796 7.71269C94.4616 8.07912 92.9804 8.63134 91.8282 9.49968C89.8554 10.9809 89.6645 13.3111 91.5456 14.8026C94.7132 17.3147 98.1001 19.5623 101.487 21.7764C102.702 22.5686 103.8 21.9157 104.524 20.699C106.749 16.9715 107.954 12.8969 108.581 8.63909C108.84 6.87919 108.936 5.0922 109.094 3.31553C109.219 1.91432 108.861 0.994371 107.185 0.898893Z" fill="white"/>
<path d="M66.4645 28.34C67.089 28.7916 67.6477 29.3335 68.8399 30.3489C64.4337 30.9799 60.7178 31.6211 56.9722 31.9321C56.429 31.9772 55.1297 30.358 55.2355 29.6715C56.2277 23.1829 57.358 16.711 58.6714 10.2804C59.0069 8.6418 60.2662 7.79153 62.0945 9.07403C68.8115 13.7925 75.6782 18.307 82.2249 23.2474C83.5383 24.2409 84.3319 26.793 84.2738 28.5903C83.8506 41.5547 83.599 48.3153 82.9487 61.2707H86.3046C87.2659 51.4906 88.631 49.5633 90.8605 40.0167C92.8849 31.3347 91.8359 23.899 86.3046 17.0194C85.1705 15.6104 84.4028 13.5099 82.9487 12.8209C75.6562 9.36176 68.1638 6.32194 60.7965 3.01375C58.3153 1.90026 57.1102 2.95826 56.2496 5.06653C55.1542 7.74379 53.9646 10.3888 53.024 13.1203C50.7558 19.7186 49.4591 26.4846 49.8874 33.5113C50.0268 35.8067 51.1222 37.5627 53.4627 37.324C59.9926 36.6556 66.5445 35.9421 72.9764 34.6816C76.7994 33.9332 78.2587 30.4341 76.522 26.8317C75.5066 24.7234 73.7841 22.8268 72.0139 21.2411C70.2824 19.6953 65.9484 20.4927 64.7846 22.3997C63.2905 24.8538 64.3214 26.7943 66.4645 28.34Z" fill="white"/>
<path fill-rule="evenodd" clip-rule="evenodd" d="M117.363 47.9157C119.561 47.5906 121.795 47.4164 124.019 47.4164C152.676 47.4164 175.991 74.7064 176 108.245C176 141.784 152.684 169.075 124.029 169.075C121.807 169.075 119.568 168.901 117.374 168.568C108.548 173.259 98.5658 175.913 87.9974 175.913C77.6677 175.913 67.6231 173.363 58.5966 168.574C56.407 168.9 54.1813 169.074 51.9724 169.074C23.3148 169.074 0 141.78 0 108.244C0 74.6961 23.3148 47.41 51.9724 47.41C54.1813 47.41 56.407 47.5828 58.5966 47.9106C64.8956 44.5611 71.6964 42.3354 78.7412 41.2852H97.0872C104.289 42.3367 111.121 44.5972 117.363 47.9157ZM134.44 117.035C138.534 115.173 142.461 112.953 145.748 110.34C147.181 109.198 148.386 107.825 149.435 106.318C144.93 123.152 133.932 137.999 118.374 145.92C118.218 141.724 117.05 137.417 114.337 134.078C114.739 139.252 113.378 144.244 111.352 148.913C110.846 149.087 110.337 149.256 109.825 149.42C102.718 151.585 95.3467 152.521 88.0078 152.296C80.6702 152.519 73.2977 151.585 66.1923 149.42C65.6801 149.256 65.1691 149.087 64.6647 148.913C62.6364 144.244 61.279 139.249 61.6803 134.078C58.9682 137.417 57.8005 141.724 57.6431 145.92C42.0866 138 31.0886 123.152 26.5817 106.318C27.6268 107.823 28.8319 109.198 30.268 110.34C33.5529 112.953 37.483 115.173 41.5731 117.035C43.622 124.996 46.836 133.944 53.7879 138.364C53.7645 138.17 53.7409 137.975 53.7171 137.78C53.0821 132.545 52.384 126.789 54.971 121.916C65.6194 124.957 76.9556 126.06 88.0052 126.033C99.0588 126.062 110.396 124.957 121.046 121.916C123.624 126.786 122.93 132.538 122.299 137.771C122.275 137.969 122.251 138.167 122.228 138.364C129.176 133.944 132.391 124.996 134.44 117.035ZM106.71 97.9662C109.853 101.091 111.973 102.53 115.361 104.224C120.442 106.764 124.393 105.917 126.935 104.224C129.476 102.531 133.135 98.6616 134.138 91.1201C134.579 80.5285 130.887 72.8902 130.887 72.8902C122.981 57.6473 111.31 71.68 111.31 71.68C100.718 82.7761 100.718 86.2327 100.718 86.2327C101.244 91.227 103.739 94.3027 106.172 97.3015C106.352 97.5233 106.532 97.7446 106.71 97.9662ZM64.7086 71.68C75.3002 82.7748 75.3002 86.2327 75.3002 86.2327C74.7755 91.2242 72.2818 94.2993 69.8512 97.2965C69.67 97.5199 69.4892 97.7429 69.3096 97.9662C66.1679 101.091 64.0454 102.531 60.6585 104.224C55.5775 106.764 51.6255 105.918 49.085 104.224C46.5445 102.53 42.8841 98.6616 41.8815 91.1201C41.4403 80.5285 45.133 72.8902 45.133 72.8902C53.037 57.6473 64.7086 71.68 64.7086 71.68Z" fill="white"/>
</mask>
<g mask="url(#mask0_295_34711)">
<g filter="url(#filter0_f_295_34711)">
<ellipse cx="121.44" cy="94.5998" rx="78.32" ry="78.76" fill="#D9D7FF"/>
</g>
<g filter="url(#filter1_f_295_34711)">
<ellipse cx="77.4401" cy="3.9602" rx="78.32" ry="78.76" fill="#CC81F4"/>
</g>
<g filter="url(#filter2_f_295_34711)">
<ellipse cx="23.7599" cy="77.0002" rx="78.32" ry="78.76" fill="#F8C3F9"/>
</g>
<g filter="url(#filter3_f_295_34711)">
<ellipse cx="67.7599" cy="181.72" rx="78.32" ry="78.76" fill="#AEA5FF"/>
</g>
</g>
<defs>
<filter id="filter0_f_295_34711" x="-12.8799" y="-40.1602" width="268.64" height="269.52" filterUnits="userSpaceOnUse" color-interpolation-filters="sRGB">
<feFlood flood-opacity="0" result="BackgroundImageFix"/>
<feBlend mode="normal" in="SourceGraphic" in2="BackgroundImageFix" result="shape"/>
<feGaussianBlur stdDeviation="28" result="effect1_foregroundBlur_295_34711"/>
</filter>
<filter id="filter1_f_295_34711" x="-56.8799" y="-130.8" width="268.64" height="269.52" filterUnits="userSpaceOnUse" color-interpolation-filters="sRGB">
<feFlood flood-opacity="0" result="BackgroundImageFix"/>
<feBlend mode="normal" in="SourceGraphic" in2="BackgroundImageFix" result="shape"/>
<feGaussianBlur stdDeviation="28" result="effect1_foregroundBlur_295_34711"/>
</filter>
<filter id="filter2_f_295_34711" x="-110.56" y="-57.7598" width="268.64" height="269.52" filterUnits="userSpaceOnUse" color-interpolation-filters="sRGB">
<feFlood flood-opacity="0" result="BackgroundImageFix"/>
<feBlend mode="normal" in="SourceGraphic" in2="BackgroundImageFix" result="shape"/>
<feGaussianBlur stdDeviation="28" result="effect1_foregroundBlur_295_34711"/>
</filter>
<filter id="filter3_f_295_34711" x="-66.5601" y="46.96" width="268.64" height="269.52" filterUnits="userSpaceOnUse" color-interpolation-filters="sRGB">
<feFlood flood-opacity="0" result="BackgroundImageFix"/>
<feBlend mode="normal" in="SourceGraphic" in2="BackgroundImageFix" result="shape"/>
<feGaussianBlur stdDeviation="28" result="effect1_foregroundBlur_295_34711"/>
</filter>
</defs>
</svg>
