<svg width="176" height="177" viewBox="0 0 176 177" fill="none" xmlns="http://www.w3.org/2000/svg">
<mask id="mask0_295_34728" style="mask-type:alpha" maskUnits="userSpaceOnUse" x="0" y="0" width="176" height="177">
<path fill-rule="evenodd" clip-rule="evenodd" d="M170.234 49.5827C172.818 57.6731 167.56 83.1289 161.412 91.147C163.232 95.981 165.091 100.38 166.846 104.532L166.846 104.533L166.846 104.533C173.508 120.298 178.666 132.502 174.504 151.427C172.989 158.145 169.699 165.015 163.105 169.566C162.389 170.052 161.637 170.623 160.856 171.218C158.039 173.359 154.832 175.797 151.483 175.627C145.426 175.253 142.453 170.742 139.804 166.722L139.804 166.722L139.804 166.721C138.868 165.301 137.972 163.942 136.995 162.848C134.5 159.959 130.49 157.358 126.302 158.153C122.336 158.873 120.364 161.975 118.413 165.044L118.412 165.044C117.821 165.975 117.231 166.903 116.588 167.76C112.846 172.672 105.895 175.995 98.7659 176.067C91.6369 176.212 84.5079 173.178 80.4979 168.338C79.6499 167.314 78.9095 166.191 78.1688 165.067C75.407 160.876 72.6414 156.679 64.2795 157.647C62.1408 157.936 60.1803 158.658 58.3981 159.67C55.6338 161.21 52.7131 163.347 49.674 165.571C43.3077 170.228 36.4216 175.267 29.3645 176C20.2401 176.44 9.24007 169.4 7.48007 167.64C7.32232 167.512 6.85696 167.028 6.35625 166.506L6.35598 166.506L6.35575 166.506C5.72519 165.849 5.03873 165.134 4.84008 165C-0.0610901 160.738 -0.802236 148.792 1.4113 143.952C4.22197 137.806 7.09394 132.55 9.76811 127.656L9.76815 127.656C15.0816 117.931 19.6142 109.636 21.3333 98.632C19.3112 96.819 16.4773 94.8266 13.5637 92.778L13.5636 92.778C8.0028 88.8682 2.15154 84.7543 1.099 81.2941C-0.32679 76.8155 0.742535 71.3256 7.51506 70.6755C10.9013 70.3866 18.5708 73.8016 21.3333 75.752C22.0573 71.8976 22.6478 67.9725 23.2408 64.0309C25.3485 50.0218 27.4878 35.8023 35.7636 23.7947C44.3473 13.2671 51.0909 5.80806 63.3884 2.05181C74.5274 -1.34325 86.6009 -0.313687 97.4725 3.58703C106.632 6.87331 117.308 10.9813 124.921 18.547C135.567 29.128 140.541 40.6146 145.008 50.9297C147.228 56.0566 149.322 60.8941 151.926 65.187C153.174 62.5143 159.362 51.3886 161.412 48.6437C163.461 45.7543 169.164 46.2599 170.234 49.5827ZM75.1666 73.0544C71.1214 75.2937 65.3426 74.1379 62.0404 71.0318C55.6011 64.964 57.7475 50.0835 65.5902 45.1715C76.9828 38.0924 81.6884 54.5621 81.1106 61.3522C80.6978 65.7586 79.4594 70.7428 75.1666 73.0544ZM123.131 59.5464C121.563 63.5193 116.857 66.6977 112.069 66.1198C107.033 65.5419 103.648 61.4967 101.171 57.596C97.4565 51.6005 94.0717 34.9141 107.776 37.2256C117.187 38.887 126.103 51.6727 123.131 59.5464ZM120.498 79.4138C117.556 78.5823 114.614 80.3376 112.092 81.9082C103.056 87.359 92.8637 89.8534 82.0413 90.5925C80.9207 90.6642 79.8909 90.6698 78.9811 90.6748C75.1994 90.6956 73.491 90.7049 75.9472 95.3966C77.6283 98.6301 82.5667 101.032 86.0341 102.233C92.7587 104.45 100.429 104.358 107.153 102.048C113.773 99.7388 119.342 95.2118 122.494 89.4839C123.44 87.7285 124.175 85.8808 124.07 83.9407C123.86 82.0006 122.599 80.0605 120.498 79.4138Z" fill="white"/>
</mask>
<g mask="url(#mask0_295_34728)">
<g filter="url(#filter0_f_295_34728)">
<circle cx="140.8" cy="122.32" r="92.4" fill="#D9D7FF"/>
</g>
<g filter="url(#filter1_f_295_34728)">
<ellipse cx="77.4401" cy="3.9602" rx="78.32" ry="78.76" fill="#CC81F4"/>
</g>
<g filter="url(#filter2_f_295_34728)">
<ellipse cx="23.7599" cy="77.0002" rx="78.32" ry="78.76" fill="#F8C3F9"/>
</g>
<g filter="url(#filter3_f_295_34728)">
<ellipse cx="67.7599" cy="181.72" rx="78.32" ry="78.76" fill="#AEA5FF"/>
</g>
</g>
<defs>
<filter id="filter0_f_295_34728" x="-7.6001" y="-26.0801" width="296.8" height="296.8" filterUnits="userSpaceOnUse" color-interpolation-filters="sRGB">
<feFlood flood-opacity="0" result="BackgroundImageFix"/>
<feBlend mode="normal" in="SourceGraphic" in2="BackgroundImageFix" result="shape"/>
<feGaussianBlur stdDeviation="28" result="effect1_foregroundBlur_295_34728"/>
</filter>
<filter id="filter1_f_295_34728" x="-56.8799" y="-130.8" width="268.64" height="269.52" filterUnits="userSpaceOnUse" color-interpolation-filters="sRGB">
<feFlood flood-opacity="0" result="BackgroundImageFix"/>
<feBlend mode="normal" in="SourceGraphic" in2="BackgroundImageFix" result="shape"/>
<feGaussianBlur stdDeviation="28" result="effect1_foregroundBlur_295_34728"/>
</filter>
<filter id="filter2_f_295_34728" x="-110.56" y="-57.7598" width="268.64" height="269.52" filterUnits="userSpaceOnUse" color-interpolation-filters="sRGB">
<feFlood flood-opacity="0" result="BackgroundImageFix"/>
<feBlend mode="normal" in="SourceGraphic" in2="BackgroundImageFix" result="shape"/>
<feGaussianBlur stdDeviation="28" result="effect1_foregroundBlur_295_34728"/>
</filter>
<filter id="filter3_f_295_34728" x="-66.5601" y="46.96" width="268.64" height="269.52" filterUnits="userSpaceOnUse" color-interpolation-filters="sRGB">
<feFlood flood-opacity="0" result="BackgroundImageFix"/>
<feBlend mode="normal" in="SourceGraphic" in2="BackgroundImageFix" result="shape"/>
<feGaussianBlur stdDeviation="28" result="effect1_foregroundBlur_295_34728"/>
</filter>
</defs>
</svg>
