<svg width="176" height="176" viewBox="0 0 176 176" fill="none" xmlns="http://www.w3.org/2000/svg">
<mask id="mask0_295_34742" style="mask-type:alpha" maskUnits="userSpaceOnUse" x="0" y="0" width="176" height="176">
<path fill-rule="evenodd" clip-rule="evenodd" d="M174.326 164.852L174.416 164.703C176.769 161.092 176.226 156.587 174.462 152.716C173.25 150.123 171.532 147.714 169.808 145.299C168.958 144.107 168.107 142.913 167.315 141.696C157.815 126.99 155.373 112.545 154.649 94.228C154.558 92.3913 154.498 90.5174 154.468 88.6063C155.237 87.5266 156.096 86.447 157.182 85.5162C159.579 83.4314 163.334 82.0167 166.636 82.9846C167.131 83.1099 167.593 83.2877 168.077 83.4739C168.169 83.5092 168.261 83.5448 168.355 83.5803C170.074 84.2504 171.838 84.9206 173.24 84.0643C173.783 83.7292 174.1 83.2453 174.371 82.7613C177.266 77.7725 175.954 71.7413 173.15 66.7526C172.019 64.7422 170.526 62.6945 168.174 61.6521C164.51 60.014 159.806 61.2426 156.368 63.2158C155.734 63.5881 155.116 63.9728 154.513 64.3699C154.513 64.0969 154.513 63.8451 154.512 63.5932V63.5855C154.512 63.0844 154.511 62.5825 154.513 61.9127C154.649 16.72 124.749 0 89.6914 0C37.4 0 22.5448 46.2246 26.9053 64.3699C26.9981 64.7558 27.0799 65.0932 27.1523 65.3919L27.1524 65.3922C27.4336 66.5518 27.5738 67.1303 27.667 67.7162C27.7597 68.2994 27.8058 68.89 27.8978 70.0684L27.8978 70.0685L27.9005 70.1032C25.5483 67.4972 22.8794 65.0772 19.6225 63.2158C16.1846 61.2426 11.4802 60.014 7.81616 61.6521C5.46394 62.6945 3.97119 64.7422 2.84032 66.7526C0.171455 71.5552 -1.14036 77.2513 1.25709 82.1283C1.37772 82.3269 1.49835 82.5379 1.61897 82.7613C1.89038 83.2453 2.20703 83.7292 2.74985 84.0643C4.15421 84.9174 5.85518 84.2652 7.56042 83.6113L7.56048 83.6113L7.56054 83.6113C8.16216 83.3806 8.76431 83.1497 9.35415 82.9846C12.6563 82.0167 16.4108 83.4314 18.8083 85.5162C20.75 87.2031 22.0342 89.2663 23.32 91.332L23.3201 91.332C23.6518 91.865 23.9837 92.3981 24.3269 92.9249C25.2316 94.29 26.2117 95.6054 27.2672 96.8712C27.1466 98.137 27.0259 99.4153 26.9053 100.706C26.3173 106.588 25.4578 112.545 24.2364 118.39C21.9295 129.447 18.2202 140.095 12.1587 149.328C11.3445 150.556 10.3041 151.673 9.26368 152.753C8.581 153.451 7.23352 154.338 5.80655 155.276L5.80644 155.276C3.73498 156.639 1.49603 158.112 0.88 159.28C-1.32 162.8 1.03206 166.899 3.51998 169.84C5.14844 171.776 8.42159 174.629 11 175.56C15.3283 176.74 20.0084 175.106 22.8377 174.118L22.8378 174.118L22.8381 174.118C23.1725 174.001 23.481 173.893 23.76 173.8C23.76 173.8 24.6458 173.372 25.5935 172.894C27.3563 172.005 28.234 170.985 29.1239 169.951L29.1241 169.95C29.5297 169.479 29.9379 169.004 30.4336 168.538C35.7261 163.438 44.9541 161.39 52.644 163.624C53.5939 163.884 54.5891 164.257 55.0414 165.001C55.4881 165.708 55.2823 166.523 55.0783 167.33C55.0137 167.586 54.9492 167.841 54.9057 168.091C54.6343 169.804 55.3581 171.442 56.6699 172.782C58.027 174.16 59.9721 175.202 62.0529 175.649C62.9576 175.848 63.8924 175.959 64.8574 175.984C67.5263 176.096 70.2404 175.612 72.8188 174.867C73.3616 174.718 73.9044 174.557 74.4472 174.383C75.6686 174.011 76.8899 173.564 77.7494 172.782C78.6239 171.943 78.9701 170.837 79.3081 169.758L79.3081 169.758L79.3084 169.757C79.3899 169.497 79.4709 169.238 79.5588 168.985C81.911 162.47 91.2746 158.374 99.1003 160.348C102.221 161.129 105.162 162.954 105.976 165.523C106.19 166.242 106.244 167.414 106.301 168.643C106.376 170.274 106.456 172.007 106.92 172.92C108.548 176.01 111.154 176.523 113.96 175.12C114.555 174.823 116.794 173.264 118.448 172.113L118.448 172.113L118.455 172.109C119.245 171.558 119.902 171.101 120.18 170.921L121.537 169.953C122.101 169.531 122.66 169.094 123.219 168.656C126.066 166.429 128.937 164.183 132.755 163.81C136.184 163.492 139.451 164.88 142.555 166.198C142.727 166.271 142.898 166.344 143.069 166.416C148.225 168.65 153.699 170.66 159.489 170.846C165.279 171.033 171.521 169.022 174.326 164.852ZM78.0206 59.0101C78.0809 58.3896 78.111 57.7443 78.111 57.0741C78.111 46.9477 72.2305 38.72 64.9929 38.72C57.7553 38.72 51.92 46.9477 51.92 57.0741C51.92 57.7443 51.9351 58.3896 51.9652 59.0101C52.689 68.2803 58.2529 75.4655 64.9929 75.4655C71.7781 75.4655 77.342 68.2803 78.0206 59.0101ZM124.567 57.0741C124.567 57.7443 124.552 58.3896 124.522 59.0101C123.844 68.2803 118.28 75.4655 111.494 75.4655C104.709 75.4655 99.1454 68.2803 98.4668 59.0101C98.4065 58.3896 98.3764 57.7443 98.3764 57.0741C98.3764 46.9477 104.257 38.72 111.494 38.72C118.732 38.72 124.567 46.9477 124.567 57.0741ZM88.2437 95.4206C90.7317 95.4206 92.722 92.2934 92.722 88.4215C92.722 84.5496 90.7317 81.4223 88.2437 81.4223C85.801 81.4223 83.8107 84.5496 83.8107 88.4215C83.8107 92.2934 85.801 95.4206 88.2437 95.4206Z" fill="white"/>
</mask>
<g mask="url(#mask0_295_34742)">
<g filter="url(#filter0_f_295_34742)">
<ellipse cx="161.04" cy="106.92" rx="78.32" ry="78.76" fill="#D9D7FF"/>
</g>
<g filter="url(#filter1_f_295_34742)">
<ellipse cx="77.4401" cy="3.9602" rx="78.32" ry="78.76" fill="#CC81F4"/>
</g>
<g filter="url(#filter2_f_295_34742)">
<ellipse cx="23.7599" cy="77.0002" rx="78.32" ry="78.76" fill="#F8C3F9"/>
</g>
<g filter="url(#filter3_f_295_34742)">
<ellipse cx="67.7599" cy="181.72" rx="78.32" ry="78.76" fill="#AEA5FF"/>
</g>
</g>
<defs>
<filter id="filter0_f_295_34742" x="26.7202" y="-27.8398" width="268.64" height="269.52" filterUnits="userSpaceOnUse" color-interpolation-filters="sRGB">
<feFlood flood-opacity="0" result="BackgroundImageFix"/>
<feBlend mode="normal" in="SourceGraphic" in2="BackgroundImageFix" result="shape"/>
<feGaussianBlur stdDeviation="28" result="effect1_foregroundBlur_295_34742"/>
</filter>
<filter id="filter1_f_295_34742" x="-56.8799" y="-130.8" width="268.64" height="269.52" filterUnits="userSpaceOnUse" color-interpolation-filters="sRGB">
<feFlood flood-opacity="0" result="BackgroundImageFix"/>
<feBlend mode="normal" in="SourceGraphic" in2="BackgroundImageFix" result="shape"/>
<feGaussianBlur stdDeviation="28" result="effect1_foregroundBlur_295_34742"/>
</filter>
<filter id="filter2_f_295_34742" x="-110.56" y="-57.7598" width="268.64" height="269.52" filterUnits="userSpaceOnUse" color-interpolation-filters="sRGB">
<feFlood flood-opacity="0" result="BackgroundImageFix"/>
<feBlend mode="normal" in="SourceGraphic" in2="BackgroundImageFix" result="shape"/>
<feGaussianBlur stdDeviation="28" result="effect1_foregroundBlur_295_34742"/>
</filter>
<filter id="filter3_f_295_34742" x="-66.5601" y="46.96" width="268.64" height="269.52" filterUnits="userSpaceOnUse" color-interpolation-filters="sRGB">
<feFlood flood-opacity="0" result="BackgroundImageFix"/>
<feBlend mode="normal" in="SourceGraphic" in2="BackgroundImageFix" result="shape"/>
<feGaussianBlur stdDeviation="28" result="effect1_foregroundBlur_295_34742"/>
</filter>
</defs>
</svg>
