<svg width="176" height="176" viewBox="0 0 176 176" fill="none" xmlns="http://www.w3.org/2000/svg">
<mask id="mask0_295_35163" style="mask-type:alpha" maskUnits="userSpaceOnUse" x="0" y="5" width="176" height="166">
<path fill-rule="evenodd" clip-rule="evenodd" d="M74.398 7.31068C74.3118 8.42779 73.9984 10.4324 73.7013 11.7656C70.5539 25.8965 61.1457 37.979 48.264 44.4349C42.7026 47.2218 37.8382 48.585 30.3501 49.4547L28.7881 49.6362L31.2509 49.8411C42.535 50.7799 53.2526 55.9705 61.334 64.4104C68.8489 72.2585 73.7224 82.8387 74.4501 92.8836C74.657 95.7403 74.7383 95.5632 75.2584 91.1234C77.081 75.5604 87.3858 61.3082 101.831 54.3704C106.972 51.9017 113.149 50.1881 118.067 49.8663C120.732 49.6922 120.411 49.4303 117.242 49.1936C114.478 48.9872 109.828 47.9404 106.682 46.816C96.2091 43.0736 87.2824 35.7781 81.5591 26.2844C78.0966 20.5411 75.5208 13.0358 75.0874 7.42757C74.996 6.24642 74.8388 5.27979 74.738 5.27979C74.637 5.27979 74.4842 6.19383 74.398 7.31068ZM114.179 107.237C113.893 107.295 112.981 107.474 112.154 107.635C110.693 107.919 109.889 108.374 110.847 108.374C111.801 108.374 113.899 110.042 114.761 111.485C116.205 113.901 116.19 115.442 114.723 115.617C113.825 115.724 113.348 115.324 113.123 114.278C112.816 112.854 112.263 112.062 111.096 111.378C109.652 110.532 107.409 110.5 101.778 111.248C90.6962 112.718 80.4129 116.322 70.9272 122.059C69.9051 122.677 66.8854 124.661 64.217 126.469L59.3648 129.755L55.5313 130.776C53.4228 131.338 50.8778 132.028 49.8754 132.31C48.1372 132.799 46.2562 133.298 40.0948 134.907C35.4342 136.124 33.2435 137.72 31.6304 141.073C30.9111 142.569 30.7229 143.294 30.6729 144.766C30.6385 145.773 30.6904 146.677 30.7877 146.776C30.8853 146.874 32.5841 146.639 34.5626 146.254C36.5415 145.868 38.4531 145.502 38.8111 145.44C39.169 145.378 41.805 144.87 44.6687 144.312C65.9539 140.156 64.7866 140.329 73.6964 140.004C75.9158 139.923 78.376 139.804 79.1635 139.739C80.7414 139.61 81.0145 139.713 81.4938 140.622C81.776 141.158 81.7463 141.313 81.2681 141.791C80.7591 142.3 80.334 142.356 75.7096 142.519C72.9557 142.616 69.4724 142.77 67.969 142.861C65.5777 143.005 64.6106 143.128 61.4605 143.687C60.4743 143.862 53.403 145.264 49.8754 145.983C48.1572 146.334 43.116 147.341 38.6728 148.221C30.8554 149.77 30.5625 149.809 29.6167 149.414C28.1804 148.814 27.766 147.655 27.974 144.821C28.0635 143.604 28.2067 142.354 28.2924 142.042C28.4855 141.34 28.7524 141.381 18.4344 140.518C9.70163 139.788 8.60248 139.862 5.58751 141.388C2.80059 142.799 -0.431251 146.586 0.0475103 147.879C0.287542 148.529 0.691327 148.646 3.36578 148.842C4.41807 148.919 6.35108 149.104 7.66136 149.254C10.4761 149.575 16.1161 150.24 17.5935 150.425C18.1663 150.496 20.0407 150.73 21.7589 150.944C23.4772 151.157 25.5859 151.451 26.445 151.595C27.8959 151.839 37.7322 152.894 42.1955 153.285C43.2694 153.379 44.558 153.499 45.0592 153.551C45.5603 153.604 48.0205 153.832 50.5263 154.058C53.032 154.283 55.3751 154.518 55.7331 154.58C56.091 154.642 57.3211 154.763 58.4666 154.848C59.6121 154.934 60.9008 155.046 61.3303 155.097C64.1946 155.437 65.9081 155.492 66.9276 155.276C67.5719 155.14 70.325 154.244 73.0455 153.285C75.7661 152.326 80.9793 150.508 84.6306 149.246C88.2818 147.984 93.1436 146.289 95.4346 145.48C97.7256 144.672 100.069 143.847 100.641 143.647C101.214 143.447 103.557 142.972 105.848 142.591C112.555 141.476 116.439 141.724 120.461 143.525C122.848 144.593 123.98 145.447 128.758 149.776C129.474 150.425 131.524 152.234 133.314 153.796C135.104 155.358 137.272 157.288 138.133 158.083C138.993 158.879 140.985 160.659 142.558 162.038C144.132 163.417 146.818 165.783 148.526 167.296L151.634 170.045L153.603 168.976C161.421 164.733 167.722 158.527 171.92 150.939C173.729 147.669 176.033 141.839 176 140.616C175.994 140.423 175.438 139.918 174.763 139.494C174.088 139.07 171.837 137.617 169.761 136.267C167.685 134.916 164.611 132.92 162.931 131.831C161.25 130.742 157.502 128.312 154.6 126.431C151.699 124.55 146.923 121.457 143.988 119.557C135.978 114.375 133.55 112.769 132.402 111.898C129.84 109.954 125.359 108.058 121.904 107.455C119.901 107.106 115.453 106.98 114.179 107.237ZM25.0832 113.058C24.4771 113.149 23.9182 113.287 23.8409 113.364C23.5482 113.657 27.602 116.605 31.1186 118.656C33.13 119.83 37.8804 122.606 41.6748 124.826C45.4692 127.045 48.8211 128.992 49.1236 129.151C49.5521 129.377 50.1129 129.322 51.6619 128.901C52.7556 128.603 53.6438 128.286 53.6358 128.195C53.628 128.104 52.9542 127.604 52.1388 127.084C49.9822 125.71 45.0009 122.475 40.3533 119.431C32.2144 114.099 28.4923 112.545 25.0832 113.058ZM12.5578 114.863C11.6284 115.102 10.845 115.663 11.4412 115.663C11.8117 115.663 17.8635 118.88 23.1908 121.908C28.1859 124.748 33.6892 127.931 33.9948 128.157C34.138 128.263 34.8409 128.672 35.5569 129.065C36.2728 129.458 37.6562 130.253 38.6314 130.831L40.4041 131.882L43.5724 131.046C45.3148 130.586 46.7917 130.158 46.8545 130.096C47.0044 129.946 47.112 130.018 44.2782 128.365C42.9179 127.572 38.759 125.131 35.0362 122.941C24.2944 116.623 20.4013 114.957 15.9013 114.752C14.5411 114.69 13.0366 114.74 12.5578 114.863ZM4.37433 116.194C3.05442 116.416 1.2396 117.351 0.46249 118.21C0.00507563 118.715 0.0180924 118.742 0.983426 119.298C1.52779 119.612 2.14896 119.959 2.36374 120.07C2.75841 120.274 5.80958 121.894 9.39287 123.802C13.4567 125.965 14.4164 126.561 22.3569 131.854L30.505 137.286L32.0457 135.945C32.8931 135.208 34.5418 134.108 35.7094 133.5L37.8322 132.395L34.6118 130.508C32.8405 129.47 30.7471 128.24 29.9596 127.774C29.1721 127.309 26.7704 125.934 24.6226 124.721C13.2446 118.29 10.0604 116.672 7.88317 116.214C6.35915 115.893 6.1691 115.892 4.37433 116.194Z" fill="white"/>
</mask>
<g mask="url(#mask0_295_35163)">
<g filter="url(#filter0_f_295_35163)">
<ellipse cx="133.76" cy="117.48" rx="78.32" ry="78.76" fill="#D9D7FF"/>
</g>
<g filter="url(#filter1_f_295_35163)">
<ellipse cx="77.4401" cy="3.9602" rx="78.32" ry="78.76" fill="#CC81F4"/>
</g>
<g filter="url(#filter2_f_295_35163)">
<ellipse cx="23.7599" cy="77.0002" rx="78.32" ry="78.76" fill="#F8C3F9"/>
</g>
<g filter="url(#filter3_f_295_35163)">
<ellipse cx="67.7599" cy="181.72" rx="78.32" ry="78.76" fill="#AEA5FF"/>
</g>
</g>
<defs>
<filter id="filter0_f_295_35163" x="-0.560059" y="-17.2798" width="268.64" height="269.52" filterUnits="userSpaceOnUse" color-interpolation-filters="sRGB">
<feFlood flood-opacity="0" result="BackgroundImageFix"/>
<feBlend mode="normal" in="SourceGraphic" in2="BackgroundImageFix" result="shape"/>
<feGaussianBlur stdDeviation="28" result="effect1_foregroundBlur_295_35163"/>
</filter>
<filter id="filter1_f_295_35163" x="-56.8799" y="-130.8" width="268.64" height="269.52" filterUnits="userSpaceOnUse" color-interpolation-filters="sRGB">
<feFlood flood-opacity="0" result="BackgroundImageFix"/>
<feBlend mode="normal" in="SourceGraphic" in2="BackgroundImageFix" result="shape"/>
<feGaussianBlur stdDeviation="28" result="effect1_foregroundBlur_295_35163"/>
</filter>
<filter id="filter2_f_295_35163" x="-110.56" y="-57.7598" width="268.64" height="269.52" filterUnits="userSpaceOnUse" color-interpolation-filters="sRGB">
<feFlood flood-opacity="0" result="BackgroundImageFix"/>
<feBlend mode="normal" in="SourceGraphic" in2="BackgroundImageFix" result="shape"/>
<feGaussianBlur stdDeviation="28" result="effect1_foregroundBlur_295_35163"/>
</filter>
<filter id="filter3_f_295_35163" x="-66.5601" y="46.96" width="268.64" height="269.52" filterUnits="userSpaceOnUse" color-interpolation-filters="sRGB">
<feFlood flood-opacity="0" result="BackgroundImageFix"/>
<feBlend mode="normal" in="SourceGraphic" in2="BackgroundImageFix" result="shape"/>
<feGaussianBlur stdDeviation="28" result="effect1_foregroundBlur_295_35163"/>
</filter>
</defs>
</svg>
