<svg width="176" height="176" viewBox="0 0 176 176" fill="none" xmlns="http://www.w3.org/2000/svg">
<mask id="mask0_295_35794" style="mask-type:alpha" maskUnits="userSpaceOnUse" x="0" y="4" width="176" height="168">
<path fill-rule="evenodd" clip-rule="evenodd" d="M83.9435 8.90561C74.1033 22.1713 69.5152 33.5885 68.837 46.495C68.0917 60.6777 73.9326 75.6253 84.6888 87.0614L87.5589 90.1132L90.0755 87.4906C93.4342 83.9908 96.668 79.613 99.284 75.0251C109.575 56.9792 108.594 36.2689 96.5154 16.5657C94.3536 13.0395 87.9977 4.3999 87.5652 4.3999C87.4117 4.3999 85.7818 6.42726 83.9435 8.90561ZM33.971 20.2449C33.81 20.636 33.6812 24.9166 33.6846 29.7576C33.6896 36.5598 33.8632 39.4128 34.4492 42.3166C38.2077 60.9501 48.3313 74.7451 64.506 83.2733C69.35 85.8271 78.8928 89.4702 80.7684 89.4811C81.062 89.4832 79.9107 87.8343 78.2095 85.817C70.3084 76.4472 66.3444 67.8642 64.7095 56.5823C63.6785 49.47 63.9159 43.3225 65.594 33.6795C65.8574 32.1647 65.8352 32.1362 62.768 30.0678C56.6251 25.9255 49.2025 22.7258 41.6474 20.9637C35.3677 19.4989 34.3187 19.4008 33.971 20.2449ZM133.921 21.3573C126.08 23.1734 117.632 26.835 111.8 30.9446C110.472 31.881 109.385 32.8458 109.385 33.0885C109.385 33.3312 109.698 35.0387 110.082 36.8829C111.108 41.822 111.116 54.941 110.095 59.6734C107.754 70.5223 103.237 79.5396 96.3581 87.0937C94.9316 88.66 93.8424 90.0197 93.9376 90.1148C94.3117 90.4887 105.276 86.5165 109.003 84.6572C117.445 80.4462 125.03 74.2556 130.266 67.3025C133.123 63.5085 137.098 55.8098 138.518 51.3171C141.085 43.1972 142.284 32 141.492 23.5519L141.189 20.3271L139.652 20.3564C138.807 20.3723 136.228 20.8229 133.921 21.3573ZM147.495 36.3716C147.098 36.7681 146.734 38.168 146.57 39.9267C146.422 41.5219 145.841 44.6399 145.278 46.855C141.774 60.658 133.869 72.5526 122.591 80.9894C118.691 83.907 111.037 88.2249 107.105 89.725C105.36 90.3906 103.932 91.0445 103.932 91.1777C103.932 91.5688 109.678 90.845 114.143 89.8914C122.718 88.0598 132.484 83.8408 138.535 79.3539C142.873 76.1367 149.516 69.2612 152.442 64.9604C157.48 57.5539 161.044 49.0211 162.439 41.0231C162.787 39.0314 163.071 37.3515 163.071 37.2903C163.071 36.9827 157.27 36.2362 152.989 35.9927C148.91 35.7609 148.046 35.8204 147.495 36.3716ZM12.5792 36.6238C12.8665 36.4465 14.3341 36.1821 15.8411 36.0366L23.6999 35.449L27.9797 35.4159L28.1856 36.7781C29.7224 46.9409 31.073 51.7014 34.2811 58.2588C40.5377 71.0474 49.9945 80.3359 63.4593 86.9176C66.6889 88.4961 69.8031 89.9895 70.3798 90.2363L71.4284 90.6852L70.1701 90.7116C66.769 90.7837 57.7023 88.8234 51.9251 86.7671C31.7642 79.5899 16.9769 62.3093 12.8674 41.1224C12.2311 37.8431 12.1694 36.877 12.5792 36.6238ZM88.2519 138.827C88.2519 138.827 85.2184 111.917 65.954 104.46C65.954 104.46 59.648 102.685 50.1173 101.398C40.5866 100.123 35.4391 98.7177 32.1786 95.3822C28.9181 92.0466 23.687 90.1168 26.7683 99.492C26.7683 99.492 28.5837 107.7 40.5388 110.535C42.3506 110.991 44.5716 111.352 46.7784 111.711C53.6196 112.824 60.3238 113.914 54.2735 117.742C54.2735 117.742 44.9101 121.089 35.451 114.871C25.9801 108.653 19.3635 99.5277 13.7263 91.3557C9.16625 84.7687 6.38051 82.7149 4.96708 81.6728L4.96699 81.6727C4.62948 81.4239 4.37022 81.2327 4.18374 81.0513C3.2044 80.0983 -2.8747 78.0256 1.66371 86.0904C1.66371 86.0904 8.00556 95.2511 12.329 105.532C16.6524 115.824 25.6576 133.336 50.7622 137.707C68.4382 140.209 76.2132 142.58 80.5725 149.584C80.5725 149.584 86.8426 158.209 77.3478 171.432C77.3478 171.432 89.709 164.332 88.2519 138.827ZM110.342 104.414C91.1692 112.088 88.4474 139 88.4474 139C87.2894 164.484 99.7289 171.432 99.7289 171.432C90.0829 158.333 96.243 149.648 96.243 149.648C100.529 142.617 108.277 140.154 125.909 137.453C150.956 132.801 159.742 115.205 163.956 104.878C168.158 94.5513 174.39 85.3428 174.39 85.3428C178.831 77.2287 172.778 79.3822 171.811 80.3339C171.627 80.5174 171.37 80.7115 171.036 80.9642C169.636 82.0223 166.876 84.1079 162.404 90.7441C156.853 98.9652 150.347 108.15 140.951 114.467C131.568 120.785 122.173 117.549 122.173 117.549C116.08 113.798 122.77 112.631 129.59 111.442C131.79 111.058 134.004 110.672 135.806 110.196C147.732 107.234 149.451 99.0128 149.451 99.0128C152.424 89.6139 147.219 91.6008 143.996 94.9677C140.784 98.3347 135.639 99.7981 126.136 101.19C116.621 102.57 110.342 104.414 110.342 104.414Z" fill="white"/>
</mask>
<g mask="url(#mask0_295_35794)">
<g filter="url(#filter0_f_295_35794)">
<ellipse cx="139.04" cy="106.119" rx="92.4" ry="92.9191" fill="#D9D7FF"/>
</g>
<g filter="url(#filter1_f_295_35794)">
<ellipse cx="77.4401" cy="3.9602" rx="78.32" ry="78.76" fill="#CC81F4"/>
</g>
<g filter="url(#filter2_f_295_35794)">
<ellipse cx="23.7599" cy="77.0002" rx="78.32" ry="78.76" fill="#F8C3F9"/>
</g>
<g filter="url(#filter3_f_295_35794)">
<ellipse cx="67.7599" cy="181.72" rx="78.32" ry="78.76" fill="#AEA5FF"/>
</g>
</g>
<defs>
<filter id="filter0_f_295_35794" x="-19.4273" y="-52.8672" width="316.935" height="317.973" filterUnits="userSpaceOnUse" color-interpolation-filters="sRGB">
<feFlood flood-opacity="0" result="BackgroundImageFix"/>
<feBlend mode="normal" in="SourceGraphic" in2="BackgroundImageFix" result="shape"/>
<feGaussianBlur stdDeviation="33.0337" result="effect1_foregroundBlur_295_35794"/>
</filter>
<filter id="filter1_f_295_35794" x="-56.8799" y="-130.8" width="268.64" height="269.52" filterUnits="userSpaceOnUse" color-interpolation-filters="sRGB">
<feFlood flood-opacity="0" result="BackgroundImageFix"/>
<feBlend mode="normal" in="SourceGraphic" in2="BackgroundImageFix" result="shape"/>
<feGaussianBlur stdDeviation="28" result="effect1_foregroundBlur_295_35794"/>
</filter>
<filter id="filter2_f_295_35794" x="-110.56" y="-57.7598" width="268.64" height="269.52" filterUnits="userSpaceOnUse" color-interpolation-filters="sRGB">
<feFlood flood-opacity="0" result="BackgroundImageFix"/>
<feBlend mode="normal" in="SourceGraphic" in2="BackgroundImageFix" result="shape"/>
<feGaussianBlur stdDeviation="28" result="effect1_foregroundBlur_295_35794"/>
</filter>
<filter id="filter3_f_295_35794" x="-66.5601" y="46.96" width="268.64" height="269.52" filterUnits="userSpaceOnUse" color-interpolation-filters="sRGB">
<feFlood flood-opacity="0" result="BackgroundImageFix"/>
<feBlend mode="normal" in="SourceGraphic" in2="BackgroundImageFix" result="shape"/>
<feGaussianBlur stdDeviation="28" result="effect1_foregroundBlur_295_35794"/>
</filter>
</defs>
</svg>
