<svg width="176" height="176" viewBox="0 0 176 176" fill="none" xmlns="http://www.w3.org/2000/svg">
<mask id="mask0_295_35537" style="mask-type:alpha" maskUnits="userSpaceOnUse" x="22" y="0" width="132" height="176">
<path fill-rule="evenodd" clip-rule="evenodd" d="M103.898 16.1644C103.898 25.0917 96.6821 32.3288 87.7809 32.3288C78.8798 32.3288 71.664 25.0917 71.664 16.1644C71.664 7.23704 78.8798 0 87.7809 0C96.6821 0 103.898 7.23704 103.898 16.1644ZM117.238 27.8753C117.043 28.1914 116.918 30.0507 116.961 32.0062C117.116 39.038 113.786 44.1065 107.566 46.307C103.494 47.7481 94.5914 47.7323 83.243 46.2646C77.7517 45.5548 71.1602 45.2229 66.0214 45.3975C58.6556 45.6482 57.2596 45.9075 53.9108 47.6504C46.9297 51.2827 42.4155 57.2233 40.624 65.1345C39.7114 69.1656 39.6863 69.1943 36.2889 70.0593C23.4018 73.341 18.619 88.9774 27.219 99.7105C42.7292 119.068 117.173 121.238 143.602 103.103C148.974 99.4167 151.643 95.7039 152.752 90.3732C155.067 79.2565 146.189 69.5068 133.638 69.3797L128.454 69.3272L130.836 66.5319C134.299 62.4692 135.656 57.7406 135.272 51.0845C134.75 42.0374 130.165 34.193 122.56 29.3344C119.302 27.2524 117.864 26.8587 117.238 27.8753ZM41.7242 119.399C40.4377 120.689 40.5803 121.525 44.1468 133.621C53.2009 164.334 53.6171 165.403 58.0482 169.352C62.6355 173.439 74.2196 176.017 87.9298 176C103.408 175.98 112.811 173.516 118.337 168.03C122.068 164.327 122.134 164.151 130.438 135.863C130.68 135.041 130.911 134.256 131.131 133.508C133.771 124.55 134.882 120.782 133.601 119.597C132.672 118.737 130.482 119.238 126.703 120.103C126.268 120.203 125.813 120.307 125.335 120.415C99.938 126.14 65.0859 125.483 43.6941 118.876C43.0845 118.688 42.1984 118.923 41.7242 119.399ZM40.4799 69.52C57.6399 77.88 96.7999 84.48 126.72 69.52C83.5999 85.8 40.4799 69.52 40.4799 69.52Z" fill="white"/>
</mask>
<g mask="url(#mask0_295_35537)">
<g filter="url(#filter0_f_295_35537)">
<ellipse cx="121.44" cy="94.5998" rx="78.32" ry="78.76" fill="#D9D7FF"/>
</g>
<g filter="url(#filter1_f_295_35537)">
<ellipse cx="77.4401" cy="3.9602" rx="78.32" ry="78.76" fill="#CC81F4"/>
</g>
<g filter="url(#filter2_f_295_35537)">
<ellipse cx="23.7599" cy="77.0002" rx="78.32" ry="78.76" fill="#F8C3F9"/>
</g>
<g filter="url(#filter3_f_295_35537)">
<ellipse cx="67.7599" cy="181.72" rx="78.32" ry="78.76" fill="#AEA5FF"/>
</g>
</g>
<defs>
<filter id="filter0_f_295_35537" x="-12.8799" y="-40.1602" width="268.64" height="269.52" filterUnits="userSpaceOnUse" color-interpolation-filters="sRGB">
<feFlood flood-opacity="0" result="BackgroundImageFix"/>
<feBlend mode="normal" in="SourceGraphic" in2="BackgroundImageFix" result="shape"/>
<feGaussianBlur stdDeviation="28" result="effect1_foregroundBlur_295_35537"/>
</filter>
<filter id="filter1_f_295_35537" x="-56.8799" y="-130.8" width="268.64" height="269.52" filterUnits="userSpaceOnUse" color-interpolation-filters="sRGB">
<feFlood flood-opacity="0" result="BackgroundImageFix"/>
<feBlend mode="normal" in="SourceGraphic" in2="BackgroundImageFix" result="shape"/>
<feGaussianBlur stdDeviation="28" result="effect1_foregroundBlur_295_35537"/>
</filter>
<filter id="filter2_f_295_35537" x="-110.56" y="-57.7598" width="268.64" height="269.52" filterUnits="userSpaceOnUse" color-interpolation-filters="sRGB">
<feFlood flood-opacity="0" result="BackgroundImageFix"/>
<feBlend mode="normal" in="SourceGraphic" in2="BackgroundImageFix" result="shape"/>
<feGaussianBlur stdDeviation="28" result="effect1_foregroundBlur_295_35537"/>
</filter>
<filter id="filter3_f_295_35537" x="-66.5601" y="46.96" width="268.64" height="269.52" filterUnits="userSpaceOnUse" color-interpolation-filters="sRGB">
<feFlood flood-opacity="0" result="BackgroundImageFix"/>
<feBlend mode="normal" in="SourceGraphic" in2="BackgroundImageFix" result="shape"/>
<feGaussianBlur stdDeviation="28" result="effect1_foregroundBlur_295_35537"/>
</filter>
</defs>
</svg>
