<svg width="176" height="176" viewBox="0 0 176 176" fill="none" xmlns="http://www.w3.org/2000/svg">
<mask id="mask0_295_35474" style="mask-type:alpha" maskUnits="userSpaceOnUse" x="40" y="0" width="96" height="176">
<path fill-rule="evenodd" clip-rule="evenodd" d="M87.7479 0.287121C87.7479 0.447129 88.3134 1.32847 89.0051 2.24479C92.7699 7.23385 93.5405 13.2982 91.0074 18.0022C89.6337 20.5536 86.8516 23.3093 84.2951 24.6506C83.3326 25.1558 83.4553 24.8347 85.0051 22.7896C87.0695 20.0654 88.2569 17.5696 88.2569 15.954C88.2569 14.9451 88.1332 14.9642 85.3059 16.4068C83.6828 17.2351 78.5865 19.3477 73.9814 21.1011C60.7619 26.1344 54.6065 29.7405 50.2421 35.0079C46.4716 39.5581 44.4851 45.1954 44.4861 51.3416L44.4866 54.2747L45.9937 51.054C47.7145 47.3769 51.6066 43.1595 54.0848 42.2864L55.7679 41.6932L54.1978 43.5012C52.8632 45.0374 50.0843 49.8516 50.0843 50.6269C50.0843 50.7617 51.774 50.0934 53.8394 49.1421C58.6075 46.9457 67.4274 44.0476 80.3679 40.426C98.1558 35.4473 102.86 33.5277 107.101 29.5172C110.495 26.3077 111.863 22.9167 111.549 18.4853C111.238 14.089 109.486 10.7792 105.342 6.75639C101.837 3.35455 98.4485 1.42776 94.4668 0.573698C91.6135 -0.0380369 87.7479 -0.203194 87.7479 0.287121ZM97.9273 3.88448C97.9273 4.07844 99.244 5.66464 100.854 7.40929C103.485 10.2611 104.53 11.9955 107.232 18.0028L108.042 19.8035L108.074 17.7085C108.123 14.5387 106.73 11.0797 104.308 8.35906C102.316 6.12203 97.9273 3.04431 97.9273 3.88448ZM115.741 20.8129C115.741 27.4232 111.74 33.0764 104.528 36.6573C99.2343 39.2854 96.4518 40.2038 82.22 44.0182C66.3545 48.2711 63.3108 49.3036 56.2168 52.8398C43.9369 58.9602 38.3831 67.861 41.1982 76.9084C42.263 80.3303 45.8848 84.6793 49.4068 86.7661C51.9166 88.253 57.164 90.0321 59.0396 90.0321H60.2703L58.7815 87.9551C57.1437 85.6692 56.4311 82.6702 56.9538 80.2634C57.3696 78.3495 58.0053 78.6397 58.4319 80.9389C58.8782 83.3432 61.8124 86.6077 64.9456 88.1861C68.5664 90.01 69.4235 89.9447 69.4312 87.8455C69.4403 85.306 70.6542 81.2271 72.0783 78.9509C75.9811 72.7137 82.9117 68.8498 99.2903 63.781C112.023 59.8405 115.564 58.3423 118.336 55.7215C119.648 54.481 121.189 52.368 121.759 51.0267C123.157 47.7427 124.049 42.2597 123.785 38.5764C123.667 36.9151 123.732 35.6577 123.93 35.7817C124.557 36.1727 125.506 41.0167 125.579 44.1901C125.617 45.8689 125.792 47.152 125.969 47.0414C126.774 46.5387 127.677 41.5481 127.639 37.8108C127.568 30.736 124.335 24.0491 119.025 19.9969C117.588 18.9 116.261 18.0028 116.077 18.0028C115.892 18.0028 115.741 19.2674 115.741 20.8129ZM118.389 42.0806C117.5 46.4312 115.523 50.0404 112.274 53.2478C110.698 54.8031 109.696 56.0754 110.047 56.0754C111.396 56.0754 114.542 54.409 116.166 52.8336C118.229 50.8343 119.113 49.1987 119.794 46.1287C120.304 43.8294 119.996 39.0971 119.337 39.0971C119.151 39.0971 118.724 40.4399 118.389 42.0806ZM127.986 49.7729C127.029 52.476 124.774 55.6659 122.318 57.7913C118.046 61.4874 112.153 63.9781 97.1638 68.4233C88.5088 70.9902 82.5203 73.8245 79.5164 76.7757C75.3006 80.9173 73.96 85.9188 75.9923 89.9241C77.2754 92.4534 78.8293 93.8548 81.9009 95.2538C84.2177 96.308 85.197 96.4078 93.0921 96.3934C99.3941 96.3821 102.842 96.1336 105.785 95.4796C122.459 91.7717 131.271 82.7068 132.835 67.6516L133.21 64.0501L133.852 66.1081C134.206 67.24 134.533 68.8607 134.58 69.7096L134.665 71.2531L135.182 69.4523C135.467 68.4619 135.598 65.3364 135.472 62.5066C135.274 58.031 135.039 56.9532 133.668 54.2227C132.105 51.1136 129.729 47.8435 129.031 47.8435C128.832 47.8435 128.363 48.712 127.986 49.7729ZM128.306 72.7219C126.44 76.947 123.065 81.2461 119.282 84.2158C117.613 85.5262 116.344 86.6977 116.464 86.8186C116.584 86.939 118.043 86.4204 119.707 85.6656C125.236 83.1575 129.013 77.9168 130.187 71.1244C130.637 68.5221 129.875 69.1688 128.306 72.7219ZM124.394 90.8847C119.99 94.1389 110.728 97.551 102.314 99.0189C96.4426 100.043 85.8418 100.053 81.9864 99.0384C78.3732 98.0871 75.5902 96.6774 73.2846 94.6312L71.5169 93.0625L67.3933 93.6331C61.7346 94.4162 55.9415 93.5883 50.6421 91.2381C49.1294 90.5677 47.8418 90.0795 47.7807 90.1541C47.6489 90.3146 52.4194 102.339 52.7457 102.669C53.0007 102.927 62.6868 105.091 68.4071 106.169L72.2244 106.888L67.5974 106.949C65.0525 106.983 61.0877 106.754 58.7871 106.441C56.4861 106.128 54.4583 106.019 54.2807 106.199C54.1031 106.378 54.4283 107 55.0029 107.581C56.2565 108.848 63.6238 110.237 74.016 111.166C88.0981 112.425 114.128 110.637 118.467 108.113C119.448 107.542 120.317 106.277 121.139 104.223C121.809 102.549 122.294 101.115 122.216 101.037C122.139 100.958 121.166 101.095 120.054 101.341C115.882 102.261 105.329 103.407 101.57 103.347C97.0875 103.276 96.7068 103.399 109.379 100.835C113.578 99.9851 118.532 98.8249 120.389 98.2564L123.764 97.2233L125.316 93.3702C126.17 91.2515 126.713 89.529 126.522 89.5429C126.331 89.5568 125.373 90.1603 124.394 90.8847ZM59.8565 113.254C62.5347 120.607 63.6101 123.081 64.2845 123.445C65.1146 123.892 70.0918 124.686 76.0417 125.321L79.35 125.674L77.3553 126.378C76.2585 126.765 73.0983 127.232 70.3326 127.415C66.0073 127.701 65.3498 127.863 65.6287 128.569C65.8073 129.022 66.5209 130.924 67.2146 132.797L68.4758 136.203L72.1318 136.793C74.1422 137.118 76.9324 137.571 78.332 137.8L80.8769 138.217L78.841 138.818C77.7213 139.148 75.2589 139.419 73.3696 139.421C71.4803 139.422 69.934 139.586 69.934 139.784C69.934 139.982 70.7474 142.267 71.7419 144.86L73.5492 149.577L76.1954 149.898C77.6505 150.075 79.9287 150.221 81.2586 150.224C82.5885 150.226 83.6762 150.428 83.6762 150.672C83.6762 151.169 78.6868 152.286 76.4656 152.286C75.6727 152.286 75.0237 152.552 75.0237 152.878C75.0237 154.014 78.301 162.18 78.8232 162.344C79.1128 162.435 81.0677 162.789 83.1672 163.13C87.4303 163.822 86.9982 164.534 82.2765 164.598C80.8071 164.618 79.6044 164.846 79.6044 165.105C79.6044 166.682 82.9295 174.036 84.0426 174.921C86.0307 176.502 89.255 176.321 90.8923 174.538C91.754 173.599 94.6867 166.464 99.6135 153.315C103.696 142.421 108.766 128.916 110.88 123.305C112.994 117.694 114.723 113.043 114.723 112.97C114.723 112.897 112.777 113.128 110.399 113.483C101.893 114.755 90.6297 115.39 82.4038 115.062C74.8125 114.76 62.7774 113.543 60.5685 112.853C59.8885 112.641 59.6768 112.76 59.8565 113.254Z" fill="white"/>
</mask>
<g mask="url(#mask0_295_35474)">
<g filter="url(#filter0_f_295_35474)">
<ellipse cx="121.44" cy="94.5998" rx="78.32" ry="78.76" fill="#D9D7FF"/>
</g>
<g filter="url(#filter1_f_295_35474)">
<ellipse cx="77.4401" cy="3.9602" rx="78.32" ry="78.76" fill="#CC81F4"/>
</g>
<g filter="url(#filter2_f_295_35474)">
<ellipse cx="23.7599" cy="77.0002" rx="78.32" ry="78.76" fill="#F8C3F9"/>
</g>
<g filter="url(#filter3_f_295_35474)">
<ellipse cx="67.7599" cy="181.72" rx="78.32" ry="78.76" fill="#AEA5FF"/>
</g>
</g>
<defs>
<filter id="filter0_f_295_35474" x="-12.8799" y="-40.1602" width="268.64" height="269.52" filterUnits="userSpaceOnUse" color-interpolation-filters="sRGB">
<feFlood flood-opacity="0" result="BackgroundImageFix"/>
<feBlend mode="normal" in="SourceGraphic" in2="BackgroundImageFix" result="shape"/>
<feGaussianBlur stdDeviation="28" result="effect1_foregroundBlur_295_35474"/>
</filter>
<filter id="filter1_f_295_35474" x="-56.8799" y="-130.8" width="268.64" height="269.52" filterUnits="userSpaceOnUse" color-interpolation-filters="sRGB">
<feFlood flood-opacity="0" result="BackgroundImageFix"/>
<feBlend mode="normal" in="SourceGraphic" in2="BackgroundImageFix" result="shape"/>
<feGaussianBlur stdDeviation="28" result="effect1_foregroundBlur_295_35474"/>
</filter>
<filter id="filter2_f_295_35474" x="-110.56" y="-57.7598" width="268.64" height="269.52" filterUnits="userSpaceOnUse" color-interpolation-filters="sRGB">
<feFlood flood-opacity="0" result="BackgroundImageFix"/>
<feBlend mode="normal" in="SourceGraphic" in2="BackgroundImageFix" result="shape"/>
<feGaussianBlur stdDeviation="28" result="effect1_foregroundBlur_295_35474"/>
</filter>
<filter id="filter3_f_295_35474" x="-66.5601" y="46.96" width="268.64" height="269.52" filterUnits="userSpaceOnUse" color-interpolation-filters="sRGB">
<feFlood flood-opacity="0" result="BackgroundImageFix"/>
<feBlend mode="normal" in="SourceGraphic" in2="BackgroundImageFix" result="shape"/>
<feGaussianBlur stdDeviation="28" result="effect1_foregroundBlur_295_35474"/>
</filter>
</defs>
</svg>
