<svg width="176" height="176" viewBox="0 0 176 176" fill="none" xmlns="http://www.w3.org/2000/svg">
<mask id="mask0_295_36140" style="mask-type:alpha" maskUnits="userSpaceOnUse" x="0" y="0" width="176" height="176">
<path fill-rule="evenodd" clip-rule="evenodd" d="M88 176C136.601 176 176 136.601 176 88C176 39.3989 136.601 0 88 0C39.3989 0 0 39.3989 0 88C0 136.601 39.3989 176 88 176ZM88 175.449C39.7034 175.449 0.551323 136.297 0.551323 88C0.551323 39.7034 39.7034 0.551323 88 0.551323C136.297 0.551323 175.449 39.7034 175.449 88C175.449 136.297 136.297 175.449 88 175.449ZM88 166.913C131.582 166.913 166.913 131.582 166.913 88C166.913 44.4175 131.582 9.08696 88 9.08696C44.4175 9.08696 9.08696 44.4175 9.08696 88C9.08696 131.582 44.4175 166.913 88 166.913ZM88 165.833C45.0143 165.833 10.1674 130.986 10.1674 88C10.1674 45.0143 45.0143 10.1674 88 10.1674C130.986 10.1674 165.833 45.0143 165.833 88C165.833 130.986 130.986 165.833 88 165.833ZM158.783 88C158.783 127.092 127.092 158.783 88 158.783C48.9078 158.783 17.2174 127.092 17.2174 88C17.2174 48.9078 48.9078 17.2174 88 17.2174C127.092 17.2174 158.783 48.9078 158.783 88ZM19.8929 88C19.8929 125.615 50.3855 156.107 88 156.107C125.615 156.107 156.107 125.615 156.107 88C156.107 50.3855 125.615 19.8929 88 19.8929C50.3855 19.8929 19.8929 50.3855 19.8929 88ZM87.7609 149.696C121.966 149.696 149.696 121.966 149.696 87.7609C149.696 53.5552 121.966 25.8261 87.7609 25.8261C53.5552 25.8261 25.8261 53.5552 25.8261 87.7609C25.8261 121.966 53.5552 149.696 87.7609 149.696ZM87.7609 147.159C54.9562 147.159 28.3627 120.566 28.3627 87.7609C28.3627 54.9562 54.9562 28.3627 87.7609 28.3627C120.566 28.3627 147.159 54.9562 147.159 87.7609C147.159 120.566 120.566 147.159 87.7609 147.159ZM141.087 88C141.087 117.319 117.212 141.087 87.7609 141.087C58.3097 141.087 34.4348 117.319 34.4348 88C34.4348 58.6809 58.3097 34.913 87.7609 34.913C117.212 34.913 141.087 58.6809 141.087 88ZM37.8962 88C37.8962 115.416 60.2214 137.641 87.7609 137.641C115.3 137.641 137.626 115.416 137.626 88C137.626 60.584 115.3 38.359 87.7609 38.359C60.2214 38.359 37.8962 60.584 37.8962 88ZM87.7609 132.478C112.458 132.478 132.478 112.565 132.478 88C132.478 63.4353 112.458 43.5217 87.7609 43.5217C63.0641 43.5217 43.0435 63.4353 43.0435 88C43.0435 112.565 63.0641 132.478 87.7609 132.478ZM87.7609 128.646C65.1917 128.646 46.8959 110.448 46.8959 88C46.8959 65.5516 65.1917 47.3535 87.7609 47.3535C110.33 47.3535 128.626 65.5516 128.626 88C128.626 110.448 110.33 128.646 87.7609 128.646ZM124.826 88C124.826 108.338 108.338 124.826 88 124.826C67.6615 124.826 51.1739 108.338 51.1739 88C51.1739 67.6615 67.6615 51.1739 88 51.1739C108.338 51.1739 124.826 67.6615 124.826 88ZM56.6259 88C56.6259 105.327 70.6726 119.374 88 119.374C105.327 119.374 119.374 105.327 119.374 88C119.374 70.6726 105.327 56.6259 88 56.6259C70.6726 56.6259 56.6259 70.6726 56.6259 88ZM87.7609 116.696C103.741 116.696 116.696 103.741 116.696 87.7609C116.696 71.7806 103.741 58.8261 87.7609 58.8261C71.7806 58.8261 58.8261 71.7806 58.8261 87.7609C58.8261 103.741 71.7806 116.696 87.7609 116.696ZM87.7609 110.463C75.223 110.463 65.0591 100.299 65.0591 87.7609C65.0591 75.223 75.223 65.0591 87.7609 65.0591C100.299 65.0591 110.463 75.223 110.463 87.7609C110.463 100.299 100.299 110.463 87.7609 110.463ZM108.565 88C108.565 99.3579 99.3579 108.565 88 108.565C76.6421 108.565 67.4348 99.3579 67.4348 88C67.4348 76.6421 76.6421 67.4348 88 67.4348C99.3579 67.4348 108.565 76.6421 108.565 88ZM75.3149 88C75.3149 95.0058 80.9942 100.685 88 100.685C95.0058 100.685 100.685 95.0058 100.685 88C100.685 80.9942 95.0058 75.3149 88 75.3149C80.9942 75.3149 75.3149 80.9942 75.3149 88ZM88 98.56C93.8321 98.56 98.56 93.8321 98.56 88C98.56 82.1679 93.8321 77.44 88 77.44C82.1679 77.44 77.44 82.1679 77.44 88C77.44 93.8321 82.1679 98.56 88 98.56ZM88 91.8776C85.8585 91.8776 84.1224 90.1415 84.1224 88C84.1224 85.8585 85.8585 84.1224 88 84.1224C90.1415 84.1224 91.8776 85.8585 91.8776 88C91.8776 90.1415 90.1415 91.8776 88 91.8776Z" fill="white"/>
</mask>
<g mask="url(#mask0_295_36140)">
<g filter="url(#filter0_f_295_36140)">
<ellipse cx="139.04" cy="106.119" rx="92.4" ry="92.9191" fill="#D9D7FF"/>
</g>
<g filter="url(#filter1_f_295_36140)">
<ellipse cx="77.4401" cy="3.95995" rx="78.32" ry="78.76" fill="#CC81F4"/>
</g>
<g filter="url(#filter2_f_295_36140)">
<ellipse cx="23.7599" cy="77" rx="78.32" ry="78.76" fill="#F8C3F9"/>
</g>
<g filter="url(#filter3_f_295_36140)">
<ellipse cx="67.7599" cy="181.72" rx="78.32" ry="78.76" fill="#AEA5FF"/>
</g>
</g>
<defs>
<filter id="filter0_f_295_36140" x="-19.4275" y="-52.8675" width="316.935" height="317.973" filterUnits="userSpaceOnUse" color-interpolation-filters="sRGB">
<feFlood flood-opacity="0" result="BackgroundImageFix"/>
<feBlend mode="normal" in="SourceGraphic" in2="BackgroundImageFix" result="shape"/>
<feGaussianBlur stdDeviation="33.0337" result="effect1_foregroundBlur_295_36140"/>
</filter>
<filter id="filter1_f_295_36140" x="-56.8799" y="-130.8" width="268.64" height="269.52" filterUnits="userSpaceOnUse" color-interpolation-filters="sRGB">
<feFlood flood-opacity="0" result="BackgroundImageFix"/>
<feBlend mode="normal" in="SourceGraphic" in2="BackgroundImageFix" result="shape"/>
<feGaussianBlur stdDeviation="28" result="effect1_foregroundBlur_295_36140"/>
</filter>
<filter id="filter2_f_295_36140" x="-110.56" y="-57.76" width="268.64" height="269.52" filterUnits="userSpaceOnUse" color-interpolation-filters="sRGB">
<feFlood flood-opacity="0" result="BackgroundImageFix"/>
<feBlend mode="normal" in="SourceGraphic" in2="BackgroundImageFix" result="shape"/>
<feGaussianBlur stdDeviation="28" result="effect1_foregroundBlur_295_36140"/>
</filter>
<filter id="filter3_f_295_36140" x="-66.5601" y="46.96" width="268.64" height="269.52" filterUnits="userSpaceOnUse" color-interpolation-filters="sRGB">
<feFlood flood-opacity="0" result="BackgroundImageFix"/>
<feBlend mode="normal" in="SourceGraphic" in2="BackgroundImageFix" result="shape"/>
<feGaussianBlur stdDeviation="28" result="effect1_foregroundBlur_295_36140"/>
</filter>
</defs>
</svg>
