<svg width="176" height="176" viewBox="0 0 176 176" fill="none" xmlns="http://www.w3.org/2000/svg">
<mask id="mask0_295_35909" style="mask-type:alpha" maskUnits="userSpaceOnUse" x="8" y="0" width="160" height="176">
<path d="M85.0229 23.749C88.9221 11.8735 97.2792 3.72266 108.37 0.971393C113.368 -0.268178 115.742 -0.308019 120.139 0.775197C129.878 3.1724 134.925 11.6119 132.582 21.5788C131.128 27.7406 129.284 30.8248 123.768 36.292C117.856 42.1509 110.527 46.2545 102.134 48.4029C94.5275 50.3505 93.0976 50.3054 96.4501 48.2255C114.624 36.9543 120.236 28.9794 115.808 20.7181C113.338 16.1071 106.826 14.0053 101.401 16.0703C97.5796 17.5233 90.7846 25.4155 86.9455 32.859C84.9448 36.7393 83.0403 39.9138 82.7099 39.9138C81.7185 39.9138 83.2686 29.0831 85.0229 23.749Z" fill="white"/>
<path d="M38.8217 40.9639C27.5688 30.8369 28.1696 16.174 40.0233 11.7434C42.0059 11.0022 44.8357 10.7414 48.4705 10.9639C59.1707 11.6179 67.9303 18.3111 72.1298 29.0395C73.788 33.2927 75.6865 42.223 74.9235 42.223C74.6772 42.223 73.6859 40.876 72.5083 38.9989C72.1779 38.4705 71.8294 37.8999 71.481 37.3061C68.4229 32.0772 62.7154 25.7816 59.5371 24.1354C52.658 20.5723 44.9258 24.542 44.9258 31.6389C44.9258 33.4431 45.2082 34.7969 45.9531 36.2417C46.2656 36.8415 46.6561 37.4572 47.1427 38.127C49.7382 41.7119 55.626 46.2169 60.5825 48.4126C67.3175 51.3932 65.7674 52.2719 57.2962 50.2739C50.405 48.6487 43.4839 45.1592 38.8217 40.9639Z" fill="white"/>
<path d="M75.302 62.0938C72.3882 58.6291 72.9589 54.3511 76.7379 51.2849C77.6391 50.5527 79.6999 49.9469 81.322 49.9378C85.1671 49.9153 88.7599 53.2597 88.7599 56.8634C88.7599 64.5128 80.1505 67.8601 75.302 62.0938Z" fill="white"/>
<path fill-rule="evenodd" clip-rule="evenodd" d="M45.076 81.9555C49.0593 75.2367 55.638 70.1032 62.409 68.4299C65.5691 67.6504 72.983 68.1323 75.0797 69.2531C75.6625 69.565 75.8848 69.8522 75.5784 70.4408C75.278 71.0076 74.497 71.854 73.0791 73.2732C71.2587 75.0991 68.6692 78.8178 67.3295 81.5383C63.1599 90.0198 63.2561 98.8043 67.714 116.119C72.8448 136.061 73.2593 150.923 68.8014 154.962C67.9903 155.696 67.5157 156.013 66.2 155.919C65.2147 155.848 63.7487 155.544 61.3035 155.011C40.7202 150.527 25.8145 143.31 16.4661 133.309C11.4614 127.954 8.82996 123.329 8.79992 119.844C8.77589 116.969 12.4588 114.114 17.5655 113.054C26.0428 111.293 31.0534 105.625 45.076 81.9555ZM30.3925 135.404C25.1776 132.74 17.2411 124.674 17.2411 122.036C17.2411 121.606 19.5782 123.498 22.432 126.24C25.2858 128.981 29.3351 132.392 31.4319 133.82C34.5741 135.967 35.0787 137.095 33.3124 136.628C32.6515 136.454 31.6722 136.055 30.3925 135.404Z" fill="white"/>
<path d="M118.956 139.489C119.479 138.986 123.888 137.365 128.749 135.885C131.663 134.998 134.336 134.197 136.073 133.688C137.238 133.348 137.983 133.139 138.091 133.123C139.761 132.888 139.972 139.705 138.41 143.454C136.253 148.621 128.412 150.925 123.294 147.897C120.38 146.174 117.598 140.788 118.956 139.489Z" fill="white"/>
<path fill-rule="evenodd" clip-rule="evenodd" d="M71.4389 83.9663C75.3441 76.7845 82.6498 70.7197 89.6731 68.8276C95.3146 67.3069 103.377 67.34 107.397 68.9013C114.57 71.6901 118.301 76.0365 129.746 94.9623C135.952 105.224 143.745 115.135 148.173 118.396C149.146 119.113 150.576 119.912 152.054 120.598C153.309 121.18 154.595 121.68 155.665 121.976C160.183 123.229 163.036 124.327 164.779 125.728C166.599 127.195 167.2 128.994 167.2 131.649C167.2 136.1 164.598 140.48 158.302 146.627C148.185 156.504 133.387 164.926 116.06 170.672C100.421 175.858 89.6551 177.166 80.4749 174.998C69.1919 172.337 67.3655 167.291 73.6498 156.191C76.065 151.925 76.0711 151.881 76.035 140.751C75.999 129.599 74.8574 121.983 71.4089 109.961C68.9156 101.259 68.6392 99.4313 68.9456 93.7671C69.1919 89.2516 69.7447 87.0776 71.4389 83.9663ZM100.295 74.5526C99.8746 74.5526 99.5261 74.2061 99.5261 73.7829C99.5261 71.742 105.654 73.8889 110.857 77.7519C116.18 81.7067 119.923 86.9265 125.505 98.1962C130.383 108.046 133.525 113.052 137.833 117.821C142.952 123.496 135.82 120.421 129.44 114.204C124.387 109.287 122.182 106.02 117.328 96.2778C115.159 91.9262 112.053 86.5575 110.419 84.3467C107.252 80.0559 101.563 74.5526 100.295 74.5526ZM88.3754 140.153C93.9147 135.075 104.693 129.179 111.83 127.326C114.156 126.722 116.925 126.207 117.983 126.182C119.899 126.137 119.899 126.14 117.706 127.285C116.733 127.793 115.658 128.142 115.087 128.328L114.768 128.435C113.386 128.934 97.7658 136.46 91.1691 140.809C88.9822 142.249 86.9695 143.494 85.5817 144.281C84.4762 144.907 83.7673 145.242 83.6771 145.154C83.575 145.055 84.0556 144.442 84.9088 143.536C85.7619 142.629 86.9875 141.429 88.3754 140.153ZM104.525 140.579C115.573 135.083 130.533 130.006 140.284 128.445C146.304 127.482 157.239 127.923 159.263 129.212C160.183 129.798 161.324 131.116 161.787 132.141C163.078 134.977 160.303 139.932 154.637 144.883C135.003 162.058 91.5656 176.243 78.8167 169.644C69.8889 165.025 81.286 152.144 104.525 140.579Z" fill="white"/>
<path d="M132.996 60.1634C118.229 46.0004 101.977 54.2624 95.6991 60.1634C104.808 60.1634 111.349 60.0097 116.078 61.1953C123.384 63.2772 127.742 68.2929 128.767 69.4004C135.688 78.13 151.068 80.5618 157.605 79.7921C149.915 78.5607 144.658 74.6601 142.994 72.8643C144.79 72.8643 150.221 72.7102 157.605 72.0945C144.658 71.4623 138.71 65.6396 135.081 62.0855C134.294 61.3112 133.615 60.6452 132.996 60.1634Z" fill="white"/>
<path d="M62.6072 61.8096C44.8717 59.0907 33.7149 74.7563 30.1582 79.7515C29.7076 80.3799 29.3832 80.8392 29.1789 81.0715C23.4113 87.6144 13.0295 88.3841 9.95345 87.9992C12.1464 87.588 14.2131 86.4507 15.9674 85.1224C18.1603 83.4657 19.8666 81.512 20.7197 80.3017C19.3078 80.9437 14.9521 81.9953 8.79992 81.0715C17.7878 80.7385 22.45 73.8746 25.2918 69.7011C25.7304 69.0531 26.1269 68.4698 26.4874 67.9857C29.1789 64.385 33.024 60.0529 36.8691 58.8689C51.8289 54.2609 58.7561 59.1117 62.6072 61.8096Z" fill="white"/>
</mask>
<g mask="url(#mask0_295_35909)">
<g filter="url(#filter0_f_295_35909)">
<ellipse cx="139.04" cy="106.119" rx="92.4" ry="92.9191" fill="#D9D7FF"/>
</g>
<g filter="url(#filter1_f_295_35909)">
<ellipse cx="77.4401" cy="3.9602" rx="78.32" ry="78.76" fill="#CC81F4"/>
</g>
<g filter="url(#filter2_f_295_35909)">
<ellipse cx="23.7599" cy="77.0002" rx="78.32" ry="78.76" fill="#F8C3F9"/>
</g>
<g filter="url(#filter3_f_295_35909)">
<ellipse cx="67.7599" cy="181.72" rx="78.32" ry="78.76" fill="#AEA5FF"/>
</g>
</g>
<defs>
<filter id="filter0_f_295_35909" x="-19.4273" y="-52.8672" width="316.935" height="317.973" filterUnits="userSpaceOnUse" color-interpolation-filters="sRGB">
<feFlood flood-opacity="0" result="BackgroundImageFix"/>
<feBlend mode="normal" in="SourceGraphic" in2="BackgroundImageFix" result="shape"/>
<feGaussianBlur stdDeviation="33.0337" result="effect1_foregroundBlur_295_35909"/>
</filter>
<filter id="filter1_f_295_35909" x="-56.8799" y="-130.8" width="268.64" height="269.52" filterUnits="userSpaceOnUse" color-interpolation-filters="sRGB">
<feFlood flood-opacity="0" result="BackgroundImageFix"/>
<feBlend mode="normal" in="SourceGraphic" in2="BackgroundImageFix" result="shape"/>
<feGaussianBlur stdDeviation="28" result="effect1_foregroundBlur_295_35909"/>
</filter>
<filter id="filter2_f_295_35909" x="-110.56" y="-57.7598" width="268.64" height="269.52" filterUnits="userSpaceOnUse" color-interpolation-filters="sRGB">
<feFlood flood-opacity="0" result="BackgroundImageFix"/>
<feBlend mode="normal" in="SourceGraphic" in2="BackgroundImageFix" result="shape"/>
<feGaussianBlur stdDeviation="28" result="effect1_foregroundBlur_295_35909"/>
</filter>
<filter id="filter3_f_295_35909" x="-66.5601" y="46.96" width="268.64" height="269.52" filterUnits="userSpaceOnUse" color-interpolation-filters="sRGB">
<feFlood flood-opacity="0" result="BackgroundImageFix"/>
<feBlend mode="normal" in="SourceGraphic" in2="BackgroundImageFix" result="shape"/>
<feGaussianBlur stdDeviation="28" result="effect1_foregroundBlur_295_35909"/>
</filter>
</defs>
</svg>
