<svg width="176" height="200" viewBox="0 0 176 200" fill="none" xmlns="http://www.w3.org/2000/svg">
<mask id="mask0_295_35386" style="mask-type:alpha" maskUnits="userSpaceOnUse" x="40" y="0" width="96" height="200">
<path fill-rule="evenodd" clip-rule="evenodd" d="M86.8228 0.467637C86.176 1.22992 85.9609 5.23166 86.5117 6.24827C87.0414 7.22592 88.6538 7.59471 89.4766 6.92671C90.1322 6.3944 90.2022 1.02987 89.5619 0.403273C88.9827 -0.163484 87.3248 -0.124518 86.8228 0.467637ZM86.7431 8.91227C86.4117 9.30403 86.2553 10.465 86.2553 12.5365V15.5843L84.9159 15.9767C83.1531 16.4934 81.1464 18.2528 80.3408 19.9879C79.4803 21.8416 79.4874 25.1141 80.356 26.9859C80.7208 27.7715 81.7573 29.018 82.6593 29.756C84.2472 31.0547 84.2998 31.1595 84.2998 33.026C84.2998 34.8877 84.2457 34.9966 82.7393 36.1709C80.025 38.2862 78.6555 40.8636 78.6267 43.9103L78.611 45.5629H88.2602H97.9094L97.7221 43.5404C97.4824 40.9571 96.1338 38.3453 94.2053 36.73C93.3801 36.0387 92.5737 35.4733 92.4134 35.4733C92.253 35.4733 92.1218 34.3954 92.1218 33.0779C92.1218 30.9194 92.2079 30.6272 92.9933 30.1237C96.627 27.7941 97.7054 23.0033 95.4519 19.2005C94.4891 17.5751 92.5339 16.1228 90.8703 15.7972L89.8079 15.5891L89.9359 12.8295C90.1162 8.9502 89.9096 8.33577 88.4252 8.33577C87.7472 8.33577 87.0204 8.58488 86.7431 8.91227ZM85.722 17.7716C84.5864 18.2135 82.9576 19.7224 82.3126 20.9304C81.1724 23.0659 82.009 26.6505 84.0072 28.1903C84.6688 28.7004 84.7933 28.6583 85.9389 27.5373C87.0215 26.4779 87.3163 26.3634 88.4871 26.5464C89.3347 26.679 90.0938 27.0975 90.598 27.7113L91.3855 28.6694L92.3398 27.9722C93.5949 27.0551 94.6107 25.1555 94.6107 23.7252C94.6107 22.4076 93.7968 20.3191 92.9083 19.3578C91.3361 17.6568 87.9427 16.9074 85.722 17.7716ZM72.2112 53.605C68.5935 57.0511 59.7634 65.3785 52.5892 72.1096C40.1336 83.7958 39.5719 84.3772 40.145 84.9881C40.5784 85.4501 42.9748 96.9432 48.7653 126.33L56.7854 167.032L65.8131 166.998C70.7787 166.979 74.8714 166.929 74.9087 166.888C74.9457 166.846 74.2801 158.357 73.43 148.024C72.5799 137.691 71.1577 120.235 70.2695 109.232C69.3817 98.2288 68.6031 88.7957 68.5391 88.2697L68.4232 87.3129H88.1955H107.968L107.353 95.0888C107.015 99.3654 106.409 106.92 106.007 111.876C103.564 141.963 101.727 165.201 101.724 166.029L101.722 166.986L110.699 166.984L119.677 166.981L127.822 125.321C132.302 102.407 135.982 83.5606 136 83.4392C136.017 83.3178 127.392 75.1417 116.832 65.2703L97.6328 47.3219L95.0341 47.3122C93.0505 47.3049 92.4973 47.4054 92.6971 47.7374C93.1821 48.5431 102.205 62.7844 111.194 76.9307C113.22 80.1187 114.877 82.8195 114.877 82.9323C114.877 83.0453 114.517 83.1313 114.077 83.1233C113.41 83.1111 111.386 80.1329 101.899 65.1982L90.5219 47.2882L88.0537 47.3821L85.5854 47.4764L77.6478 60.1754C73.2821 67.1598 68.3129 75.18 66.6052 77.9978C64.083 82.1599 63.3502 83.1229 62.7003 83.1295C62.2601 83.1341 61.9003 83.06 61.9003 82.9643C61.9003 82.869 66.559 75.3313 72.2535 66.2142C77.9476 57.097 82.9231 49.1123 83.3103 48.4701L84.0146 47.3025L81.4017 47.3205L78.7888 47.3386L72.2112 53.605ZM114.166 87.4423C114.166 88.0077 108.576 157.787 108.358 159.941L108.209 161.419H111.163C113.667 161.419 114.147 161.326 114.309 160.81C114.415 160.475 117.712 143.919 121.637 124.018C125.561 104.117 128.84 87.6392 128.924 87.3999C129.043 87.061 127.43 86.965 121.621 86.965C115.54 86.965 114.166 87.053 114.166 87.4423ZM47.5834 87.5738C47.5084 87.7175 50.7432 104.352 54.7723 124.54L62.098 161.245L65.199 161.346C68.2895 161.446 68.3001 161.443 68.3001 160.585C68.3001 160.111 66.9402 143.532 65.278 123.742C63.6158 103.951 62.2558 87.6587 62.2558 87.5359C62.2558 87.22 47.7495 87.2572 47.5834 87.5738ZM70.0786 89.4874C70.0793 90.1581 75.6937 157.331 76.3455 164.463L76.5759 166.986H88.2439H99.9115L100.096 165.855C100.197 165.233 101.094 154.47 102.089 141.936C103.084 129.402 104.448 112.337 105.121 104.013C105.793 95.689 106.343 88.8392 106.344 88.7915C106.344 88.7439 98.1839 88.7045 88.2108 88.7045H70.0779L70.0786 89.4874ZM56.5397 169.742C54.6659 171.576 55.5882 175.069 58.0611 175.505C58.706 175.619 72.8074 175.666 89.3973 175.611L119.561 175.51L120.419 174.534C121.607 173.182 121.581 171.22 120.356 169.796L119.436 168.725H88.5073H57.5789L56.5397 169.742ZM61.2674 178.496C62.4553 180.577 66.2895 184.532 68.8601 186.327C70.0921 187.187 73.3098 188.961 76.0109 190.269C81.8956 193.119 84.9028 195.254 86.864 197.975L88.3235 200L89.2895 198.54C91.3734 195.392 94.7611 192.925 100.786 190.17C105.045 188.223 107.99 186.319 110.742 183.733C112.826 181.774 115.944 177.97 115.944 177.385C115.944 177.207 104.172 177.075 88.2001 177.075H60.4568L61.2674 178.496Z" fill="white"/>
</mask>
<g mask="url(#mask0_295_35386)">
<g filter="url(#filter0_f_295_35386)">
<ellipse cx="121.44" cy="106.6" rx="78.32" ry="78.76" fill="#D9D7FF"/>
</g>
<g filter="url(#filter1_f_295_35386)">
<ellipse cx="77.4401" cy="15.9602" rx="78.32" ry="78.76" fill="#CC81F4"/>
</g>
<g filter="url(#filter2_f_295_35386)">
<ellipse cx="23.7599" cy="89.0002" rx="78.32" ry="78.76" fill="#F8C3F9"/>
</g>
<g filter="url(#filter3_f_295_35386)">
<ellipse cx="67.7599" cy="193.72" rx="78.32" ry="78.76" fill="#AEA5FF"/>
</g>
</g>
<defs>
<filter id="filter0_f_295_35386" x="-12.8799" y="-28.1602" width="268.64" height="269.52" filterUnits="userSpaceOnUse" color-interpolation-filters="sRGB">
<feFlood flood-opacity="0" result="BackgroundImageFix"/>
<feBlend mode="normal" in="SourceGraphic" in2="BackgroundImageFix" result="shape"/>
<feGaussianBlur stdDeviation="28" result="effect1_foregroundBlur_295_35386"/>
</filter>
<filter id="filter1_f_295_35386" x="-56.8799" y="-118.8" width="268.64" height="269.52" filterUnits="userSpaceOnUse" color-interpolation-filters="sRGB">
<feFlood flood-opacity="0" result="BackgroundImageFix"/>
<feBlend mode="normal" in="SourceGraphic" in2="BackgroundImageFix" result="shape"/>
<feGaussianBlur stdDeviation="28" result="effect1_foregroundBlur_295_35386"/>
</filter>
<filter id="filter2_f_295_35386" x="-110.56" y="-45.7598" width="268.64" height="269.52" filterUnits="userSpaceOnUse" color-interpolation-filters="sRGB">
<feFlood flood-opacity="0" result="BackgroundImageFix"/>
<feBlend mode="normal" in="SourceGraphic" in2="BackgroundImageFix" result="shape"/>
<feGaussianBlur stdDeviation="28" result="effect1_foregroundBlur_295_35386"/>
</filter>
<filter id="filter3_f_295_35386" x="-66.5601" y="58.96" width="268.64" height="269.52" filterUnits="userSpaceOnUse" color-interpolation-filters="sRGB">
<feFlood flood-opacity="0" result="BackgroundImageFix"/>
<feBlend mode="normal" in="SourceGraphic" in2="BackgroundImageFix" result="shape"/>
<feGaussianBlur stdDeviation="28" result="effect1_foregroundBlur_295_35386"/>
</filter>
</defs>
</svg>
