<svg width="176" height="176" viewBox="0 0 176 176" fill="none" xmlns="http://www.w3.org/2000/svg">
<mask id="mask0_295_34774" style="mask-type:alpha" maskUnits="userSpaceOnUse" x="9" y="0" width="158" height="176">
<path fill-rule="evenodd" clip-rule="evenodd" d="M65.3112 0.119233C58.0077 0.355097 57.0497 0.597879 55.5785 2.58509C54.6447 3.84672 54.1377 7.16818 54.3542 10.6107C54.5801 14.2106 55.2565 15.8177 57.0435 17.0001C58.2629 17.807 58.7271 17.8789 63.8977 18.0581L69.4437 18.2507L69.2254 20.8338C69.02 23.2626 69.0463 23.4051 69.6664 23.2239C73.9282 21.9785 91.9701 21.9785 96.2319 23.2239C96.852 23.4051 96.8783 23.2626 96.6728 20.8338L96.4546 18.2507L101.972 18.0591C107.956 17.8516 109.137 17.4988 110.422 15.5382C111.364 14.1013 111.843 9.65894 111.41 6.3807C110.973 3.06926 110.363 2.04488 108.178 0.9496C106.66 0.189093 106.403 0.176989 89.3472 0.0400355C79.8366 -0.0360498 69.0204 -0.000428045 65.3112 0.119233ZM138.976 22.8947C137.732 23.3647 135.396 25.3308 134.126 26.9763C131.839 29.9415 132.119 30.9995 136.339 35.3522L138.434 37.512L136.75 39.2218L135.065 40.932L139.369 45.1894C141.735 47.5307 144.665 50.7322 145.878 52.3033L148.085 55.1596L149.783 53.2544C150.717 52.2061 151.642 51.3488 151.837 51.3488C152.033 51.3488 153.435 52.5164 154.952 53.9433C158.732 57.4992 159.644 57.6455 162.748 55.1921C164.916 53.4785 166.643 50.9092 166.643 49.3982C166.643 48.4181 166.043 47.6123 162.376 43.6645C155.981 36.7799 142.416 23.6476 141.148 23.1132C139.955 22.61 139.776 22.592 138.976 22.8947ZM79.8366 29.4532C45.5031 30.9016 16.6042 56.3614 10.6239 90.4289C9.72195 95.5685 9.40447 104.611 9.94363 109.815C11.3502 123.392 16.1622 135.778 24.2466 146.628C27.3862 150.842 33.3841 157.071 37.1524 160.03C47.4765 168.139 59.6799 173.43 72.5739 175.386C77.9704 176.205 87.9279 176.205 93.3244 175.386C109.285 172.964 123.383 165.874 134.665 154.594C149.408 139.855 156.881 120.921 156.168 100.116C155.641 84.7488 150.726 70.9829 141.254 58.35C127.14 39.5248 103.603 28.4506 79.8366 29.4532ZM66.494 58.5648C65.9081 58.9258 65.2555 59.6677 65.0435 60.2134C64.8315 60.7588 62.2059 71.3762 59.2085 83.8074L53.7583 106.41L54.4338 107.662C55.556 109.745 55.7912 109.785 66.781 109.791C72.2498 109.794 76.724 109.904 76.724 110.036C76.724 110.168 74.9253 117.677 72.7271 126.723C70.0188 137.866 68.7935 143.513 68.927 144.233C69.0352 144.818 69.5993 145.752 70.18 146.308C71.186 147.272 71.3821 147.32 74.319 147.32C77.2932 147.32 77.4375 147.283 78.3975 146.282C80.2256 144.376 111.677 95.3959 111.882 94.1367C112.114 92.7015 111.331 91.0321 110.02 90.1727C109.202 89.6363 107.843 89.5439 98.4989 89.3914L87.9054 89.2185L91.1155 76.0765C92.8814 68.8484 94.3339 62.3535 94.3439 61.6431C94.3571 60.689 94.0984 60.0568 93.3531 59.2222L92.3443 58.0927L79.9517 58.0004C68.2937 57.9139 67.4959 57.9471 66.494 58.5648Z" fill="white"/>
</mask>
<g mask="url(#mask0_295_34774)">
<g filter="url(#filter0_f_295_34774)">
<ellipse cx="121.44" cy="94.5998" rx="78.32" ry="78.76" fill="#D9D7FF"/>
</g>
<g filter="url(#filter1_f_295_34774)">
<ellipse cx="77.4401" cy="3.9602" rx="78.32" ry="78.76" fill="#CC81F4"/>
</g>
<g filter="url(#filter2_f_295_34774)">
<ellipse cx="23.7599" cy="77.0002" rx="78.32" ry="78.76" fill="#F8C3F9"/>
</g>
<g filter="url(#filter3_f_295_34774)">
<ellipse cx="67.7599" cy="181.72" rx="78.32" ry="78.76" fill="#AEA5FF"/>
</g>
</g>
<defs>
<filter id="filter0_f_295_34774" x="-12.8799" y="-40.1602" width="268.64" height="269.52" filterUnits="userSpaceOnUse" color-interpolation-filters="sRGB">
<feFlood flood-opacity="0" result="BackgroundImageFix"/>
<feBlend mode="normal" in="SourceGraphic" in2="BackgroundImageFix" result="shape"/>
<feGaussianBlur stdDeviation="28" result="effect1_foregroundBlur_295_34774"/>
</filter>
<filter id="filter1_f_295_34774" x="-56.8799" y="-130.8" width="268.64" height="269.52" filterUnits="userSpaceOnUse" color-interpolation-filters="sRGB">
<feFlood flood-opacity="0" result="BackgroundImageFix"/>
<feBlend mode="normal" in="SourceGraphic" in2="BackgroundImageFix" result="shape"/>
<feGaussianBlur stdDeviation="28" result="effect1_foregroundBlur_295_34774"/>
</filter>
<filter id="filter2_f_295_34774" x="-110.56" y="-57.7598" width="268.64" height="269.52" filterUnits="userSpaceOnUse" color-interpolation-filters="sRGB">
<feFlood flood-opacity="0" result="BackgroundImageFix"/>
<feBlend mode="normal" in="SourceGraphic" in2="BackgroundImageFix" result="shape"/>
<feGaussianBlur stdDeviation="28" result="effect1_foregroundBlur_295_34774"/>
</filter>
<filter id="filter3_f_295_34774" x="-66.5601" y="46.96" width="268.64" height="269.52" filterUnits="userSpaceOnUse" color-interpolation-filters="sRGB">
<feFlood flood-opacity="0" result="BackgroundImageFix"/>
<feBlend mode="normal" in="SourceGraphic" in2="BackgroundImageFix" result="shape"/>
<feGaussianBlur stdDeviation="28" result="effect1_foregroundBlur_295_34774"/>
</filter>
</defs>
</svg>
