<svg width="176" height="176" viewBox="0 0 176 176" fill="none" xmlns="http://www.w3.org/2000/svg">
<mask id="mask0_295_34783" style="mask-type:alpha" maskUnits="userSpaceOnUse" x="9" y="0" width="158" height="176">
<path fill-rule="evenodd" clip-rule="evenodd" d="M55.5788 2.58509C57.05 0.597879 58.008 0.355098 65.3115 0.119233C69.0206 -0.000428045 79.8368 -0.0360498 89.3475 0.0400355C106.404 0.176989 106.661 0.189093 108.178 0.9496C110.363 2.04488 110.973 3.06927 111.41 6.3807C111.843 9.65894 111.364 14.1013 110.422 15.5383C109.138 17.4988 107.956 17.8516 101.972 18.0591L96.4549 18.2507L96.6731 20.8338C96.8785 23.2626 96.8522 23.4051 96.2321 23.2239C91.9703 21.9785 73.9285 21.9785 69.6666 23.2239C69.0465 23.4051 69.0203 23.2626 69.2257 20.8338L69.4439 18.2507L63.898 18.0581C58.7273 17.8789 58.2632 17.807 57.0438 17.0001C55.2568 15.8177 54.5803 14.2106 54.3545 10.6107C54.138 7.16818 54.645 3.84672 55.5788 2.58509ZM134.127 26.9763C135.396 25.3308 137.732 23.3647 138.976 22.8947C139.776 22.592 139.956 22.61 141.148 23.1132C142.417 23.6476 155.981 36.7799 162.376 43.6645C166.043 47.6123 166.643 48.4181 166.643 49.3983C166.643 50.9092 164.916 53.4785 162.748 55.1922C159.645 57.6456 158.732 57.4993 154.952 53.9433C153.435 52.5164 152.034 51.3488 151.838 51.3488C151.642 51.3488 150.717 52.2061 149.783 53.2544L148.085 55.1596L145.878 52.3033C144.665 50.7322 141.736 47.5307 139.369 45.1894L135.066 40.932L136.75 39.2219L138.434 37.512L136.339 35.3522C132.119 30.9995 131.839 29.9415 134.127 26.9763ZM10.6241 90.4289C16.6044 56.3614 45.5033 30.9016 79.8368 29.4532C103.603 28.4506 127.14 39.5248 141.255 58.35C150.726 70.9829 155.642 84.7488 156.168 100.116C156.881 120.921 149.408 139.855 134.666 154.594C123.383 165.874 109.286 172.964 93.3247 175.386C87.9281 176.205 77.9706 176.205 72.5741 175.386C59.6801 173.43 47.4767 168.139 37.1527 160.03C33.3844 157.071 27.3864 150.842 24.2469 146.628C16.1625 135.778 11.3504 123.392 9.94388 109.815C9.40471 104.611 9.72219 95.5685 10.6241 90.4289ZM65.4722 72.16C62.1114 72.16 58.8882 73.4951 56.5117 75.8715C54.1353 78.248 52.8002 81.4712 52.8002 84.832V89.056C52.8002 92.4168 54.1353 95.64 56.5117 98.0165C58.8882 100.393 62.1114 101.728 65.4722 101.728C68.833 101.728 72.0562 100.393 74.4326 98.0165C76.8091 95.64 78.1442 92.4168 78.1442 89.056V84.832C78.1442 81.4712 76.8091 78.248 74.4326 75.8715C72.0562 73.4951 68.833 72.16 65.4722 72.16ZM69.6962 89.056C69.6962 90.1763 69.2511 91.2507 68.459 92.0428C67.6668 92.835 66.5924 93.28 65.4722 93.28C64.3519 93.28 63.2775 92.835 62.4854 92.0428C61.6932 91.2507 61.2482 90.1763 61.2482 89.056V84.832C61.2482 83.7117 61.6932 82.6373 62.4854 81.8452C63.2775 81.053 64.3519 80.608 65.4722 80.608C66.5924 80.608 67.6668 81.053 68.459 81.8452C69.2511 82.6373 69.6962 83.7117 69.6962 84.832V89.056ZM116.16 120.736V116.512C116.16 113.151 114.825 109.928 112.449 107.552C110.072 105.175 106.849 103.84 103.488 103.84C100.127 103.84 96.9042 105.175 94.5277 107.552C92.1513 109.928 90.8162 113.151 90.8162 116.512V120.736C90.8162 124.097 92.1513 127.32 94.5277 129.696C96.9042 132.073 100.127 133.408 103.488 133.408C106.849 133.408 110.072 132.073 112.449 129.696C114.825 127.32 116.16 124.097 116.16 120.736ZM107.712 120.736C107.712 121.856 107.267 122.931 106.475 123.723C105.683 124.515 104.608 124.96 103.488 124.96C102.368 124.96 101.294 124.515 100.501 123.723C99.7092 122.931 99.2642 121.856 99.2642 120.736V116.512C99.2642 115.392 99.7092 114.317 100.501 113.525C101.294 112.733 102.368 112.288 103.488 112.288C104.608 112.288 105.683 112.733 106.475 113.525C107.267 114.317 107.712 115.392 107.712 116.512V120.736ZM62.1986 123.344L100.215 76.8804C100.925 76.0136 101.95 75.4643 103.065 75.3534C104.18 75.2425 105.293 75.5791 106.16 76.289C107.027 76.999 107.576 78.0242 107.687 79.1392C107.798 80.2542 107.461 81.3675 106.751 82.2343L68.7353 128.698C68.0253 129.565 67.0001 130.114 65.8851 130.225C64.7701 130.336 63.6568 130 62.79 129.29C61.9232 128.58 61.3739 127.554 61.263 126.439C61.1521 125.325 61.4887 124.211 62.1986 123.344Z" fill="white"/>
</mask>
<g mask="url(#mask0_295_34783)">
<g filter="url(#filter0_f_295_34783)">
<ellipse cx="121.44" cy="94.5998" rx="78.32" ry="78.76" fill="#D9D7FF"/>
</g>
<g filter="url(#filter1_f_295_34783)">
<ellipse cx="77.4401" cy="3.9602" rx="78.32" ry="78.76" fill="#CC81F4"/>
</g>
<g filter="url(#filter2_f_295_34783)">
<ellipse cx="23.7599" cy="77.0002" rx="78.32" ry="78.76" fill="#F8C3F9"/>
</g>
<g filter="url(#filter3_f_295_34783)">
<ellipse cx="67.7599" cy="181.72" rx="78.32" ry="78.76" fill="#AEA5FF"/>
</g>
</g>
<defs>
<filter id="filter0_f_295_34783" x="-12.8799" y="-40.1602" width="268.64" height="269.52" filterUnits="userSpaceOnUse" color-interpolation-filters="sRGB">
<feFlood flood-opacity="0" result="BackgroundImageFix"/>
<feBlend mode="normal" in="SourceGraphic" in2="BackgroundImageFix" result="shape"/>
<feGaussianBlur stdDeviation="28" result="effect1_foregroundBlur_295_34783"/>
</filter>
<filter id="filter1_f_295_34783" x="-56.8799" y="-130.8" width="268.64" height="269.52" filterUnits="userSpaceOnUse" color-interpolation-filters="sRGB">
<feFlood flood-opacity="0" result="BackgroundImageFix"/>
<feBlend mode="normal" in="SourceGraphic" in2="BackgroundImageFix" result="shape"/>
<feGaussianBlur stdDeviation="28" result="effect1_foregroundBlur_295_34783"/>
</filter>
<filter id="filter2_f_295_34783" x="-110.56" y="-57.7598" width="268.64" height="269.52" filterUnits="userSpaceOnUse" color-interpolation-filters="sRGB">
<feFlood flood-opacity="0" result="BackgroundImageFix"/>
<feBlend mode="normal" in="SourceGraphic" in2="BackgroundImageFix" result="shape"/>
<feGaussianBlur stdDeviation="28" result="effect1_foregroundBlur_295_34783"/>
</filter>
<filter id="filter3_f_295_34783" x="-66.5601" y="46.96" width="268.64" height="269.52" filterUnits="userSpaceOnUse" color-interpolation-filters="sRGB">
<feFlood flood-opacity="0" result="BackgroundImageFix"/>
<feBlend mode="normal" in="SourceGraphic" in2="BackgroundImageFix" result="shape"/>
<feGaussianBlur stdDeviation="28" result="effect1_foregroundBlur_295_34783"/>
</filter>
</defs>
</svg>
