<svg width="176" height="176" viewBox="0 0 176 176" fill="none" xmlns="http://www.w3.org/2000/svg">
<mask id="mask0_295_35889" style="mask-type:alpha" maskUnits="userSpaceOnUse" x="20" y="0" width="136" height="176">
<path fill-rule="evenodd" clip-rule="evenodd" d="M74.5793 1.25211C76.8404 0.797914 80.8482 0.229392 82.7749 0.0895145C85.3084 -0.0944784 92.8199 0.0232069 94.8489 0.278484C103.053 1.31116 108.472 2.71935 115.051 5.52833C118.782 7.12132 122.343 9.04706 125.596 11.2313C127.086 12.232 130.316 14.6418 131.224 15.4302C134.15 17.9726 135.258 19.0362 137.759 21.7038C142.066 26.2991 144.829 30.1362 147.484 35.2097C147.896 35.9971 148.505 37.147 148.838 37.7652C149.17 38.3833 149.803 39.7365 150.243 40.7721C154.907 51.736 156.893 65.3396 155.115 74.1276C154.075 79.2647 153.248 82.1188 151.374 87.0394C148.233 95.2849 143.076 105.308 136.666 115.62C133.88 120.103 129.635 126.643 128.115 128.795C127.597 129.529 126.852 130.602 126.46 131.18C124.304 134.36 119.97 140.494 118.971 141.779C118.741 142.075 118.081 142.952 117.505 143.729C116.016 145.736 114.505 147.707 111.375 151.723C109.871 153.652 107.962 156.101 107.132 157.167C106.302 158.232 105.017 159.83 104.277 160.717C103.536 161.604 102.451 162.942 101.865 163.689C101.279 164.436 100.395 165.502 99.9011 166.057C99.4067 166.612 98.6745 167.489 98.274 168.007C97.8734 168.525 96.9386 169.645 96.1965 170.495C95.4545 171.346 94.5518 172.419 94.1906 172.88C91.8255 175.898 87.7177 176.866 84.4909 175.167C84.0396 174.93 83.2763 174.341 82.7948 173.859C81.1657 172.228 79.711 170.446 78.2563 168.664C77.3162 167.512 76.376 166.361 75.3887 165.25C74.8955 164.695 74.1543 163.781 73.7417 163.219C73.3289 162.657 72.5395 161.689 71.9874 161.067C71.4354 160.446 70.535 159.357 69.9867 158.648C69.4386 157.939 68.5051 156.731 67.9125 155.964C67.4976 155.427 67.0803 154.893 66.6634 154.359C64.464 151.543 62.2745 148.74 60.498 145.611C57.6061 140.517 56.4026 134.493 56.9253 127.73C57.107 125.38 57.312 124.177 57.8169 122.499C59.2164 117.846 61.616 113.43 64.442 110.307C68.7156 105.585 72.8476 102.855 78.485 101.031C81.7966 99.9596 82.9155 99.8076 89.8656 99.4859C93.9194 99.2981 96.309 98.7801 99.608 97.3735C105.067 95.0461 111.66 89.8163 114.937 85.2153C117.523 81.5822 119.089 77.2589 119.559 72.4463C119.643 71.5956 119.773 70.3852 119.849 69.7564C119.982 68.6462 120.025 65.6554 119.91 65.4694C119.879 65.4187 119.754 64.4712 119.634 63.3637C119.513 62.2564 119.325 60.9169 119.216 60.3873C118.417 56.496 116.237 51.8097 113.572 48.2569C112.55 46.8946 109.605 43.898 108.115 42.7054C105.713 40.7821 102.161 38.8391 99.0914 37.768C94.6455 36.217 93.682 36.0647 88.3168 36.0647C82.8883 36.0647 81.37 36.3103 77.1339 37.8738C71.8517 39.8234 67.5266 42.9007 63.7031 47.4298C61.7101 49.7907 60.7703 51.2098 59.544 53.7105C57.3328 58.2198 56.3988 62.5096 56.3976 68.1618C56.3971 70.8766 56.5682 72.6845 57.0196 74.7328C57.6741 77.7027 58.3258 79.3632 60.6358 83.9459C62.785 88.2099 63.4237 89.7796 63.8755 91.909C64.1313 93.1147 64.1254 95.3596 63.8622 96.9349C63.6378 98.2778 62.7767 101.009 62.2514 102.045C61.4983 103.529 60.2022 105.25 58.7603 106.68C56.6143 108.808 55.2442 109.658 52.3946 110.628C50.263 111.354 49.1698 111.518 46.4981 111.515C44.2232 111.512 43.9729 111.486 42.4359 111.09C39.43 110.315 37.0346 108.936 34.7758 106.681C32.2832 104.192 31.7522 103.228 26.8204 92.2482C24.1465 86.2946 22.2677 80.7364 21.1955 75.607C20.3194 71.4158 20.2401 70.7681 20.2401 66.8647C20.2338 62.2233 20.5562 59.3633 21.7717 53.2804C23.1143 46.5605 26.2834 38.629 30.2199 32.136C31.6129 29.8383 32.0412 29.2111 34.1011 26.4512C36.5253 23.2035 42.0194 17.5773 45.4206 14.8597C47.9183 12.864 52.461 9.83374 55.5218 8.12158C60.8445 5.14407 67.944 2.58499 74.5793 1.25211ZM87.9848 82.7389C96.2784 82.7389 103.002 76.0247 103.002 67.7424C103.002 59.46 96.2784 52.7459 87.9848 52.7459C79.6911 52.7459 72.9677 59.46 72.9677 67.7424C72.9677 76.0247 79.6911 82.7389 87.9848 82.7389Z" fill="white"/>
</mask>
<g mask="url(#mask0_295_35889)">
<g filter="url(#filter0_f_295_35889)">
<ellipse cx="139.04" cy="106.119" rx="92.4" ry="92.9191" fill="#D9D7FF"/>
</g>
<g filter="url(#filter1_f_295_35889)">
<ellipse cx="77.4401" cy="3.9602" rx="78.32" ry="78.76" fill="#CC81F4"/>
</g>
<g filter="url(#filter2_f_295_35889)">
<ellipse cx="23.7599" cy="77.0002" rx="78.32" ry="78.76" fill="#F8C3F9"/>
</g>
<g filter="url(#filter3_f_295_35889)">
<ellipse cx="67.7599" cy="181.72" rx="78.32" ry="78.76" fill="#AEA5FF"/>
</g>
</g>
<defs>
<filter id="filter0_f_295_35889" x="-19.4275" y="-52.8672" width="316.935" height="317.973" filterUnits="userSpaceOnUse" color-interpolation-filters="sRGB">
<feFlood flood-opacity="0" result="BackgroundImageFix"/>
<feBlend mode="normal" in="SourceGraphic" in2="BackgroundImageFix" result="shape"/>
<feGaussianBlur stdDeviation="33.0337" result="effect1_foregroundBlur_295_35889"/>
</filter>
<filter id="filter1_f_295_35889" x="-56.8799" y="-130.8" width="268.64" height="269.52" filterUnits="userSpaceOnUse" color-interpolation-filters="sRGB">
<feFlood flood-opacity="0" result="BackgroundImageFix"/>
<feBlend mode="normal" in="SourceGraphic" in2="BackgroundImageFix" result="shape"/>
<feGaussianBlur stdDeviation="28" result="effect1_foregroundBlur_295_35889"/>
</filter>
<filter id="filter2_f_295_35889" x="-110.56" y="-57.7598" width="268.64" height="269.52" filterUnits="userSpaceOnUse" color-interpolation-filters="sRGB">
<feFlood flood-opacity="0" result="BackgroundImageFix"/>
<feBlend mode="normal" in="SourceGraphic" in2="BackgroundImageFix" result="shape"/>
<feGaussianBlur stdDeviation="28" result="effect1_foregroundBlur_295_35889"/>
</filter>
<filter id="filter3_f_295_35889" x="-66.5601" y="46.96" width="268.64" height="269.52" filterUnits="userSpaceOnUse" color-interpolation-filters="sRGB">
<feFlood flood-opacity="0" result="BackgroundImageFix"/>
<feBlend mode="normal" in="SourceGraphic" in2="BackgroundImageFix" result="shape"/>
<feGaussianBlur stdDeviation="28" result="effect1_foregroundBlur_295_35889"/>
</filter>
</defs>
</svg>
