<svg width="176" height="176" viewBox="0 0 176 176" fill="none" xmlns="http://www.w3.org/2000/svg">
<mask id="mask0_295_35134" style="mask-type:alpha" maskUnits="userSpaceOnUse" x="0" y="22" width="176" height="132">
<path fill-rule="evenodd" clip-rule="evenodd" d="M80.1655 23.119C75.8693 24.1179 71.9293 26.4654 69.3327 29.5731C67.9822 31.1893 66.6557 33.4908 54.8898 54.6332C53.503 57.125 51.3353 61.0084 50.0728 63.2629C48.8102 65.5174 46.6419 69.4008 45.2543 71.8926C43.8666 74.3845 41.7002 78.2679 40.4397 80.5224C39.1792 82.7769 37.0254 86.6361 35.6531 89.0981C34.281 91.5604 32.0356 95.5894 30.6635 98.0515C29.2912 100.514 27.1355 104.373 25.8731 106.627C24.6106 108.882 22.4425 112.765 21.0548 115.257C19.6671 117.749 17.4987 121.632 16.2363 123.887C13.7889 128.257 10.4284 134.283 6.42991 141.47C5.07666 143.902 3.09231 147.443 2.02046 149.337C0.9484 151.232 0.0393061 152.858 0.000115705 152.951C-0.0392889 153.044 9.9911 153.12 22.2896 153.12H44.6506L45.4614 151.63C47.6998 147.516 52.1315 142.758 56.3517 139.939C60.7703 136.986 64.5144 135.407 69.6719 134.322C71.9728 133.838 72.3722 133.825 86.8043 133.749C102.207 133.668 103.59 133.724 107.672 134.604C116.942 136.6 125.548 142.967 130.587 151.556L131.505 153.12H153.752C165.988 153.12 176 153.053 176 152.971C176 152.687 174.215 149.767 172.3 146.92C160.919 129.99 142.426 118.059 122.245 114.626C117.34 113.791 113.854 113.63 99.1183 113.556C87.1337 113.495 85.1067 113.439 83.8062 113.127C78.8063 111.928 74.7939 109.791 71.4263 106.534C66.2844 101.561 63.519 95.0647 63.5216 87.9655C63.5229 84.8679 63.7537 83.3287 64.6697 80.314C67.3849 71.377 75.086 64.4881 84.351 62.7089C85.4858 62.5502 87.8954 62.3851 90.5377 62.3139L95.3416 62.1842L95.9102 61.2084C98.2843 57.1337 102.014 50.179 102.448 49.0168C104.084 44.6378 103.936 39.3262 102.048 34.7124C100.801 31.6641 97.904 28.0694 95.2069 26.2242C93.6196 25.1383 90.8673 23.8292 89.16 23.3481C87.3937 22.8502 81.9207 22.7108 80.1655 23.119ZM122.734 52.1459C121.105 52.536 120.287 53.6276 119.902 55.9277C119.125 60.5625 116.429 65.5161 112.936 68.7251C109.789 71.6156 105.723 73.6283 101.501 74.3849C98.9322 74.8455 97.8166 75.9432 97.8006 78.0269C97.7841 80.1666 98.8887 81.2108 101.773 81.7817C104.173 82.2567 105.227 82.6157 107.612 83.7704C111.95 85.8706 115.575 89.4442 117.724 93.7371C118.815 95.9182 119.262 97.2077 119.79 99.7052C120.065 101 120.47 102.311 120.69 102.618C120.911 102.924 121.545 103.405 122.1 103.685C123.421 104.352 124.716 104.196 125.798 103.239C126.794 102.358 126.912 102.097 127.282 99.9625C128.644 92.0907 134.491 85.2754 142.13 82.6537C143.267 82.2632 144.865 81.8378 145.681 81.7083C147.439 81.4291 148.104 81.0732 148.812 80.0322C149.22 79.4322 149.338 78.9824 149.338 78.0191C149.338 75.9868 148.151 74.8183 145.645 74.3827C137.866 73.0313 131.108 67.4272 128.348 60.041C127.857 58.7261 127.38 56.8094 127.068 54.8899C126.894 53.8214 125.671 52.4473 124.635 52.1576C123.763 51.9136 123.706 51.9131 122.734 52.1459Z" fill="white"/>
</mask>
<g mask="url(#mask0_295_35134)">
<g filter="url(#filter0_f_295_35134)">
<ellipse cx="121.44" cy="94.5998" rx="78.32" ry="78.76" fill="#D9D7FF"/>
</g>
<g filter="url(#filter1_f_295_35134)">
<ellipse cx="77.4401" cy="3.9602" rx="78.32" ry="78.76" fill="#CC81F4"/>
</g>
<g filter="url(#filter2_f_295_35134)">
<ellipse cx="23.7599" cy="77.0002" rx="78.32" ry="78.76" fill="#F8C3F9"/>
</g>
<g filter="url(#filter3_f_295_35134)">
<ellipse cx="67.7599" cy="181.72" rx="78.32" ry="78.76" fill="#AEA5FF"/>
</g>
</g>
<defs>
<filter id="filter0_f_295_35134" x="-12.8799" y="-40.1602" width="268.64" height="269.52" filterUnits="userSpaceOnUse" color-interpolation-filters="sRGB">
<feFlood flood-opacity="0" result="BackgroundImageFix"/>
<feBlend mode="normal" in="SourceGraphic" in2="BackgroundImageFix" result="shape"/>
<feGaussianBlur stdDeviation="28" result="effect1_foregroundBlur_295_35134"/>
</filter>
<filter id="filter1_f_295_35134" x="-56.8799" y="-130.8" width="268.64" height="269.52" filterUnits="userSpaceOnUse" color-interpolation-filters="sRGB">
<feFlood flood-opacity="0" result="BackgroundImageFix"/>
<feBlend mode="normal" in="SourceGraphic" in2="BackgroundImageFix" result="shape"/>
<feGaussianBlur stdDeviation="28" result="effect1_foregroundBlur_295_35134"/>
</filter>
<filter id="filter2_f_295_35134" x="-110.56" y="-57.7598" width="268.64" height="269.52" filterUnits="userSpaceOnUse" color-interpolation-filters="sRGB">
<feFlood flood-opacity="0" result="BackgroundImageFix"/>
<feBlend mode="normal" in="SourceGraphic" in2="BackgroundImageFix" result="shape"/>
<feGaussianBlur stdDeviation="28" result="effect1_foregroundBlur_295_35134"/>
</filter>
<filter id="filter3_f_295_35134" x="-66.5601" y="46.96" width="268.64" height="269.52" filterUnits="userSpaceOnUse" color-interpolation-filters="sRGB">
<feFlood flood-opacity="0" result="BackgroundImageFix"/>
<feBlend mode="normal" in="SourceGraphic" in2="BackgroundImageFix" result="shape"/>
<feGaussianBlur stdDeviation="28" result="effect1_foregroundBlur_295_35134"/>
</filter>
</defs>
</svg>
