<svg width="176" height="176" viewBox="0 0 176 176" fill="none" xmlns="http://www.w3.org/2000/svg">
<mask id="mask0_295_35125" style="mask-type:alpha" maskUnits="userSpaceOnUse" x="0" y="45" width="176" height="86">
<path fill-rule="evenodd" clip-rule="evenodd" d="M74.7317 45.8409C67.4332 47.1619 63.1552 48.483 58.2924 50.9178C53.9457 53.0941 51.6818 54.5692 46.3837 58.6766C40.5156 63.2261 37.4569 65.1752 32.459 67.5506C25.9604 70.6388 18.4663 72.8663 12.9475 73.3501C10.2425 73.5871 3.73985 73.0721 1.3379 72.4307C-1.08331 71.7841 -0.210705 72.4542 3.89431 74.3939C13.6141 78.9862 28.0995 82.8352 38.2063 83.5104C42.6301 83.8061 50.5454 83.1798 54.7427 82.2024C58.36 81.3597 63.4699 78.9286 66.5544 76.583C78.1967 67.7285 84.2966 65.1992 96.2653 64.2623C97.8143 64.1409 99.082 63.9144 99.082 63.7589C99.082 63.3424 94.4431 61.3458 91.7678 60.6108C90.1225 60.1589 88.1865 59.9806 85.0897 59.9965C80.0702 60.0219 76.5703 60.7953 72.264 62.83C69.0745 64.3369 69.1988 63.8854 72.5729 61.709C82.5412 55.2781 94.3613 54.8026 107.078 60.3198C110.97 62.0087 115.115 63.2946 118.889 63.9839C122.847 64.707 131.2 64.8005 135.062 64.1652C137.815 63.7125 142.075 62.6404 141.883 62.4491C141.826 62.3922 139.725 62.0123 137.213 61.6053C125.875 59.7675 118.589 57.4461 105.806 51.598C95.6082 46.9332 91.7369 45.9761 82.3639 45.8018C78.6659 45.7329 75.2314 45.7507 74.7317 45.8409ZM74.9105 74.1902C68.9785 77.9439 65.6821 85.0724 66.7056 91.9342C68.0114 100.691 75.8689 107.584 84.5445 107.584C88.7436 107.584 93.6871 105.607 96.8843 102.649C104.577 95.532 104.663 83.7112 97.0736 76.4445C94.5681 74.0453 93.7958 73.6846 94.3664 75.1811C94.8472 76.4427 94.8127 79.1163 94.2933 80.8451C93.7322 82.7127 91.4723 85.2359 89.5138 86.1811C87.6119 87.0991 84.0524 87.1955 82.0993 86.3815C78.4559 84.8633 76.4206 81.8168 76.4173 77.8757C76.4162 76.3655 76.635 75.1035 77.0275 74.3602C78.0906 72.3444 77.8573 72.3259 74.9105 74.1902ZM127.43 92.7631C120.274 93.5485 114.587 95.8042 108.698 100.191C103.884 103.779 100.632 105.924 98.0727 107.201C92.9417 109.762 85.5767 111.581 80.3388 111.581C76.0161 111.581 76.5311 112.512 81.9448 114.482C88.7851 116.971 95.9619 116.605 103.534 113.38C105.283 112.635 106.714 112.083 106.714 112.153C106.714 112.434 102.388 115.18 100.249 116.256C98.9918 116.888 96.3751 117.84 94.434 118.371C91.3996 119.201 90.2163 119.335 85.9982 119.322C79.4091 119.302 76.8258 118.686 67.3587 114.872C59.6084 111.749 51.1334 110.606 43.1033 111.6C40.1896 111.961 34.8893 113.137 34.5204 113.505C34.4266 113.599 35.7899 113.874 37.55 114.116C48.6014 115.639 58.7998 118.814 70.3705 124.333C75.4829 126.772 79.9834 128.377 84.5659 129.396C87.7889 130.113 89.3738 130.24 95.0842 130.24C102.721 130.24 106.617 129.591 112.893 127.278C119.442 124.863 122.182 123.191 133.086 114.952C139.591 110.038 145.358 107.177 154.067 104.544C161 102.449 167.12 102.051 173.715 103.267C174.883 103.482 175.907 103.589 175.992 103.504C176.234 103.263 170.898 100.78 166.361 99.0233C161.495 97.1401 150.151 94.0309 145.238 93.2343C141.025 92.5507 131.627 92.3021 127.43 92.7631Z" fill="white"/>
</mask>
<g mask="url(#mask0_295_35125)">
<g filter="url(#filter0_f_295_35125)">
<ellipse cx="121.44" cy="94.5998" rx="78.32" ry="78.76" fill="#D9D7FF"/>
</g>
<g filter="url(#filter1_f_295_35125)">
<ellipse cx="77.4401" cy="3.9602" rx="78.32" ry="78.76" fill="#CC81F4"/>
</g>
<g filter="url(#filter2_f_295_35125)">
<ellipse cx="23.7599" cy="77.0002" rx="78.32" ry="78.76" fill="#F8C3F9"/>
</g>
<g filter="url(#filter3_f_295_35125)">
<ellipse cx="67.7599" cy="181.72" rx="78.32" ry="78.76" fill="#AEA5FF"/>
</g>
</g>
<defs>
<filter id="filter0_f_295_35125" x="-12.8799" y="-40.1602" width="268.64" height="269.52" filterUnits="userSpaceOnUse" color-interpolation-filters="sRGB">
<feFlood flood-opacity="0" result="BackgroundImageFix"/>
<feBlend mode="normal" in="SourceGraphic" in2="BackgroundImageFix" result="shape"/>
<feGaussianBlur stdDeviation="28" result="effect1_foregroundBlur_295_35125"/>
</filter>
<filter id="filter1_f_295_35125" x="-56.8799" y="-130.8" width="268.64" height="269.52" filterUnits="userSpaceOnUse" color-interpolation-filters="sRGB">
<feFlood flood-opacity="0" result="BackgroundImageFix"/>
<feBlend mode="normal" in="SourceGraphic" in2="BackgroundImageFix" result="shape"/>
<feGaussianBlur stdDeviation="28" result="effect1_foregroundBlur_295_35125"/>
</filter>
<filter id="filter2_f_295_35125" x="-110.56" y="-57.7598" width="268.64" height="269.52" filterUnits="userSpaceOnUse" color-interpolation-filters="sRGB">
<feFlood flood-opacity="0" result="BackgroundImageFix"/>
<feBlend mode="normal" in="SourceGraphic" in2="BackgroundImageFix" result="shape"/>
<feGaussianBlur stdDeviation="28" result="effect1_foregroundBlur_295_35125"/>
</filter>
<filter id="filter3_f_295_35125" x="-66.5601" y="46.96" width="268.64" height="269.52" filterUnits="userSpaceOnUse" color-interpolation-filters="sRGB">
<feFlood flood-opacity="0" result="BackgroundImageFix"/>
<feBlend mode="normal" in="SourceGraphic" in2="BackgroundImageFix" result="shape"/>
<feGaussianBlur stdDeviation="28" result="effect1_foregroundBlur_295_35125"/>
</filter>
</defs>
</svg>
