<svg width="177" height="176" viewBox="0 0 177 176" fill="none" xmlns="http://www.w3.org/2000/svg">
<mask id="mask0_295_35654" style="mask-type:alpha" maskUnits="userSpaceOnUse" x="0" y="0" width="177" height="177">
<path fill-rule="evenodd" clip-rule="evenodd" d="M0.200507 0V110.88C-1.70616 132.88 9.17651 176.704 67.9605 176C126.745 175.296 164.906 175.707 176.639 176V59.84C175.613 39.8933 162.119 0 116.359 0H0.200507ZM6.05421 94.2658L77.5458 22.7742C78.8057 21.5143 80.96 22.4066 80.96 24.1884V76.76C80.96 77.8646 81.8554 78.76 82.96 78.76H168.628C170.396 78.76 171.294 80.8858 170.062 82.1538L101.114 153.106C99.8629 154.394 97.68 153.508 97.68 151.712V99.68C97.68 98.5754 96.7846 97.68 95.68 97.68H7.46843C5.68662 97.68 4.79428 95.5257 6.05421 94.2658Z" fill="white"/>
</mask>
<g mask="url(#mask0_295_35654)">
<g filter="url(#filter0_f_295_35654)">
<ellipse cx="139.04" cy="106.119" rx="92.4" ry="92.9191" fill="#D9D7FF"/>
</g>
<g filter="url(#filter1_f_295_35654)">
<ellipse cx="77.4401" cy="3.9602" rx="78.32" ry="78.76" fill="#CC81F4"/>
</g>
<g filter="url(#filter2_f_295_35654)">
<ellipse cx="23.7599" cy="77.0002" rx="78.32" ry="78.76" fill="#F8C3F9"/>
</g>
<g filter="url(#filter3_f_295_35654)">
<ellipse cx="67.7599" cy="181.72" rx="78.32" ry="78.76" fill="#AEA5FF"/>
</g>
</g>
<defs>
<filter id="filter0_f_295_35654" x="-19.4275" y="-52.8672" width="316.935" height="317.973" filterUnits="userSpaceOnUse" color-interpolation-filters="sRGB">
<feFlood flood-opacity="0" result="BackgroundImageFix"/>
<feBlend mode="normal" in="SourceGraphic" in2="BackgroundImageFix" result="shape"/>
<feGaussianBlur stdDeviation="33.0337" result="effect1_foregroundBlur_295_35654"/>
</filter>
<filter id="filter1_f_295_35654" x="-56.8799" y="-130.8" width="268.64" height="269.52" filterUnits="userSpaceOnUse" color-interpolation-filters="sRGB">
<feFlood flood-opacity="0" result="BackgroundImageFix"/>
<feBlend mode="normal" in="SourceGraphic" in2="BackgroundImageFix" result="shape"/>
<feGaussianBlur stdDeviation="28" result="effect1_foregroundBlur_295_35654"/>
</filter>
<filter id="filter2_f_295_35654" x="-110.56" y="-57.7598" width="268.64" height="269.52" filterUnits="userSpaceOnUse" color-interpolation-filters="sRGB">
<feFlood flood-opacity="0" result="BackgroundImageFix"/>
<feBlend mode="normal" in="SourceGraphic" in2="BackgroundImageFix" result="shape"/>
<feGaussianBlur stdDeviation="28" result="effect1_foregroundBlur_295_35654"/>
</filter>
<filter id="filter3_f_295_35654" x="-66.5601" y="46.96" width="268.64" height="269.52" filterUnits="userSpaceOnUse" color-interpolation-filters="sRGB">
<feFlood flood-opacity="0" result="BackgroundImageFix"/>
<feBlend mode="normal" in="SourceGraphic" in2="BackgroundImageFix" result="shape"/>
<feGaussianBlur stdDeviation="28" result="effect1_foregroundBlur_295_35654"/>
</filter>
</defs>
</svg>
