<svg width="176" height="176" viewBox="0 0 176 176" fill="none" xmlns="http://www.w3.org/2000/svg">
<mask id="mask0_295_35143" style="mask-type:alpha" maskUnits="userSpaceOnUse" x="0" y="0" width="177" height="176">
<path fill-rule="evenodd" clip-rule="evenodd" d="M88.4204 8.26717C103.28 1.69955 106.796 0.400642 110.597 0.0738C111.718 -0.0225457 113.815 -0.0250181 114.587 0.0690944C116.193 0.264976 117.739 1.05129 118.979 2.30379C120.89 4.23302 122.22 7.64483 122.833 12.1894C123.078 14.0063 123.462 17.8373 123.675 20.6037C124.151 26.7513 124.115 28.6913 123.479 31.2212C122.695 34.3406 121.039 37.126 118.298 39.9352C115.963 42.3285 113.102 44.5037 109.228 46.8298C104.268 49.8084 96.2335 53.6902 81.7654 60.0979C74.935 63.123 73.4796 63.7837 71.5875 64.7182C66.5139 67.2238 64.6316 68.779 63.2 71.6478C61.7452 74.5633 61.1292 79.1307 61.2585 86.0438C61.3292 89.8238 61.4194 91.4672 61.9079 97.8877C62.058 99.8616 62.3623 103.971 62.5839 107.02C62.8055 110.068 63.344 117.408 63.7808 123.33C65.4756 146.314 65.4954 146.768 64.9345 149.819C63.955 155.147 61.758 159.751 58.1269 164.085C56.8595 165.598 54.5243 167.861 52.9734 169.08C48.8772 172.297 43.5051 174.7 38.648 175.487C36.1643 175.89 35.3161 175.949 31.444 175.988C27.5262 176.027 26.8231 175.99 24.8194 175.64C19.6194 174.734 14.625 172.487 10.5132 169.205C9.26867 168.211 6.94162 165.897 6.00727 164.723C2.48603 160.3 0.428557 155.128 0.0434131 149.732C-0.257428 145.517 1.02194 140.445 3.36367 136.57C4.40162 134.852 6.14142 132.713 7.56747 131.402C9.92714 129.233 12.093 127.785 15.4082 126.161C18.2307 124.778 19.518 124.292 21.3899 123.902C24.7237 123.242 25.2337 123.251 27.5751 123.293C28.8186 123.315 30.5787 123.346 33.5527 123.291C41.4076 123.222 42.1854 123.19 43.1345 122.892C44.7787 122.376 46.2731 120.938 47.0419 119.131C47.6559 117.688 47.7919 116.377 47.7234 112.563C47.6674 109.442 47.6118 108.48 46.912 98.5257C46.6283 94.49 46.1975 88.3169 45.9548 84.8076C45.2759 74.994 44.7475 67.5904 44.4007 63.0341C43.6655 53.3754 43.4961 50.2343 43.4885 46.1258C43.482 42.5709 43.5337 41.7269 43.8856 39.6379C45.0769 32.5663 48.1157 28.2284 54.8615 23.9693C57.1785 22.5064 61.2606 20.4023 65.4951 18.4881C68.4168 17.1674 83.7432 10.3343 88.4204 8.26717ZM151.257 45.6026C153.421 35.2245 153.473 35.055 154.608 34.4856C155.123 34.2272 155.67 34.2647 156.069 34.5855C156.478 34.9143 156.885 35.4738 157.229 36.1808C157.572 36.8852 157.754 37.3711 160.139 43.9173C161.106 46.5715 161.943 48.767 161.999 48.7963C162.055 48.8256 163.928 49.1091 166.161 49.4264C170.604 50.0577 172.891 50.4409 174.236 50.7792C175.236 51.0306 175.484 51.2058 175.825 51.9036C176.002 52.2637 176.019 52.3759 175.988 52.9228C175.962 53.3711 175.911 53.5935 175.801 53.7447C175.388 54.3133 174.415 54.8318 165.87 59.0371C163.233 60.3347 163.044 60.4413 162.941 60.6866C162.663 61.3534 161.899 64.6276 160.911 69.387C160.329 72.193 159.731 74.6669 159.466 75.3618C159.033 76.4967 158.614 76.8938 157.85 76.8938C157.316 76.8938 157.024 76.7526 156.614 76.2964C155.981 75.5918 155.282 73.995 153.558 69.3104C152.523 66.4983 151.549 64.0583 151.122 63.2083L150.808 62.5836L150.135 62.4268C149.082 62.1814 147.019 61.8397 144.062 61.4205C139.637 60.7934 138.514 60.568 137.837 60.1713C136.947 59.6496 136.617 58.2838 137.165 57.3836C137.419 56.9655 139.377 55.9001 143.334 54.026C144.64 53.4075 146.715 52.4087 147.946 51.8065C149.789 50.9041 150.19 50.6798 150.225 50.5316C150.248 50.4327 150.713 48.2147 151.257 45.6026ZM117.683 69.5509C118.182 69.1065 118.812 68.7738 119.393 68.6488C119.985 68.5211 120.382 68.5251 121.066 68.6658C121.924 68.8423 122.592 69.2218 123.21 69.883C123.493 70.1861 123.821 70.6113 123.939 70.8279C124.057 71.0445 124.441 72.024 124.793 73.0045C125.145 73.985 125.99 76.3039 126.672 78.1577C127.353 80.0114 128.875 84.165 130.053 87.388C133.082 95.6679 133.665 97.0917 134.144 97.3625C134.569 97.6028 135.257 97.7223 140.002 98.3803C154.68 100.416 157.852 100.917 159.444 101.449C160.523 101.81 161.035 102.238 161.514 103.182C161.857 103.857 161.984 104.397 161.985 105.184C161.987 106.555 161.323 107.819 160.124 108.73C159.479 109.22 157.347 110.264 144.023 116.612C136.618 120.14 135.571 120.667 135.476 120.913C135.248 121.5 134.514 124.986 132.227 136.335C130.178 146.505 129.25 150.537 128.736 151.501C128.282 152.353 127.501 152.994 126.571 153.277C126.133 153.41 125.912 153.43 125.23 153.399C123.954 153.34 123.228 152.976 122.442 152.001C121.889 151.315 121.488 150.414 120.48 147.596C119.976 146.184 118.713 142.72 117.675 139.897L115.055 132.774C113.486 128.506 112.126 125.06 111.932 124.859C111.81 124.732 111.598 124.683 109.745 124.349C107.596 123.962 104.511 123.487 99.0348 122.698C88.9065 121.239 86.5122 120.879 85.6708 120.321C85.627 120.292 85.5822 120.263 85.5367 120.233C84.7072 119.69 83.6241 118.982 83.6241 116.823C83.6241 116.02 84.1219 114.483 84.933 113.789C85.5646 113.248 86.5324 112.765 88.776 111.643C89.1532 111.455 89.5664 111.248 90.0202 111.021C92.7997 109.625 94.5587 108.773 100.936 105.732C102.853 104.818 105.734 103.425 107.339 102.635L110.257 101.199L110.422 100.594C110.755 99.3756 111.614 95.3827 113.032 88.4604C116.602 71.0359 116.767 70.3673 117.683 69.5509Z" fill="white"/>
</mask>
<g mask="url(#mask0_295_35143)">
<g filter="url(#filter0_f_295_35143)">
<ellipse cx="121.44" cy="94.5998" rx="78.32" ry="78.76" fill="#D9D7FF"/>
</g>
<g filter="url(#filter1_f_295_35143)">
<ellipse cx="77.4401" cy="3.9602" rx="78.32" ry="78.76" fill="#CC81F4"/>
</g>
<g filter="url(#filter2_f_295_35143)">
<ellipse cx="23.7599" cy="77.0002" rx="78.32" ry="78.76" fill="#F8C3F9"/>
</g>
<g filter="url(#filter3_f_295_35143)">
<ellipse cx="67.7599" cy="181.72" rx="78.32" ry="78.76" fill="#AEA5FF"/>
</g>
</g>
<defs>
<filter id="filter0_f_295_35143" x="-12.8799" y="-40.1602" width="268.64" height="269.52" filterUnits="userSpaceOnUse" color-interpolation-filters="sRGB">
<feFlood flood-opacity="0" result="BackgroundImageFix"/>
<feBlend mode="normal" in="SourceGraphic" in2="BackgroundImageFix" result="shape"/>
<feGaussianBlur stdDeviation="28" result="effect1_foregroundBlur_295_35143"/>
</filter>
<filter id="filter1_f_295_35143" x="-56.8799" y="-130.8" width="268.64" height="269.52" filterUnits="userSpaceOnUse" color-interpolation-filters="sRGB">
<feFlood flood-opacity="0" result="BackgroundImageFix"/>
<feBlend mode="normal" in="SourceGraphic" in2="BackgroundImageFix" result="shape"/>
<feGaussianBlur stdDeviation="28" result="effect1_foregroundBlur_295_35143"/>
</filter>
<filter id="filter2_f_295_35143" x="-110.56" y="-57.7598" width="268.64" height="269.52" filterUnits="userSpaceOnUse" color-interpolation-filters="sRGB">
<feFlood flood-opacity="0" result="BackgroundImageFix"/>
<feBlend mode="normal" in="SourceGraphic" in2="BackgroundImageFix" result="shape"/>
<feGaussianBlur stdDeviation="28" result="effect1_foregroundBlur_295_35143"/>
</filter>
<filter id="filter3_f_295_35143" x="-66.5601" y="46.96" width="268.64" height="269.52" filterUnits="userSpaceOnUse" color-interpolation-filters="sRGB">
<feFlood flood-opacity="0" result="BackgroundImageFix"/>
<feBlend mode="normal" in="SourceGraphic" in2="BackgroundImageFix" result="shape"/>
<feGaussianBlur stdDeviation="28" result="effect1_foregroundBlur_295_35143"/>
</filter>
</defs>
</svg>
