<svg width="176" height="176" viewBox="0 0 176 176" fill="none" xmlns="http://www.w3.org/2000/svg">
<mask id="mask0_295_36007" style="mask-type:alpha" maskUnits="userSpaceOnUse" x="0" y="5" width="176" height="166">
<path fill-rule="evenodd" clip-rule="evenodd" d="M49.4115 26.2276C37.8259 29.9833 29.4421 34.9025 20.6213 43.1202C7.9623 54.913 1.39909 71.7608 3.76769 86.3824C4.91564 93.4687 7.58132 98.3019 12.2044 101.679C14.7663 103.551 16.0641 104.087 20.0116 104.905C22.2072 105.361 31.752 103.81 34.9028 102.487C40.4199 100.169 48.7505 95.6136 54.9933 91.501C61.4904 87.2203 80.4944 73.6917 84.1935 70.7143C88.5592 67.1996 114.463 48.6417 118.486 46.1463C120.981 44.5987 123.271 43.0249 123.575 42.6491C124.035 42.0806 123.098 41.2277 117.997 37.5683C114.626 35.1496 109.529 32.012 106.67 30.5957C101.964 28.2645 92.4545 24.7695 90.0152 24.4743C89.4818 24.41 87.3951 24.0487 85.3777 23.6723C80.35 22.7338 77.7143 22.5289 71.7517 22.6134C65.5472 22.7013 55.0521 24.3991 49.4115 26.2276ZM167.783 7.07076C164.86 8.36288 164.513 8.57278 160.413 11.5152L157.212 13.8133L151.1 13.5316C147.739 13.3772 144.81 13.3486 144.592 13.469C144.375 13.5893 146.061 15.2041 148.34 17.0576C154.145 21.7787 159.792 28.2613 162.584 33.4111C163.573 35.2336 164.774 35.4564 164.5 33.7659C164.403 33.1669 164.408 32.043 164.511 31.268C164.692 29.9112 164.889 26.7348 164.99 23.5393C165.021 22.5454 165.486 21.6151 166.323 20.8739C168.53 18.9185 172.208 13.5624 173.729 10.0922C175.975 4.96401 175.975 4.96633 172.866 5.5209C171.412 5.78017 169.125 6.47775 167.783 7.07076ZM142.211 34.126C138.915 37.193 130.114 45.2915 122.653 52.1223C115.192 58.9529 102.619 70.4819 94.7128 77.7417C77.1068 93.9098 75.73 95.1721 65.6413 104.403C52.3463 116.569 31.9432 135.279 20.3142 145.969C15.7622 150.153 9.26552 156.101 5.87704 159.185C2.48856 162.269 -0.152992 164.887 0.00689217 165.002C0.265365 165.189 5.77181 162.474 8.01898 161.052C8.49331 160.752 9.4725 160.193 10.195 159.81C12.3727 158.655 17.9984 155.555 18.9244 154.999C19.4011 154.713 23.9949 152.035 29.133 149.047C34.2711 146.06 39.0576 143.249 39.7696 142.802C40.4816 142.355 45.2514 139.442 50.3691 136.328C55.4868 133.215 60.5449 130.101 61.6094 129.408C69.7089 124.136 74.6639 121.38 80.3894 118.963C86.91 116.21 92.8806 114.711 97.6191 114.636C107.157 114.486 113.682 118.304 118.008 126.568C119.89 130.163 120.92 137.248 120.169 141.432C118.358 151.509 112.269 160.64 102.52 167.897C99.2573 170.325 98.6206 171.52 101.305 170.175C102.006 169.824 104.263 168.706 106.321 167.69C121.621 160.138 134.141 147.009 141.467 130.834C143.405 126.555 146.342 118.317 146.214 117.521C146.189 117.367 146.42 116.294 146.727 115.135C147.809 111.058 148.423 104.695 148.528 96.4758C148.577 92.5653 146.29 78.5202 145.063 75.2026C144.544 73.8009 143.712 71.5437 143.214 70.1862C141.999 66.8758 138.79 60.4109 136.722 57.1078C135.797 55.6311 135.024 54.3168 135.003 54.1866C134.982 54.0564 135.998 52.3581 137.261 50.412C142.51 42.323 149.159 30.0475 148.959 28.8133C148.834 28.0396 148.29 28.4676 142.211 34.126Z" fill="white"/>
</mask>
<g mask="url(#mask0_295_36007)">
<g filter="url(#filter0_f_295_36007)">
<ellipse cx="139.04" cy="106.119" rx="92.4" ry="92.9191" fill="#D9D7FF"/>
</g>
<g filter="url(#filter1_f_295_36007)">
<ellipse cx="77.4401" cy="3.95995" rx="78.32" ry="78.76" fill="#CC81F4"/>
</g>
<g filter="url(#filter2_f_295_36007)">
<ellipse cx="23.7599" cy="77" rx="78.32" ry="78.76" fill="#F8C3F9"/>
</g>
<g filter="url(#filter3_f_295_36007)">
<ellipse cx="67.7599" cy="181.72" rx="78.32" ry="78.76" fill="#AEA5FF"/>
</g>
</g>
<defs>
<filter id="filter0_f_295_36007" x="-19.4273" y="-52.8675" width="316.935" height="317.973" filterUnits="userSpaceOnUse" color-interpolation-filters="sRGB">
<feFlood flood-opacity="0" result="BackgroundImageFix"/>
<feBlend mode="normal" in="SourceGraphic" in2="BackgroundImageFix" result="shape"/>
<feGaussianBlur stdDeviation="33.0337" result="effect1_foregroundBlur_295_36007"/>
</filter>
<filter id="filter1_f_295_36007" x="-56.8799" y="-130.8" width="268.64" height="269.52" filterUnits="userSpaceOnUse" color-interpolation-filters="sRGB">
<feFlood flood-opacity="0" result="BackgroundImageFix"/>
<feBlend mode="normal" in="SourceGraphic" in2="BackgroundImageFix" result="shape"/>
<feGaussianBlur stdDeviation="28" result="effect1_foregroundBlur_295_36007"/>
</filter>
<filter id="filter2_f_295_36007" x="-110.56" y="-57.76" width="268.64" height="269.52" filterUnits="userSpaceOnUse" color-interpolation-filters="sRGB">
<feFlood flood-opacity="0" result="BackgroundImageFix"/>
<feBlend mode="normal" in="SourceGraphic" in2="BackgroundImageFix" result="shape"/>
<feGaussianBlur stdDeviation="28" result="effect1_foregroundBlur_295_36007"/>
</filter>
<filter id="filter3_f_295_36007" x="-66.5601" y="46.96" width="268.64" height="269.52" filterUnits="userSpaceOnUse" color-interpolation-filters="sRGB">
<feFlood flood-opacity="0" result="BackgroundImageFix"/>
<feBlend mode="normal" in="SourceGraphic" in2="BackgroundImageFix" result="shape"/>
<feGaussianBlur stdDeviation="28" result="effect1_foregroundBlur_295_36007"/>
</filter>
</defs>
</svg>
