<svg width="176" height="176" viewBox="0 0 176 176" fill="none" xmlns="http://www.w3.org/2000/svg">
<mask id="mask0_295_34843" style="mask-type:alpha" maskUnits="userSpaceOnUse" x="0" y="0" width="176" height="176">
<path fill-rule="evenodd" clip-rule="evenodd" d="M157.587 3.57307C158.414 7.67661 158.075 10.8934 156.4 14.8368C154.652 18.9513 151.561 22.1983 147.209 24.4896C139.561 28.5166 138.404 29.3015 136.212 31.9475C132.272 36.7039 131.18 42.8649 133.353 48.0819C134.442 50.695 134.276 50.5512 146.717 59.6969C151.403 63.1418 151.876 63.374 154.025 63.278C165.141 62.782 172.938 53.7814 175.12 40.9199C176.244 34.292 176.407 28.0052 173.467 20.1235C171.446 14.7072 170.671 13.3378 167.255 9.14306C164.844 6.18382 162.223 3.59858 160.402 2.3838C158.781 1.3017 157.338 0.405033 157.197 0.390731C157.056 0.376429 157.232 1.80848 157.587 3.57307ZM75.9362 1.73578C66.3401 2.22683 56.9787 4.24159 49.465 7.43154C25.7929 17.4829 8.49731 38.0255 2.2085 63.5595C0.861388 69.0288 -0.147571 83.5096 0.452591 88.7628C2.28569 104.813 8.22307 118.827 18.6333 131.676C25.3111 139.919 31.1822 145.159 39.5901 150.381C44.4047 153.371 52.6145 157.547 53.891 157.655C54.218 157.683 55.5028 155.317 56.7459 152.396C61.2829 141.736 71.0447 123.702 80.043 109.356L84.8427 101.704L83.0968 99.8071C82.1366 98.7637 80.7992 96.4428 80.1248 94.6489C79.1024 91.9321 78.9603 90.7842 79.2704 87.7663C79.7555 83.0463 81.5185 80.0043 85.4443 77.1144C89.9419 73.803 94.5208 73.2508 100.024 75.3561C102.65 76.3603 102.75 76.3601 103.701 75.3417C104.239 74.766 107.401 71.2165 110.726 67.4539L116.773 60.6127L114.047 59.3671C108.804 56.9713 105.626 53.3489 104.259 48.2121C103.129 43.959 103.75 40.4023 106.894 33.1239C111.204 23.1476 111.265 17.5418 107.126 11.8405C102.105 4.92572 90.031 1.01427 75.9362 1.73578ZM67.2109 13.9453C60.9071 14.5332 55.3346 20.3443 54.6561 27.0375C54.1694 31.8393 57.0806 37.6231 61.2987 40.2355C63.9812 41.8969 69.7767 42.6774 72.6847 41.769C81.8172 38.9171 85.5666 27.6205 79.9879 19.7645C77.1786 15.8084 72.0892 13.4901 67.2109 13.9453ZM33.8751 35.8071C30.1674 36.7273 27.5252 38.5483 25.2968 41.7202C23.7389 43.9376 23.4011 44.8824 23.0749 47.9338C22.3928 54.3134 25.3273 59.7666 30.7606 62.2173C33.6972 63.5415 39.1174 63.8303 41.704 62.8006C46.0523 61.0694 50.2199 55.6265 50.6811 51.077C51.6314 41.7016 42.7263 33.6106 33.8751 35.8071ZM127.156 55.6995C126.097 57.0281 125.369 58.286 125.539 58.4957C125.709 58.7049 130.709 62.541 136.652 67.0201L147.456 75.1637L149.095 72.6763C149.995 71.308 150.763 69.9596 150.799 69.6795C150.836 69.3993 148.667 67.5681 145.98 65.6105C143.293 63.6529 138.486 60.0879 135.296 57.6887C132.108 55.2895 129.405 53.3169 129.29 53.3052C129.175 53.2936 128.214 54.3709 127.156 55.6995ZM119.959 64.9574L117.84 67.4157L129.065 76.0148C135.238 80.745 140.53 84.7039 140.824 84.8132C141.302 84.9913 144.952 79.7528 144.619 79.3666C144.419 79.1336 123.866 63.6915 122.9 63.0469C122.238 62.6062 121.663 62.9794 119.959 64.9574ZM112.108 73.8279C109.45 76.8453 104.321 83.3857 104.278 83.8128C104.261 83.9814 106.442 85.7974 109.125 87.8474C111.807 89.8979 117.419 94.2223 121.595 97.4575C125.771 100.693 129.358 103.187 129.566 103.002C129.774 102.815 131.872 99.723 134.228 96.1295L138.512 89.5958L126.852 80.6718C120.439 75.7635 114.994 71.6538 114.751 71.5388C114.507 71.4243 113.318 72.4542 112.108 73.8279ZM145.182 88.5996C135.78 103.578 122.364 122.798 114.389 132.714L110.06 138.096L111.178 140.241C114.365 146.355 123.704 147.249 132.097 142.244C138.53 138.409 146.337 128.25 150.226 118.655C152.883 112.099 154.14 103.119 153.251 97.0378C152.605 92.6182 150.192 84.7688 149.152 83.7043C148.755 83.2982 147.666 84.6417 145.182 88.5996ZM21.4342 74.0392C15.897 75.9863 12.489 80.7285 12.3101 86.7374C12.1848 90.9333 13.1932 93.803 15.8208 96.7286C18.4499 99.6558 20.3719 100.589 24.6733 101.025C30.4724 101.613 35.155 99.1571 38.1715 93.9473C39.5906 91.4955 40.3076 85.8132 39.5255 83.2151C37.9739 78.0606 32.9344 74.0007 27.3916 73.4389C24.9991 73.1964 23.3621 73.3613 21.4342 74.0392ZM99.7264 89.4063C95.7733 94.0576 82.2634 115.009 75.2891 127.305C66.6524 142.53 58.3064 160.361 56.1278 168.241C55.3021 171.227 55.2798 171.791 55.9371 173.067C58.4601 177.96 63.7837 175.763 77.9983 163.96C91.7835 152.513 105.232 137.297 120.975 115.335C124.908 109.849 126.236 107.64 125.836 107.25C125.534 106.954 122.077 104.238 118.153 101.214C114.229 98.1901 110.272 95.121 109.358 94.3946C105.666 91.4582 101.286 88.145 101.069 88.1229C100.941 88.11 100.337 88.6878 99.7264 89.4063ZM42.4643 108.793C34.8756 110.771 30.3321 119.395 32.9233 126.905C34.8272 132.422 38.9051 135.69 44.6093 136.269C52.5613 137.075 59.0886 131.708 59.9305 123.671C60.4685 118.535 58.4188 114.151 53.9274 110.831C51.321 108.904 45.8028 107.923 42.4643 108.793Z" fill="white"/>
</mask>
<g mask="url(#mask0_295_34843)">
<g filter="url(#filter0_f_295_34843)">
<ellipse cx="130.24" cy="67.3196" rx="78.32" ry="78.76" fill="#D9D7FF"/>
</g>
<g filter="url(#filter1_f_295_34843)">
<ellipse cx="77.4401" cy="3.9602" rx="78.32" ry="78.76" fill="#CC81F4"/>
</g>
<g filter="url(#filter2_f_295_34843)">
<ellipse cx="23.7599" cy="77.0002" rx="78.32" ry="78.76" fill="#F8C3F9"/>
</g>
<g filter="url(#filter3_f_295_34843)">
<ellipse cx="67.7599" cy="181.72" rx="78.32" ry="78.76" fill="#AEA5FF"/>
</g>
</g>
<defs>
<filter id="filter0_f_295_34843" x="-4.08008" y="-67.4404" width="268.64" height="269.52" filterUnits="userSpaceOnUse" color-interpolation-filters="sRGB">
<feFlood flood-opacity="0" result="BackgroundImageFix"/>
<feBlend mode="normal" in="SourceGraphic" in2="BackgroundImageFix" result="shape"/>
<feGaussianBlur stdDeviation="28" result="effect1_foregroundBlur_295_34843"/>
</filter>
<filter id="filter1_f_295_34843" x="-56.8799" y="-130.8" width="268.64" height="269.52" filterUnits="userSpaceOnUse" color-interpolation-filters="sRGB">
<feFlood flood-opacity="0" result="BackgroundImageFix"/>
<feBlend mode="normal" in="SourceGraphic" in2="BackgroundImageFix" result="shape"/>
<feGaussianBlur stdDeviation="28" result="effect1_foregroundBlur_295_34843"/>
</filter>
<filter id="filter2_f_295_34843" x="-110.56" y="-57.7598" width="268.64" height="269.52" filterUnits="userSpaceOnUse" color-interpolation-filters="sRGB">
<feFlood flood-opacity="0" result="BackgroundImageFix"/>
<feBlend mode="normal" in="SourceGraphic" in2="BackgroundImageFix" result="shape"/>
<feGaussianBlur stdDeviation="28" result="effect1_foregroundBlur_295_34843"/>
</filter>
<filter id="filter3_f_295_34843" x="-66.5601" y="46.96" width="268.64" height="269.52" filterUnits="userSpaceOnUse" color-interpolation-filters="sRGB">
<feFlood flood-opacity="0" result="BackgroundImageFix"/>
<feBlend mode="normal" in="SourceGraphic" in2="BackgroundImageFix" result="shape"/>
<feGaussianBlur stdDeviation="28" result="effect1_foregroundBlur_295_34843"/>
</filter>
</defs>
</svg>
