<svg width="176" height="176" viewBox="0 0 176 176" fill="none" xmlns="http://www.w3.org/2000/svg">
<mask id="mask0_295_35728" style="mask-type:alpha" maskUnits="userSpaceOnUse" x="0" y="1" width="176" height="174">
<path fill-rule="evenodd" clip-rule="evenodd" d="M108.469 1.99593C104.44 2.82192 102.369 4.55786 97.1451 11.4903C95.4501 13.74 93.1805 16.7174 92.1016 18.1069C88.4053 22.8682 73.9232 41.9002 52.6477 69.9566C47.9512 76.1497 45.869 78.8849 40.8602 85.4403C38.6105 88.3843 34.8747 93.3051 32.5584 96.3749C30.2419 99.4448 28.1917 101.957 28.0026 101.957C27.5703 101.957 27.1933 100.566 26.4274 96.1469C24.7617 86.5367 25.2935 74.1633 27.7476 65.4237C28.7998 61.6765 29.0384 59.8186 28.7259 57.8052C28.3031 55.0802 27.4548 53.3053 25.4323 50.9144C22.7505 47.7442 17.9224 46.0355 13.9613 46.8547C10.0448 47.6646 6.80825 50.1459 5.00951 53.7177C3.20235 57.3067 1.41877 65.6686 0.289144 75.8513C-0.0967816 79.3302 -0.0963009 89.9925 0.290106 92.5732C1.33865 99.5793 1.65287 101.375 2.38863 104.571C4.03267 111.713 6.77746 119.032 10.4762 126.137C14.6201 134.097 17.2184 137.047 21.4364 138.578C24.6619 139.748 27.8876 139.486 31.1148 137.79C33.9484 136.301 34.5174 135.625 48.4083 117.235C50.4575 114.522 53.0678 111.112 54.2095 109.656C55.3509 108.2 57.0993 105.927 58.0952 104.603C65.1001 95.2942 67.0571 92.7135 70.5933 88.122C76.801 80.0619 78.5146 77.818 82.9961 71.8814C85.2936 68.8378 88.4325 64.7235 89.9713 62.7385C91.51 60.7536 94.563 56.7476 96.7554 53.8363C98.948 50.925 103.343 45.1325 106.521 40.9641C119.692 23.6939 121.122 21.7626 121.933 20.152C123.546 16.9489 123.912 13.9187 123.028 11.0945C121.026 4.69909 114.668 0.725313 108.469 1.99593ZM144.631 18.8121C141.391 19.8481 139.594 21.5068 134.652 28.023C132.823 30.4346 129.594 34.694 127.477 37.4886C120.445 46.7703 112.623 57.0538 107.291 64.0277C104.393 67.8179 99.8505 73.7882 97.1971 77.295C94.5435 80.8017 90.2521 86.4318 87.6606 89.8063C85.0688 93.1807 81.6819 97.6198 80.1336 99.6709C78.5856 101.722 75.5684 105.674 73.429 108.453C71.2898 111.232 67.1204 116.7 64.1639 120.603C61.2074 124.507 57.0556 129.975 54.9373 132.754C52.8193 135.533 49.4578 139.945 47.4676 142.559C41.4679 150.44 40.8659 151.642 40.8722 155.731C40.8756 157.874 40.9646 158.459 41.4585 159.581C42.3495 161.605 43.438 163.187 44.8681 164.537C47.63 167.144 49.7851 168.043 53.3715 168.087C55.9257 168.118 56.8612 167.911 58.9777 166.845C61.974 165.337 62.1522 165.132 73.7755 149.836C78.4032 143.747 82.1157 138.878 88.2436 130.863C91.1633 127.045 95.9881 120.704 98.9655 116.773C105.11 108.661 109.853 102.428 117.019 93.0544C119.749 89.4815 123.259 84.8799 124.817 82.8288C126.376 80.7777 130.643 75.1666 134.301 70.3598C137.958 65.5529 142.888 59.0566 145.255 55.9237C147.623 52.7906 151.425 47.7904 153.704 44.8123C159.724 36.9448 160.518 35.583 161.101 32.1133C161.641 28.9053 160.327 25.2484 157.565 22.2642C155.81 20.3693 153.969 19.268 151.635 18.718C149.526 18.2209 146.346 18.2638 144.631 18.8121ZM163.501 59.3826C160.52 60.185 158.429 62.2078 152.487 70.035C150.244 72.9896 147 77.2663 145.278 79.5388C143.555 81.8115 140.946 85.2408 139.48 87.1596C138.014 89.0784 134.629 93.5175 131.959 97.0243C129.288 100.531 126.271 104.483 125.255 105.806C124.238 107.13 120.366 112.218 116.65 117.115C112.933 122.011 107.085 129.698 103.654 134.197C81.9617 162.645 83.4835 160.405 83.4657 163.912C83.4453 167.924 85.6302 171.305 89.4719 173.203C91.657 174.283 93.5659 174.497 95.8413 173.916C99.0591 173.095 100.85 171.526 105.339 165.596C106.892 163.545 111.069 158.023 114.621 153.325C123.114 142.094 131.42 131.165 142.872 116.152C148.02 109.403 153.381 102.366 154.784 100.513C158.298 95.8747 165.155 86.8692 168.755 82.165C170.401 80.0135 172.425 77.3609 173.252 76.2702C176.287 72.2707 176.781 68.7832 174.868 64.8626C173.534 62.1289 171.083 60.2098 167.852 59.3682C166.175 58.9315 165.164 58.9349 163.501 59.3826ZM165.314 107.472C164.819 107.649 164.154 107.963 163.837 108.171C162.799 108.851 160.4 111.725 155.932 117.643C152.14 122.665 146.027 130.713 135.723 144.244C132.905 147.945 132.306 149.215 132.322 151.45C132.337 153.388 133.481 155.667 135.071 156.924C138.202 159.399 142.165 159.273 145.09 156.605C145.796 155.961 148.672 152.402 151.482 148.697C154.291 144.993 158.363 139.619 160.531 136.756C162.699 133.893 166.264 129.223 168.454 126.378C173.419 119.928 174.898 117.77 175.25 116.462C176.142 113.151 173.856 108.87 170.533 107.627C168.995 107.052 166.684 106.983 165.314 107.472Z" fill="white"/>
</mask>
<g mask="url(#mask0_295_35728)">
<g filter="url(#filter0_f_295_35728)">
<ellipse cx="139.04" cy="106.119" rx="92.4" ry="92.9191" fill="#D9D7FF"/>
</g>
<g filter="url(#filter1_f_295_35728)">
<ellipse cx="77.4401" cy="3.9602" rx="78.32" ry="78.76" fill="#CC81F4"/>
</g>
<g filter="url(#filter2_f_295_35728)">
<ellipse cx="23.7599" cy="77.0002" rx="78.32" ry="78.76" fill="#F8C3F9"/>
</g>
<g filter="url(#filter3_f_295_35728)">
<ellipse cx="67.7599" cy="181.72" rx="78.32" ry="78.76" fill="#AEA5FF"/>
</g>
</g>
<defs>
<filter id="filter0_f_295_35728" x="-19.4273" y="-52.8672" width="316.935" height="317.973" filterUnits="userSpaceOnUse" color-interpolation-filters="sRGB">
<feFlood flood-opacity="0" result="BackgroundImageFix"/>
<feBlend mode="normal" in="SourceGraphic" in2="BackgroundImageFix" result="shape"/>
<feGaussianBlur stdDeviation="33.0337" result="effect1_foregroundBlur_295_35728"/>
</filter>
<filter id="filter1_f_295_35728" x="-56.8799" y="-130.8" width="268.64" height="269.52" filterUnits="userSpaceOnUse" color-interpolation-filters="sRGB">
<feFlood flood-opacity="0" result="BackgroundImageFix"/>
<feBlend mode="normal" in="SourceGraphic" in2="BackgroundImageFix" result="shape"/>
<feGaussianBlur stdDeviation="28" result="effect1_foregroundBlur_295_35728"/>
</filter>
<filter id="filter2_f_295_35728" x="-110.56" y="-57.7598" width="268.64" height="269.52" filterUnits="userSpaceOnUse" color-interpolation-filters="sRGB">
<feFlood flood-opacity="0" result="BackgroundImageFix"/>
<feBlend mode="normal" in="SourceGraphic" in2="BackgroundImageFix" result="shape"/>
<feGaussianBlur stdDeviation="28" result="effect1_foregroundBlur_295_35728"/>
</filter>
<filter id="filter3_f_295_35728" x="-66.5601" y="46.96" width="268.64" height="269.52" filterUnits="userSpaceOnUse" color-interpolation-filters="sRGB">
<feFlood flood-opacity="0" result="BackgroundImageFix"/>
<feBlend mode="normal" in="SourceGraphic" in2="BackgroundImageFix" result="shape"/>
<feGaussianBlur stdDeviation="28" result="effect1_foregroundBlur_295_35728"/>
</filter>
</defs>
</svg>
