<svg width="176" height="176" viewBox="0 0 176 176" fill="none" xmlns="http://www.w3.org/2000/svg">
<mask id="mask0_295_34825" style="mask-type:alpha" maskUnits="userSpaceOnUse" x="0" y="0" width="176" height="176">
<path fill-rule="evenodd" clip-rule="evenodd" d="M174.529 19.3495C169.083 18.5171 159.255 19.566 151.517 21.8051C142.516 24.4094 131.415 29.908 122.302 36.2741C117.188 39.8465 112.842 43.2349 112.868 43.6284C112.934 44.6329 128.52 38.9893 138.939 34.1889C149.179 29.4703 162.866 23.9144 169.411 21.8191C173.073 20.6464 176.038 19.6595 176 19.6254C175.961 19.591 175.299 19.4668 174.529 19.3495ZM141.47 7.17964C124.759 18.5511 112.716 29.3812 106.032 39.0484C104.138 41.7877 101.109 46.0623 99.3001 48.5475C96.3804 52.56 96.152 52.9968 97.2639 52.4493C98.3427 51.9182 103.793 47.5447 107.692 44.0813C108.951 42.9629 113.393 38.1106 122.735 27.6464C125.736 24.2859 128.83 20.9182 129.612 20.163C130.393 19.4082 133.274 16.6183 136.013 13.9633C138.752 11.3083 142.41 7.939 144.142 6.47645C145.874 5.0139 147.282 3.68815 147.272 3.53067C147.261 3.37321 144.651 5.01518 141.47 7.17964ZM112.295 6.19822C100.538 20.5448 94.4722 29.9504 90.6573 39.7505C87.2848 48.4121 81.534 59.07 76.2213 66.5024C74.8882 68.3673 73.906 69.9954 74.0385 70.1205C74.4328 70.4925 82.6209 62.8093 87.3377 57.6408C90.0501 54.6692 92.5922 51.467 93.9941 49.2567C95.2416 47.2902 100.37 37.1251 105.39 26.6679C110.411 16.2109 115.279 6.08564 116.208 4.16766C117.137 2.24968 117.89 0.39162 117.883 0.0386079C117.874 -0.343915 115.617 2.14549 112.295 6.19822ZM163.611 58.6148C156.668 58.3903 142.824 55.9194 135.271 53.5564C122.669 49.6133 111.443 49.9123 102.581 54.4263C101.286 55.0853 99.8848 56.0342 99.4661 56.5347C98.7447 57.3972 98.8189 57.4203 100.885 56.976C105.384 56.0083 112.605 56.9461 121.879 59.7017C129.972 62.1067 135.669 62.8844 143.354 62.6324C150.035 62.414 159.749 61.021 163.818 59.6984C166.292 58.8942 166.255 58.7003 163.611 58.6148ZM93.2356 11.0711C84.7879 20.2419 76.5662 32.2996 71.7654 42.5577C69.8517 46.647 69.2214 48.4427 64.4762 63.3209C63.1915 67.3481 61.0235 73.5904 59.6585 77.1925L57.1763 83.7417L60.0386 79.9017C65.4134 72.6917 71.3812 61.7685 74.4545 53.515C80.1567 38.2023 86.7566 24.4874 93.8404 13.2296C98.8295 5.30197 98.7638 5.06916 93.2356 11.0711ZM151.624 68.7115C147.722 69.4509 139.679 69.622 135.219 69.0597C133.355 68.825 127.216 67.4541 121.576 66.0141C115.937 64.5739 109.593 63.118 107.478 62.7791C102.65 62.0045 94.163 62.2048 90.7912 63.1724C88.2937 63.8891 83.1856 66.4985 82.3686 67.4754C82.1453 67.7423 83.7969 67.8234 86.0387 67.6549C93.0512 67.1287 99.9176 68.1312 112.259 71.4821C116.675 72.6814 122.163 73.8453 124.454 74.0694C129.701 74.5821 137.203 74.0403 142.812 72.7438C147.198 71.7295 154.799 68.9822 154.762 68.4245C154.751 68.2572 153.339 68.3864 151.624 68.7115ZM66.5032 16.2869C66.3785 16.436 64.7445 20.0148 62.8721 24.2396C53.7499 44.8221 48.8599 60.5575 47.1947 74.6875C46.0292 84.5779 44.2319 95.1652 42.8904 100.046C41.8041 103.997 41.6382 104.298 37.8571 109.175C35.7067 111.949 33.9108 114.184 33.866 114.142C33.8216 114.1 34.1551 113.057 34.608 111.825C38.9453 100.024 40.5145 92.4865 41.1011 80.6406C41.46 73.3887 41.6632 62.2855 41.6207 52.2345C41.6035 48.2014 41.644 41.154 41.7101 36.5733C41.7766 31.9929 41.6954 28.4068 41.5303 28.6042C41.068 29.1568 36.0829 50.3137 34.9321 56.6063C33.4763 64.5659 31.3894 81.7966 31.0194 88.9104C30.8459 92.2397 30.6009 96.9628 30.4746 99.4062C30.0657 107.317 28.9511 118.624 28.3059 121.402C28.0937 122.317 26.7807 124.936 25.388 127.223C23.9957 129.509 21.7706 133.427 20.4431 135.93C19.1157 138.433 17.9867 140.439 17.9334 140.389C17.8801 140.339 18.4906 137.531 19.29 134.148C23.2117 117.554 23.8836 104.905 21.7453 87.9333C20.0196 74.2347 19.4613 61.84 20.0839 51.0596C20.2248 48.6235 20.2575 46.7289 20.1569 46.8492C19.7246 47.366 16.115 63.0584 15.1363 68.6769C12.0776 86.2342 11.8529 96.5374 14.1899 112.086C15.6805 122.001 16.3295 133.27 15.8322 140.601C15.5558 144.675 15.1537 146.445 13.7237 149.878C10.4982 157.622 6.56298 170.252 5.98842 174.705C5.83529 175.893 5.90787 175.998 6.88729 176C7.89136 176.002 8.04889 175.603 9.61384 169.097C10.5274 165.298 12.1757 159.706 13.277 156.669C15.0727 151.716 15.4762 150.961 17.1868 149.353C20.6244 146.118 25.4812 143.791 31.4626 142.511C34.9746 141.76 38.5843 141.514 54.5638 140.94C65.3169 140.554 72.7906 139.019 81.0683 135.499C88.4476 132.36 89.4118 131.7 85.9458 132.162C79.9861 132.956 76.6371 133.086 62.0221 133.09C40.977 133.096 37.1325 133.455 30.9346 135.992C27.7394 137.3 21.6812 141.496 19.8765 143.651C19.1001 144.578 18.3334 145.212 18.1725 145.06C17.7577 144.669 23.5543 133.757 27.8358 126.869C32.8257 118.842 36.4292 113.853 43.137 105.684L48.8937 98.6741L52.1434 97.9876C56.9345 96.9754 64.1451 96.9569 74.0601 97.9315C88.6342 99.3641 97.9711 99.0522 106.278 96.8547C109.234 96.0727 114.487 94.1168 114.874 93.6539C114.984 93.5229 112.604 93.4909 109.586 93.5821C99.6057 93.8854 89.9247 92.8489 77.7638 90.1762C68.1884 88.0715 61.1486 88.9453 55.1873 92.9789L53.4236 94.1726L55.0373 92.2023C55.9248 91.1186 58.1988 88.6916 60.0907 86.809C62.9981 83.9147 64.0413 83.1703 66.839 81.9938C71.388 80.0799 77.2989 80.0062 86.0123 81.7543C93.2016 83.1966 100.411 84.2893 104.729 84.5901C109.929 84.9529 119.004 84.1603 123.326 82.9661C130.747 80.9165 130.611 80.6302 121.81 79.7717C113.2 78.9312 103.043 77.6278 91.808 75.9215C83.7665 74.7 78.7772 74.5015 74.6072 75.238L71.879 75.7205L73.1732 74.5518C76.3686 71.6662 88.7187 61.584 91.4434 59.6368C93.1001 58.4527 94.4458 57.3357 94.4342 57.1552C94.4083 56.7681 93.2839 57.5292 85.8369 62.9744C71.8651 73.1911 60.1458 83.6044 49.7202 95.0661C47.1401 97.9029 44.9497 100.236 44.8533 100.251C44.7563 100.266 45.4593 98.7862 46.4158 96.9623C48.9001 92.2252 51.7099 85.486 53.4728 80.0364C55.1731 74.7786 56.5603 68.3364 60.6523 46.6936C62.1935 38.5422 63.8589 29.9681 64.3535 27.6404C64.8478 25.3124 65.5831 21.8623 65.9872 19.9731C66.7924 16.2086 66.8375 15.8872 66.5032 16.2869ZM101.37 104.233C93.3392 104.287 82.9583 103.776 74.4435 102.907C61.6802 101.603 55.5946 102.292 49.1106 105.775C45.4087 107.762 40.1305 112.107 37.4907 115.339L35.7329 117.491L37.9152 116.237C40.8194 114.569 46.0688 112.551 49.9651 111.604C55.4646 110.269 61.5748 109.861 71.7308 110.151C82.8639 110.469 91.0022 110.018 96.2853 108.792C99.789 107.979 106.891 105.09 106.851 104.494C106.841 104.33 104.374 104.213 101.37 104.233ZM95.2653 117.316C91.9911 117.292 84.8144 116.976 79.318 116.613C57.2257 115.154 45.6035 117.529 33.3201 126.011C30.7775 127.766 21.6795 137.068 22.5026 137.07C22.6939 137.071 24.4317 135.824 26.3649 134.3C30.501 131.039 36.6176 127.745 41.4514 126.176C46.319 124.596 54.1776 124.047 60.9171 124.816C70.8105 125.945 81.9915 124.53 92.4859 120.82C95.1586 119.876 98.2926 118.781 99.4504 118.39C100.608 117.998 101.48 117.605 101.387 117.518C101.295 117.431 98.5395 117.34 95.2653 117.316ZM8.5438 63.2581C6.66142 68.5575 5.84978 71.2357 4.37455 77.0151C2.34937 84.9487 0.731582 94.4327 0.257293 101.151C-0.479823 111.591 0.188855 117.426 4.61965 139.235C5.70381 144.571 6.72823 149.759 6.89617 150.764C7.47865 154.247 7.85971 161.033 7.57623 162.867C7.07518 166.105 7.88206 164.81 8.81317 160.88C10.831 152.366 11.2477 142.971 10.1854 129.917C7.90202 101.845 7.52582 85.9386 8.71309 67.6634C9.0299 62.7851 8.99892 61.9766 8.5438 63.2581Z" fill="white"/>
</mask>
<g mask="url(#mask0_295_34825)">
<g filter="url(#filter0_f_295_34825)">
<ellipse cx="137.28" cy="63.8" rx="78.32" ry="78.76" fill="#D9D7FF"/>
</g>
<g filter="url(#filter1_f_295_34825)">
<ellipse cx="77.4401" cy="3.9602" rx="78.32" ry="78.76" fill="#CC81F4"/>
</g>
<g filter="url(#filter2_f_295_34825)">
<ellipse cx="23.7599" cy="77.0002" rx="78.32" ry="78.76" fill="#F8C3F9"/>
</g>
<g filter="url(#filter3_f_295_34825)">
<ellipse cx="67.7599" cy="181.72" rx="78.32" ry="78.76" fill="#AEA5FF"/>
</g>
</g>
<defs>
<filter id="filter0_f_295_34825" x="2.95996" y="-70.96" width="268.64" height="269.52" filterUnits="userSpaceOnUse" color-interpolation-filters="sRGB">
<feFlood flood-opacity="0" result="BackgroundImageFix"/>
<feBlend mode="normal" in="SourceGraphic" in2="BackgroundImageFix" result="shape"/>
<feGaussianBlur stdDeviation="28" result="effect1_foregroundBlur_295_34825"/>
</filter>
<filter id="filter1_f_295_34825" x="-56.8799" y="-130.8" width="268.64" height="269.52" filterUnits="userSpaceOnUse" color-interpolation-filters="sRGB">
<feFlood flood-opacity="0" result="BackgroundImageFix"/>
<feBlend mode="normal" in="SourceGraphic" in2="BackgroundImageFix" result="shape"/>
<feGaussianBlur stdDeviation="28" result="effect1_foregroundBlur_295_34825"/>
</filter>
<filter id="filter2_f_295_34825" x="-110.56" y="-57.7598" width="268.64" height="269.52" filterUnits="userSpaceOnUse" color-interpolation-filters="sRGB">
<feFlood flood-opacity="0" result="BackgroundImageFix"/>
<feBlend mode="normal" in="SourceGraphic" in2="BackgroundImageFix" result="shape"/>
<feGaussianBlur stdDeviation="28" result="effect1_foregroundBlur_295_34825"/>
</filter>
<filter id="filter3_f_295_34825" x="-66.5601" y="46.96" width="268.64" height="269.52" filterUnits="userSpaceOnUse" color-interpolation-filters="sRGB">
<feFlood flood-opacity="0" result="BackgroundImageFix"/>
<feBlend mode="normal" in="SourceGraphic" in2="BackgroundImageFix" result="shape"/>
<feGaussianBlur stdDeviation="28" result="effect1_foregroundBlur_295_34825"/>
</filter>
</defs>
</svg>
