<svg width="176" height="176" viewBox="0 0 176 176" fill="none" xmlns="http://www.w3.org/2000/svg">
<mask id="mask0_295_35517" style="mask-type:alpha" maskUnits="userSpaceOnUse" x="0" y="12" width="176" height="152">
<path fill-rule="evenodd" clip-rule="evenodd" d="M39.3636 31.2174C40.8529 23.7436 35.19 14.7878 27.6859 12.7487C24.5592 11.899 24.3718 12.2833 26.9919 14.1708C30.5572 16.7393 31.5855 18.0146 32.475 20.9746C34.166 26.6024 31.7983 31.9451 23.0796 42.1736C16.6488 49.7173 12.9382 56.0137 12.2747 60.5072C12.226 60.8374 12.1731 61.1572 12.1206 61.4743C11.7484 63.7227 11.3983 65.8372 12.7343 70.5539C14.5711 77.0373 16.0607 78.3969 22.3278 84.1172C23.2231 84.9345 24.216 85.8407 25.3213 86.8636C28.0375 89.3767 30.8649 92.433 31.6047 93.6555C33.4454 96.695 34.0979 101.333 33.1226 104.444C31.7171 108.925 26.9831 111.93 23.5842 110.499C21.4728 109.61 20.4644 106.041 21.5212 103.198C21.9267 102.106 21.9734 101.296 21.624 101.397C20.6319 101.685 18.9641 105.418 19.3027 106.593C19.4702 107.174 19.4122 107.865 19.1739 108.129C18.1294 109.282 16.0938 103.914 16.6121 101.373C16.7782 100.559 17.6027 98.4975 18.4445 96.7932C20.2032 93.2314 20.1419 90.3828 18.2392 87.2368C16.1994 83.8651 10.4542 80.9386 5.72175 80.8611C4.71852 80.8446 5.25634 81.3439 7.68246 82.6802C10.5176 84.2417 11.1291 84.8792 11.7036 86.8726C12.3983 89.2829 11.7607 92.2291 9.49615 97.0729C8.88626 98.3767 8.00736 100.929 7.54185 102.745C6.82786 105.533 6.88438 106.688 7.90399 110.163C8.92989 113.661 9.57508 114.77 12.1914 117.534C16.001 121.56 23.0716 125.457 28.688 126.628C30.9755 127.104 32.9942 127.452 33.1739 127.4C33.353 127.348 32.4427 126.679 31.1506 125.913C28.6082 124.406 24.4843 120.083 23.9917 118.409C23.7255 117.506 24.2315 117.474 27.904 118.162C35.1013 119.511 39.5944 117.424 42.5534 111.357C46.4594 103.349 42.7802 92.6838 32.0291 80.8502L26.9676 75.2787L30.7714 77.5675C41.8047 84.2072 50.7642 93.927 52.9993 101.681C53.6257 103.855 53.9 104.158 54.9646 103.849C55.6451 103.651 56.8624 102.293 57.6697 100.831C58.4771 99.368 59.2437 98.1405 59.3733 98.1029C59.8723 97.9581 60.9375 102.759 60.7939 104.509C60.7114 105.521 60.2564 107.107 59.7837 108.034L58.9237 109.72L60.4113 109.288C62.5705 108.662 65.2881 106.615 67.007 104.321L68.5055 102.322L68.8755 103.605C69.5644 105.996 68.02 112.488 65.8092 116.496C64.599 118.69 63.7522 120.443 63.9266 120.393C64.101 120.342 65.8513 118.758 67.8159 116.871C77.8436 107.244 80.5931 91.7789 74.2921 80.4474C72.2693 76.8092 68.4485 72.8822 65.2833 71.1879L62.4525 69.6724L64.6061 72.7653C67.3257 76.6704 68.6058 82.2413 67.8809 87.02L67.3751 90.3573L65.6773 86.0639C62.9929 79.2752 59.1117 74.6337 50.6739 68.1217C40.4322 60.2173 39.0336 57.4247 42.1964 51.1967L43.2663 49.0899L41.1777 50.8541C36.9636 54.4135 35.7392 57.3021 36.8347 61.1027C37.5869 63.7127 38.2419 64.552 44.7679 71.262C48.3978 74.9942 50.5146 79.0091 49.4647 80.1687C48.7989 80.9043 37.0225 72.1383 33.5072 68.2899C26.2091 60.3011 26.2266 57.1922 33.6462 43.3178C36.5449 37.897 39.1179 32.4513 39.3636 31.2174ZM161.207 86.3484C163.176 83.7309 165.798 81.0345 167.033 80.3551C168.268 79.6757 170.013 79.1204 170.909 79.1204C172.771 79.1204 176 82.0306 176 83.709C176 87.4758 170.128 93.2031 162.432 96.9444C159.617 98.3124 150.81 102.04 142.859 105.228C134.909 108.415 126.525 112.014 124.229 113.225C118.732 116.124 113.148 121.308 109.963 126.472C108.547 128.766 107.257 130.512 107.095 130.35C106.933 130.188 107.136 128.243 107.545 126.028C109.062 117.818 113.655 113.371 126.125 108.037C147.565 98.8669 155.458 93.9869 161.207 86.3484ZM94.9004 111.155C94.8863 108.547 94.416 107.859 91.3854 106.021C88.4542 104.243 89.722 104.1 94.8672 105.629C114.041 111.326 91.7238 130.138 54.3284 139.801C22.3687 148.059 -3.71655 145.472 0.435918 134.456C1.30251 132.158 4.5919 128.473 7.82841 126.176L9.94378 124.676L7.65213 127.321C0.44649 135.638 10.187 140.569 30.6024 138.938C59.1867 136.654 94.9533 121.199 94.9004 111.155ZM47.3152 146.197C71.4981 141.162 97.4071 129.237 103.287 120.434C104.209 119.054 105.029 117.923 105.109 117.923C105.189 117.923 104.99 119.908 104.667 122.333C103.693 129.645 99.9237 136.322 92.8168 143.322C78.7362 157.191 58.1509 164.639 36.8244 163.581C25.5354 163.021 17.4611 160.63 9.89583 155.605C6.45343 153.319 1.12975 147.565 1.12975 146.131C1.12975 145.848 2.33975 146.214 3.81839 146.946C10.9972 150.5 28.0591 150.206 47.3152 146.197Z" fill="white"/>
</mask>
<g mask="url(#mask0_295_35517)">
<g filter="url(#filter0_f_295_35517)">
<ellipse cx="121.44" cy="94.5998" rx="78.32" ry="78.76" fill="#D9D7FF"/>
</g>
<g filter="url(#filter1_f_295_35517)">
<ellipse cx="77.4401" cy="3.9602" rx="78.32" ry="78.76" fill="#CC81F4"/>
</g>
<g filter="url(#filter2_f_295_35517)">
<ellipse cx="23.7599" cy="77.0002" rx="78.32" ry="78.76" fill="#F8C3F9"/>
</g>
<g filter="url(#filter3_f_295_35517)">
<ellipse cx="67.7599" cy="181.72" rx="78.32" ry="78.76" fill="#AEA5FF"/>
</g>
</g>
<defs>
<filter id="filter0_f_295_35517" x="-12.8799" y="-40.1602" width="268.64" height="269.52" filterUnits="userSpaceOnUse" color-interpolation-filters="sRGB">
<feFlood flood-opacity="0" result="BackgroundImageFix"/>
<feBlend mode="normal" in="SourceGraphic" in2="BackgroundImageFix" result="shape"/>
<feGaussianBlur stdDeviation="28" result="effect1_foregroundBlur_295_35517"/>
</filter>
<filter id="filter1_f_295_35517" x="-56.8799" y="-130.8" width="268.64" height="269.52" filterUnits="userSpaceOnUse" color-interpolation-filters="sRGB">
<feFlood flood-opacity="0" result="BackgroundImageFix"/>
<feBlend mode="normal" in="SourceGraphic" in2="BackgroundImageFix" result="shape"/>
<feGaussianBlur stdDeviation="28" result="effect1_foregroundBlur_295_35517"/>
</filter>
<filter id="filter2_f_295_35517" x="-110.56" y="-57.7598" width="268.64" height="269.52" filterUnits="userSpaceOnUse" color-interpolation-filters="sRGB">
<feFlood flood-opacity="0" result="BackgroundImageFix"/>
<feBlend mode="normal" in="SourceGraphic" in2="BackgroundImageFix" result="shape"/>
<feGaussianBlur stdDeviation="28" result="effect1_foregroundBlur_295_35517"/>
</filter>
<filter id="filter3_f_295_35517" x="-66.5601" y="46.96" width="268.64" height="269.52" filterUnits="userSpaceOnUse" color-interpolation-filters="sRGB">
<feFlood flood-opacity="0" result="BackgroundImageFix"/>
<feBlend mode="normal" in="SourceGraphic" in2="BackgroundImageFix" result="shape"/>
<feGaussianBlur stdDeviation="28" result="effect1_foregroundBlur_295_35517"/>
</filter>
</defs>
</svg>
