<svg width="176" height="176" viewBox="0 0 176 176" fill="none" xmlns="http://www.w3.org/2000/svg">
<mask id="mask0_295_35492" style="mask-type:alpha" maskUnits="userSpaceOnUse" x="12" y="0" width="151" height="176">
<path fill-rule="evenodd" clip-rule="evenodd" d="M92.8156 0.0628688C54.4652 3.94139 23.7109 30.3298 14.6205 67.1574C12.73 74.8161 12.331 78.3872 12.3204 87.735C12.3128 94.2799 12.4229 96.8006 12.8366 99.5562C14.9736 113.797 19.8603 126.432 27.6259 137.793C32.3483 144.702 39.6751 152.459 46.2643 157.527C59.1956 167.474 74.5309 173.67 91.059 175.627C95.7706 176.185 106.573 176.103 111.261 175.474C129.577 173.017 145.314 166.021 158.974 154.264C162.201 151.487 162.935 150.524 162.935 149.067C162.935 147.269 160.628 145.69 158.831 146.259C158.478 146.371 157.248 147.325 156.097 148.38C143.071 160.327 126.014 167.772 107.75 169.484C103.108 169.92 93.4875 169.68 89.1559 169.022C74.0642 166.729 60.5283 160.845 48.7529 151.459C45.2132 148.637 39.2909 142.695 36.4416 139.106C29.6481 130.549 24.3433 120.237 21.3941 109.856C20.5064 106.731 19.3494 100.832 18.8587 96.9293C18.3879 93.1827 18.3853 82.6084 18.8546 78.8326C22.0388 53.2127 36.2554 31.0945 57.9961 17.9371C67.8559 11.9696 78.7015 8.25277 91.2054 6.55548C95.3537 5.99215 106.596 6.0695 111.114 6.69208C128.032 9.02305 143.517 16.1277 156.021 27.2969C157.928 28.9997 158.504 29.3587 159.33 29.3587C161.308 29.3587 162.645 28.0864 162.641 26.2073C162.639 25.0009 161.867 24.0316 158.837 21.4271C146.03 10.4214 130.609 3.33836 113.749 0.718434C110.606 0.229825 108.178 0.0876788 101.892 0.0243405C97.544 -0.0197336 93.4597 -0.00222076 92.8156 0.0628688ZM87.9848 12.5802C76.5194 15.5822 64.9656 20.4143 55.0475 26.3561C51.4932 28.4854 50.3968 29.798 50.3968 31.9247C50.3968 34.8677 50.2946 34.7518 71.3663 55.6281C82.1419 66.3036 91.3743 75.2682 91.8825 75.549C93.8477 76.6354 96.5427 75.9124 97.6145 74.011C98.2308 72.9177 98.232 72.8596 98.225 45.2266C98.2203 27.3982 98.1108 17.0696 97.9175 16.2241C97.5322 14.5361 96.422 12.8601 95.3104 12.2869C93.6395 11.4255 92.1712 11.4842 87.9848 12.5802ZM106.128 12.2107C104.551 13.0052 103.642 14.2892 103.219 16.3233C103.001 17.37 102.927 26.4633 102.982 45.4204C103.058 71.3269 103.095 73.0531 103.589 73.9565C104.679 75.9462 107.573 76.6975 109.54 75.5014C110.662 74.8196 148.672 36.8084 149.613 35.4266C151.884 32.0957 151.057 29.3176 147.044 26.7969C137.63 20.8828 124.273 15.3432 112.086 12.2985C108.436 11.3867 107.783 11.3771 106.128 12.2107ZM112.302 19.7646C107.755 20.6131 105.931 26.7513 109.243 30.0572C111.759 32.5677 115.505 32.5793 118.012 30.0846C120.126 27.9799 120.438 25.0211 118.821 22.4131C117.511 20.3016 114.966 19.2675 112.302 19.7646ZM65.5052 31.7557C64.2571 32.171 62.9133 33.7151 62.5145 35.1926C61.382 39.3851 66.4968 42.6802 70.0014 40.0153C71.8532 38.6073 72.3453 36.3347 71.2758 34.1319C70.2722 32.0653 67.7259 31.0166 65.5052 31.7557ZM84.5058 32.6193C82.6774 33.035 80.5442 35.2001 80.1504 37.0402C79.8574 38.4103 80.0887 40.5433 80.642 41.5743C81.2021 42.6174 83.2878 44.2187 84.5157 44.5485C85.9796 44.9414 87.6121 44.738 89.1097 43.9762C90.4901 43.2736 91.0391 42.6504 91.8129 40.9067C93.8559 36.302 89.5898 31.4635 84.5058 32.6193ZM125.899 34.2743C121.092 36.5589 121.043 42.9922 125.814 45.4391C128.329 46.7283 131.705 45.8386 133.459 43.4245C134.221 42.3758 134.39 41.8442 134.477 40.2144C134.608 37.7532 133.8 36.0542 131.887 34.7682C130.215 33.6441 127.667 33.434 125.899 34.2743ZM43.2674 38.119C41.5802 38.4978 40.4732 39.6761 38.1681 43.5474C32.493 53.0785 27.757 64.5126 24.8831 75.6219C23.7261 80.0944 23.7141 81.2555 24.8056 83.0162C25.214 83.675 25.9834 84.2768 27.0614 84.7809L28.6977 85.5459H57.2434C85.166 85.5459 85.8098 85.5334 86.7467 84.9686C88.0188 84.2015 88.9896 82.2036 88.7639 80.8168C88.6705 80.243 88.2366 79.2594 87.7995 78.6304C86.4103 76.6321 48.8521 39.792 47.3478 38.9523C45.7458 38.0577 44.5902 37.8218 43.2674 38.119ZM112.222 47.524C110.854 47.8716 109.166 49.683 108.902 51.0864C108.146 55.1056 112.134 58.0755 115.791 56.2156C117.756 55.2162 118.717 53.091 118.151 50.9962C117.42 48.2899 114.934 46.834 112.222 47.524ZM44.4956 51.5067C39.8736 53.5998 40.8939 59.9473 45.944 60.5147C48.9643 60.8542 51.5418 57.9479 50.9604 54.8581C50.7054 53.5035 48.9704 51.6296 47.6263 51.2571C46.1855 50.8584 45.8717 50.8832 44.4956 51.5067ZM83.0346 53.0481C81.3385 54.2083 80.8118 55.1657 80.8118 57.0875C80.8118 59.0022 81.3423 59.9727 83.0047 61.1008C84.3398 62.0068 86.6495 62.0063 87.9989 61.1C90.7718 59.2369 90.8912 55.1485 88.2278 53.2577C86.8161 52.2557 84.3395 52.1555 83.0346 53.0481ZM65.7652 69.7741C63.0435 70.6439 61.0292 73.8499 61.505 76.5548C62.5125 82.2801 70.0438 83.7231 72.9713 78.7518C73.6207 77.6491 73.7808 77.0227 73.7717 75.6219C73.7597 73.7089 73.3001 72.591 71.9887 71.2834C70.3231 69.6232 68.0005 69.0599 65.7652 69.7741ZM44.5603 70.3689C38.8245 71.8208 38.3353 79.7357 43.8395 82.0279C47.8309 83.6901 52.2404 80.6271 52.2597 76.1786C52.2767 72.2349 48.4867 69.3748 44.5603 70.3689ZM28.0653 90.7808C25.404 91.6106 24.1597 93.2323 24.1597 95.8706C24.1597 98.8534 27.6417 110.205 30.8856 117.799C34.3111 125.817 39.6244 135.344 41.5269 136.879C42.2781 137.485 43.0045 137.771 44.0521 137.871C46.9866 138.152 46.7561 138.352 68.2225 116.935C79.0112 106.172 88.0771 96.9386 88.3687 96.4176C89.4347 94.5119 88.5613 91.9212 86.5002 90.8733C85.5642 90.3976 83.5926 90.3643 57.3898 90.3818C35.178 90.397 29.0277 90.4807 28.0653 90.7808ZM35.4535 96.5522C34.1969 97.2839 32.943 99.2862 32.943 100.562C32.943 101.615 34.0991 103.783 35.0149 104.448C38.7809 107.179 43.841 103.306 42.178 98.9649C41.1436 96.2644 37.9289 95.1112 35.4535 96.5522ZM60.8179 96.9783C57.3988 98.6581 57.4284 103.73 60.8662 105.357C62.3236 106.046 64.2741 105.969 65.444 105.175C67.1064 104.047 67.6369 103.076 67.6369 101.162C67.6369 99.2468 67.1064 98.2763 65.444 97.1482C64.2755 96.3552 62.2378 96.2804 60.8179 96.9783ZM92.0837 100.262C91.5201 100.573 82.1495 109.736 71.26 120.624C49.6502 142.23 50.2466 141.541 50.5839 144.524C50.7985 146.423 51.9128 147.636 55.3471 149.709C64.5306 155.254 75.7307 159.956 87.2119 163.087C93.6881 164.853 95.6471 164.557 97.3537 161.555L98.0856 160.268L98.1614 131.663C98.2326 104.852 98.205 102.996 97.7223 102.058C96.646 99.966 94.0904 99.152 92.0837 100.262ZM105.405 100.245C103.948 101.143 103.486 101.882 103.169 103.828C102.963 105.091 102.944 114.43 103.111 132.977L103.356 160.268L104.087 161.57C105.781 164.584 107.747 164.862 114.434 163.034C125.66 159.965 136.384 155.453 145.869 149.809C149.677 147.542 150.663 146.467 150.866 144.353C151.164 141.268 151.387 141.525 129.928 120.28C119.226 109.685 109.989 100.721 109.401 100.36C108.102 99.5638 106.583 99.52 105.405 100.245ZM46.2174 111.067C41.3606 112.254 39.7846 118.374 43.4794 121.701C45.8687 123.853 49.1071 123.868 51.6036 121.737C54.7879 119.02 54.279 113.741 50.643 111.772C49.2787 111.033 47.5103 110.751 46.2174 111.067ZM85.6154 114.09C84.148 114.851 83.0076 116.697 83.0076 118.31C83.0076 121.336 86.2106 123.675 89.1521 122.796C90.6336 122.354 92.2567 120.538 92.5109 119.037C92.8601 116.977 91.6785 114.923 89.5951 113.97C88.0425 113.259 87.1665 113.285 85.6154 114.09ZM110.818 114.661C109.505 115.552 108.791 116.578 108.579 117.881C108.328 119.423 109.154 121.409 110.459 122.401C111.343 123.073 111.795 123.199 113.339 123.199C114.725 123.199 115.371 123.052 115.997 122.598C116.968 121.892 118.141 119.746 118.141 118.674C118.141 117.5 116.924 115.389 115.828 114.663C114.459 113.756 112.153 113.755 110.818 114.661ZM122.972 128.271C121.596 128.625 120.907 129.082 119.794 130.379C116.907 133.741 118.478 138.923 122.761 140.164C124.685 140.722 126.149 140.506 127.883 139.41C129.449 138.42 130.734 136.111 130.724 134.306C130.717 133.061 129.869 130.883 129.031 129.959C127.801 128.603 124.862 127.784 122.972 128.271ZM84.0689 131.362C80.4947 132.633 78.9386 137.355 81.0475 140.532C84.2417 145.344 91.841 143.498 92.3153 137.795C92.7032 133.132 88.4427 129.808 84.0689 131.362ZM65.1483 134.533C62.7268 135.661 61.3405 137.768 61.3449 140.313C61.3545 145.831 68.3068 148.482 72.0909 144.411C73.5882 142.801 74.0996 139.893 73.2444 137.856C72.7974 136.792 70.7567 134.842 69.6521 134.423C68.6616 134.048 66.0527 134.111 65.1483 134.533ZM114.461 143.467C111.188 144.247 109.066 147.827 109.946 151.084C110.443 152.923 112.316 154.776 114.245 155.334C116.559 156.005 118.352 155.524 120.205 153.734C123.637 150.419 122.421 145.239 117.83 143.624C116.512 143.16 115.87 143.13 114.461 143.467Z" fill="white"/>
</mask>
<g mask="url(#mask0_295_35492)">
<g filter="url(#filter0_f_295_35492)">
<ellipse cx="121.44" cy="94.5998" rx="78.32" ry="78.76" fill="#D9D7FF"/>
</g>
<g filter="url(#filter1_f_295_35492)">
<ellipse cx="77.4401" cy="3.9602" rx="78.32" ry="78.76" fill="#CC81F4"/>
</g>
<g filter="url(#filter2_f_295_35492)">
<ellipse cx="23.7599" cy="77.0002" rx="78.32" ry="78.76" fill="#F8C3F9"/>
</g>
<g filter="url(#filter3_f_295_35492)">
<ellipse cx="67.7599" cy="181.72" rx="78.32" ry="78.76" fill="#AEA5FF"/>
</g>
</g>
<defs>
<filter id="filter0_f_295_35492" x="-12.8799" y="-40.1602" width="268.64" height="269.52" filterUnits="userSpaceOnUse" color-interpolation-filters="sRGB">
<feFlood flood-opacity="0" result="BackgroundImageFix"/>
<feBlend mode="normal" in="SourceGraphic" in2="BackgroundImageFix" result="shape"/>
<feGaussianBlur stdDeviation="28" result="effect1_foregroundBlur_295_35492"/>
</filter>
<filter id="filter1_f_295_35492" x="-56.8799" y="-130.8" width="268.64" height="269.52" filterUnits="userSpaceOnUse" color-interpolation-filters="sRGB">
<feFlood flood-opacity="0" result="BackgroundImageFix"/>
<feBlend mode="normal" in="SourceGraphic" in2="BackgroundImageFix" result="shape"/>
<feGaussianBlur stdDeviation="28" result="effect1_foregroundBlur_295_35492"/>
</filter>
<filter id="filter2_f_295_35492" x="-110.56" y="-57.7598" width="268.64" height="269.52" filterUnits="userSpaceOnUse" color-interpolation-filters="sRGB">
<feFlood flood-opacity="0" result="BackgroundImageFix"/>
<feBlend mode="normal" in="SourceGraphic" in2="BackgroundImageFix" result="shape"/>
<feGaussianBlur stdDeviation="28" result="effect1_foregroundBlur_295_35492"/>
</filter>
<filter id="filter3_f_295_35492" x="-66.5601" y="46.96" width="268.64" height="269.52" filterUnits="userSpaceOnUse" color-interpolation-filters="sRGB">
<feFlood flood-opacity="0" result="BackgroundImageFix"/>
<feBlend mode="normal" in="SourceGraphic" in2="BackgroundImageFix" result="shape"/>
<feGaussianBlur stdDeviation="28" result="effect1_foregroundBlur_295_35492"/>
</filter>
</defs>
</svg>
