<svg width="176" height="177" viewBox="0 0 176 177" fill="none" xmlns="http://www.w3.org/2000/svg">
<mask id="mask0_295_34930" style="mask-type:alpha" maskUnits="userSpaceOnUse" x="0" y="0" width="176" height="177">
<path fill-rule="evenodd" clip-rule="evenodd" d="M103.243 0.579393C98.755 1.80105 95.4088 3.98517 92.655 7.49043C91.0244 9.56577 88.5666 14.1092 88.1374 15.8414C88.0083 16.3622 87.7966 16.788 87.6672 16.788C87.5374 16.788 87.1371 15.9219 86.7773 14.8634C85.9068 12.3027 83.1994 8.23671 81.1775 6.45327C74.5845 0.638944 64.3465 0.94565 51.3172 7.34826C46.2423 9.84218 43.1308 12.1908 40.7667 15.3119C38.176 18.7318 37.565 20.6832 37.5561 25.5658C37.5488 29.3337 37.6428 29.9608 38.6259 32.7085C39.2187 34.3649 39.6665 35.7204 39.6211 35.7204C39.5756 35.7204 38.3936 35.192 36.9943 34.5463C33.2749 32.8296 30.4595 32.1704 26.705 32.1367C20.7513 32.0837 16.782 33.8358 12.0451 38.6092C7.16879 43.5227 3.23773 50.7938 1.02539 58.9908C-0.245154 63.6992 -0.348077 70.1548 0.789935 73.7719C2.68697 79.8007 7.47929 84.5235 14.6278 87.4088L16.8946 88.3234L15.2309 89.0438C14.316 89.4397 13.4771 89.764 13.3666 89.764C13.2561 89.764 12.0399 90.4659 10.6637 91.3233C2.47045 96.4303 0.319378 104.689 4.0322 116.786C5.94266 123.01 9.36117 129.42 12.706 133.048C14.6671 135.176 17.8343 137.167 20.5891 138.004C24.0111 139.043 28.4816 138.802 32.6674 137.352C34.3372 136.773 35.625 136.479 35.5289 136.698C35.4332 136.916 34.7974 138.36 34.1169 139.905C30.3765 148.398 31.5703 156.651 37.4483 162.935C41.2734 167.024 45.5731 169.866 52.0057 172.56C63.6247 177.425 73.0134 177.292 79.6123 172.168C82.9072 169.609 85.5003 166.043 87.2765 161.626L88.2823 159.126L88.8406 160.502C91.4956 167.054 95.3592 171.19 100.369 172.845C106.186 174.767 114.806 173.451 123.637 169.293C131.71 165.493 136.204 161.141 137.933 155.448C138.98 152.001 138.745 147.49 137.306 143.377C136.726 141.721 136.288 140.365 136.334 140.365C136.379 140.365 137.561 140.894 138.96 141.539C142.806 143.314 145.484 143.927 149.422 143.931C155.365 143.937 159.079 142.276 163.895 137.457C172.965 128.381 178.201 111.881 175.107 102.131C173.267 96.3349 168.029 91.2049 161.384 88.6886C159.35 87.9189 158.644 87.3544 159.713 87.3544C159.978 87.3544 161.62 86.6408 163.362 85.7689C170.337 82.2771 173.69 76.9298 173.69 69.2959C173.69 61.3013 168.839 49.1019 163.249 43.0373C158.279 37.646 150.913 36.054 143.287 38.7231C141.617 39.3076 140.33 39.6071 140.426 39.3882C140.521 39.1696 141.157 37.7259 141.838 36.1803C146.336 25.9657 143.673 16.3963 134.354 9.29142C125.351 2.42754 111.107 -1.56135 103.243 0.579393ZM105.574 6.50491C95.3561 8.20229 90.0757 21.909 90.8723 44.6703C91.118 51.6956 92.244 63.5453 92.7593 64.5298C92.8774 64.7559 93.7321 63.2069 94.658 61.0875C98.6118 52.0409 104.236 41.6198 106.677 38.8185C112.388 32.2651 111.366 41.5671 104.484 58.7836C103.387 61.5288 101.85 65.1487 101.069 66.8282C100.288 68.5073 99.7051 69.9376 99.7739 70.0068C99.9192 70.152 105.389 66.2685 109.706 62.9549C117.905 56.6611 126.466 48.5091 130.534 43.1213C141.689 28.345 139.869 18.3305 124.637 10.678C120.893 8.79711 116.363 7.24086 112.844 6.62745C109.626 6.06602 108.346 6.04468 105.574 6.50491ZM24.2159 38.4818C17.7844 39.5785 11.5849 46.9629 7.94089 57.868C2.59506 73.8666 9.16393 81.9163 29.8031 84.6584C33.858 85.1971 47.7372 85.1889 53.3826 84.644C60.1383 83.9923 66.4439 83.1638 66.742 82.8891C66.8952 82.7476 66.1207 82.2743 65.0209 81.8375C54.5753 77.6889 42.6351 71.3307 38.7801 67.8646C33.1207 62.7763 42.2847 63.8368 58.0296 70.0928C61.3428 71.4091 65.1135 72.9657 66.4091 73.5519C67.7048 74.1385 68.8318 74.618 68.9137 74.618C68.9956 74.618 68.0191 73.1853 66.7437 71.4339C49.89 48.2919 34.8818 36.6629 24.2159 38.4818ZM73.6757 52.9579C72.882 54.2426 76.0213 65.5225 79.5241 73.9712C80.0088 75.1406 78.6402 74.9891 76.8402 73.6748C74.9091 72.2649 74.9105 72.1633 76.8213 75.1216C77.349 75.9388 77.3197 76.0287 76.0086 77.6173C73.6978 80.4165 72.5587 83.1011 72.1746 86.6539L71.9708 88.5406L69.9054 88.9044L67.8401 89.2683L70.0345 89.7141C71.2414 89.9592 72.0933 90.2886 71.9278 90.4459C71.7622 90.6035 70.3099 91.2462 68.7006 91.8744C60.3111 95.1494 51.8535 100.191 53.2104 101.108C53.4944 101.3 54.0676 101.459 54.4844 101.463C56.5274 101.477 63.1335 99.6681 69.1409 97.4499C74.6337 95.4217 74.3205 95.4888 74.7835 96.2416C75.1256 96.7972 74.9721 97.1996 73.7735 98.8894L72.3601 100.882L74.3277 99.623L76.2956 98.3641L78.1558 99.7686C80.5086 101.545 83.0115 102.499 85.967 102.747L88.2871 102.942L88.7181 105.561L89.149 108.18L89.5983 106.115C90.3666 102.58 90.4151 102.414 90.6192 102.618C90.7287 102.727 91.8061 105.177 93.0133 108.062C96.5337 116.473 100.257 122.657 101.383 121.961C102.516 121.261 100.887 114.048 97.6167 105.283C96.669 102.743 95.9609 100.598 96.0429 100.516C96.1248 100.434 97.2301 101.108 98.4986 102.013C100.911 103.734 100.945 103.613 98.8972 100.622L97.7289 98.9156L98.9299 97.3518C100.582 95.2003 101.726 92.5897 102.158 89.9846L102.522 87.7898L105.318 87.2979L108.115 86.806L105.6 86.3331C103.922 86.0178 102.979 85.6625 102.767 85.2667C102.349 84.4849 102.587 84.3307 106.738 82.696C115.305 79.3215 122.988 74.8149 122.239 73.6032C121.565 72.5131 113.596 74.3533 105.313 77.5116C103.081 78.3629 101.191 78.9969 101.115 78.9202C101.038 78.8437 101.575 77.9605 102.307 76.9577C103.795 74.9202 103.952 74.8934 100.283 77.3044L98.9908 78.1529L97.2597 76.5336C95.225 74.6304 92.7844 73.4335 89.6912 72.8218L87.461 72.3805L87.1432 70.1431L86.8255 67.9056L86.3508 69.9617C85.8985 71.92 85.3168 72.8108 84.8366 72.28C84.7151 72.1461 83.7268 69.8677 82.6404 67.2171C79.4729 59.49 75.5132 52.5875 74.2478 52.5875C74.0592 52.5875 73.8017 52.7541 73.6757 52.9579ZM83.2105 76.3175C79.7142 77.6138 76.7032 80.7797 75.7067 84.2071C74.9838 86.6945 75.2196 90.3671 76.2564 92.7594C77.1961 94.927 80.0766 97.7641 82.3833 98.7937C84.8655 99.9018 88.9659 100.025 91.5046 99.067C94.1028 98.087 96.9509 95.4764 98.2029 92.9274C99.0397 91.2232 99.1647 90.566 99.1647 87.8656C99.1647 85.0536 99.0586 84.5465 98.0332 82.4622C96.7792 79.9126 94.7231 77.8661 92.1782 76.6341C89.9112 75.5364 85.7157 75.3884 83.2105 76.3175ZM126.186 91.1478C120.301 91.5994 111.965 92.557 111.444 92.842C111.145 93.0052 111.563 93.3092 112.648 93.7178C115.74 94.8819 128.06 100.986 131.006 102.813C136.822 106.42 139.068 108.552 138.18 109.622C136.72 111.382 122.325 107.143 108.836 100.981C107.34 100.297 106.062 99.7906 105.998 99.8557C105.803 100.05 112.846 109.598 116.456 114.032C118.305 116.303 122.297 120.642 125.326 123.673C140.097 138.455 150.989 141.539 159.405 133.322C164.035 128.802 168.606 119.065 169.594 111.618C170.871 101.986 165.766 95.8396 154.035 92.8854C151.876 92.3419 148.716 91.7212 147.012 91.5061C142.822 90.977 131.052 90.7746 126.186 91.1478ZM71.9708 108.81C57.5818 119.226 46.7404 129.803 41.8162 138.23C39.0225 143.01 37.7364 148.071 38.4005 151.67C39.6345 158.36 46.5992 164.262 57.6854 168.014C64.7303 170.399 70.0214 170.451 74.284 168.179C82.816 163.632 86.6028 147.861 84.7113 124.755C84.1103 117.414 83.1729 109.658 82.8432 109.298C82.7127 109.156 82.09 110.317 81.4601 111.88C79.489 116.766 73.3171 129.036 71.1915 132.294C66.8876 138.89 64.4305 139.813 65.0832 134.59C65.6525 130.035 69.6125 118.328 73.6565 109.246C74.1542 108.128 74.5208 107.18 74.4709 107.14C74.421 107.099 73.2961 107.851 71.9708 108.81Z" fill="white"/>
</mask>
<g mask="url(#mask0_295_34930)">
<g filter="url(#filter0_f_295_34930)">
<ellipse cx="121.44" cy="94.5998" rx="78.32" ry="78.76" fill="#D9D7FF"/>
</g>
<g filter="url(#filter1_f_295_34930)">
<ellipse cx="77.4401" cy="3.9602" rx="78.32" ry="78.76" fill="#CC81F4"/>
</g>
<g filter="url(#filter2_f_295_34930)">
<ellipse cx="23.7599" cy="77.0002" rx="78.32" ry="78.76" fill="#F8C3F9"/>
</g>
<g filter="url(#filter3_f_295_34930)">
<ellipse cx="67.7599" cy="181.72" rx="78.32" ry="78.76" fill="#AEA5FF"/>
</g>
</g>
<defs>
<filter id="filter0_f_295_34930" x="-12.8799" y="-40.1602" width="268.64" height="269.52" filterUnits="userSpaceOnUse" color-interpolation-filters="sRGB">
<feFlood flood-opacity="0" result="BackgroundImageFix"/>
<feBlend mode="normal" in="SourceGraphic" in2="BackgroundImageFix" result="shape"/>
<feGaussianBlur stdDeviation="28" result="effect1_foregroundBlur_295_34930"/>
</filter>
<filter id="filter1_f_295_34930" x="-56.8799" y="-130.8" width="268.64" height="269.52" filterUnits="userSpaceOnUse" color-interpolation-filters="sRGB">
<feFlood flood-opacity="0" result="BackgroundImageFix"/>
<feBlend mode="normal" in="SourceGraphic" in2="BackgroundImageFix" result="shape"/>
<feGaussianBlur stdDeviation="28" result="effect1_foregroundBlur_295_34930"/>
</filter>
<filter id="filter2_f_295_34930" x="-110.56" y="-57.7598" width="268.64" height="269.52" filterUnits="userSpaceOnUse" color-interpolation-filters="sRGB">
<feFlood flood-opacity="0" result="BackgroundImageFix"/>
<feBlend mode="normal" in="SourceGraphic" in2="BackgroundImageFix" result="shape"/>
<feGaussianBlur stdDeviation="28" result="effect1_foregroundBlur_295_34930"/>
</filter>
<filter id="filter3_f_295_34930" x="-66.5601" y="46.96" width="268.64" height="269.52" filterUnits="userSpaceOnUse" color-interpolation-filters="sRGB">
<feFlood flood-opacity="0" result="BackgroundImageFix"/>
<feBlend mode="normal" in="SourceGraphic" in2="BackgroundImageFix" result="shape"/>
<feGaussianBlur stdDeviation="28" result="effect1_foregroundBlur_295_34930"/>
</filter>
</defs>
</svg>
