<svg width="177" height="176" viewBox="0 0 177 176" fill="none" xmlns="http://www.w3.org/2000/svg">
<mask id="mask0_295_35900" style="mask-type:alpha" maskUnits="userSpaceOnUse" x="0" y="0" width="177" height="176">
<path fill-rule="evenodd" clip-rule="evenodd" d="M103.583 0.906312C98.8588 2.07652 95.8413 3.59689 93.3949 6.04016C88.8086 10.6197 89.0328 16.0374 94.1007 23.1265L95.6446 25.2856L92.1834 25.569C85.7942 26.0927 82.755 27.3501 80.7498 30.2997C77.4206 35.1969 77.9635 39.3709 82.8335 46.3211L84.9714 49.3716L83.1177 49.9683C82.0979 50.2965 80.2152 50.7507 78.9335 50.978C76.1483 51.4714 74.7865 52.5643 74.7865 54.3049C74.7865 54.9691 75.0558 56.9185 75.3848 58.6375C76.3772 63.824 77.3185 64.2727 83.9629 62.726C90.7106 61.155 94.77 58.6002 96.785 54.6555C97.5575 53.1437 97.751 52.1741 97.751 49.8203C97.751 47.138 97.616 46.632 96.2334 44.1283C95.3985 42.6169 94.2059 40.7366 93.5837 39.9499C92.9611 39.1632 92.4515 38.4123 92.4515 38.2816C92.4515 38.1508 93.2904 38.0401 94.3162 38.0358C103.983 37.9958 109.218 34.0891 109.298 26.8558C109.329 24.0129 108.334 21.6627 105.21 17.2044L103.072 14.1539L104.926 13.5572C105.946 13.229 107.828 12.7748 109.11 12.5476C111.798 12.0714 113.257 10.9502 113.257 9.36197C113.257 8.77588 112.978 6.81938 112.638 5.01402C111.621 -0.375383 110.61 -0.833888 103.583 0.906312ZM151.035 5.95772C148.075 8.92427 146.232 11.0759 146.232 11.563C146.232 12.5876 150.91 17.2382 151.94 17.2382C152.416 17.2382 154.615 15.3386 157.576 12.3709C161.758 8.17919 162.398 7.37171 162.193 6.55205C161.889 5.34062 157.517 1.14342 156.559 1.14342C156.159 1.14342 153.7 3.28638 151.035 5.95772ZM56.9531 13.5368C56.4412 14.0491 56.3364 15.279 56.3364 20.7712C56.3364 28.8936 56.1735 28.6223 61.0471 28.6223C65.9207 28.6223 65.7577 28.8936 65.7577 20.7712C65.7577 12.6488 65.9207 12.9201 61.0471 12.9201C58.4095 12.9201 57.421 13.0689 56.9531 13.5368ZM162.326 27.4753C142.594 29.977 120.431 43.6191 106.215 62.0131C103.401 65.6533 103.017 66.6104 103.98 67.5737C105.447 69.0407 109.73 71.462 110.453 71.2327C110.875 71.0984 112.245 69.6264 113.495 67.9611C116.636 63.7785 122.898 57.4092 127.585 53.6301C139.653 43.9002 152.03 38.2132 164.223 36.7961C166.582 36.5217 168.54 36.0923 168.852 35.7802C169.229 35.4033 169.392 34.197 169.392 31.7957C169.392 26.8672 169.002 26.6285 162.326 27.4753ZM46.7863 57.4489C44.5252 58.0566 41.9359 59.794 40.8167 61.4549C39.769 63.0094 38.5756 66.0502 31.7577 84.5333L26.1206 99.8147L27.6245 101.806C34.7509 111.243 48.0013 120.738 63.5649 127.561C76.462 133.214 91.721 137.322 103.639 138.348C106.656 138.608 106.925 138.56 110.472 137.139C114.733 135.43 116.419 134.107 117.895 131.311C118.845 129.51 118.949 128.906 118.949 125.191C118.949 121.697 118.778 120.561 117.827 117.733C114.339 107.361 105.442 94.5619 93.2575 82.3868C86.0435 75.1787 81.3536 71.2755 74.0179 66.3756C62.7618 58.8566 53.2046 55.7236 46.7863 57.4489ZM164.76 63.6732C164.22 64.248 163.712 65.6345 163.352 67.5168C163.042 69.1364 162.552 71.0156 162.263 71.6928L161.738 72.9238L158.826 70.806C154.882 67.9368 152.776 66.9876 149.902 66.7846C144.507 66.4031 140.19 69.5353 138.79 74.8458C138.548 75.7636 138.225 78.1158 138.071 80.0734L137.792 83.6328L135.633 82.0892C128.712 77.1414 123.5 76.8349 118.759 81.0968C116.319 83.2912 114.454 87.0358 113.296 92.0688C111.775 98.6786 112.196 99.5709 117.323 100.616C123.148 101.804 124.314 101.273 125.054 97.0982C125.281 95.8165 125.735 93.9338 126.063 92.914L126.66 91.0603L129.711 93.1982C131.389 94.3739 133.717 95.7804 134.884 96.3241C140.029 98.7187 146.357 96.6362 148.726 91.7693C149.768 89.6267 150.528 85.6662 150.542 82.3043C150.546 81.2786 150.657 80.4397 150.788 80.4397C150.918 80.4397 151.669 80.9492 152.456 81.5718C153.243 82.194 155.123 83.3866 156.634 84.2216C159.138 85.6042 159.644 85.7392 162.326 85.7392C164.69 85.7392 165.648 85.5465 167.185 84.7613C171 82.8131 173.733 78.4659 175.238 71.9511C176.765 65.3444 176.343 64.4489 171.215 63.4036C166.983 62.5407 165.776 62.591 164.76 63.6732ZM48.5834 66.7419C47.1781 68.1971 48.5673 74.0744 51.7745 80.2434C61.6614 99.26 85.4825 121.402 102.031 126.957C105.672 128.179 108.732 128.273 109.318 127.18C111.324 123.431 105.431 110.958 96.1373 99.2824C92.4515 94.6518 80.8927 83.1613 76.1255 79.3884C68.9728 73.7282 61.144 69.0544 55.9438 67.3401C53.0452 66.3846 49.228 66.0741 48.5834 66.7419ZM19.0495 118.986C17.2661 123.802 15.4038 128.823 14.9116 130.142L14.0161 132.542L15.5942 134.657C17.9154 137.767 19.2893 139.133 22.6696 141.691C30.7806 147.829 41.5115 151.865 57.1215 154.648L61.2434 155.383L73.6089 150.831C80.4099 148.328 86.416 146.107 86.9558 145.897C87.8135 145.562 87.3927 145.371 83.619 144.381C67.4065 140.127 51.139 132.902 38.8677 124.505C33.311 120.703 31.5292 119.237 26.4582 114.292L22.2924 110.23L19.0495 118.986ZM135.464 110.891C134.996 111.359 134.848 112.347 134.848 114.985C134.848 119.858 134.576 119.695 142.699 119.695C150.821 119.695 150.55 119.858 150.55 114.985C150.55 110.111 150.821 110.274 142.699 110.274C137.206 110.274 135.977 110.379 135.464 110.891ZM9.84523 143.667C9.73531 143.977 7.41491 150.231 4.6894 157.566C-0.744751 172.188 -0.831112 172.625 1.2879 174.744C3.4713 176.927 3.34097 176.959 24.4267 169.107C35.045 165.154 43.6525 161.839 43.5548 161.741C43.4566 161.643 41.4585 160.982 39.1146 160.272C28.1379 156.948 19.1103 151.934 12.4836 145.48C10.7705 143.812 9.98576 143.273 9.84523 143.667Z" fill="white"/>
</mask>
<g mask="url(#mask0_295_35900)">
<g filter="url(#filter0_f_295_35900)">
<ellipse cx="139.04" cy="106.119" rx="92.4" ry="92.9191" fill="#D9D7FF"/>
</g>
<g filter="url(#filter1_f_295_35900)">
<ellipse cx="77.4401" cy="3.9602" rx="78.32" ry="78.76" fill="#CC81F4"/>
</g>
<g filter="url(#filter2_f_295_35900)">
<ellipse cx="23.7599" cy="77.0002" rx="78.32" ry="78.76" fill="#F8C3F9"/>
</g>
<g filter="url(#filter3_f_295_35900)">
<ellipse cx="67.7599" cy="181.72" rx="78.32" ry="78.76" fill="#AEA5FF"/>
</g>
</g>
<defs>
<filter id="filter0_f_295_35900" x="-19.4273" y="-52.8672" width="316.935" height="317.973" filterUnits="userSpaceOnUse" color-interpolation-filters="sRGB">
<feFlood flood-opacity="0" result="BackgroundImageFix"/>
<feBlend mode="normal" in="SourceGraphic" in2="BackgroundImageFix" result="shape"/>
<feGaussianBlur stdDeviation="33.0337" result="effect1_foregroundBlur_295_35900"/>
</filter>
<filter id="filter1_f_295_35900" x="-56.8799" y="-130.8" width="268.64" height="269.52" filterUnits="userSpaceOnUse" color-interpolation-filters="sRGB">
<feFlood flood-opacity="0" result="BackgroundImageFix"/>
<feBlend mode="normal" in="SourceGraphic" in2="BackgroundImageFix" result="shape"/>
<feGaussianBlur stdDeviation="28" result="effect1_foregroundBlur_295_35900"/>
</filter>
<filter id="filter2_f_295_35900" x="-110.56" y="-57.7598" width="268.64" height="269.52" filterUnits="userSpaceOnUse" color-interpolation-filters="sRGB">
<feFlood flood-opacity="0" result="BackgroundImageFix"/>
<feBlend mode="normal" in="SourceGraphic" in2="BackgroundImageFix" result="shape"/>
<feGaussianBlur stdDeviation="28" result="effect1_foregroundBlur_295_35900"/>
</filter>
<filter id="filter3_f_295_35900" x="-66.5601" y="46.96" width="268.64" height="269.52" filterUnits="userSpaceOnUse" color-interpolation-filters="sRGB">
<feFlood flood-opacity="0" result="BackgroundImageFix"/>
<feBlend mode="normal" in="SourceGraphic" in2="BackgroundImageFix" result="shape"/>
<feGaussianBlur stdDeviation="28" result="effect1_foregroundBlur_295_35900"/>
</filter>
</defs>
</svg>
