<svg width="176" height="176" viewBox="0 0 176 176" fill="none" xmlns="http://www.w3.org/2000/svg">
<mask id="mask0_295_35089" style="mask-type:alpha" maskUnits="userSpaceOnUse" x="0" y="0" width="176" height="176">
<path fill-rule="evenodd" clip-rule="evenodd" d="M164.705 2.18003C141.001 -3.22582 117.165 1.47557 96.2302 15.6878C89.6076 20.1836 75.7243 34.3484 70.3848 42.0571C60.173 56.8006 52.0373 73.8198 45.6332 93.8355C42.8835 102.427 42.7883 102.977 43.8001 104.353C44.3873 105.151 47.662 109.081 51.0772 113.086C57.0257 120.062 57.6462 120.655 65.8436 127.2C70.5496 130.957 74.9344 134.26 75.5873 134.538C76.4325 134.899 78.935 134.227 84.2967 132.2C107.567 123.399 125.864 113.289 139.798 101.533C147.118 95.3564 157.409 83.8032 161.665 76.982C172.9 58.9777 177.165 39.076 174.176 18.6079C173.213 12.0121 171.364 4.40672 170.528 3.60491C170.456 3.53531 167.835 2.89402 164.705 2.18003ZM136.623 32.7591C133.343 31.0544 130.905 30.4759 127.413 30.5733C120.241 30.7734 113.448 35.6439 111.153 42.2338C109.643 46.5658 109.571 50.7772 110.943 54.6082C112.503 58.9653 117.19 63.6028 121.595 65.1481C124.87 66.2975 130.271 66.1751 134.119 64.8649C137.807 63.6098 143.165 58.1074 144.411 54.2965C147.153 45.9102 143.733 36.4533 136.623 32.7591ZM101.042 75.6547C100.612 75.8675 91.7515 83.2277 81.3525 92.0111C70.9535 100.794 62.026 108.261 61.5136 108.603C60.161 109.506 59.5553 112.993 60.3684 115.197C61.0274 116.981 61.208 117.143 63.2576 117.771C64.46 118.14 66.208 118.3 67.1425 118.128C68.8119 117.821 69.0297 117.573 79.7865 103.728C99.2489 78.6808 101.837 75.2621 101.042 75.6547ZM51.7706 46.7457C43.4876 45.335 43.8483 45.1748 26.2206 58.1012C10.7656 69.4343 1.66284 76.7408 0.957131 78.3797C0.395348 79.6851 2.90087 81.9082 8.68916 85.2405C18.6815 90.9926 30.7143 95.6228 33.7847 94.8974C35.2947 94.5408 35.4761 94.1956 39.0214 84.9278C43.1257 74.1971 49.3589 60.81 53.843 53.0945C55.4766 50.284 56.814 47.8989 56.8152 47.7947C56.8168 47.6901 54.5465 47.2183 51.7706 46.7457ZM130.13 118.903C129.778 119.101 127.681 120.427 125.471 121.85C116.681 127.509 100.937 135.489 89.6272 140.019C85.0263 141.862 84.3066 142.641 84.6401 145.415C85.415 151.853 96.097 171.628 101.084 175.858C102.628 177.166 108.529 169.621 124.097 146.435C133.557 132.346 133.621 132.189 132.578 125.745C131.779 120.812 130.934 118.45 130.13 118.903ZM37.7502 114.68C37.5158 115.247 36.1413 118.451 34.6953 121.8C33.2489 125.148 32.0668 127.999 32.0686 128.135C32.0791 129.17 38.8613 136.65 43.031 140.225C50.5107 146.639 49.3206 146.414 57.7568 143.02C61.783 141.401 65.0771 140.006 65.077 139.92C65.0769 139.835 63.329 138.629 61.1927 137.241C54.3157 132.771 42.9638 121.345 38.8826 114.785C38.2766 113.81 38.1148 113.795 37.7502 114.68ZM27.5278 137.327C26.3418 138.557 22.4047 144.943 20.6015 148.563C18.517 152.747 13.8449 164.8 14.1778 165.134C14.4715 165.428 22.7295 161.992 27.9212 159.416C32.8821 156.953 39.4032 152.875 40.9774 151.252L42.0245 150.172L35.0443 143.472C29.2914 137.95 27.9699 136.869 27.5278 137.327Z" fill="white"/>
</mask>
<g mask="url(#mask0_295_35089)">
<g filter="url(#filter0_f_295_35089)">
<ellipse cx="133.76" cy="68.2004" rx="78.32" ry="78.76" fill="#D9D7FF"/>
</g>
<g filter="url(#filter1_f_295_35089)">
<ellipse cx="77.4401" cy="3.9602" rx="78.32" ry="78.76" fill="#CC81F4"/>
</g>
<g filter="url(#filter2_f_295_35089)">
<ellipse cx="23.7599" cy="77.0002" rx="78.32" ry="78.76" fill="#F8C3F9"/>
</g>
<g filter="url(#filter3_f_295_35089)">
<ellipse cx="67.7599" cy="181.72" rx="78.32" ry="78.76" fill="#AEA5FF"/>
</g>
</g>
<defs>
<filter id="filter0_f_295_35089" x="-0.560059" y="-66.5596" width="268.64" height="269.52" filterUnits="userSpaceOnUse" color-interpolation-filters="sRGB">
<feFlood flood-opacity="0" result="BackgroundImageFix"/>
<feBlend mode="normal" in="SourceGraphic" in2="BackgroundImageFix" result="shape"/>
<feGaussianBlur stdDeviation="28" result="effect1_foregroundBlur_295_35089"/>
</filter>
<filter id="filter1_f_295_35089" x="-56.8799" y="-130.8" width="268.64" height="269.52" filterUnits="userSpaceOnUse" color-interpolation-filters="sRGB">
<feFlood flood-opacity="0" result="BackgroundImageFix"/>
<feBlend mode="normal" in="SourceGraphic" in2="BackgroundImageFix" result="shape"/>
<feGaussianBlur stdDeviation="28" result="effect1_foregroundBlur_295_35089"/>
</filter>
<filter id="filter2_f_295_35089" x="-110.56" y="-57.7598" width="268.64" height="269.52" filterUnits="userSpaceOnUse" color-interpolation-filters="sRGB">
<feFlood flood-opacity="0" result="BackgroundImageFix"/>
<feBlend mode="normal" in="SourceGraphic" in2="BackgroundImageFix" result="shape"/>
<feGaussianBlur stdDeviation="28" result="effect1_foregroundBlur_295_35089"/>
</filter>
<filter id="filter3_f_295_35089" x="-66.5601" y="46.96" width="268.64" height="269.52" filterUnits="userSpaceOnUse" color-interpolation-filters="sRGB">
<feFlood flood-opacity="0" result="BackgroundImageFix"/>
<feBlend mode="normal" in="SourceGraphic" in2="BackgroundImageFix" result="shape"/>
<feGaussianBlur stdDeviation="28" result="effect1_foregroundBlur_295_35089"/>
</filter>
</defs>
</svg>
