<svg width="176" height="176" viewBox="0 0 176 176" fill="none" xmlns="http://www.w3.org/2000/svg">
<mask id="mask0_295_34948" style="mask-type:alpha" maskUnits="userSpaceOnUse" x="0" y="7" width="176" height="163">
<path fill-rule="evenodd" clip-rule="evenodd" d="M56.4767 7.51922C53.1293 8.87184 51.0637 13.8872 51.048 20.7005C51.0374 25.2506 53.8486 35.5962 55.2401 36.1305C55.696 36.3054 58.8577 34.9509 62.2653 33.1211L68.4615 29.7932L76.9271 29.8108C97.5236 29.8528 109.796 35.6997 123.613 52.0546C131.893 61.8559 134.202 66.0674 135.604 73.931C137.651 85.4041 136.187 93.2464 130.864 99.3298C129.135 101.305 127.721 103.196 127.721 103.532C127.721 104.923 130.042 104.807 135.709 103.134C143.819 100.739 153.818 95.6689 160.623 90.5017C167.446 85.3195 168.809 83.2351 168.75 78.0679C168.69 72.7772 166.645 68.7325 160.038 60.8338C150.397 49.308 141.963 35.6395 138.312 25.6218C135.963 19.1798 134.501 16.7442 132.41 15.7917C130.376 14.8649 124.967 14.8561 112.819 15.7603C105.701 16.2902 100.879 16.2915 94.0063 15.7666C83.0317 14.9276 77.1698 13.6082 67.3346 9.76292C59.8153 6.82316 58.7461 6.60242 56.4767 7.51922ZM38.3615 22.0588C36.9819 22.7755 31.7615 25.8263 26.7605 28.8375C21.7595 31.8494 15.7985 35.2382 13.5134 36.3675C8.62965 38.7824 5.6184 41.408 5.02079 43.7727C4.32096 46.5413 6.31885 56.4198 8.50486 61C11.977 68.2747 19.5666 75.115 28.9151 79.3948C33.7368 81.6028 34.5369 81.2202 33.2489 77.3229C27.9375 61.2502 27.7243 52.5375 32.4149 43.2172C33.1799 41.6971 36.4865 36.4403 39.763 31.5352C43.4208 26.0602 45.5786 22.2469 45.3529 21.6587C44.8292 20.2941 41.3784 20.4917 38.3615 22.0588ZM69.3595 33.9338C59.8303 35.3498 50.3933 45.1109 50.4786 53.4631C50.4968 55.2753 50.0422 58.1687 49.4684 59.8932C48.7868 61.9418 48.4394 64.9844 48.4663 68.6723C48.5146 75.4178 49.9876 80.0927 53.5269 84.7332C57.1426 89.4752 64.2732 94.6881 69.2453 96.2257C71.2357 96.8415 71.1435 94.7452 69.0948 92.8213C63.5401 87.6027 63.7747 72.0874 69.5463 62.9753C80.7692 45.2552 98.9132 39.3487 111.828 49.2096C113.484 50.4744 114.94 51.2043 115.064 50.8331C115.456 49.656 112.154 44.7215 109.39 42.3562C107.926 41.1026 104.782 39.1035 102.404 37.9139C98.4912 35.9568 97.5719 35.7505 92.7515 35.7505C89.8212 35.7505 84.5681 35.3216 81.0778 34.7973C77.588 34.2724 74.1679 33.7683 73.4781 33.6761C72.7884 33.5839 70.9347 33.6999 69.3595 33.9338ZM47.3677 37.3665C42.3918 38.3077 40.2164 39.3568 37.5156 42.1198C30.3568 49.4416 30.1518 60.8614 36.9305 74.6208C40.6811 82.2342 48.0945 89.6169 55.7016 93.3135C58.6859 94.764 61.4375 95.9504 61.8157 95.9504C63.2529 95.9504 62.3361 94.9352 58.9838 92.815C48.4644 86.1604 42.6677 73.0425 44.3433 59.6818C45.2187 52.6986 46.2653 49.6228 49.9193 43.2911C51.6676 40.2623 53.098 37.6386 53.098 37.4612C53.098 36.6685 51.2224 36.6378 47.3677 37.3665ZM93.7511 47.914C91.4497 48.7261 88.7125 49.999 87.6684 50.7428C85.256 52.4603 81.3167 57.0387 81.3167 58.1248C81.3167 59.0648 81.4502 59.0855 86.8074 58.9588C94.5958 58.7744 99.3654 61.2821 101.704 66.7911C103.165 70.2312 103.202 78.3319 101.778 82.5754C99.4281 89.5699 92.2085 94.7865 83.139 96.042C80.5849 96.3956 78.4001 96.7788 78.2841 96.8942C77.711 97.4636 81.2653 98.6299 84.459 98.9196C88.752 99.3084 96.6244 97.7188 100.769 95.6256C112.48 89.7109 118.722 69.4907 112.764 56.7609C109.663 50.1345 104.863 46.3946 99.5021 46.4278C98.6398 46.4328 96.0519 47.1019 93.7511 47.914ZM117.06 60.2732C117.06 60.6544 117.516 62.7 118.072 64.8195C120.247 73.0989 118.959 81.7069 114.598 88.0454C110.139 94.5257 99.2933 101.42 91.2145 102.909C86.724 103.736 86.9046 103.765 73.5854 100.063C67.2449 98.3013 60.4637 97.4868 57.2135 98.0963C53.8987 98.7183 54.4932 99.4934 58.8765 100.265C64.9291 101.331 68.7349 103.584 75.9539 110.371C87.7888 121.5 97.6616 124.215 107.968 119.176C113.201 116.617 116.778 112.679 122.798 102.848C130.883 89.6451 131.797 87.6083 131.794 82.8049C131.789 74.607 127.305 66.1364 120.486 61.4446C117.508 59.3959 117.06 59.2429 117.06 60.2732ZM82.5708 62.6743C79.184 63.7083 75.7062 65.9257 73.5854 68.4033C70.0687 72.5119 69.108 75.0015 69.1262 79.9598C69.1456 85.2461 70.5227 88.4286 73.9836 91.1883C76.0003 92.7962 77.0299 93.1285 80.6181 93.3317C84.2458 93.5368 85.3388 93.3317 88.108 91.9283C89.8908 91.0247 91.35 90.0502 91.35 89.763C91.35 89.4758 89.3045 89.3667 86.8036 89.5209C82.7853 89.768 82.0033 89.6275 80.0719 88.31C77.3999 86.4884 76.3213 84.4817 76.3094 81.3087C76.2906 76.5121 80.0418 72.0604 83.2443 73.0769C84.3336 73.4225 84.4339 73.8382 84.0777 76.5246C83.5516 80.4872 84.1015 82.5233 86.0399 83.7932C87.4056 84.688 87.9788 84.7162 90.4865 84.0139C98.2191 81.8492 101.521 70.8928 96.0832 65.4447C93.1541 62.5112 87.1429 61.2784 82.5708 62.6743ZM8.16874 80.2909C5.68236 81.0622 2.56262 84.5676 1.75306 87.5005C1.33918 88.9986 1.36238 93.6835 1.82266 101.586C2.46542 112.631 2.41588 114.141 1.08521 124.045C-0.28308 134.228 -0.298756 134.811 0.708966 138.277C2.1569 143.257 6.19406 147.071 16.428 153.128C32.1891 162.456 39.0469 165.24 48.1352 166.002C52.3931 166.359 77.3516 163.903 78.3794 163.026C79.2467 162.286 73.5804 159.39 62.9494 155.138C38.9547 145.543 34.7194 141.065 30.0984 120.407C28.1438 111.669 27.4534 98.3189 28.6562 92.5015C29.9755 86.1159 30.0853 84.2284 29.171 83.6471C25.3307 81.2058 12.0579 79.085 8.16874 80.2909ZM35.613 84.8197C33.0037 92.9856 33.1141 112.213 35.8231 121.347C39.225 132.82 44.7465 141.492 51.053 145.269C53.9928 147.03 54.1872 147.058 63.7584 147.058C72.9489 147.058 73.5835 147.137 75.4152 148.512C79.5527 151.618 85.8749 151.412 94.3217 147.895C103.421 144.107 114.101 135.786 118.257 129.247C120.185 126.214 121.757 121.411 121.145 120.421C120.947 120.1 118.493 120.804 115.688 121.987C88.2434 133.562 66.3758 129.287 50.0767 109.161C46.217 104.395 41.0931 94.3187 39.5335 88.4254C37.9238 82.3421 36.7493 81.2623 35.613 84.8197ZM159.792 95.5278C159.413 95.9849 158.365 98.0267 157.463 100.065C147.285 123.082 138.029 132.667 114.552 144.503C100.285 151.696 93.0945 153.628 80.5698 153.637C76.0649 153.641 73.7146 153.887 73.4041 154.389C73.1502 154.8 73.2185 155.228 73.5559 155.34C73.8933 155.452 76.1301 156.964 78.5268 158.699C87.748 165.373 95.9302 168.208 109.456 169.413C126.6 170.941 133.874 167.235 144.656 151.479C151.069 142.109 154.754 138.302 164.447 131.036C175.65 122.637 176.008 122.176 176 116.126C175.99 108.654 172.917 103.273 165.133 97.1024C161.873 94.5182 160.875 94.2241 159.792 95.5278ZM142.317 104.786C138.79 106.141 133.999 107.65 131.668 108.138C126.139 109.297 125.486 110.149 125.053 116.758C124.491 125.353 122.353 129.925 115.296 137.623C113.413 139.676 112.195 141.465 112.591 141.596C113.377 141.859 122.607 137.037 127.094 134.02C137.242 127.196 143.205 120.456 148.134 110.237C150.925 104.451 151.327 102.159 149.531 102.271C149.09 102.299 145.843 103.43 142.317 104.786ZM51.9209 104.323C50.979 105.458 53.5162 108.944 58.6928 113.628C65.0903 119.418 74.1109 123.516 80.4958 123.535C84.3449 123.546 84.4527 122.502 80.9429 119.211C64.9774 104.238 63.8148 103.475 56.9439 103.475C54.0806 103.475 52.3875 103.761 51.9209 104.323Z" fill="white"/>
</mask>
<g mask="url(#mask0_295_34948)">
<g filter="url(#filter0_f_295_34948)">
<ellipse cx="121.44" cy="94.5998" rx="78.32" ry="78.76" fill="#D9D7FF"/>
</g>
<g filter="url(#filter1_f_295_34948)">
<ellipse cx="77.4401" cy="3.9602" rx="78.32" ry="78.76" fill="#CC81F4"/>
</g>
<g filter="url(#filter2_f_295_34948)">
<ellipse cx="23.7599" cy="77.0002" rx="78.32" ry="78.76" fill="#F8C3F9"/>
</g>
<g filter="url(#filter3_f_295_34948)">
<ellipse cx="67.7599" cy="181.72" rx="78.32" ry="78.76" fill="#AEA5FF"/>
</g>
</g>
<defs>
<filter id="filter0_f_295_34948" x="-12.8799" y="-40.1602" width="268.64" height="269.52" filterUnits="userSpaceOnUse" color-interpolation-filters="sRGB">
<feFlood flood-opacity="0" result="BackgroundImageFix"/>
<feBlend mode="normal" in="SourceGraphic" in2="BackgroundImageFix" result="shape"/>
<feGaussianBlur stdDeviation="28" result="effect1_foregroundBlur_295_34948"/>
</filter>
<filter id="filter1_f_295_34948" x="-56.8799" y="-130.8" width="268.64" height="269.52" filterUnits="userSpaceOnUse" color-interpolation-filters="sRGB">
<feFlood flood-opacity="0" result="BackgroundImageFix"/>
<feBlend mode="normal" in="SourceGraphic" in2="BackgroundImageFix" result="shape"/>
<feGaussianBlur stdDeviation="28" result="effect1_foregroundBlur_295_34948"/>
</filter>
<filter id="filter2_f_295_34948" x="-110.56" y="-57.7598" width="268.64" height="269.52" filterUnits="userSpaceOnUse" color-interpolation-filters="sRGB">
<feFlood flood-opacity="0" result="BackgroundImageFix"/>
<feBlend mode="normal" in="SourceGraphic" in2="BackgroundImageFix" result="shape"/>
<feGaussianBlur stdDeviation="28" result="effect1_foregroundBlur_295_34948"/>
</filter>
<filter id="filter3_f_295_34948" x="-66.5601" y="46.96" width="268.64" height="269.52" filterUnits="userSpaceOnUse" color-interpolation-filters="sRGB">
<feFlood flood-opacity="0" result="BackgroundImageFix"/>
<feBlend mode="normal" in="SourceGraphic" in2="BackgroundImageFix" result="shape"/>
<feGaussianBlur stdDeviation="28" result="effect1_foregroundBlur_295_34948"/>
</filter>
</defs>
</svg>
