<svg width="176" height="176" viewBox="0 0 176 176" fill="none" xmlns="http://www.w3.org/2000/svg">
<mask id="mask0_295_35806" style="mask-type:alpha" maskUnits="userSpaceOnUse" x="0" y="11" width="176" height="154">
<path fill-rule="evenodd" clip-rule="evenodd" d="M57.2026 13.7023C56.4813 14.9464 54.6672 18.0866 53.1717 20.6801C51.6759 23.2736 48.9582 27.9814 47.1317 31.1415C45.3057 34.302 43.8898 37.0924 43.9857 37.3427C44.0812 37.593 46.2317 41.3734 48.7643 45.7431C55.0915 56.6602 58.333 62.322 58.333 62.4548C58.333 62.5164 51.7136 62.6097 43.6229 62.6619L28.9123 62.7566L25.2645 69.1326C23.258 72.6391 20.8618 76.8014 19.9397 78.3822C19.018 79.9626 14.0817 88.5095 8.97066 97.3757C1.11945 110.995 -0.266381 113.611 0.0382043 114.243C0.236438 114.653 6.81143 126.089 14.6496 139.655L28.9008 164.32L43.6478 164.502C53.2654 164.62 58.4947 164.557 58.6814 164.32C58.8391 164.121 60.8819 160.612 63.2216 156.522C65.561 152.432 68.7143 146.923 70.2285 144.28C71.7424 141.636 73.0819 139.474 73.2049 139.474C73.3279 139.474 76.6657 145.103 80.6217 151.983L87.8149 164.493L117.33 164.497L146.845 164.502L153.473 152.985C157.119 146.651 160.866 140.163 161.8 138.567C167.765 128.377 176.01 113.844 176 113.539C175.989 113.229 171.957 106.155 163.339 91.3254L161.391 87.9742L146.804 87.8795L132.217 87.7848L139.407 75.3389C143.362 68.4935 146.598 62.7254 146.598 62.5204C146.598 62.3155 145.116 59.5914 143.305 56.4672C138.856 48.7937 137.896 47.1288 126.942 28.116L117.433 11.6119L87.9737 11.5259L58.5139 11.4399L57.2026 13.7023ZM71.7786 39.6326C63.5638 53.82 58.6948 62.3021 58.6948 62.4258C58.6948 62.5077 65.2235 62.5752 73.2031 62.5752C86.6201 62.5752 87.6941 62.6209 87.4792 63.1824C87.2451 63.7936 86.5806 64.9645 78.7638 78.5352C76.4078 82.625 74.225 86.4177 73.9128 86.9632L73.3453 87.9553L58.5653 88.0514L43.7849 88.1475L38.8504 96.7188C33.6392 105.77 31.6464 109.22 30.059 111.935L29.0881 113.596L36.4 126.263L43.7119 138.929L58.2574 139.024C68.1756 139.089 72.8027 138.999 72.8027 138.741C72.8027 138.533 71.3192 135.797 69.5061 132.661C67.6927 129.525 64.9004 124.674 63.3008 121.881C61.7016 119.088 60.0108 116.194 59.5438 115.45C59.0768 114.707 58.6948 114.011 58.6948 113.905C58.6948 113.799 65.3121 113.754 73.3995 113.807L88.1043 113.901L92.3851 121.337C94.7397 125.427 98.0116 131.096 99.6561 133.935L102.646 139.097L117.35 139.104L132.052 139.111L137.942 128.864C141.18 123.228 144.453 117.566 145.214 116.282C145.975 114.998 146.598 113.802 146.598 113.625C146.598 113.299 133.064 89.6282 132.389 88.7725C131.931 88.1918 132.348 87.5084 119.535 109.821C118.418 111.766 117.417 113.355 117.31 113.352C117.203 113.35 115.847 111.105 114.296 108.365C112.745 105.624 110.858 102.321 110.104 101.024C103.125 89.0293 102.739 88.2665 103.174 87.31C103.405 86.8022 106.68 81.0319 110.452 74.4872L117.31 62.5875L113.088 55.2361C110.765 51.1928 107.49 45.4773 105.81 42.5345L102.754 37.1842H87.9751H73.1962L71.7786 39.6326Z" fill="white"/>
</mask>
<g mask="url(#mask0_295_35806)">
<g filter="url(#filter0_f_295_35806)">
<ellipse cx="139.04" cy="106.119" rx="92.4" ry="92.9191" fill="#D9D7FF"/>
</g>
<g filter="url(#filter1_f_295_35806)">
<ellipse cx="77.4401" cy="3.9602" rx="78.32" ry="78.76" fill="#CC81F4"/>
</g>
<g filter="url(#filter2_f_295_35806)">
<ellipse cx="23.7599" cy="77.0002" rx="78.32" ry="78.76" fill="#F8C3F9"/>
</g>
<g filter="url(#filter3_f_295_35806)">
<ellipse cx="67.7599" cy="181.72" rx="78.32" ry="78.76" fill="#AEA5FF"/>
</g>
</g>
<defs>
<filter id="filter0_f_295_35806" x="-19.4273" y="-52.8672" width="316.935" height="317.973" filterUnits="userSpaceOnUse" color-interpolation-filters="sRGB">
<feFlood flood-opacity="0" result="BackgroundImageFix"/>
<feBlend mode="normal" in="SourceGraphic" in2="BackgroundImageFix" result="shape"/>
<feGaussianBlur stdDeviation="33.0337" result="effect1_foregroundBlur_295_35806"/>
</filter>
<filter id="filter1_f_295_35806" x="-56.8799" y="-130.8" width="268.64" height="269.52" filterUnits="userSpaceOnUse" color-interpolation-filters="sRGB">
<feFlood flood-opacity="0" result="BackgroundImageFix"/>
<feBlend mode="normal" in="SourceGraphic" in2="BackgroundImageFix" result="shape"/>
<feGaussianBlur stdDeviation="28" result="effect1_foregroundBlur_295_35806"/>
</filter>
<filter id="filter2_f_295_35806" x="-110.56" y="-57.7598" width="268.64" height="269.52" filterUnits="userSpaceOnUse" color-interpolation-filters="sRGB">
<feFlood flood-opacity="0" result="BackgroundImageFix"/>
<feBlend mode="normal" in="SourceGraphic" in2="BackgroundImageFix" result="shape"/>
<feGaussianBlur stdDeviation="28" result="effect1_foregroundBlur_295_35806"/>
</filter>
<filter id="filter3_f_295_35806" x="-66.5601" y="46.96" width="268.64" height="269.52" filterUnits="userSpaceOnUse" color-interpolation-filters="sRGB">
<feFlood flood-opacity="0" result="BackgroundImageFix"/>
<feBlend mode="normal" in="SourceGraphic" in2="BackgroundImageFix" result="shape"/>
<feGaussianBlur stdDeviation="28" result="effect1_foregroundBlur_295_35806"/>
</filter>
</defs>
</svg>
