<svg width="176" height="176" viewBox="0 0 176 176" fill="none" xmlns="http://www.w3.org/2000/svg">
<mask id="mask0_295_35272" style="mask-type:alpha" maskUnits="userSpaceOnUse" x="0" y="0" width="176" height="176">
<path fill-rule="evenodd" clip-rule="evenodd" d="M73.1237 0.207096C71.9696 0.4958 70.6912 1.38516 70.069 2.3317C67.7282 5.89271 70.161 10.562 74.3435 10.5352C78.6456 10.508 81.0727 5.91264 78.6689 2.3457C77.5814 0.731844 75.0016 -0.263088 73.1237 0.207096ZM98.2937 0.435548C95.6315 1.64469 94.5889 4.90656 96.0009 7.60928C96.8637 9.26061 98.2871 10.182 100.238 10.3523C101.443 10.4574 101.795 10.3834 102.926 9.7875C107.79 7.22379 106.042 0 100.557 0C99.7975 0 98.8517 0.181952 98.2937 0.435548ZM123.992 8.088C121.96 8.65877 120.243 11.0296 120.249 13.2572C120.252 14.2789 121.155 16.279 121.939 16.9992C124.015 18.9074 127.534 18.6785 129.437 16.5112C130.399 15.4159 130.759 14.2289 130.639 12.5588C130.407 9.35575 127.188 7.19081 123.992 8.088ZM47.1528 8.95507C45.3952 9.87337 44.5154 11.1708 44.3797 13.0439C44.2473 14.876 44.7675 16.2887 45.9779 17.3821C47.1438 18.4354 48.3134 18.8085 50.0541 18.6825C53.4956 18.4337 55.7611 14.6222 54.3266 11.4951C53.0114 8.62793 49.8928 7.52388 47.1528 8.95507ZM86.2049 14.2172C83.8938 14.7493 82.5279 16.4251 82.5279 18.7281C82.5279 22.6817 87.1972 24.7228 90.2026 22.083C91.2652 21.1497 91.8324 19.2469 91.5052 17.713C91.0075 15.3799 88.4583 13.6984 86.2049 14.2172ZM107.071 15.8406C103.76 17.3951 103.455 21.8519 106.52 23.8807C107.346 24.4272 107.778 24.5425 109 24.5425C110.262 24.5425 110.628 24.4379 111.487 23.8308C114.193 21.9195 114.182 18.0067 111.466 16.2092C110.237 15.396 108.354 15.238 107.071 15.8406ZM63.7008 17.8783C62.5707 18.298 61.4624 19.3126 61.0297 20.3242C60.4978 21.5672 60.6126 23.3979 61.2958 24.5634C62.0929 25.9237 64.0273 26.911 65.5567 26.7385C67.0445 26.5708 68.2999 25.8461 69.1245 24.6789C70.0723 23.3372 70.1363 21.2353 69.2719 19.8414C68.1246 17.9913 65.6988 17.1365 63.7008 17.8783ZM144.563 23.6313C141.825 25.072 140.853 28.0563 142.225 30.8098C144.657 35.6893 152.038 33.7398 152.032 28.2195C152.031 27.2135 151.123 25.211 150.344 24.4946C149.013 23.2715 146.079 22.8333 144.563 23.6313ZM27.3727 23.9291C22.4943 25.1515 21.7373 31.488 26.1865 33.8582C27.1323 34.362 29.7433 34.363 30.6988 33.8598C33.8373 32.2073 34.6356 28.0084 32.2825 25.5289C31.052 24.2325 28.926 23.5395 27.3727 23.9291ZM127.008 24.8189C125.962 25.3716 125.469 25.861 124.966 26.846C124.116 28.5116 124.544 31.1082 125.864 32.3027C127.765 34.0214 131.164 33.6954 132.729 31.6444C133.345 30.8361 133.413 30.5674 133.413 28.9312C133.413 27.3064 133.343 27.0232 132.747 26.2418C132.381 25.7614 131.664 25.156 131.155 24.8962C130.027 24.3207 128.021 24.2835 127.008 24.8189ZM43.2623 26.8766C42.8685 27.0555 42.2126 27.5816 41.8048 28.0461C40.4441 29.5959 40.2225 31.3704 41.147 33.3182C42.1666 35.467 45.4856 36.3037 47.5863 34.9416C48.9313 34.0695 49.6575 32.7128 49.661 31.0644C49.6646 29.5207 49.146 28.4931 47.8247 27.4251C47.0755 26.8197 46.6812 26.6868 45.4524 26.6254C44.5578 26.5808 43.6969 26.6795 43.2623 26.8766ZM76.1446 30.393C74.9489 31.2131 74.4085 32.0792 74.2916 33.3617C74.1469 34.9487 74.9428 36.4179 76.3505 37.1623C77.6498 37.8495 78.5837 37.8526 79.9255 37.1748C81.3446 36.4579 82.0534 35.3558 82.0534 33.866C82.0534 32.5278 81.6883 31.7113 80.6471 30.7213C80.0263 30.1311 79.6771 30.0063 78.4317 29.9297C77.18 29.8526 76.829 29.9238 76.1446 30.393ZM94.8762 30.6447C93.687 31.2819 92.7286 32.7873 92.7286 34.0185C92.7286 35.0903 93.6668 36.7886 94.6022 37.4102C96.9882 38.9958 100.557 37.0878 100.557 34.2261C100.557 31.0784 97.5758 29.1988 94.8762 30.6447ZM113.409 32.8889C112.164 33.5023 111.47 34.7262 111.47 36.3052C111.47 38.0037 112.122 39.0442 113.667 39.8109C115.34 40.6407 116.706 40.3885 118.036 39.0043C119.369 37.6168 119.597 36.312 118.791 34.687C118.044 33.1816 116.974 32.488 115.408 32.4951C114.742 32.4979 113.843 32.6751 113.409 32.8889ZM57.8468 33.5104C56.6799 34.1274 55.7212 35.6405 55.7212 36.8653C55.7212 37.937 56.6595 39.6354 57.5949 40.2569C59.3261 41.4074 62.0255 40.7119 63.0748 38.8447C63.498 38.0917 63.5832 37.6415 63.4975 36.6093C63.3673 35.0381 62.816 34.2164 61.4099 33.4978C60.0831 32.8198 59.1463 32.8231 57.8468 33.5104ZM143.56 39.8315C140.782 40.5102 139.36 43.705 140.65 46.3697C141.444 48.0104 142.684 48.7396 144.681 48.7396C146.004 48.7396 146.417 48.6346 147.244 48.087C148.488 47.2634 149.189 45.9275 149.189 44.3758C149.189 42.9295 148.88 42.0672 148.047 41.1866C146.896 39.9708 145.15 39.4434 143.56 39.8315ZM27.8609 41.8527C26.4828 42.3516 25.7761 42.9487 25.1783 44.1185C23.6527 47.1042 25.5481 50.4666 28.893 50.7086C33.2058 51.0206 35.4818 45.827 32.3162 42.8972C31.0008 41.6798 29.3848 41.3009 27.8609 41.8527ZM129.5 42.7345C126.784 44.1327 126.646 48.0716 129.262 49.5419C131.743 50.9359 134.816 49.4195 135.129 46.648C135.477 43.5612 132.251 41.3185 129.5 42.7345ZM42.3179 43.501C39.9023 44.5794 39.2112 47.7499 40.9759 49.6584C43.3413 52.2164 47.331 50.91 47.7903 47.4271C48.1599 44.6223 44.9559 42.3236 42.3179 43.501ZM72.8765 44.3294C71.6987 44.8738 71.0648 45.9318 71.0632 47.3568C71.0596 50.2045 74.4885 51.552 76.5338 49.5066C79.1348 46.9059 76.2224 42.7831 72.8765 44.3294ZM100.811 44.2793C99.5842 44.9241 99.0424 45.8108 99.0424 47.1739C99.0424 50.6562 103.581 51.7183 105.188 48.6118C106.571 45.9373 103.479 42.8768 100.811 44.2793ZM161.168 44.3267C158.651 44.9708 157.155 46.8814 157.156 49.4513C157.158 52.5158 159.286 54.63 162.376 54.6373C164.166 54.6414 165.725 53.8189 166.689 52.3616C167.261 51.4979 167.336 51.1584 167.336 49.4513C167.336 47.7442 167.261 47.4048 166.689 46.541C165.563 44.8389 163.072 43.8397 161.168 44.3267ZM11.5326 45.3774C9.37143 46.0497 8.03868 47.9108 8.03868 50.2567C8.03868 51.9915 8.3167 52.7734 9.29858 53.8016C10.5699 55.1322 11.6694 55.5635 13.5234 55.4586C15.5538 55.344 16.855 54.5199 17.7491 52.7825C19.274 49.8193 17.6824 46.1102 14.5472 45.3207C13.2947 45.0055 12.6924 45.0166 11.5326 45.3774ZM58.9523 47.321C57.4124 47.8503 56.6694 48.8687 56.6711 50.4477C56.673 52.4176 58.2309 53.7411 60.3125 53.5411C61.3046 53.4457 61.6353 53.2832 62.2896 52.5692C62.9808 51.8148 63.0753 51.5543 63.0753 50.4002C63.0753 49.2506 62.9799 48.9847 62.3043 48.2491C61.3653 47.2268 60.1804 46.8988 58.9523 47.321ZM114.862 47.6484C113.344 48.6018 112.903 50.7084 113.908 52.2003C114.605 53.2344 115.344 53.595 116.776 53.5992C117.803 53.6023 118.032 53.501 118.852 52.6819C119.703 51.83 119.772 51.6604 119.772 50.4247C119.772 49.2409 119.682 48.9899 118.981 48.2251C118.294 47.4747 118.022 47.3492 116.906 47.2665C115.912 47.1929 115.449 47.2793 114.862 47.6484ZM86.9066 48.5926C84.7037 49.5932 84.3087 52.2556 86.1074 53.9788C86.7365 54.5818 87.0069 54.6703 88.2177 54.6703C89.3716 54.6703 89.7137 54.57 90.2411 54.0772C91.2127 53.1694 91.6117 52.2307 91.4713 51.1828C91.3002 49.9085 90.7274 49.1332 89.5668 48.6063C88.3413 48.05 88.1039 48.0488 86.9066 48.5926ZM46.9486 56.6279C45.3058 57.4532 44.6027 59.411 45.3971 60.9476C46.5282 63.1348 49.4395 63.4309 50.9063 61.5077C52.1647 59.8577 51.5214 57.3256 49.6442 56.5413C48.6021 56.1058 47.9457 56.1269 46.9486 56.6279ZM126.652 56.8542C126.099 57.0566 125.218 57.9258 124.85 58.632C123.723 60.7993 125.75 63.5744 128.194 63.2095C129.525 63.0107 130.18 62.5085 130.73 61.2654C131.148 60.3215 131.171 60.0658 130.919 59.1672C130.604 58.0418 129.972 57.3272 128.95 56.9399C128.246 56.6732 127.249 56.636 126.652 56.8542ZM65.3318 58.6438C63.499 60.3661 64.5148 63.0918 66.9895 63.0918C68.926 63.0918 70.1904 61.1947 69.3853 59.4979C68.5661 57.7718 66.6821 57.3749 65.3318 58.6438ZM107.509 58.3236C106.512 58.9487 106.046 60.3645 106.486 61.427C106.942 62.5284 107.803 63.0918 109.029 63.0918C112.198 63.0918 112.371 58.3516 109.216 57.9644C108.525 57.8797 108.061 57.9775 107.509 58.3236ZM140.174 58.1393C137.407 59.2428 136.898 63.2136 139.293 65.011C140.388 65.8325 142.789 65.8328 143.94 65.0115C145.029 64.2346 145.728 62.6162 145.525 61.3399C145.125 58.8227 142.459 57.2281 140.174 58.1393ZM76.6921 58.9167C75.7479 59.8608 75.6298 60.8902 76.3327 62.0433C77.6403 64.1876 81.1045 63.2883 81.1045 60.8045C81.1045 59.1465 80.1255 58.1236 78.5306 58.1153C77.6697 58.111 77.3651 58.2437 76.6921 58.9167ZM95.5936 58.84C95.0024 59.4312 94.8636 59.7659 94.8636 60.601C94.8636 63.4048 98.5651 64.3231 99.7607 61.816C101.013 59.1904 97.647 56.7866 95.5936 58.84ZM31.2774 59.1309C29.8787 59.8705 29.0591 61.3656 29.2515 62.8262C29.436 64.227 30.1945 65.3813 31.3014 65.9459C33.0362 66.831 34.8662 66.4322 36.2378 64.8701C36.9979 64.0042 37.0261 63.9027 36.9383 62.3517C36.8593 60.9518 36.7528 60.6354 36.1427 59.9865C34.7575 58.5138 33.0215 58.2085 31.2774 59.1309ZM151.601 60.2798C150.034 61.0555 149.307 62.3218 149.307 64.278C149.307 65.601 149.412 66.0133 149.96 66.8407C150.319 67.3833 151.035 68.0425 151.552 68.3061C152.589 68.8353 154.439 68.9411 155.519 68.5329C156.36 68.2152 157.422 67.2198 157.907 66.2944C158.387 65.3778 158.388 63.1806 157.908 62.2616C156.736 60.0167 153.92 59.1318 151.601 60.2798ZM17.2976 61.5696C15.6164 62.2988 14.681 63.767 14.681 65.6764C14.681 67.1705 14.9925 67.9932 15.9239 68.9587C18.8693 72.0125 23.9988 69.5983 23.6444 65.3251C23.3865 62.2136 20.183 60.3182 17.2976 61.5696ZM55.609 65.0544C54.9173 65.7462 54.7723 66.0636 54.7723 66.8875C54.7723 67.7042 54.9178 68.0292 55.5789 68.6904C57.3527 70.4641 60.2089 69.0534 59.9028 66.5546C59.7465 65.2772 58.9105 64.4955 57.5348 64.3404C56.5311 64.2275 56.38 64.2834 55.609 65.0544ZM117.492 64.4984C116.631 64.8673 115.977 65.9227 115.977 66.9432C115.977 67.6967 116.137 68.0444 116.783 68.6904C117.445 69.3515 117.77 69.497 118.586 69.497C119.41 69.497 119.728 69.352 120.419 68.6603C121.19 67.8893 121.246 67.7382 121.133 66.7345C120.977 65.3481 120.195 64.5169 118.919 64.3819C118.41 64.3278 117.768 64.3802 117.492 64.4984ZM86.068 65.4458C85.084 66.4299 85.0835 67.9775 86.0668 69.078C86.6793 69.7636 86.9002 69.8528 87.9841 69.8528C89.068 69.8528 89.2888 69.7636 89.9013 69.078C91.504 67.2844 90.3428 64.769 87.9065 64.7576C86.9533 64.7534 86.6452 64.8687 86.068 65.4458ZM168.789 69.3568C166.827 70.0865 165.335 72.2199 165.325 74.3084C165.312 77.265 167.548 79.4437 170.608 79.4553C174.607 79.4705 176.978 75.4459 175.095 71.8408C173.922 69.5945 171.119 68.4907 168.789 69.3568ZM41.0625 69.6554C40.2768 69.8208 38.9728 71.2181 38.8006 72.0792C38.3299 74.4329 40.5297 76.6097 42.8023 76.0394C43.1359 75.9557 43.7909 75.537 44.258 75.109C44.9649 74.4609 45.1241 74.1345 45.2083 73.1593C45.41 70.829 43.4317 69.1573 41.0625 69.6554ZM3.55865 70.3275C0.0334636 71.4268 -1.19371 76.15 1.34959 78.8299C4.60695 82.2619 10.4109 80.0066 10.4109 75.309C10.4109 73.0729 8.84928 70.9421 6.75433 70.3201C5.34758 69.9024 4.91915 69.9033 3.55865 70.3275ZM131.863 70.6404C128.642 72.0683 129.271 76.5744 132.752 77.005C135.349 77.3262 137.205 74.0289 135.653 71.85C134.843 70.7125 133.016 70.1294 131.863 70.6404ZM51.5249 75.4163C50.5922 75.9851 50.1972 77.1784 50.5359 78.4053C50.6871 78.9523 51.0339 79.4097 51.5249 79.7091C53.7122 81.0428 56.1345 79.1981 55.4503 76.72C55.1804 75.7424 54.0841 74.9548 52.9931 74.9548C52.6017 74.9548 51.941 75.1624 51.5249 75.4163ZM121.614 75.3244C120.885 75.7201 120.246 76.7881 120.248 77.6101C120.249 78.4008 121.098 79.6723 121.805 79.9409C123.791 80.6962 125.466 79.5383 125.466 77.4092C125.466 76.767 125.274 76.3744 124.659 75.7598C123.755 74.8552 122.745 74.7107 121.614 75.3244ZM142.068 77.0531C140.787 77.7337 140.174 78.8129 140.175 80.3852C140.177 83.2561 142.691 85.0856 145.278 84.0978C147.837 83.1204 148.696 80.0607 147.013 77.9206C145.994 76.6251 143.648 76.2136 142.068 77.0531ZM28.128 77.1869C26.4349 77.8054 25.5935 79.0378 25.5935 80.8997C25.5935 85.4457 31.8871 86.257 33.1985 81.8802C34.0731 78.9607 31.0169 76.132 28.128 77.1869ZM155.27 81.6952C154.252 82.07 153.107 83.058 152.627 83.9761C151.063 86.9692 153.275 90.6101 156.659 90.6101C158.089 90.6101 159.113 90.1573 160.02 89.1239C161.976 86.8961 161.53 83.6392 159.072 82.1988C157.789 81.4468 156.433 81.2672 155.27 81.6952ZM15.0853 83.129C13.089 83.6494 11.7788 85.3283 11.7513 87.4014C11.7048 90.8848 15.2044 93.0858 18.3604 91.5579C21.4885 90.0436 21.6828 85.483 18.6954 83.6959C17.3543 82.8936 16.5015 82.7598 15.0853 83.129ZM40.8251 84.6662C38.3978 85.7951 38.403 89.2643 40.8341 90.5214C42.7753 91.5254 45.2543 90.0875 45.4477 87.8455C45.6733 85.2315 43.2267 83.5491 40.8251 84.6662ZM129.36 85.2415C127.718 85.9842 126.973 88.0049 127.758 89.5846C129.278 92.6415 133.58 91.8454 133.927 88.4428C134.168 86.0782 131.557 84.248 129.36 85.2415ZM54.3876 86.4409C53.38 86.8833 52.8745 87.6818 52.8745 88.8309C52.8745 90.0055 53.3883 90.789 54.4495 91.2324C56.594 92.1284 58.7604 89.8332 57.7597 87.725C57.1342 86.4065 55.7051 85.8623 54.3876 86.4409ZM118.911 86.7604C116.612 88.6226 118.535 92.2392 121.333 91.3157C122.758 90.8452 123.51 89.0217 122.829 87.6885C122.363 86.778 121.614 86.3505 120.484 86.3505C119.826 86.3505 119.223 86.5078 118.911 86.7604ZM61.9361 95.2771C60.5697 95.9506 60.0492 97.7234 60.8667 98.9195C62.4051 101.171 65.6848 100.249 65.6848 97.5652C65.6848 96.4348 65.1603 95.646 64.1193 95.2109C63.1232 94.7948 62.9011 94.8015 61.9361 95.2771ZM111.707 95.2899C110.553 95.8744 109.915 97.2046 110.272 98.2837C110.949 100.339 113.111 100.848 114.728 99.3337C116.732 97.4565 114.178 94.0381 111.707 95.2899ZM139.011 95.5974C137.932 96.2735 137.407 96.9517 137.132 98.024C136.302 101.253 139.625 103.943 142.64 102.484C145.268 101.211 145.604 97.4999 143.244 95.8192C142.12 95.0188 140.102 94.9132 139.011 95.5974ZM169.946 95.3592C166.308 95.9076 164.42 99.8883 166.27 103.113C167.924 105.999 171.7 106.623 174.148 104.416C176.349 102.432 176.619 99.4022 174.793 97.1882C173.61 95.7546 171.815 95.0774 169.946 95.3592ZM30.5728 96.1257C28.735 97.3763 28.2053 99.3607 29.1957 101.285C29.808 102.476 31.3168 103.424 32.5826 103.415C33.6679 103.407 35.1791 102.624 35.8056 101.744C36.6409 100.571 36.7258 98.5819 35.9875 97.4954C34.6923 95.5895 32.2633 94.9751 30.5728 96.1257ZM3.17553 96.6971C1.1973 97.7383 0.2102 99.3719 0.2102 101.605C0.2102 102.93 0.311021 103.28 0.981186 104.283C1.87292 105.618 3.79825 106.742 5.19219 106.742C8.3995 106.742 11.008 103.801 10.5443 100.708C10.3244 99.2412 9.11522 97.527 7.82352 96.8509C6.56124 96.1902 4.28196 96.1147 3.17553 96.6971ZM46.3043 98.4282C45.2505 99.0708 44.7296 99.9642 44.731 101.126C44.7327 102.418 45.3395 103.552 46.2955 104.048C47.2867 104.562 48.873 104.559 49.6646 104.04C50.5371 103.468 51.212 102.266 51.213 101.282C51.2158 98.7674 48.4166 97.1403 46.3043 98.4282ZM124.804 98.8445C124.016 98.9954 122.714 100.395 122.537 101.281C122.126 103.334 123.75 105.318 125.841 105.318C126.766 105.318 128.214 104.413 128.683 103.542C129.239 102.51 129.044 100.764 128.281 99.9353C127.337 98.9114 126.244 98.5686 124.804 98.8445ZM70.1358 103.554C67.8037 104.82 68.727 108.481 71.3782 108.481C72.8943 108.481 73.9877 107.332 73.9877 105.739C73.9877 103.84 71.8472 102.626 70.1358 103.554ZM103.142 103.725C101.236 105.007 101.637 107.786 103.815 108.387C104.751 108.646 105.612 108.398 106.425 107.637C107.618 106.519 107.201 104.287 105.663 103.557C104.598 103.052 104.094 103.085 103.142 103.725ZM150.652 103.692C147.512 105.247 147.465 110.141 150.575 111.696C151.879 112.348 152.843 112.455 154.076 112.084C155.594 111.627 156.712 110.488 157.162 108.939C157.488 107.818 157.488 107.563 157.161 106.438C156.354 103.664 153.307 102.378 150.652 103.692ZM19.6068 104.606C15.8596 105.734 15.0174 110.527 18.1744 112.758C21.9435 115.421 26.828 111.309 24.9102 107.088C23.9815 105.043 21.7006 103.975 19.6068 104.606ZM56.3428 109.712C55.2776 110.078 54.839 110.432 54.4008 111.279C53.6147 112.799 54.2566 114.88 55.7499 115.652C56.8896 116.242 58.6325 116.01 59.5294 115.151C62.0438 112.742 59.6103 108.588 56.3428 109.712ZM115.073 111.255C113.717 112.082 113.257 113.883 114.001 115.452C114.589 116.692 115.588 117.226 117.109 117.114C119.4 116.944 120.717 114.92 119.91 112.808C119.182 110.903 116.869 110.16 115.073 111.255ZM78.587 111.719C77.7883 112.041 77.0716 113.13 77.0716 114.021C77.0716 115.704 78.1019 116.705 79.8346 116.705C80.9678 116.705 82.2906 115.434 82.2906 114.345C82.2906 112.335 80.3923 110.989 78.587 111.719ZM94.9381 111.949C93.9928 112.525 93.6773 113.104 93.6787 114.258C93.6818 116.687 96.6753 117.648 98.2837 115.736C99.36 114.457 98.883 112.465 97.3464 111.823C96.2758 111.376 95.8403 111.399 94.9381 111.949ZM39.9528 112.502C38.6051 113.265 37.9292 114.373 37.9292 115.818C37.9292 118.283 39.6951 119.938 42.1125 119.737C43.6836 119.607 44.5054 119.055 45.224 117.649C45.902 116.322 45.8986 115.386 45.2114 114.086C44.1904 112.155 41.8238 111.442 39.9528 112.502ZM130.792 112.281C129.808 112.727 128.839 113.933 128.649 114.946C128.133 117.697 130.144 119.993 132.843 119.733C136.486 119.383 137.642 114.82 134.654 112.589C133.858 111.995 131.786 111.83 130.792 112.281ZM66.9701 119.769C66.2138 120.095 65.2464 121.372 65.0786 122.266C64.7866 123.823 65.6397 125.245 67.2298 125.852C68.2349 126.236 68.3536 126.236 69.3592 125.852C71.7903 124.924 72.3264 122.2 70.435 120.388C69.6839 119.668 67.9308 119.355 66.9701 119.769ZM86.1812 120.596C85.5017 121.275 85.3746 121.571 85.3746 122.475C85.3746 123.357 85.5046 123.678 86.1045 124.278C86.7045 124.878 87.0254 125.008 87.9074 125.008C88.8113 125.008 89.1076 124.881 89.787 124.201C90.4481 123.54 90.5936 123.215 90.5936 122.399C90.5936 121.582 90.4481 121.257 89.787 120.596C89.1258 119.934 88.8008 119.789 87.9841 119.789C87.1673 119.789 86.8423 119.934 86.1812 120.596ZM160.694 120.706C159.395 121.298 158.12 122.781 157.738 124.143C156.871 127.24 159.421 130.682 162.592 130.695C164.006 130.701 165.094 130.325 166.122 129.478C168.465 127.544 168.576 123.753 166.35 121.64C164.903 120.267 162.522 119.874 160.694 120.706ZM12.3379 121.221C10.986 121.526 9.64067 122.641 8.9093 124.061C8.33023 125.185 8.25432 125.556 8.35632 126.765C8.54278 128.97 10.0679 130.77 12.3228 131.445C14.3994 132.067 17.143 130.817 18.1872 128.774C20.188 124.857 16.6218 120.252 12.3379 121.221ZM104.483 122.183C102.899 123.573 102.9 125.732 104.485 127.124C106.506 128.897 109.805 127.395 109.808 124.7C109.81 122.772 108.44 121.452 106.437 121.451C105.524 121.45 105.164 121.585 104.483 122.183ZM141.479 123.446C140.111 124.057 138.748 126.048 138.752 127.432C138.756 129.159 140.041 131.184 141.527 131.804C142.446 132.188 144.158 132.221 145.081 131.872C146.605 131.297 147.992 129.269 147.992 127.617C147.992 125.966 146.605 123.938 145.081 123.363C144.17 123.018 142.342 123.061 141.479 123.446ZM29.7404 123.915C29.3466 124.087 28.6907 124.607 28.2829 125.072C25.583 128.147 27.5703 132.599 31.6427 132.599C33.5674 132.599 34.8273 131.84 35.6526 130.184C36.3242 128.836 36.3946 128.199 36.021 126.854C35.3197 124.329 32.1718 122.856 29.7404 123.915ZM53.5658 125.946C51.747 126.498 50.6175 128.164 50.7969 130.03C50.9238 131.349 51.458 132.211 52.6591 133.035C53.3435 133.505 53.6946 133.576 54.9462 133.499C56.1917 133.422 56.5409 133.297 57.1617 132.707C58.1773 131.741 58.5687 130.904 58.5642 129.705C58.5542 127.106 56.0225 125.202 53.5658 125.946ZM119.586 126.837C118.717 127.004 117.241 128.575 116.96 129.634C116.508 131.328 117.213 133.152 118.658 134.033C119.694 134.664 121.757 134.66 122.799 134.024C124.358 133.074 125.077 130.984 124.401 129.368C123.528 127.276 121.863 126.401 119.586 126.837ZM79.5189 130.439C77.9022 131.192 77.2583 132.948 77.9914 134.605C78.5396 135.844 79.3326 136.417 80.6927 136.557C83.2701 136.823 85.0771 133.941 83.7244 131.722C82.7769 130.169 81.16 129.675 79.5189 130.439ZM93.5511 130.452C92.3623 131.055 91.7795 132.008 91.7806 133.347C91.7828 135.858 94.1593 137.326 96.4571 136.236C99.2682 134.902 98.4538 130.558 95.3039 130.086C94.7754 130.007 94.1861 130.13 93.5511 130.452ZM68.3512 137.119C66.9515 137.831 66.3222 138.798 66.2095 140.412C66.103 141.935 66.6512 142.986 68.0385 143.921C70.4146 145.522 73.9877 143.603 73.9877 140.725C73.9877 137.727 70.9628 135.792 68.3512 137.119ZM105.183 138.533C102.613 139.082 101.305 141.729 102.443 144.08C103.131 145.5 104.298 146.225 105.886 146.217C108.135 146.205 109.577 144.884 109.761 142.666C109.933 140.586 108.795 139.015 106.8 138.579C106.302 138.47 105.574 138.449 105.183 138.533ZM45.6272 139.101C44.8178 139.453 43.6972 140.679 43.3425 141.601C42.758 143.118 43.3216 145.584 44.4957 146.646C46.5251 148.481 50.0012 147.997 51.495 145.672C52.1273 144.688 52.1887 144.421 52.1135 142.991C52.043 141.647 51.9194 141.265 51.3086 140.5C50.9119 140.004 50.2211 139.411 49.7737 139.183C48.804 138.688 46.6713 138.646 45.6272 139.101ZM126.929 140.225C123.697 141.825 123.744 146.732 127.008 148.436C127.927 148.915 130.124 148.915 131.041 148.434C131.966 147.949 132.962 146.887 133.279 146.046C133.418 145.679 133.532 144.819 133.532 144.136C133.532 140.824 129.975 138.718 126.929 140.225ZM146.579 141.602C144.043 142.105 142.3 144.279 142.314 146.922C142.326 149.089 144.143 151.287 146.363 151.82C150.475 152.806 154.055 148.431 152.3 144.566C151.737 143.327 150.07 141.9 148.972 141.715C148.504 141.637 147.961 141.542 147.765 141.505C147.569 141.467 147.036 141.511 146.579 141.602ZM86.8027 142.148C85.5857 142.77 84.9469 143.557 84.6721 144.775C84.1109 147.264 85.9012 149.497 88.4585 149.497C91.6651 149.497 93.4934 145.891 91.6037 143.293C91.0673 142.555 89.3033 141.614 88.4585 141.614C88.1224 141.614 87.3772 141.854 86.8027 142.148ZM27.5719 142.429C23.1631 143.808 22.481 149.635 26.4558 151.965C27.3406 152.483 27.8597 152.615 29.0114 152.612C32.1022 152.605 34.2309 150.49 34.2309 147.426C34.2309 144.949 32.8929 143.154 30.5209 142.45C29.0864 142.024 28.871 142.022 27.5719 142.429ZM65.0917 149.528C63.6076 150.218 62.3581 152.161 62.3688 153.764C62.3809 155.586 64.1354 157.804 65.8131 158.119C67.9154 158.513 69.7888 157.782 70.9251 156.123C71.3882 155.448 71.4968 154.99 71.4968 153.712C71.4968 151.914 70.9673 150.888 69.533 149.905C68.5282 149.216 66.1903 149.018 65.0917 149.528ZM108.673 151.12C107.52 151.472 106.153 152.958 105.791 154.253C105.247 156.194 105.864 158.002 107.465 159.162C110.583 161.421 114.782 159.176 114.789 155.245C114.791 154.147 113.836 152.492 112.773 151.754C111.699 151.009 109.933 150.736 108.673 151.12ZM86.4421 154.345C84.7825 155.222 83.9512 156.595 83.9512 158.459C83.9512 161.1 85.8161 162.964 88.4585 162.964C91.1019 162.964 92.9658 161.1 92.9658 158.457C92.9658 155.785 91.0955 153.939 88.4087 153.959C87.7184 153.964 86.8335 154.138 86.4421 154.345ZM124.398 157.476C120.486 159.258 120.183 164.641 123.876 166.759C126.54 168.287 129.768 167.322 131.181 164.575C131.773 163.425 131.774 161.28 131.185 159.982C130.08 157.55 126.853 156.358 124.398 157.476ZM47.912 158.136C44.1446 160.013 44.1681 165.452 47.9518 167.338C49.9215 168.32 52.0122 168.095 53.6761 166.722C54.863 165.743 55.4736 164.386 55.4736 162.727C55.4736 158.705 51.5506 156.323 47.912 158.136ZM73.8311 165.677C70.2291 166.804 68.8468 171.137 71.1849 173.973C74.3333 177.793 80.4607 175.614 80.4607 170.674C80.4607 168.22 78.9294 166.276 76.5004 165.646C75.0922 165.281 75.0984 165.281 73.8311 165.677ZM99.4711 165.673C95.6076 167.355 95.1549 172.653 98.6756 174.983C99.8046 175.73 101.597 175.96 103.112 175.552C104.877 175.077 106.397 173.347 106.836 171.316C107.245 169.419 105.839 166.811 103.862 165.803C102.786 165.254 100.584 165.189 99.4711 165.673Z" fill="white"/>
</mask>
<g mask="url(#mask0_295_35272)">
<g filter="url(#filter0_f_295_35272)">
<ellipse cx="121.44" cy="94.5998" rx="78.32" ry="78.76" fill="#D9D7FF"/>
</g>
<g filter="url(#filter1_f_295_35272)">
<ellipse cx="77.4401" cy="3.9602" rx="78.32" ry="78.76" fill="#CC81F4"/>
</g>
<g filter="url(#filter2_f_295_35272)">
<ellipse cx="23.7599" cy="77.0002" rx="78.32" ry="78.76" fill="#F8C3F9"/>
</g>
<g filter="url(#filter3_f_295_35272)">
<ellipse cx="67.7599" cy="181.72" rx="78.32" ry="78.76" fill="#AEA5FF"/>
</g>
</g>
<defs>
<filter id="filter0_f_295_35272" x="-12.8799" y="-40.1602" width="268.64" height="269.52" filterUnits="userSpaceOnUse" color-interpolation-filters="sRGB">
<feFlood flood-opacity="0" result="BackgroundImageFix"/>
<feBlend mode="normal" in="SourceGraphic" in2="BackgroundImageFix" result="shape"/>
<feGaussianBlur stdDeviation="28" result="effect1_foregroundBlur_295_35272"/>
</filter>
<filter id="filter1_f_295_35272" x="-56.8799" y="-130.8" width="268.64" height="269.52" filterUnits="userSpaceOnUse" color-interpolation-filters="sRGB">
<feFlood flood-opacity="0" result="BackgroundImageFix"/>
<feBlend mode="normal" in="SourceGraphic" in2="BackgroundImageFix" result="shape"/>
<feGaussianBlur stdDeviation="28" result="effect1_foregroundBlur_295_35272"/>
</filter>
<filter id="filter2_f_295_35272" x="-110.56" y="-57.7598" width="268.64" height="269.52" filterUnits="userSpaceOnUse" color-interpolation-filters="sRGB">
<feFlood flood-opacity="0" result="BackgroundImageFix"/>
<feBlend mode="normal" in="SourceGraphic" in2="BackgroundImageFix" result="shape"/>
<feGaussianBlur stdDeviation="28" result="effect1_foregroundBlur_295_35272"/>
</filter>
<filter id="filter3_f_295_35272" x="-66.5601" y="46.96" width="268.64" height="269.52" filterUnits="userSpaceOnUse" color-interpolation-filters="sRGB">
<feFlood flood-opacity="0" result="BackgroundImageFix"/>
<feBlend mode="normal" in="SourceGraphic" in2="BackgroundImageFix" result="shape"/>
<feGaussianBlur stdDeviation="28" result="effect1_foregroundBlur_295_35272"/>
</filter>
</defs>
</svg>
