<svg width="176" height="176" viewBox="0 0 176 176" fill="none" xmlns="http://www.w3.org/2000/svg">
<mask id="mask0_295_36038" style="mask-type:alpha" maskUnits="userSpaceOnUse" x="5" y="0" width="167" height="177">
<path fill-rule="evenodd" clip-rule="evenodd" d="M92.9519 29.8572L95.8954 0.350271L92.0926 0L92.9519 29.8572ZM88.4447 0.214215L88.2478 29.8669L84.6258 0.217786L88.4447 0.214215ZM82.752 30.3325L81.1359 0.723184L77.3243 0.960203L82.752 30.3325ZM73.0616 2.32294L78.249 31.5191L69.3068 3.01946L73.0616 2.32294ZM73.3372 33.2888L65.69 4.63844L62.0079 5.6512L73.3372 33.2888ZM58.2466 7.42095L68.5487 35.2272L54.6758 8.77479L58.2466 7.42095ZM64.1171 37.5793L51.2711 10.8528L47.8418 12.5332L64.1171 37.5793ZM45.0729 14.3906L59.7373 40.1642L41.768 16.3043L45.0729 14.3906ZM55.5717 43.2381L38.6825 18.8644L35.5601 21.0632L55.5717 43.2381ZM32.9339 23.7297L51.471 46.8749L29.9714 26.1395L32.9339 23.7297ZM48.3241 50.5498L27.2363 29.702L24.5721 32.4381L48.3241 50.5498ZM23.0953 35.6637L45.5665 55.0123L20.6255 38.5764L23.0953 35.6637ZM43.4837 59.109L18.5789 43.0132L16.5303 46.2361L43.4837 59.109ZM14.7434 48.9271L40.7974 63.0872L12.9452 52.2962L14.7434 48.9271ZM38.3383 67.8611L11.2778 55.7346L9.74253 59.2313L38.3383 67.8611ZM8.54528 63.6908L36.8329 72.5864L7.42731 67.3424L8.54528 63.6908ZM92.9314 67.6111C93.0919 66.8869 93.2612 65.798 93.3078 65.1912C93.3544 64.5846 93.4369 64.0881 93.4915 64.0881C93.5459 64.0881 93.6309 64.6131 93.6803 65.2547C93.9145 68.3011 95.3061 72.3779 97.1768 75.4977C100.269 80.6546 105.092 84.6175 110.75 86.6503C112.45 87.2611 114.962 87.8297 116.456 87.9418C118.168 88.0704 118.341 88.2127 116.901 88.3073C114.244 88.4821 110.907 89.4128 108.13 90.7539C100.325 94.5224 94.7574 102.264 93.7727 110.718C93.4916 113.13 93.4478 113.226 93.3359 111.674C92.9428 106.218 90.3097 100.471 86.2495 96.2075C81.8833 91.623 76.0927 88.8035 69.9961 88.2935L68.6655 88.1823L69.5094 88.0837C73.5551 87.6112 76.1833 86.8708 79.188 85.3569C86.1478 81.8501 91.2309 75.287 92.9314 67.6111ZM35.7104 77.6093L6.78434 71.0822L5.972 74.8136L35.7104 77.6093ZM103.532 0.658497L98.5839 29.8961L99.7619 0.049812L103.532 0.658497ZM103.171 30.6804L110.737 2.00843L107.037 1.0621L103.171 30.6804ZM118.445 3.9977L108.485 31.9287L114.838 2.74241L118.445 3.9977ZM112.93 32.9984L125.602 6.18899L122.137 4.58326L112.93 32.9984ZM133.235 9.34437L118.75 35.2191L129.889 7.50421L133.235 9.34437ZM122.539 36.9799L140.137 13.1127L137.046 10.8697L122.539 36.9799ZM146.305 17.2157L126.731 39.491L143.417 14.7167L146.305 17.2157ZM130.929 42.5665L152.609 22.3357L149.983 19.5634L130.929 42.5665ZM157.376 27.3206L134.641 46.3582L154.902 24.4114L157.376 27.3206ZM138.371 50.2619L162.877 33.5654L160.703 30.4257L138.371 50.2619ZM167.148 39.4227L141.304 53.9628L165.25 36.1087L167.148 39.4227ZM144.231 58.465L171.385 46.5513L169.825 43.0659L144.231 58.465ZM169.127 133.504L144.231 117.395L171.177 130.282L169.127 133.504ZM141.135 121.496L164.317 139.988L166.676 136.984L141.135 121.496ZM159.991 146.002L138.475 125.596L162.598 143.211L159.991 146.002ZM134.679 129.059L154.072 151.492L156.942 148.973L134.679 129.059ZM148.901 156.067L130.741 132.625L151.902 153.706L148.901 156.067ZM126.471 135.47L142.225 160.593L145.445 158.54L126.471 135.47ZM136.139 164.836L122.591 138.458L139.523 163.066L136.139 164.836ZM117.868 140.47L128.741 168.058L132.283 166.631L117.868 140.47ZM122.309 171.378L113.358 143.108L125.941 170.198L122.309 171.378ZM108.362 144.301L114.474 173.318L118.205 172.503L108.362 144.301ZM107.305 175.203L103.697 145.77L111.092 174.71L107.305 175.203ZM98.558 146.026L99.2389 175.672L103.056 175.555L98.558 146.026ZM92.3516 175.912L93.2634 146.273L96.1694 176.001L92.3516 175.912ZM88.1505 145.747L84.3127 175.151L88.1031 175.616L88.1505 145.747ZM76.9203 174.553L83.2581 145.584L80.6571 175.34L76.9203 174.553ZM78.3398 144.13L69.1691 172.33L72.8096 173.483L78.3398 144.13ZM61.8423 170.95L73.3826 143.635L65.3712 172.41L61.8423 170.95ZM68.8082 141.3L54.6238 167.341L57.9911 169.142L68.8082 141.3ZM47.9462 164.121L64.3052 139.389L51.1472 166.204L47.9462 164.121ZM60.2434 136.255L41.5192 159.249L44.4987 161.638L60.2434 136.255ZM36.1071 154.953L56.0389 132.997L38.954 157.498L36.1071 154.953ZM52.4962 129.282L30.4913 149.159L33.0726 151.974L52.4962 129.282ZM25.2583 143.907L48.8821 125.984L27.5895 146.932L25.2583 143.907ZM46.079 121.682L20.799 137.182L22.8197 140.422L46.079 121.682ZM16.4126 131.422L42.6985 117.697L18.2057 134.793L16.4126 131.422ZM40.6547 112.987L13.1405 124.046L14.5915 127.578L40.6547 112.987ZM10.0443 117.31L38.4032 108.645L11.1879 120.954L10.0443 117.31ZM37.2547 103.632L8.17797 109.452L8.95578 113.191L37.2547 103.632ZM6.73952 102.706L36.0868 98.456L7.31546 106.481L6.73952 102.706ZM35.7234 93.3309L6.09977 94.6584L6.29964 98.4721L35.7234 93.3309ZM5.40697 87.2746L35.0356 88.4848L5.28003 91.0914L5.40697 87.2746ZM35.6131 83.3873L6.24926 79.2537L5.74558 83.0392L35.6131 83.3873Z" fill="white"/>
</mask>
<g mask="url(#mask0_295_36038)">
<g filter="url(#filter0_f_295_36038)">
<ellipse cx="139.04" cy="106.119" rx="92.4" ry="92.9191" fill="#D9D7FF"/>
</g>
<g filter="url(#filter1_f_295_36038)">
<ellipse cx="77.4401" cy="3.95995" rx="78.32" ry="78.76" fill="#CC81F4"/>
</g>
<g filter="url(#filter2_f_295_36038)">
<ellipse cx="23.7599" cy="77" rx="78.32" ry="78.76" fill="#F8C3F9"/>
</g>
<g filter="url(#filter3_f_295_36038)">
<ellipse cx="67.7599" cy="181.72" rx="78.32" ry="78.76" fill="#AEA5FF"/>
</g>
</g>
<defs>
<filter id="filter0_f_295_36038" x="-19.4275" y="-52.8675" width="316.935" height="317.973" filterUnits="userSpaceOnUse" color-interpolation-filters="sRGB">
<feFlood flood-opacity="0" result="BackgroundImageFix"/>
<feBlend mode="normal" in="SourceGraphic" in2="BackgroundImageFix" result="shape"/>
<feGaussianBlur stdDeviation="33.0337" result="effect1_foregroundBlur_295_36038"/>
</filter>
<filter id="filter1_f_295_36038" x="-56.8799" y="-130.8" width="268.64" height="269.52" filterUnits="userSpaceOnUse" color-interpolation-filters="sRGB">
<feFlood flood-opacity="0" result="BackgroundImageFix"/>
<feBlend mode="normal" in="SourceGraphic" in2="BackgroundImageFix" result="shape"/>
<feGaussianBlur stdDeviation="28" result="effect1_foregroundBlur_295_36038"/>
</filter>
<filter id="filter2_f_295_36038" x="-110.56" y="-57.76" width="268.64" height="269.52" filterUnits="userSpaceOnUse" color-interpolation-filters="sRGB">
<feFlood flood-opacity="0" result="BackgroundImageFix"/>
<feBlend mode="normal" in="SourceGraphic" in2="BackgroundImageFix" result="shape"/>
<feGaussianBlur stdDeviation="28" result="effect1_foregroundBlur_295_36038"/>
</filter>
<filter id="filter3_f_295_36038" x="-66.5601" y="46.96" width="268.64" height="269.52" filterUnits="userSpaceOnUse" color-interpolation-filters="sRGB">
<feFlood flood-opacity="0" result="BackgroundImageFix"/>
<feBlend mode="normal" in="SourceGraphic" in2="BackgroundImageFix" result="shape"/>
<feGaussianBlur stdDeviation="28" result="effect1_foregroundBlur_295_36038"/>
</filter>
</defs>
</svg>
