<svg width="177" height="176" viewBox="0 0 177 176" fill="none" xmlns="http://www.w3.org/2000/svg">
<mask id="mask0_295_35528" style="mask-type:alpha" maskUnits="userSpaceOnUse" x="0" y="3" width="177" height="170">
<path fill-rule="evenodd" clip-rule="evenodd" d="M82.432 10.3435C72.6615 4.88307 63.5301 2.89258 51.8988 3.68865C35.4078 4.81667 22.9579 11.3383 12.4551 24.35C6.74684 31.4218 4.37477 36.0716 1.92521 44.9885C-5.51733 72.084 9.25549 100.56 35.7991 110.282C45.0914 113.686 50.4752 113.914 78.3692 112.088L104.234 110.395L106.438 106.89C109.112 102.635 111.803 101.12 117.112 100.881C122.808 100.625 157.613 103.555 157.321 104.266C157.17 104.632 149.525 105.45 140.331 106.084C131.137 106.717 123.379 107.503 123.09 107.831C121.768 109.328 124.957 109.473 140.809 108.636C150.153 108.143 157.812 107.978 157.828 108.27C157.845 108.562 150.295 109.468 141.053 110.284C131.81 111.1 123.91 112.013 123.496 112.311C121.162 113.996 126.163 114.255 141.252 113.231C150.486 112.604 158.056 112.363 158.074 112.695C158.114 113.406 146.903 114.728 133.584 115.582C128.389 115.915 123.896 116.462 123.601 116.796C122.021 118.585 126.275 118.798 141.303 117.685C150.397 117.012 157.961 116.681 158.112 116.95C158.402 117.467 130.666 123.941 121.407 125.516C118.239 126.055 114.747 126.139 113.065 125.716C110.183 124.99 109.958 124.801 106.116 119.89C105.004 118.467 103.712 118.457 85.5989 119.737L66.2686 121.103L66.6454 124.016C69.0775 142.814 80.7464 159.084 97.3856 166.876C108.87 172.255 122.333 173.56 134.418 170.466C147.875 167.021 160.938 157.174 168.527 144.752C178.084 129.109 178.8 107.428 170.292 91.2425C164.036 79.3412 152.847 69.5366 140.538 65.1704C130.994 61.785 127.755 61.6591 98.3085 63.5201L70.341 65.288L69.0258 67.5416C66.8144 71.33 62.8092 75.4723 59.4908 77.4028C52.9589 81.2019 43.42 82.4673 35.8572 80.5372C27.3731 78.3713 19.768 72.8622 17.6827 67.3713C14.1731 58.132 28.6037 45.4109 43.7233 44.4164C53.7434 43.7571 61.6135 46.8321 67.1099 53.5556L70.1349 57.2554L109.797 54.5428L109.793 52.6883C109.775 46.1961 105.507 34.408 100.496 27.0185C96.2883 20.812 88.8058 13.9053 82.432 10.3435Z" fill="white"/>
</mask>
<g mask="url(#mask0_295_35528)">
<g filter="url(#filter0_f_295_35528)">
<ellipse cx="121.44" cy="94.5998" rx="78.32" ry="78.76" fill="#D9D7FF"/>
</g>
<g filter="url(#filter1_f_295_35528)">
<ellipse cx="77.4401" cy="3.9602" rx="78.32" ry="78.76" fill="#CC81F4"/>
</g>
<g filter="url(#filter2_f_295_35528)">
<ellipse cx="23.7599" cy="77.0002" rx="78.32" ry="78.76" fill="#F8C3F9"/>
</g>
<g filter="url(#filter3_f_295_35528)">
<ellipse cx="67.7599" cy="181.72" rx="78.32" ry="78.76" fill="#AEA5FF"/>
</g>
</g>
<defs>
<filter id="filter0_f_295_35528" x="-12.8799" y="-40.1602" width="268.64" height="269.52" filterUnits="userSpaceOnUse" color-interpolation-filters="sRGB">
<feFlood flood-opacity="0" result="BackgroundImageFix"/>
<feBlend mode="normal" in="SourceGraphic" in2="BackgroundImageFix" result="shape"/>
<feGaussianBlur stdDeviation="28" result="effect1_foregroundBlur_295_35528"/>
</filter>
<filter id="filter1_f_295_35528" x="-56.8799" y="-130.8" width="268.64" height="269.52" filterUnits="userSpaceOnUse" color-interpolation-filters="sRGB">
<feFlood flood-opacity="0" result="BackgroundImageFix"/>
<feBlend mode="normal" in="SourceGraphic" in2="BackgroundImageFix" result="shape"/>
<feGaussianBlur stdDeviation="28" result="effect1_foregroundBlur_295_35528"/>
</filter>
<filter id="filter2_f_295_35528" x="-110.56" y="-57.7598" width="268.64" height="269.52" filterUnits="userSpaceOnUse" color-interpolation-filters="sRGB">
<feFlood flood-opacity="0" result="BackgroundImageFix"/>
<feBlend mode="normal" in="SourceGraphic" in2="BackgroundImageFix" result="shape"/>
<feGaussianBlur stdDeviation="28" result="effect1_foregroundBlur_295_35528"/>
</filter>
<filter id="filter3_f_295_35528" x="-66.5601" y="46.96" width="268.64" height="269.52" filterUnits="userSpaceOnUse" color-interpolation-filters="sRGB">
<feFlood flood-opacity="0" result="BackgroundImageFix"/>
<feBlend mode="normal" in="SourceGraphic" in2="BackgroundImageFix" result="shape"/>
<feGaussianBlur stdDeviation="28" result="effect1_foregroundBlur_295_35528"/>
</filter>
</defs>
</svg>
