<svg width="176" height="176" viewBox="0 0 176 176" fill="none" xmlns="http://www.w3.org/2000/svg">
<mask id="mask0_295_34901" style="mask-type:alpha" maskUnits="userSpaceOnUse" x="0" y="3" width="176" height="170">
<path fill-rule="evenodd" clip-rule="evenodd" d="M84.6087 3.95996C80.9276 5.52484 74.8561 10.3501 69.5465 15.9303C62.2823 23.5653 54.4065 33.9762 53.3267 37.3704C52.502 39.9651 52.6839 45.094 53.6873 47.5168C54.1122 48.5438 53.6663 48.4186 51.2814 46.8402C48.7525 45.1664 47.7024 44.9026 43.568 44.9026C39.5601 44.9026 37.5182 45.3816 31.0023 47.8517C21.2456 51.5504 10.7042 56.7633 6.42495 60.0061C4.61989 61.3741 2.37507 63.7955 1.436 65.3874C-0.0300992 67.8751 -0.208034 68.781 0.172192 71.8255C0.791243 76.7806 4.22478 84.9115 9.27596 93.3848C18.0489 108.102 22.3078 112.38 29.1032 113.305L32.2776 113.737L29.9509 115.932C28.6715 117.139 26.9693 119.606 26.1696 121.415C24.8104 124.487 24.7434 125.399 25.1521 135.208C26.1256 158.558 29.8339 169.567 37.4377 171.677C43.3441 173.317 54.422 172.024 69.2278 167.967C81.6258 164.57 85.0715 162.246 87.4963 155.65C88.1045 153.995 88.4306 153.621 88.4624 154.542C88.5456 156.983 92.3391 162.093 95.3917 163.879C97.0026 164.821 102.212 166.657 106.97 167.96C123.695 172.539 136.424 173.542 141.319 170.667C146.608 167.562 149.534 157.598 150.88 138.112C151.844 124.151 151.176 120.708 146.651 116.316L144.002 113.746L147.257 113.314C152.902 112.565 156.125 109.873 162.086 100.928C170.806 87.8451 174.605 80.0701 175.718 73.0251C176.549 67.7716 175.68 65.518 171.268 61.4864C164.529 55.3263 140.023 44.5643 132.737 44.5643C129.504 44.5643 125.521 45.9526 123.496 47.7854C122.288 48.8787 122.259 48.8435 122.794 46.914C123.652 43.8228 123.296 37.5991 122.132 35.3489C118.27 27.881 101.126 9.22291 94.9628 5.78058C91.2566 3.71099 86.9685 2.95663 84.6087 3.95996ZM87.5477 40.9637C86.3759 46.3673 84.4342 61.9762 83.6954 71.9372C83.236 78.1284 82.5269 83.6498 82.1196 84.2059C81.5168 85.0306 80.391 83.8033 76.0381 77.5763C70.3672 69.4643 59.5558 55.3892 58.9956 55.3892C58.5626 55.3892 58.8799 55.9115 63.7206 63.1696C65.9546 66.5186 70.4666 72.8613 73.7479 77.2651C77.0299 81.6688 79.7145 85.5509 79.7145 85.8912C79.7145 87.0765 74.5307 86.4636 56.4084 83.1362C46.3805 81.2946 38.0906 79.8739 37.9857 79.9781C37.5737 80.3908 55.5296 88.9201 64.1536 92.4092C72.1194 95.6316 76.6064 98.1585 75.6173 98.8669C75.4522 98.9846 71.0545 100.392 65.845 101.993C55.648 105.127 39.5844 110.879 39.9653 111.26C40.3253 111.62 57.3651 106.607 67.3673 103.198C76.0861 100.227 76.3317 100.183 76.3303 101.615C76.3297 102.424 73.5801 107.485 70.221 112.86C66.8619 118.235 61.9745 126.912 59.3609 132.142L54.6088 141.65L64.9628 131.131C70.6574 125.345 77.2457 118.151 79.6035 115.144C81.9613 112.138 84.6249 109.343 85.5234 108.934L87.1566 108.19V121.264C87.1566 128.456 87.3846 137.201 87.6641 140.701L88.1708 147.063L88.5551 141.65C88.7662 138.674 88.9184 129.92 88.8934 122.199C88.8683 114.478 88.9096 108.161 88.9854 108.161C90.2688 108.162 93.0461 110.661 96.3917 114.824C105.541 126.208 120.985 142.119 120.985 140.16C120.985 138.992 109.091 117.59 104.675 110.811C101.892 106.538 100.011 102.93 100.011 101.863V100.076L105.593 102.141C112.389 104.656 135.965 111.673 136.344 111.293C136.852 110.786 113.628 102.643 105.255 100.392C102.518 99.6564 100.688 98.804 100.688 98.2641C100.688 97.1701 103.702 95.6289 112.213 92.3706C115.762 91.0127 123.829 87.3343 130.142 84.1971C138.946 79.8218 141.147 78.4822 139.59 78.447C135.536 78.355 111.838 83.0097 103.542 85.5272C99.8252 86.655 96.6285 86.7998 96.6285 85.8398C96.6285 85.4704 99.1723 81.7412 102.281 77.5519C110.263 66.7967 120.774 50.9158 116.95 55.3892C115.023 57.6422 100.253 77.3246 97.4884 81.3224C93.8282 86.6138 93.4134 85.8892 92.5238 72.6442C91.6666 59.8789 89.1085 40.2018 88.187 39.2804C88.0632 39.1566 87.7757 39.9143 87.5477 40.9637ZM84.2901 88.8863C82.2394 90.0398 80.391 93.0986 80.391 95.3393C80.391 98.0361 82.4552 101.258 84.9382 102.436C87.8893 103.836 91.4325 103.031 93.9067 100.397C96.3558 97.7898 96.1495 93.1622 93.4642 90.4769C90.9975 88.0102 87.0612 87.3275 84.2901 88.8863Z" fill="white"/>
</mask>
<g mask="url(#mask0_295_34901)">
<g filter="url(#filter0_f_295_34901)">
<ellipse cx="121.44" cy="94.5998" rx="78.32" ry="78.76" fill="#D9D7FF"/>
</g>
<g filter="url(#filter1_f_295_34901)">
<ellipse cx="77.4401" cy="3.9602" rx="78.32" ry="78.76" fill="#CC81F4"/>
</g>
<g filter="url(#filter2_f_295_34901)">
<ellipse cx="23.7599" cy="77.0002" rx="78.32" ry="78.76" fill="#F8C3F9"/>
</g>
<g filter="url(#filter3_f_295_34901)">
<ellipse cx="67.7599" cy="181.72" rx="78.32" ry="78.76" fill="#AEA5FF"/>
</g>
</g>
<defs>
<filter id="filter0_f_295_34901" x="-12.8799" y="-40.1602" width="268.64" height="269.52" filterUnits="userSpaceOnUse" color-interpolation-filters="sRGB">
<feFlood flood-opacity="0" result="BackgroundImageFix"/>
<feBlend mode="normal" in="SourceGraphic" in2="BackgroundImageFix" result="shape"/>
<feGaussianBlur stdDeviation="28" result="effect1_foregroundBlur_295_34901"/>
</filter>
<filter id="filter1_f_295_34901" x="-56.8799" y="-130.8" width="268.64" height="269.52" filterUnits="userSpaceOnUse" color-interpolation-filters="sRGB">
<feFlood flood-opacity="0" result="BackgroundImageFix"/>
<feBlend mode="normal" in="SourceGraphic" in2="BackgroundImageFix" result="shape"/>
<feGaussianBlur stdDeviation="28" result="effect1_foregroundBlur_295_34901"/>
</filter>
<filter id="filter2_f_295_34901" x="-110.56" y="-57.7598" width="268.64" height="269.52" filterUnits="userSpaceOnUse" color-interpolation-filters="sRGB">
<feFlood flood-opacity="0" result="BackgroundImageFix"/>
<feBlend mode="normal" in="SourceGraphic" in2="BackgroundImageFix" result="shape"/>
<feGaussianBlur stdDeviation="28" result="effect1_foregroundBlur_295_34901"/>
</filter>
<filter id="filter3_f_295_34901" x="-66.5601" y="46.96" width="268.64" height="269.52" filterUnits="userSpaceOnUse" color-interpolation-filters="sRGB">
<feFlood flood-opacity="0" result="BackgroundImageFix"/>
<feBlend mode="normal" in="SourceGraphic" in2="BackgroundImageFix" result="shape"/>
<feGaussianBlur stdDeviation="28" result="effect1_foregroundBlur_295_34901"/>
</filter>
</defs>
</svg>
