<svg width="176" height="176" viewBox="0 0 176 176" fill="none" xmlns="http://www.w3.org/2000/svg">
<mask id="mask0_295_35695" style="mask-type:alpha" maskUnits="userSpaceOnUse" x="0" y="0" width="176" height="176">
<path fill-rule="evenodd" clip-rule="evenodd" d="M83.9858 16.5763C84.5349 11.9301 82.7886 6.19644 79.3762 1.44012C78.808 0.648026 78.3741 0 78.412 0C78.45 0 79.1859 0.300909 80.0473 0.668875C84.5037 2.57182 88.8218 5.93817 92.2172 10.156C97.4199 16.6188 100.53 25.1137 101.442 35.3503L101.671 37.9236L103.889 35.6147C106.503 32.8947 108.387 31.3556 111.18 29.6583C115.857 26.8168 120.687 25.4659 125.752 25.5829L128.191 25.6393L126.566 26.5508C123.385 28.3347 120.476 31.0793 118.847 33.8328C117.667 35.8281 117.014 38.2168 116.557 42.2109L116.445 43.1925L117.907 42.5685C118.71 42.2252 121.355 41.243 123.782 40.3855C130.398 38.0491 132.679 36.981 135.257 35.0116C137.55 33.2604 139.743 30.3026 141.197 26.9979C142.027 25.113 142.974 21.8062 143.226 19.9184L143.363 18.8936L143.717 19.5847C144.832 21.7564 145.831 25.9182 146.13 29.6272C146.947 39.7927 142.661 51.0721 134.353 60.6154C133.704 61.36 133.174 62.0266 133.174 62.0966C133.174 62.1667 134.126 62.1654 135.291 62.0936C139.138 61.8568 144.144 62.5024 147.731 63.6981C151.511 64.9581 155.358 67.1971 158.029 69.6922C159.633 71.1898 160.902 72.679 160.305 72.3623C160.105 72.2558 159.01 71.929 157.874 71.6361C155.999 71.1528 155.521 71.1044 152.709 71.114C150.163 71.1226 149.353 71.1949 148.175 71.5191C146.645 71.9402 144.512 72.9384 143.129 73.8804C141.992 74.6548 139.935 76.3017 139.939 76.4349C139.94 76.4939 140.468 76.7431 141.113 76.989C141.757 77.2347 144.349 78.4062 146.873 79.5922C153.716 82.8077 155.889 83.5683 159.424 83.9858C164.058 84.5333 169.816 82.7801 174.56 79.3762C175.352 78.808 176 78.3773 176 78.4194C176 78.7336 174.359 82.1706 173.655 83.3295C167.3 93.7971 155.837 100.092 140.678 101.439L138.132 101.666L140.961 104.506C142.516 106.069 144.265 108.023 144.847 108.85C148.76 114.407 150.565 119.946 150.417 125.942L150.361 128.196L149.568 126.759C147.415 122.859 144.165 119.663 140.807 118.148C139.481 117.549 136.972 116.903 135.334 116.739C134.714 116.676 133.89 116.58 133.503 116.525L132.798 116.424L133.427 117.896C133.773 118.706 134.757 121.355 135.614 123.782C137.951 130.398 139.019 132.679 140.988 135.257C142.74 137.55 145.697 139.743 149.002 141.197C150.887 142.027 154.194 142.974 156.082 143.226L157.106 143.363L156.415 143.717C154.244 144.832 150.082 145.831 146.373 146.13C136.198 146.948 124.936 142.668 115.385 134.353C114.64 133.704 113.972 133.174 113.901 133.174C113.83 133.174 113.828 134.125 113.897 135.287C114.214 140.671 113.111 146.527 110.9 151.195C109.359 154.449 106.497 158.253 104.253 160.03L103.536 160.598L103.987 159.177C104.741 156.803 105.051 154.406 104.934 151.863C104.738 147.629 103.651 144.927 100.608 141.11C100.093 140.464 99.6239 139.937 99.5651 139.939C99.5061 139.94 99.2572 140.468 99.0121 141.113C98.7668 141.757 97.8053 143.89 96.8751 145.853C93.8082 152.325 92.8658 154.748 92.2007 157.874C91.8966 159.304 91.8994 162.976 92.206 164.448C92.9458 168.002 94.5452 171.697 96.5357 174.45C97.152 175.303 97.622 176 97.5803 176C97.2865 176 93.9305 174.397 92.7343 173.686C82.3028 167.481 75.9137 155.868 74.5584 140.65L74.3293 138.076L72.1108 140.385C69.5572 143.043 67.6432 144.616 64.9511 146.271C60.2869 149.139 55.2351 150.545 50.0601 150.417L47.8087 150.361L49.4507 149.44C52.6285 147.658 55.5166 144.922 57.1807 142.117C58.3323 140.176 58.9893 137.758 59.4427 133.789L59.5549 132.808L58.0933 133.431C57.2896 133.775 54.6455 134.757 52.2177 135.614C45.6017 137.951 43.3212 139.019 40.7426 140.988C36.9861 143.857 34.1827 148.892 33.004 154.886L32.5658 157.114L31.9852 155.71C29.8002 150.424 29.2158 143.99 30.3421 137.617C31.6466 130.238 35.7607 122.147 41.6474 115.385C42.2956 114.64 42.826 113.972 42.826 113.901C42.826 113.83 41.875 113.828 40.7129 113.897C35.329 114.214 29.4726 113.111 24.8055 110.9C21.5513 109.359 17.7474 106.497 15.97 104.253L15.4023 103.536L16.8235 103.987C19.1968 104.741 21.5945 105.051 24.1366 104.934C28.3715 104.738 31.0731 103.651 34.8901 100.608C35.5358 100.093 36.0627 99.6239 36.0612 99.5651C36.0597 99.5061 35.5315 99.2569 34.8873 99.011C34.2432 98.7653 31.6509 97.5938 29.1268 96.4078C22.4581 93.2742 20.3091 92.5074 16.8556 92.0292C14.4899 91.7016 11.3885 92.0602 8.45251 93.0009C6.56704 93.605 3.26398 95.2964 1.54963 96.5357C0.697238 97.152 0 97.6252 0 97.5876C0 97.5498 0.300909 96.8141 0.668875 95.9527C2.57445 91.4901 5.98531 87.1155 10.1693 83.7681C16.6858 78.5544 25.1216 75.4693 35.3523 74.5583L37.9275 74.3289L35.673 72.169C32.0018 68.6516 29.7331 65.5424 27.9684 61.6094C26.2439 57.7659 25.492 54.1853 25.5829 50.2481L25.6393 47.8089L26.5615 49.4532C28.3279 52.6024 31.1024 55.5309 33.8829 57.1807C35.8238 58.3323 38.2423 58.9893 42.2109 59.4427L43.1925 59.5549L42.5685 58.0933C42.2252 57.2896 41.243 54.6455 40.3855 52.2177C38.0491 45.6017 36.981 43.3212 35.0116 40.7426C32.1426 36.9861 27.1079 34.1827 21.1142 33.004L18.8857 32.5658L20.2903 31.9852C26.7629 29.3094 34.5508 29.0547 42.2389 31.2675C48.4131 33.0446 55.0206 36.7769 60.6154 41.6474C61.36 42.2956 62.0271 42.826 62.0978 42.826C62.1684 42.826 62.1689 41.8328 62.0993 40.619C61.7897 35.2387 62.8793 29.4998 65.1022 24.8021C66.6428 21.5458 69.5029 17.7474 71.7607 15.9593L72.4908 15.3809L72.1393 16.4026C71.3097 18.8142 71.0944 20.2763 71.1113 23.3853C71.1245 25.8166 71.2026 26.6645 71.5208 27.8249C71.9397 29.3535 72.9367 31.4856 73.8804 32.8709C74.6548 34.0078 76.3017 36.0648 76.4349 36.0612C76.4939 36.0597 76.7431 35.5315 76.989 34.8873C77.2347 34.2432 78.4062 31.6509 79.5922 29.1268C82.8077 22.2836 83.5683 20.1113 83.9858 16.5763ZM61.9755 57.0634C68.1124 51.9211 75.5455 48.687 83.8727 47.5362C85.9921 47.2433 92.925 47.4486 95.2316 47.8728C107.245 50.0811 116.523 56.1904 123.081 66.2113C124.529 68.4244 126.59 72.6576 127.425 75.1334C131.382 86.8694 129.928 99.5736 123.43 110.051C116.953 120.494 106.035 127.548 93.9147 129.121C91.0531 129.492 85.6468 129.503 83.1163 129.143C70.8241 127.394 60.6394 120.974 54.0508 110.822C46.0493 98.4926 45.2562 82.8338 51.9688 69.7212C54.3585 65.0535 58.1228 60.2917 61.9755 57.0634ZM56.2576 72.7455C61.6058 61.4687 72.5291 53.7277 84.9208 52.4324C89.8351 51.9187 94.8054 52.5066 99.9274 54.2076C111.531 58.061 120.417 67.7842 123.491 79.9902C125.672 88.6525 124.362 97.5982 120.158 105.199L91.4533 76.56L73.4561 93.9387L80.655 111.317L63.1378 93.9387L55.7727 102.57C51.7202 93.307 51.6769 82.4038 56.2576 72.7455Z" fill="white"/>
</mask>
<g mask="url(#mask0_295_35695)">
<g filter="url(#filter0_f_295_35695)">
<ellipse cx="139.04" cy="106.119" rx="92.4" ry="92.9191" fill="#D9D7FF"/>
</g>
<g filter="url(#filter1_f_295_35695)">
<ellipse cx="77.4401" cy="3.9602" rx="78.32" ry="78.76" fill="#CC81F4"/>
</g>
<g filter="url(#filter2_f_295_35695)">
<ellipse cx="23.7599" cy="77.0002" rx="78.32" ry="78.76" fill="#F8C3F9"/>
</g>
<g filter="url(#filter3_f_295_35695)">
<ellipse cx="67.7599" cy="181.72" rx="78.32" ry="78.76" fill="#AEA5FF"/>
</g>
</g>
<defs>
<filter id="filter0_f_295_35695" x="-19.4275" y="-52.8672" width="316.935" height="317.973" filterUnits="userSpaceOnUse" color-interpolation-filters="sRGB">
<feFlood flood-opacity="0" result="BackgroundImageFix"/>
<feBlend mode="normal" in="SourceGraphic" in2="BackgroundImageFix" result="shape"/>
<feGaussianBlur stdDeviation="33.0337" result="effect1_foregroundBlur_295_35695"/>
</filter>
<filter id="filter1_f_295_35695" x="-56.8799" y="-130.8" width="268.64" height="269.52" filterUnits="userSpaceOnUse" color-interpolation-filters="sRGB">
<feFlood flood-opacity="0" result="BackgroundImageFix"/>
<feBlend mode="normal" in="SourceGraphic" in2="BackgroundImageFix" result="shape"/>
<feGaussianBlur stdDeviation="28" result="effect1_foregroundBlur_295_35695"/>
</filter>
<filter id="filter2_f_295_35695" x="-110.56" y="-57.7598" width="268.64" height="269.52" filterUnits="userSpaceOnUse" color-interpolation-filters="sRGB">
<feFlood flood-opacity="0" result="BackgroundImageFix"/>
<feBlend mode="normal" in="SourceGraphic" in2="BackgroundImageFix" result="shape"/>
<feGaussianBlur stdDeviation="28" result="effect1_foregroundBlur_295_35695"/>
</filter>
<filter id="filter3_f_295_35695" x="-66.5601" y="46.96" width="268.64" height="269.52" filterUnits="userSpaceOnUse" color-interpolation-filters="sRGB">
<feFlood flood-opacity="0" result="BackgroundImageFix"/>
<feBlend mode="normal" in="SourceGraphic" in2="BackgroundImageFix" result="shape"/>
<feGaussianBlur stdDeviation="28" result="effect1_foregroundBlur_295_35695"/>
</filter>
</defs>
</svg>
