<svg width="176" height="176" viewBox="0 0 176 176" fill="none" xmlns="http://www.w3.org/2000/svg">
<mask id="mask0_295_35715" style="mask-type:alpha" maskUnits="userSpaceOnUse" x="0" y="7" width="176" height="162">
<path fill-rule="evenodd" clip-rule="evenodd" d="M148.842 40.5033C149.783 39.7686 150.76 39.0721 151.011 38.9558C151.263 38.8393 149.375 40.9494 146.816 43.6446C144.257 46.34 140.707 50.0829 138.928 51.9625C137.148 53.8419 133.744 57.4236 131.363 59.9217C128.983 62.4197 126.656 64.8911 126.191 65.4136L125.347 66.3637L121.1 61.6703L122.133 60.9286C122.701 60.5205 124.886 58.8606 126.99 57.2399C129.093 55.6192 132.931 52.6791 135.519 50.7064C142.969 45.0278 146.996 41.9437 148.842 40.5033ZM104.494 14.6255C105.013 13.3247 105.692 11.6893 106.004 10.9914C106.702 9.42806 106.767 9.6409 106.244 11.78C106.023 12.6849 105.455 15.0951 104.981 17.1357C104.507 19.1762 103.717 22.5 103.226 24.5217C102.07 29.2827 101.656 31.0128 99.6411 39.5143C98.7203 43.3984 97.914 46.6229 97.8493 46.6798C97.7848 46.7369 96.942 46.511 95.9766 46.1782C95.0111 45.8453 93.7033 45.4186 93.0698 45.2295L91.9181 44.886L93.1265 41.9851C93.7912 40.3894 95.1656 37.097 96.1808 34.6682C97.1961 32.2395 98.6873 28.6422 99.4946 26.6741C100.302 24.706 101.545 21.7221 102.257 20.0433C102.969 18.3643 103.976 15.9263 104.494 14.6255ZM170.229 86.6569C171.388 86.5136 173.058 86.3018 173.941 86.1865C174.824 86.0709 175.575 86.0086 175.611 86.0477C175.698 86.1442 173.394 86.8639 167.944 88.4413C165.427 89.17 163.342 89.7891 163.31 89.8173C163.279 89.8454 161.245 90.455 158.791 91.1718C153.821 92.6233 145.75 95.021 141.716 96.2439C139.117 97.0318 139.074 97.0343 138.973 96.4048C138.917 96.0527 138.644 94.7306 138.367 93.4666C138.089 92.2025 137.855 91.1141 137.848 91.0475C137.834 90.931 141.711 90.3793 151.646 89.084C160.738 87.8986 161.778 87.762 164.936 87.3416C166.689 87.1083 169.07 86.8003 170.229 86.6569ZM107.767 51.4032C107.774 51.2768 113.659 44.6184 119.867 37.7124C120.446 37.0693 120.917 36.6216 120.914 36.7175C120.907 37.0227 113.087 54.3516 112.868 54.5484C112.753 54.652 112.137 54.3674 111.501 53.9157C110.864 53.4637 109.762 52.7491 109.052 52.3272C108.341 51.9055 107.763 51.4896 107.767 51.4032ZM135.449 73.8759C137.697 73.1409 141.926 71.7549 144.849 70.7957C147.772 69.8363 150.16 69.11 150.156 69.1813C150.153 69.2524 147.643 71.1165 144.579 73.3236C141.515 75.5306 138.126 77.9758 137.048 78.757C134.282 80.7614 134.128 80.8407 133.942 80.3507C133.856 80.1238 133.295 78.9954 132.695 77.8432C132.094 76.6911 131.549 75.6278 131.483 75.4803C131.408 75.3106 132.862 74.7221 135.449 73.8759ZM75.3619 41.5633C75.5022 40.5603 78.8778 24.3535 79.0997 23.6167C79.2953 22.9677 79.3827 23.4309 79.7358 26.9845C79.9284 28.9236 80.3762 33.2514 80.7308 36.6023C81.0854 39.9531 81.3355 42.7351 81.2869 42.7847C81.2381 42.8341 79.8518 42.8155 78.2066 42.7433L75.215 42.6118L75.3619 41.5633ZM142.448 108.183C146.171 108.975 153.225 110.428 156.245 111.027C157.807 111.336 159.153 111.653 159.236 111.732C159.4 111.886 158.241 112.126 157.205 112.153C156.857 112.162 152.958 112.554 148.541 113.025C144.125 113.495 140.321 113.853 140.089 113.819C139.755 113.771 139.698 113.145 139.817 110.826C139.9 109.213 140.02 107.852 140.084 107.8C140.148 107.748 141.212 107.921 142.448 108.183ZM53.6994 9.9818C53.4879 8.38127 53.3408 7.04868 53.3724 7.0202C53.4741 6.92881 53.5026 7.01486 54.4299 10.2254C54.9322 11.964 55.3684 13.4145 55.3993 13.4486C55.4303 13.4829 56.153 15.8956 57.0055 18.8104C57.858 21.7252 58.5788 24.1357 58.6074 24.1673C58.7198 24.2916 64.272 43.0517 64.2588 43.263C64.2509 43.387 63.0107 43.7387 61.5025 44.0445C59.9944 44.3505 58.6565 44.6447 58.5296 44.6989C58.5098 44.7073 58.4916 44.7155 58.4738 44.7148C58.2647 44.7066 58.1036 43.4762 55.9407 27.0537C55.7625 25.7001 55.3598 22.7108 55.0459 20.4106C54.7321 18.1105 54.3872 15.4778 54.2796 14.5601C54.1721 13.6425 53.911 11.5822 53.6994 9.9818ZM168.665 137.297C170.545 138.1 172.226 138.767 172.401 138.779C172.714 138.801 173.037 139.033 172.912 139.145C172.876 139.177 172.11 139.029 171.208 138.815C167.055 137.832 154.542 134.861 152.686 134.417C145.431 132.685 140.36 131.476 138.207 130.967C136.844 130.645 135.785 130.282 135.854 130.16C135.922 130.038 136.35 128.737 136.806 127.267C137.262 125.798 137.744 124.602 137.878 124.609C138.012 124.616 140.445 125.589 143.286 126.772C146.126 127.956 149.989 129.556 151.87 130.33C153.752 131.103 155.311 131.758 155.335 131.784C155.359 131.811 157.599 132.734 160.313 133.835C163.026 134.936 166.785 136.495 168.665 137.297ZM38.4171 38.6021C37.2959 35.247 36.378 32.4418 36.377 32.3682C36.376 32.295 36.4591 32.3277 36.5617 32.4411C36.7761 32.678 43.1666 41.479 43.7448 42.3336C43.956 42.6459 44.9654 44.024 45.9879 45.3964C47.0104 46.7689 47.8703 48.0198 47.8991 48.1765C47.9331 48.3625 47.4784 48.6795 46.586 49.0914C45.835 49.4381 44.6585 50.0392 43.9716 50.427C43.413 50.7424 43.0787 50.9566 42.8122 50.8918C42.3675 50.7837 42.1117 49.8983 41.3181 47.4091C40.8435 45.9205 39.538 41.9574 38.4171 38.6021ZM133.93 142.564C135.231 143.745 138.261 146.44 140.664 148.553C145.021 152.383 146.134 153.415 145.879 153.39C145.804 153.382 144.938 153.008 143.954 152.557C141.233 151.312 134.306 148.222 131.377 146.946C128.975 145.899 128.12 145.554 128.058 145.102C128.022 144.832 128.27 144.523 128.642 144.002C129.099 143.36 129.82 142.255 130.243 141.546C130.742 140.711 131.109 140.286 131.289 140.338C131.441 140.382 132.629 141.384 133.93 142.564ZM9.21769 34.2001C13.8616 38.6018 28.6143 52.4952 31.3239 55.0187C32.2481 55.8795 33.1428 56.7144 33.3117 56.8741C33.5899 57.1368 33.3983 57.3629 31.2895 59.2592C28.9686 61.3463 28.959 61.3523 28.679 60.8781C28.5246 60.6164 27.7211 59.5538 26.8934 58.5171C26.0659 57.4803 25.2008 56.3639 24.971 56.0363C24.7411 55.7087 24.0162 54.7577 23.3603 53.9227C21.7548 51.879 13.2851 40.8753 11.2826 38.231C10.4001 37.0656 8.91282 35.1565 7.97767 33.9885C7.04252 32.8205 6.30046 31.7852 6.32899 31.688C6.35719 31.5907 7.65717 32.7211 9.21769 34.2001ZM7.44115 63.057C8.08027 63.3728 11.4938 64.8932 15.0266 66.4358C18.5597 67.9783 21.5693 69.3584 21.7149 69.5028C21.9069 69.6934 21.6513 70.2635 20.7831 71.5815C20.125 72.5804 19.3679 73.6701 19.1006 74.003C18.9662 74.1706 18.9235 74.3487 18.814 74.4133C18.4357 74.636 17.2604 73.5056 8.76017 65.9185C6.92136 64.2773 5.0867 62.6485 4.68333 62.2988L3.94999 61.6631L5.11446 62.0731C5.75496 62.2985 6.80203 62.7412 7.44115 63.057ZM37.5342 110.713C36.9136 110.095 30.6191 105.069 20.8671 105.069C18.3848 105.069 15.9912 105.422 13.5088 106.127C15.3706 74.7348 41.5236 49.7796 73.6164 49.7796C106.862 49.7796 133.813 76.6748 133.813 109.743C133.813 125.439 127.784 139.724 117.855 150.394C118.21 141.223 114.309 128.349 96.9325 121.735C93.2091 120.236 89.131 119.531 84.7869 119.531C75.5304 119.531 66.3583 122.721 57.4354 125.825L56.7721 126.056C51.4529 127.996 46.3996 129.76 41.7896 130.73C42.7648 129.319 43.5626 127.643 43.9172 125.703C44.7151 120.765 42.7647 115.827 37.8888 111.065L37.7114 110.889L37.5342 110.713ZM94.8892 127.026C117.407 135.667 111.379 154.891 111.379 154.891C110.404 146.161 101.272 141.928 101.272 141.928C83.7841 133.716 72.2691 140.737 60.4329 147.953C58.2886 149.26 56.1338 150.574 53.931 151.805C39.4804 159.829 21.9268 156.214 21.9268 156.214C4.28458 152.069 0.738436 137.696 0.738436 137.696C-3.25101 120.589 10.2244 113.358 10.2244 113.358C23.9658 106.656 33.8951 115.033 33.8951 115.033C44.445 125.615 33.0972 130.994 33.0972 130.994C32.9199 120.765 25.1184 123.763 25.1184 123.763C19.1785 129.407 26.9801 134.697 26.9801 134.697C35.5464 139.635 46.7903 135.652 58.6837 131.439C70.7922 127.15 83.574 122.622 94.8892 127.026ZM109.873 158.329C109.873 158.329 107.834 142.104 87.4437 142.369C87.5323 142.369 70.5107 141.84 66.6099 153.127C66.6099 153.127 63.6843 162.209 73.259 167.236C73.259 167.236 84.0748 171.909 88.4189 164.678C88.4189 164.678 91.7877 156.83 82.8337 157.007C82.8337 157.007 87.7983 160.269 84.3408 163.179C84.3408 163.179 78.4896 167.324 73.7909 159.829C73.7909 159.829 71.4859 155.243 77.2485 150.129C77.2485 150.129 82.479 145.014 95.4226 146.337C95.4226 146.337 105.352 147.836 109.873 158.329Z" fill="white"/>
</mask>
<g mask="url(#mask0_295_35715)">
<g filter="url(#filter0_f_295_35715)">
<ellipse cx="139.04" cy="106.119" rx="92.4" ry="92.9191" fill="#D9D7FF"/>
</g>
<g filter="url(#filter1_f_295_35715)">
<ellipse cx="77.4401" cy="3.9602" rx="78.32" ry="78.76" fill="#CC81F4"/>
</g>
<g filter="url(#filter2_f_295_35715)">
<ellipse cx="23.7599" cy="77.0002" rx="78.32" ry="78.76" fill="#F8C3F9"/>
</g>
<g filter="url(#filter3_f_295_35715)">
<ellipse cx="67.7599" cy="181.72" rx="78.32" ry="78.76" fill="#AEA5FF"/>
</g>
</g>
<defs>
<filter id="filter0_f_295_35715" x="-19.4275" y="-52.8672" width="316.935" height="317.973" filterUnits="userSpaceOnUse" color-interpolation-filters="sRGB">
<feFlood flood-opacity="0" result="BackgroundImageFix"/>
<feBlend mode="normal" in="SourceGraphic" in2="BackgroundImageFix" result="shape"/>
<feGaussianBlur stdDeviation="33.0337" result="effect1_foregroundBlur_295_35715"/>
</filter>
<filter id="filter1_f_295_35715" x="-56.8799" y="-130.8" width="268.64" height="269.52" filterUnits="userSpaceOnUse" color-interpolation-filters="sRGB">
<feFlood flood-opacity="0" result="BackgroundImageFix"/>
<feBlend mode="normal" in="SourceGraphic" in2="BackgroundImageFix" result="shape"/>
<feGaussianBlur stdDeviation="28" result="effect1_foregroundBlur_295_35715"/>
</filter>
<filter id="filter2_f_295_35715" x="-110.56" y="-57.7598" width="268.64" height="269.52" filterUnits="userSpaceOnUse" color-interpolation-filters="sRGB">
<feFlood flood-opacity="0" result="BackgroundImageFix"/>
<feBlend mode="normal" in="SourceGraphic" in2="BackgroundImageFix" result="shape"/>
<feGaussianBlur stdDeviation="28" result="effect1_foregroundBlur_295_35715"/>
</filter>
<filter id="filter3_f_295_35715" x="-66.5601" y="46.96" width="268.64" height="269.52" filterUnits="userSpaceOnUse" color-interpolation-filters="sRGB">
<feFlood flood-opacity="0" result="BackgroundImageFix"/>
<feBlend mode="normal" in="SourceGraphic" in2="BackgroundImageFix" result="shape"/>
<feGaussianBlur stdDeviation="28" result="effect1_foregroundBlur_295_35715"/>
</filter>
</defs>
</svg>
