<svg width="176" height="176" viewBox="0 0 176 176" fill="none" xmlns="http://www.w3.org/2000/svg">
<mask id="mask0_295_35706" style="mask-type:alpha" maskUnits="userSpaceOnUse" x="0" y="9" width="176" height="158">
<path d="M78.7483 61.4363C79.578 61.2079 80.322 60.9385 80.9803 60.6709C81.6449 60.3997 82.2221 60.1642 82.6993 59.9697C83.6521 59.579 84.198 59.3578 84.198 59.3578C84.198 59.3578 83.6975 59.6682 82.8251 60.2141C82.3889 60.4862 81.8572 60.8172 81.2497 61.1963C80.6351 61.5799 79.9161 61.9885 79.098 62.3747C77.4655 63.1464 75.4218 63.8297 73.1221 64.1446C72.8384 64.183 72.5235 64.2177 72.2398 64.2454L71.8196 64.2838C71.6421 64.2954 71.5413 64.3114 71.3977 64.3248C71.1345 64.3542 70.8678 64.3846 70.6002 64.414C70.4976 64.4274 70.3923 64.4434 70.288 64.4577C69.0614 64.6745 67.833 64.9689 66.6653 65.4185C65.6537 65.8074 64.6831 66.2686 63.7812 66.803C62.8838 67.3507 62.0506 67.9466 61.3039 68.5844C60.568 69.2374 59.89 69.8922 59.328 70.5827C59.1754 70.7486 59.0497 70.9136 58.9355 71.0706C58.8142 71.2285 58.6955 71.3837 58.5795 71.5345C58.4439 71.729 58.3119 71.9181 58.1799 72.1054C58.1157 72.1991 58.0497 72.2928 57.9854 72.3864L57.9373 72.4551L57.9123 72.489L57.9078 72.4979C57.8944 72.514 57.997 72.3891 57.9515 72.4462L57.9399 72.464L57.848 72.6032C57.7499 72.7522 57.6545 72.8976 57.5608 73.0421L57.5465 73.0626C56.7312 74.3071 55.7178 75.4123 54.5465 76.3303L54.5278 76.3437C54.1147 76.6684 53.534 76.6684 53.121 76.3437C51.9354 75.4168 50.9104 74.2999 50.0879 73.0421C49.9925 72.8976 49.8988 72.7522 49.8007 72.6032L49.7088 72.464L49.6981 72.4462C49.6517 72.3891 49.7525 72.514 49.7409 72.4979L49.7347 72.489L49.7115 72.4551L49.6615 72.3864C49.5973 72.2928 49.5331 72.1991 49.467 72.1054C49.3368 71.9181 49.2048 71.729 49.0674 71.5345C48.9514 71.3837 48.8346 71.2285 48.7133 71.0706C48.5973 70.9136 48.4715 70.7486 48.3181 70.5827C47.757 69.8922 47.0781 69.2374 46.3457 68.5844C45.5964 67.9466 44.7632 67.3507 43.8675 66.803C42.9656 66.2686 41.9924 65.8074 40.9835 65.4185C39.9692 65.0286 38.9121 64.7539 37.8478 64.5487C37.5945 64.505 37.3411 64.4622 37.0896 64.4211C36.838 64.3908 36.5891 64.3614 36.3385 64.3319C36.144 64.3177 36.0387 64.2971 35.8291 64.2838L35.4089 64.2454C35.1252 64.2177 34.8103 64.183 34.5276 64.1446C32.2278 63.8297 30.1814 63.1464 28.5507 62.3747C27.7336 61.9885 27.0119 61.5799 26.3972 61.1963C25.7897 60.8172 25.2598 60.4862 24.8236 60.2141C23.9494 59.6682 23.4516 59.3578 23.4516 59.3578C23.4516 59.3578 23.9949 59.579 24.9467 59.9697C25.424 60.1642 26.002 60.3997 26.6666 60.6709C27.3241 60.9385 28.069 61.2079 28.9004 61.4363C30.5561 61.8993 32.5427 62.1963 34.6391 62.1232C34.904 62.1142 35.144 62.0982 35.4152 62.0804C35.6962 62.0572 35.9772 62.0366 36.2626 62.0134C36.4339 62.0045 36.6052 61.9929 36.7765 61.984C37.1538 61.9769 37.7658 61.9635 38.1422 61.9564C39.3545 61.984 40.5999 62.0893 41.8283 62.331C43.0727 62.5781 44.3109 62.9225 45.4956 63.3747C46.674 63.8359 47.8096 64.3846 48.864 65.0081C49.9033 65.6468 50.8926 66.323 51.7507 67.0635C51.9702 67.2347 52.1896 67.431 52.402 67.6344C52.6161 67.8351 52.8266 68.0313 53.0344 68.2258C53.203 68.3971 53.3681 68.5639 53.5295 68.7281C53.6125 68.8074 53.6919 68.8904 53.7695 68.9698L53.8248 69.0251L53.8766 68.9698C53.9568 68.8904 54.0371 68.8074 54.1165 68.7281C54.2789 68.5639 54.4457 68.3971 54.6125 68.2258C54.8204 68.0313 55.03 67.8351 55.245 67.6344C55.46 67.431 55.6767 67.2347 55.8962 67.0635C56.757 66.323 57.7437 65.6468 58.7847 65.0081C59.8374 64.3846 60.9721 63.8359 62.1532 63.3747C63.3387 62.9225 64.5743 62.5781 65.8205 62.331C67.0497 62.0893 68.2942 61.984 69.5092 61.9564L70.8651 61.984C70.9615 61.9885 71.0569 61.9929 71.1506 61.9983C71.5137 62.025 71.8749 62.0527 72.2309 62.0804C72.5048 62.0982 72.7447 62.1142 73.0097 62.1232C75.1042 62.1963 77.0927 61.8993 78.7483 61.4363ZM42.401 25.6616C42.5883 25.7392 42.8193 25.8329 43.0816 25.9408C43.3421 26.0452 43.6365 26.1531 43.9639 26.2441C44.6187 26.427 45.4063 26.5439 46.2333 26.5135C46.3386 26.5117 46.434 26.5046 46.542 26.4975C46.6535 26.4886 46.7632 26.4814 46.8774 26.4725C46.9434 26.468 47.0121 26.4636 47.0808 26.4609C47.2288 26.4564 47.4715 26.452 47.6196 26.4502C48.0995 26.4591 48.5928 26.5019 49.079 26.5983C49.5723 26.6937 50.0612 26.8311 50.5295 27.0095C50.9952 27.1924 51.4448 27.4092 51.8631 27.6554C52.2735 27.9087 52.6642 28.1763 53.005 28.4689C53.0915 28.5367 53.1763 28.6144 53.2628 28.6946C53.3476 28.7749 53.4296 28.8525 53.5117 28.9301C53.5777 28.9962 53.6437 29.0622 53.7079 29.1264C53.7401 29.1603 53.7722 29.1924 53.8016 29.2245L53.8248 29.245L53.8453 29.2245C53.8766 29.1924 53.9087 29.1603 53.939 29.1264C54.005 29.0622 54.0692 28.9962 54.1353 28.9301C54.2173 28.8525 54.3021 28.7749 54.3859 28.6946C54.4707 28.6144 54.5572 28.5367 54.6446 28.4689C54.9845 28.1763 55.3752 27.9087 55.7865 27.6554C56.2022 27.4092 56.6518 27.1924 57.1174 27.0095C57.5876 26.8311 58.0764 26.6937 58.5697 26.5983C59.0568 26.5019 59.5474 26.4591 60.0292 26.4502L60.5662 26.4591C60.6028 26.4609 60.6411 26.4636 60.6777 26.4654C60.8213 26.477 60.9632 26.4868 61.105 26.4975C61.2147 26.5046 61.3084 26.5117 61.4128 26.5135C62.2424 26.5439 63.0274 26.427 63.6831 26.2441C64.0122 26.1531 64.3066 26.0452 64.5671 25.9408C64.8294 25.8329 65.0578 25.7392 65.2478 25.6616C65.6242 25.5091 65.8392 25.4225 65.8392 25.4225C65.8392 25.4225 65.6429 25.5456 65.295 25.7597C65.1238 25.8677 64.9141 25.9979 64.6724 26.1487C64.4297 26.2994 64.1443 26.4609 63.8222 26.6143C63.1764 26.9203 62.3682 27.1897 61.4591 27.3155C61.345 27.3316 61.221 27.3432 61.1095 27.3539L60.9426 27.3699C60.8722 27.3744 60.8329 27.3815 60.7758 27.386C60.6706 27.3976 60.5662 27.4092 60.4609 27.4208C60.4199 27.427 60.3788 27.4315 60.3378 27.4386C59.8507 27.5234 59.3646 27.6393 58.9034 27.8177C58.5037 27.973 58.1201 28.1558 57.7615 28.3655C57.4074 28.5831 57.0791 28.8177 56.782 29.0711C56.4921 29.3298 56.2245 29.5876 56.0006 29.8615C55.9417 29.9275 55.8908 29.9917 55.8453 30.0559C55.7972 30.1175 55.7517 30.179 55.7035 30.2388C55.6518 30.3137 55.5991 30.3914 55.5465 30.4645C55.5215 30.5011 55.4965 30.5377 55.4707 30.5742L55.4502 30.6019L55.4412 30.6153L55.4395 30.6197C55.4341 30.6269 55.4734 30.576 55.4573 30.5992L55.4528 30.6063L55.4163 30.6608C55.377 30.7205 55.3387 30.7776 55.3021 30.8347L55.2976 30.8436C54.9729 31.3343 54.5733 31.7705 54.1103 32.1336L54.1031 32.1407C53.939 32.2683 53.7079 32.2683 53.5456 32.1407C53.0773 31.7732 52.6714 31.3325 52.3449 30.8347C52.3083 30.7776 52.2717 30.7205 52.2325 30.6608L52.1959 30.6063L52.1914 30.5992C52.1736 30.576 52.2146 30.6269 52.2075 30.6197L52.2057 30.6153L52.1959 30.6019L52.178 30.5742C52.1531 30.5377 52.1254 30.5011 52.1004 30.4645C52.0478 30.3914 51.9952 30.3137 51.9425 30.2388C51.897 30.179 51.8489 30.1175 51.8007 30.0559C51.7552 29.9917 51.707 29.9275 51.6455 29.8615C51.4243 29.5876 51.1548 29.3298 50.8649 29.0711C50.5705 28.8177 50.2387 28.5831 49.8854 28.3655C49.5286 28.1558 49.1432 27.973 48.7436 27.8177C48.3439 27.6643 47.9256 27.5555 47.5036 27.4752C47.4028 27.4573 47.3047 27.4413 47.2039 27.4226C47.1057 27.411 47.0049 27.4002 46.9068 27.3887C46.8292 27.3842 46.7882 27.3744 46.7061 27.3699L46.5393 27.3539C46.4278 27.3432 46.302 27.3316 46.1905 27.3155C45.2815 27.1897 44.4724 26.9203 43.8265 26.6143C43.5018 26.4609 43.2163 26.2994 42.9746 26.1487C42.7346 25.9979 42.525 25.8677 42.351 25.7597C42.0067 25.5456 41.8077 25.4225 41.8077 25.4225C41.8077 25.4225 42.0245 25.5091 42.401 25.6616ZM173.434 36.6055C172.615 36.8267 171.623 37.0988 170.485 37.4093C169.359 37.7153 168.087 38.0078 166.685 38.2175C163.889 38.6448 160.582 38.734 157.176 38.197C156.744 38.131 156.358 38.0551 155.915 37.9713C155.337 37.8571 154.753 37.7402 154.166 37.6243C154.012 37.5966 153.857 37.5716 153.705 37.544L151.494 37.2309C149.502 37.0328 147.447 36.957 145.391 37.1104C143.309 37.2656 141.219 37.5832 139.194 38.0855C139.184 38.0872 139.175 38.0899 139.168 38.0917C124.74 20.7338 102.988 9.68018 78.6547 9.68018C35.2145 9.68018 0 44.8955 0 88.3357C0 88.5686 0.00713644 88.8014 0.0089207 89.0342L68.8348 92.1815L0.31044 95.3144C0.630693 98.9255 1.18734 102.467 1.97504 105.92L48.6133 108.053L3.06248 110.136C4.90995 116.547 7.54959 122.621 10.8708 128.246L72.8705 131.082L14.431 133.752C28.6783 153.862 52.1326 166.991 78.6547 166.991C92.0607 166.991 104.68 163.632 115.726 157.716L85.2774 156.326L120.888 154.698C125.652 151.66 130.066 148.123 134.06 144.159L76.0284 141.507L139.132 138.623C143.955 132.829 147.959 126.332 150.97 119.308L100.035 116.978L152.823 114.566C155.723 106.361 157.308 97.5348 157.308 88.3357C157.308 73.0171 152.923 58.7253 145.348 46.6351C144.332 47.0971 143.343 47.5994 142.406 48.1543C140.932 49.0535 139.562 50.0356 138.331 51.0838C137.123 52.1596 136.006 53.2355 135.081 54.3702C134.829 54.6467 134.621 54.9161 134.432 55.1766C134.233 55.4344 134.04 55.6905 133.848 55.9393C133.624 56.2587 133.406 56.5718 133.19 56.8805C133.083 57.0357 132.975 57.1882 132.87 57.339L132.79 57.4532L132.752 57.5103L132.743 57.5237C132.721 57.5513 132.888 57.3461 132.813 57.4398L132.793 57.4666L132.644 57.6976C132.482 57.942 132.327 58.182 132.172 58.4193L132.149 58.4532C130.808 60.5023 129.139 62.3176 127.211 63.8297L127.179 63.8547C126.501 64.3864 125.544 64.3864 124.866 63.8547C122.916 62.3266 121.23 60.4907 119.874 58.4193C119.718 58.182 119.563 57.942 119.401 57.6976L119.253 57.4666L119.232 57.4398C119.156 57.3461 119.326 57.5513 119.303 57.5237L119.294 57.5103L119.255 57.4532L119.175 57.339C119.07 57.1882 118.962 57.0357 118.855 56.8805C118.641 56.5718 118.421 56.2587 118.197 55.9393C118.006 55.6905 117.811 55.4344 117.613 55.1766C117.423 54.9161 117.215 54.6467 116.964 54.3702C116.041 53.2355 114.923 52.1596 113.715 51.0838C112.486 50.0356 111.114 49.0535 109.638 48.1543C108.156 47.2747 106.555 46.5146 104.892 45.875C103.228 45.2336 101.485 44.7831 99.7361 44.4432C99.3177 44.3719 98.902 44.3041 98.489 44.2327C98.0759 44.1854 97.6665 44.1373 97.2534 44.0891C96.9314 44.0641 96.7601 44.0293 96.4131 44.007L95.7209 43.9455C95.2552 43.9 94.7369 43.8447 94.2686 43.7786C90.4871 43.2621 87.1231 42.139 84.4371 40.8669C83.09 40.2318 81.9072 39.5583 80.8956 38.9302C79.8955 38.3049 79.0231 37.7607 78.3032 37.3129C76.867 36.4155 76.0445 35.9043 76.0445 35.9043C76.0445 35.9043 76.9419 36.2701 78.5093 36.9088C79.2943 37.2291 80.247 37.6171 81.338 38.0623C82.421 38.5029 83.6476 38.9463 85.0134 39.3254C87.7377 40.0855 91.0081 40.5743 94.4541 40.4512C94.8903 40.4378 95.2846 40.4102 95.7351 40.3808C96.1963 40.346 96.6602 40.3121 97.1259 40.2755C97.4069 40.2568 97.6897 40.2407 97.9751 40.2246C98.5915 40.2113 99.6014 40.1934 100.218 40.1791C102.216 40.2229 104.264 40.3959 106.286 40.7956C108.334 41.2024 110.369 41.7688 112.319 42.511C114.26 43.2737 116.129 44.1738 117.862 45.1988C119.572 46.2515 121.198 47.3639 122.611 48.5816C122.974 48.8643 123.331 49.1864 123.685 49.52C124.037 49.851 124.384 50.1748 124.724 50.495C125 50.7734 125.272 51.0499 125.539 51.3193C125.672 51.454 125.804 51.586 125.934 51.719L126.024 51.8082L126.11 51.719C126.24 51.586 126.373 51.454 126.505 51.3193C126.773 51.0499 127.044 50.7734 127.321 50.495C127.663 50.1748 128.008 49.851 128.362 49.52C128.714 49.1864 129.073 48.8643 129.433 48.5816C130.847 47.3639 132.472 46.2515 134.183 45.1988C135.918 44.1738 137.785 43.2737 139.726 42.511C141.676 41.7688 143.711 41.2024 145.762 40.7956C147.783 40.3959 149.834 40.2229 151.832 40.1791L154.065 40.2229C154.22 40.2318 154.378 40.2389 154.533 40.2461C155.129 40.2915 155.723 40.337 156.31 40.3808C156.76 40.4102 157.155 40.4378 157.591 40.4512C161.037 40.5743 164.309 40.0855 167.032 39.3254C168.4 38.9463 169.626 38.5029 170.706 38.0623C171.8 37.6171 172.75 37.2291 173.536 36.9088C175.103 36.2701 176 35.9043 176 35.9043C176 35.9043 175.066 36.1577 173.434 36.6055Z" fill="white"/>
</mask>
<g mask="url(#mask0_295_35706)">
<g filter="url(#filter0_f_295_35706)">
<ellipse cx="139.04" cy="106.119" rx="92.4" ry="92.9191" fill="#D9D7FF"/>
</g>
<g filter="url(#filter1_f_295_35706)">
<ellipse cx="77.4401" cy="3.9602" rx="78.32" ry="78.76" fill="#CC81F4"/>
</g>
<g filter="url(#filter2_f_295_35706)">
<ellipse cx="23.7599" cy="77.0002" rx="78.32" ry="78.76" fill="#F8C3F9"/>
</g>
<g filter="url(#filter3_f_295_35706)">
<ellipse cx="67.7599" cy="181.72" rx="78.32" ry="78.76" fill="#AEA5FF"/>
</g>
</g>
<defs>
<filter id="filter0_f_295_35706" x="-19.4275" y="-52.8672" width="316.935" height="317.973" filterUnits="userSpaceOnUse" color-interpolation-filters="sRGB">
<feFlood flood-opacity="0" result="BackgroundImageFix"/>
<feBlend mode="normal" in="SourceGraphic" in2="BackgroundImageFix" result="shape"/>
<feGaussianBlur stdDeviation="33.0337" result="effect1_foregroundBlur_295_35706"/>
</filter>
<filter id="filter1_f_295_35706" x="-56.8799" y="-130.8" width="268.64" height="269.52" filterUnits="userSpaceOnUse" color-interpolation-filters="sRGB">
<feFlood flood-opacity="0" result="BackgroundImageFix"/>
<feBlend mode="normal" in="SourceGraphic" in2="BackgroundImageFix" result="shape"/>
<feGaussianBlur stdDeviation="28" result="effect1_foregroundBlur_295_35706"/>
</filter>
<filter id="filter2_f_295_35706" x="-110.56" y="-57.7598" width="268.64" height="269.52" filterUnits="userSpaceOnUse" color-interpolation-filters="sRGB">
<feFlood flood-opacity="0" result="BackgroundImageFix"/>
<feBlend mode="normal" in="SourceGraphic" in2="BackgroundImageFix" result="shape"/>
<feGaussianBlur stdDeviation="28" result="effect1_foregroundBlur_295_35706"/>
</filter>
<filter id="filter3_f_295_35706" x="-66.5601" y="46.96" width="268.64" height="269.52" filterUnits="userSpaceOnUse" color-interpolation-filters="sRGB">
<feFlood flood-opacity="0" result="BackgroundImageFix"/>
<feBlend mode="normal" in="SourceGraphic" in2="BackgroundImageFix" result="shape"/>
<feGaussianBlur stdDeviation="28" result="effect1_foregroundBlur_295_35706"/>
</filter>
</defs>
</svg>
