<svg width="176" height="176" viewBox="0 0 176 176" fill="none" xmlns="http://www.w3.org/2000/svg">
<mask id="mask0_295_34852" style="mask-type:alpha" maskUnits="userSpaceOnUse" x="0" y="0" width="176" height="176">
<path fill-rule="evenodd" clip-rule="evenodd" d="M2.71566 0.548333C1.1405 1.32452 0.145881 2.86418 0.00418528 4.74724C-0.102086 6.15456 1.72448 11.1658 15.9941 48.6174C29.4865 84.0288 32.2798 91.0774 33.1857 91.999C35.0955 93.9419 38.2675 93.9391 40.2213 91.9928C41.284 90.9341 41.5461 90.0379 46.3187 71.1268L51.3055 51.3674L71.0748 46.383C89.9952 41.6128 90.8918 41.3508 91.9511 40.2886C93.8981 38.3361 93.9008 35.1674 91.9573 33.2538C91.0325 32.3432 84.0929 29.5987 48.5541 16.0889C22.52 6.19237 5.78894 0.00486354 5.04813 5.10331e-05C4.38608 -0.00407397 3.33644 0.242395 2.71566 0.548333ZM147.85 21.8609C145.755 22.8931 145.211 24.1141 145.079 28.0783L144.961 31.6017H126.387C105.86 31.6017 106.287 31.5587 104.692 33.7924C104.122 34.5913 103.925 35.3527 103.925 36.758C103.925 38.1632 104.122 38.9246 104.692 39.7235C106.287 41.9572 105.86 41.9142 126.387 41.9142H144.961L145.079 45.4377C145.178 48.4166 145.315 49.1271 145.963 50.036C147.16 51.7128 148.625 52.2267 152.212 52.2267H155.342V98.6018V144.977L151.816 145.094C148.836 145.193 148.125 145.33 147.216 145.978C145.538 147.174 145.024 148.639 145.024 152.224V155.352H98.5946H52.1653V152.224C52.1653 148.639 51.6511 147.174 49.9735 145.978C49.0642 145.33 48.3533 145.193 45.3729 145.094L41.8477 144.977V126.412C41.8477 105.895 41.8907 106.321 39.6559 104.728C38.155 103.658 35.2227 103.658 33.7219 104.728C31.4871 106.321 31.53 105.895 31.53 126.412V144.977L28.0049 145.094C25.0244 145.193 24.3136 145.33 23.4042 145.978C21.2227 147.533 21.176 147.865 21.2857 160.931C21.4226 177.248 20.1208 175.977 36.6889 175.977C49.3145 175.977 49.7049 175.918 51.2264 173.786C51.8747 172.877 52.0116 172.167 52.1106 169.188L52.2279 165.664H98.5946H144.961L145.079 169.188C145.178 172.167 145.315 172.877 145.963 173.786C147.519 175.967 147.851 176.013 160.923 175.904C177.249 175.767 175.977 177.068 175.977 160.508C175.977 147.889 175.918 147.499 173.785 145.978C172.876 145.33 172.165 145.193 169.184 145.094L165.659 144.977V98.633V52.2893L169.184 52.1721C172.165 52.0731 172.876 51.9363 173.785 51.2883C175.967 49.7328 176.013 49.4011 175.904 36.3352C175.767 20.0111 177.077 21.2858 160.448 21.2971C150.588 21.3036 148.821 21.3827 147.85 21.8609ZM106.58 52.7747C103.257 54.4814 102.848 59.3946 105.85 61.531C106.388 61.9147 107.686 62.3677 108.734 62.5382C111.26 62.949 112.566 63.773 113.39 65.4763C114.054 66.8451 114.071 67.6976 114.071 98.633C114.071 129.569 114.054 130.421 113.39 131.79C112.566 133.493 111.26 134.317 108.734 134.728C107.686 134.898 106.388 135.351 105.85 135.735C102.777 137.922 103.275 142.887 106.73 144.526C109.263 145.728 114.187 144.641 117.94 142.054L119.23 141.165L120.52 142.054C124.273 144.641 129.197 145.728 131.729 144.526C135.185 142.887 135.683 137.922 132.61 135.735C132.072 135.351 130.774 134.898 129.726 134.728C127.2 134.317 125.894 133.493 125.069 131.79C124.406 130.421 124.389 129.569 124.389 98.633C124.389 67.6976 124.406 66.8451 125.069 65.4763C125.894 63.773 127.2 62.949 129.726 62.5382C130.774 62.3677 132.072 61.9147 132.61 61.531C135.683 59.3444 135.185 54.379 131.729 52.74C129.197 51.5385 124.273 52.6248 120.52 55.2122L119.23 56.1015L117.94 55.2122C114.192 52.6282 109.024 51.5193 106.58 52.7747Z" fill="white"/>
</mask>
<g mask="url(#mask0_295_34852)">
<g filter="url(#filter0_f_295_34852)">
<ellipse cx="171.6" cy="112.279" rx="92.4" ry="92.9191" fill="#D9D7FF"/>
</g>
<g filter="url(#filter1_f_295_34852)">
<ellipse cx="77.4401" cy="3.9602" rx="78.32" ry="78.76" fill="#CC81F4"/>
</g>
<g filter="url(#filter2_f_295_34852)">
<ellipse cx="23.7599" cy="77.0002" rx="78.32" ry="78.76" fill="#F8C3F9"/>
</g>
<g filter="url(#filter3_f_295_34852)">
<ellipse cx="67.7599" cy="181.72" rx="78.32" ry="78.76" fill="#AEA5FF"/>
</g>
</g>
<defs>
<filter id="filter0_f_295_34852" x="23.2" y="-36.6396" width="296.8" height="297.838" filterUnits="userSpaceOnUse" color-interpolation-filters="sRGB">
<feFlood flood-opacity="0" result="BackgroundImageFix"/>
<feBlend mode="normal" in="SourceGraphic" in2="BackgroundImageFix" result="shape"/>
<feGaussianBlur stdDeviation="28" result="effect1_foregroundBlur_295_34852"/>
</filter>
<filter id="filter1_f_295_34852" x="-56.8799" y="-130.8" width="268.64" height="269.52" filterUnits="userSpaceOnUse" color-interpolation-filters="sRGB">
<feFlood flood-opacity="0" result="BackgroundImageFix"/>
<feBlend mode="normal" in="SourceGraphic" in2="BackgroundImageFix" result="shape"/>
<feGaussianBlur stdDeviation="28" result="effect1_foregroundBlur_295_34852"/>
</filter>
<filter id="filter2_f_295_34852" x="-110.56" y="-57.7598" width="268.64" height="269.52" filterUnits="userSpaceOnUse" color-interpolation-filters="sRGB">
<feFlood flood-opacity="0" result="BackgroundImageFix"/>
<feBlend mode="normal" in="SourceGraphic" in2="BackgroundImageFix" result="shape"/>
<feGaussianBlur stdDeviation="28" result="effect1_foregroundBlur_295_34852"/>
</filter>
<filter id="filter3_f_295_34852" x="-66.5601" y="46.96" width="268.64" height="269.52" filterUnits="userSpaceOnUse" color-interpolation-filters="sRGB">
<feFlood flood-opacity="0" result="BackgroundImageFix"/>
<feBlend mode="normal" in="SourceGraphic" in2="BackgroundImageFix" result="shape"/>
<feGaussianBlur stdDeviation="28" result="effect1_foregroundBlur_295_34852"/>
</filter>
</defs>
</svg>
