<svg width="176" height="176" viewBox="0 0 176 176" fill="none" xmlns="http://www.w3.org/2000/svg">
<mask id="mask0_295_35971" style="mask-type:alpha" maskUnits="userSpaceOnUse" x="0" y="0" width="176" height="176">
<path fill-rule="evenodd" clip-rule="evenodd" d="M69.3422 0.525231C64.7931 1.6575 58.9834 3.54334 54.4195 5.36847L49.5058 7.33428L49.8165 9.30395C52.0951 23.7445 60.6362 34.9275 73.5267 40.347C78.886 42.6 84.119 43.4918 90.0521 43.1632C96.2035 42.8221 99.5173 41.9543 105.087 39.2258C115.255 34.2448 123.398 24.0519 125.568 13.5921C125.997 11.5222 126.451 9.32949 126.575 8.71999C126.775 7.74334 126.389 7.41956 123.332 6.00109C119.358 4.15717 111.782 1.63919 107.44 0.718922L104.477 0.091113L104.288 4.71849C104.124 8.71854 103.909 9.69615 102.704 11.9231C97.5113 21.52 85.0116 23.6809 77.0806 16.3534C73.0858 12.6622 71.2266 7.6624 71.8319 2.23954C71.9725 0.98103 71.8986 -0.0264522 71.6679 0.000529573C71.4373 0.0279932 70.3907 0.264086 69.3422 0.525231ZM30.2209 20.5982C26.2823 24.0683 19.8416 30.8614 18.9132 32.5237C18.4423 33.3674 23.2459 40.4819 27.7087 45.5506C40.6006 60.1916 58.6598 69.8877 77.4443 72.2539C83.5976 73.0287 94.6799 72.9005 100.751 71.9836C112.027 70.2804 125.391 64.78 134.886 57.9333C142.75 52.2633 152.533 41.8161 156.758 34.5767L157.766 32.8489L154.162 28.6812C150.772 24.7611 142.261 16.8145 141.452 16.8145C141.249 16.8145 140.456 18.0615 139.69 19.585C136.048 26.8262 128.916 34.9386 121.888 39.8343C111.659 46.9604 100.38 50.5418 88.1677 50.5418C72.929 50.5418 58.6426 44.7951 47.5041 34.1845C43.6656 30.528 38.7443 24.0659 36.571 19.8278C35.7217 18.1723 34.912 16.8174 34.7709 16.8165C34.6299 16.8155 32.5819 18.5173 30.2209 20.5982ZM5.32785 56.9259C3.1379 62.8575 0.150606 75.6411 0.732528 76.5922C0.83023 76.7527 2.07938 76.7854 3.50822 76.6659C9.88172 76.1316 21.7904 78.5431 29.2048 81.8696C39.7442 86.5976 49.6335 95.4226 55.6515 105.469C61.9554 115.993 65.0971 129.6 63.8971 141.184C62.92 150.616 60.3455 158.812 56.0413 166.189C54.8851 168.17 54.1064 169.969 54.3104 170.186C55.3794 171.323 69.9899 175.539 74.0862 175.893C75.8486 176.045 76.0417 175.931 77.0616 174.128C79.0399 170.632 82.805 160.246 84.048 154.855C85.6336 147.978 86.2613 142.649 86.2613 136.064C86.2613 106.156 69.6863 78.3788 43.1638 63.8395C33.6814 58.6416 18.1001 54.3963 8.50388 54.3963H6.26198L5.32785 56.9259ZM159.641 55.1306C134.18 59.1451 112.812 73.9528 100.356 96.2152C97.0495 102.124 95.1965 106.638 93.16 113.741C90.6364 122.543 89.9053 128.769 90.2265 138.714C90.5297 148.098 91.4061 153.243 94.1399 161.68C95.8079 166.828 99.5964 175.474 100.378 175.918C101.531 176.573 115.242 173.143 120.704 170.834L122.499 170.075L121.067 167.72C115.421 158.444 112.008 146.343 112.004 135.583C112.003 131.519 113.157 124.306 114.626 119.201C121.675 94.7033 144.376 77.2075 169.542 76.8775L175.376 76.8008L175.374 75.3554C175.37 72.2226 172.632 61.0994 170.541 55.7213C170.049 54.4541 169.889 54.3982 166.867 54.4431C165.13 54.4686 161.878 54.7784 159.641 55.1306ZM10.2444 91.0443C6.69807 91.6365 -0.00285865 93.9391 9.1493e-07 94.5645C0.00857962 96.8011 2.07843 108.444 3.08691 111.934C4.80217 117.867 4.65109 117.71 7.06171 116.073C10.3583 113.834 13.4004 113.028 17.5711 113.287C23.6472 113.663 28.4012 116.821 31.2932 122.402C32.4828 124.698 32.631 125.487 32.6372 129.56C32.6439 133.676 32.5033 134.419 31.2451 136.929C29.5751 140.261 26.5859 143.178 23.2302 144.75L20.78 145.897L25.759 150.894C28.4975 153.643 32.4852 157.222 34.6208 158.85L38.5031 161.809L40.3504 160.456C43.0732 158.462 47.4808 153.373 49.6064 149.769C56.2906 138.434 56.8949 124.222 51.1891 112.545C45.6373 101.182 35.7832 93.61 23.428 91.2115C19.6505 90.4782 14.0562 90.4074 10.2444 91.0443ZM152.558 91.2775C141.68 93.6635 133.611 99.0599 127.808 107.83C123.509 114.328 121.053 122.393 121.053 130.013C121.053 140.215 125.94 151.133 133.771 158.428C136.812 161.261 137.537 161.724 138.293 161.315C140.434 160.157 148.85 152.899 151.974 149.517L155.379 145.831L152.633 144.514C149.618 143.067 146.519 139.981 144.801 136.714C143.863 134.929 143.699 133.905 143.695 129.801C143.69 124.055 144.654 121.56 148.307 117.863C151.331 114.803 154.177 113.583 158.942 113.306C163.242 113.056 167.042 114.152 169.693 116.407C170.486 117.082 171.204 117.553 171.289 117.454C171.636 117.046 173.509 110.779 174.222 107.637C175.277 102.992 176.321 94.7066 175.907 94.2629C175.362 93.6765 170.171 91.9386 166.806 91.2154C162.912 90.3785 156.531 90.4064 152.558 91.2775Z" fill="white"/>
</mask>
<g mask="url(#mask0_295_35971)">
<g filter="url(#filter0_f_295_35971)">
<ellipse cx="139.04" cy="106.119" rx="92.4" ry="92.9191" fill="#D9D7FF"/>
</g>
<g filter="url(#filter1_f_295_35971)">
<ellipse cx="77.4401" cy="3.95995" rx="78.32" ry="78.76" fill="#CC81F4"/>
</g>
<g filter="url(#filter2_f_295_35971)">
<ellipse cx="23.7599" cy="77" rx="78.32" ry="78.76" fill="#F8C3F9"/>
</g>
<g filter="url(#filter3_f_295_35971)">
<ellipse cx="67.7599" cy="181.72" rx="78.32" ry="78.76" fill="#AEA5FF"/>
</g>
</g>
<defs>
<filter id="filter0_f_295_35971" x="-19.4275" y="-52.8675" width="316.935" height="317.973" filterUnits="userSpaceOnUse" color-interpolation-filters="sRGB">
<feFlood flood-opacity="0" result="BackgroundImageFix"/>
<feBlend mode="normal" in="SourceGraphic" in2="BackgroundImageFix" result="shape"/>
<feGaussianBlur stdDeviation="33.0337" result="effect1_foregroundBlur_295_35971"/>
</filter>
<filter id="filter1_f_295_35971" x="-56.8799" y="-130.8" width="268.64" height="269.52" filterUnits="userSpaceOnUse" color-interpolation-filters="sRGB">
<feFlood flood-opacity="0" result="BackgroundImageFix"/>
<feBlend mode="normal" in="SourceGraphic" in2="BackgroundImageFix" result="shape"/>
<feGaussianBlur stdDeviation="28" result="effect1_foregroundBlur_295_35971"/>
</filter>
<filter id="filter2_f_295_35971" x="-110.56" y="-57.76" width="268.64" height="269.52" filterUnits="userSpaceOnUse" color-interpolation-filters="sRGB">
<feFlood flood-opacity="0" result="BackgroundImageFix"/>
<feBlend mode="normal" in="SourceGraphic" in2="BackgroundImageFix" result="shape"/>
<feGaussianBlur stdDeviation="28" result="effect1_foregroundBlur_295_35971"/>
</filter>
<filter id="filter3_f_295_35971" x="-66.5601" y="46.96" width="268.64" height="269.52" filterUnits="userSpaceOnUse" color-interpolation-filters="sRGB">
<feFlood flood-opacity="0" result="BackgroundImageFix"/>
<feBlend mode="normal" in="SourceGraphic" in2="BackgroundImageFix" result="shape"/>
<feGaussianBlur stdDeviation="28" result="effect1_foregroundBlur_295_35971"/>
</filter>
</defs>
</svg>
