<svg width="176" height="176" viewBox="0 0 176 176" fill="none" xmlns="http://www.w3.org/2000/svg">
<mask id="mask0_295_35606" style="mask-type:alpha" maskUnits="userSpaceOnUse" x="15" y="0" width="146" height="176">
<path fill-rule="evenodd" clip-rule="evenodd" d="M31.9122 154.689C11.8268 132.058 0.427147 74.7549 61.0654 49.7899C51.8183 54.9696 43.7358 75.9215 61.8162 77.4147C68.9598 78.0047 78.3971 72.0017 74.15 54.1296C70.535 38.9173 65.834 10.3126 99.6587 0C90.2063 23.3977 109.765 46.2158 124.308 63.1821C124.644 63.5742 124.977 63.9632 125.308 64.3489C115.606 71.2085 93.9964 87.4847 85.1758 97.7133L83.5873 72.0017C69.9117 84.0876 40.4309 117.545 31.9122 154.689ZM56.6782 171.395C103.491 191.927 170.206 140.784 135.026 77.8348C141.436 68.1784 155.214 48.2171 159.916 44.2935C159.998 44.2278 160.08 44.1623 160.161 44.0971C160.082 44.1573 160.001 44.2228 159.916 44.2935C132.9 65.9754 98.0591 111.072 78.5895 161.596L70.3669 135.651C67.3302 140.115 60.341 153.514 56.6782 171.395Z" fill="white"/>
</mask>
<g mask="url(#mask0_295_35606)">
<g filter="url(#filter0_f_295_35606)">
<ellipse cx="121.44" cy="94.5998" rx="78.32" ry="78.76" fill="#D9D7FF"/>
</g>
<g filter="url(#filter1_f_295_35606)">
<ellipse cx="77.4401" cy="3.9602" rx="78.32" ry="78.76" fill="#CC81F4"/>
</g>
<g filter="url(#filter2_f_295_35606)">
<ellipse cx="23.7599" cy="77.0002" rx="78.32" ry="78.76" fill="#F8C3F9"/>
</g>
<g filter="url(#filter3_f_295_35606)">
<ellipse cx="67.7599" cy="181.72" rx="78.32" ry="78.76" fill="#AEA5FF"/>
</g>
</g>
<defs>
<filter id="filter0_f_295_35606" x="-12.8799" y="-40.1602" width="268.64" height="269.52" filterUnits="userSpaceOnUse" color-interpolation-filters="sRGB">
<feFlood flood-opacity="0" result="BackgroundImageFix"/>
<feBlend mode="normal" in="SourceGraphic" in2="BackgroundImageFix" result="shape"/>
<feGaussianBlur stdDeviation="28" result="effect1_foregroundBlur_295_35606"/>
</filter>
<filter id="filter1_f_295_35606" x="-56.8799" y="-130.8" width="268.64" height="269.52" filterUnits="userSpaceOnUse" color-interpolation-filters="sRGB">
<feFlood flood-opacity="0" result="BackgroundImageFix"/>
<feBlend mode="normal" in="SourceGraphic" in2="BackgroundImageFix" result="shape"/>
<feGaussianBlur stdDeviation="28" result="effect1_foregroundBlur_295_35606"/>
</filter>
<filter id="filter2_f_295_35606" x="-110.56" y="-57.7598" width="268.64" height="269.52" filterUnits="userSpaceOnUse" color-interpolation-filters="sRGB">
<feFlood flood-opacity="0" result="BackgroundImageFix"/>
<feBlend mode="normal" in="SourceGraphic" in2="BackgroundImageFix" result="shape"/>
<feGaussianBlur stdDeviation="28" result="effect1_foregroundBlur_295_35606"/>
</filter>
<filter id="filter3_f_295_35606" x="-66.5601" y="46.96" width="268.64" height="269.52" filterUnits="userSpaceOnUse" color-interpolation-filters="sRGB">
<feFlood flood-opacity="0" result="BackgroundImageFix"/>
<feBlend mode="normal" in="SourceGraphic" in2="BackgroundImageFix" result="shape"/>
<feGaussianBlur stdDeviation="28" result="effect1_foregroundBlur_295_35606"/>
</filter>
</defs>
</svg>
