<svg width="176" height="176" viewBox="0 0 176 176" fill="none" xmlns="http://www.w3.org/2000/svg">
<mask id="mask0_295_35346" style="mask-type:alpha" maskUnits="userSpaceOnUse" x="0" y="3" width="176" height="170">
<path fill-rule="evenodd" clip-rule="evenodd" d="M111.655 5.74863C111.314 7.04641 110.366 10.5417 109.549 13.5158C108.731 16.4899 106.618 24.2609 104.853 30.7847C99.2857 51.363 96.7929 60.549 94.5501 68.7533C93.1378 73.919 92.5089 76.7616 92.7605 76.839C92.9741 76.9049 98.9594 77.1275 106.061 77.3337C123.688 77.8458 129.268 78.0942 129.268 78.3671C129.268 78.4944 129.053 78.9085 128.791 79.2867C128.411 79.8344 110.876 109.504 106.771 116.545L105.79 118.228L125.293 118.081C143.602 117.943 144.983 117.889 147.825 117.204C158.561 114.614 167.454 107.64 172.167 98.1161C174.168 94.0734 174.725 92.4826 175.524 88.5414C176.323 84.6003 176.083 76.5613 175.053 72.7622C171.756 60.5982 162.653 50.9147 151.044 47.2209C147.047 45.9489 144.25 45.5163 139.912 45.4985C129.951 45.4581 121.703 48.8285 114.121 56.0371C112.44 57.6356 112.214 57.7713 112.894 56.7753C114.559 54.335 119.362 49.6993 122.14 47.852C125.51 45.6098 128.481 44.2147 132.159 43.1461C133.64 42.7163 134.851 42.2349 134.851 42.0772C134.851 41.5159 133.183 37.3696 132.06 35.141C128.102 27.2835 120.702 20.5873 112.767 17.682C111.574 17.2448 110.545 16.8482 110.481 16.8C110.416 16.7519 110.854 13.7754 111.454 10.1859C112.054 6.59603 112.484 3.59821 112.41 3.5239C112.335 3.4496 111.995 4.45049 111.655 5.74863ZM93.4979 15.7702C82.6452 17.7573 73.9805 23.7819 68.2381 33.3332C67.3192 34.8616 66.2113 37.064 65.7761 38.2275L64.9846 40.3426L66.3861 42.0179C69.3122 45.516 71.1353 50.3931 71.4651 55.6084L71.6601 58.6941L71.1695 56.1414C70.5637 52.9905 70.0936 51.5158 68.9804 49.2747C66.5323 44.3469 62.8388 40.687 57.8599 38.2568C45.1262 32.0413 29.995 38.3537 25.0068 51.9627C24.1647 54.261 23.5285 56.7831 23.5285 59.574C23.5285 62.3649 24.3028 65.1559 24.6582 66.2328L25.2643 68.1899L27.2685 68.5922C30.166 69.1741 35.2307 71.7689 37.581 73.8764C39.2184 75.3445 41.8001 78.5275 42.8104 80.3239C42.9183 80.5157 41.6469 79.3341 39.9851 77.6983C35.1298 72.9181 30.3199 70.9442 23.5285 70.9442C16.7228 70.9442 11.9056 72.9244 7.09743 77.6983C3.77973 80.9923 2.41314 83.1403 0.986885 87.3012C0.172728 89.6766 0.0261595 90.6894 0.00173124 94.1041C-0.0317703 98.8058 0.410381 100.897 2.25332 104.745C4.64449 109.738 8.57184 113.596 13.693 115.982C18.4073 118.179 18.3585 118.176 51.1558 118.176H80.8158L80.6138 119.135C80.5024 119.663 79.3847 127.159 78.1294 135.794C76.8745 144.428 75.1604 156.202 74.32 161.959C73.48 167.715 72.8187 172.45 72.8505 172.48C72.8823 172.51 74.5486 167.408 76.5535 161.142C78.5583 154.875 80.7021 148.179 81.3173 146.26C84.8193 135.341 88.0455 125.209 90.8722 116.257C92.629 110.693 94.7629 104.02 95.6144 101.43C96.4656 98.8393 97.1621 96.6034 97.1621 96.4614C97.1621 96.3194 88.5271 96.1628 77.9731 96.1129L58.7837 96.0229L67.0156 81.5449C71.5436 73.582 78.9041 60.6303 83.3731 52.7634C87.8421 44.8964 94.4 33.3576 97.9463 27.1216C103.23 17.8292 104.292 15.7405 103.832 15.5462C102.887 15.1482 96.0908 15.2957 93.4979 15.7702Z" fill="white"/>
</mask>
<g mask="url(#mask0_295_35346)">
<g filter="url(#filter0_f_295_35346)">
<ellipse cx="121.44" cy="94.5998" rx="78.32" ry="78.76" fill="#D9D7FF"/>
</g>
<g filter="url(#filter1_f_295_35346)">
<ellipse cx="77.4401" cy="3.9602" rx="78.32" ry="78.76" fill="#CC81F4"/>
</g>
<g filter="url(#filter2_f_295_35346)">
<ellipse cx="23.7599" cy="77.0002" rx="78.32" ry="78.76" fill="#F8C3F9"/>
</g>
<g filter="url(#filter3_f_295_35346)">
<ellipse cx="67.7599" cy="181.72" rx="78.32" ry="78.76" fill="#AEA5FF"/>
</g>
</g>
<defs>
<filter id="filter0_f_295_35346" x="-12.8799" y="-40.1602" width="268.64" height="269.52" filterUnits="userSpaceOnUse" color-interpolation-filters="sRGB">
<feFlood flood-opacity="0" result="BackgroundImageFix"/>
<feBlend mode="normal" in="SourceGraphic" in2="BackgroundImageFix" result="shape"/>
<feGaussianBlur stdDeviation="28" result="effect1_foregroundBlur_295_35346"/>
</filter>
<filter id="filter1_f_295_35346" x="-56.8799" y="-130.8" width="268.64" height="269.52" filterUnits="userSpaceOnUse" color-interpolation-filters="sRGB">
<feFlood flood-opacity="0" result="BackgroundImageFix"/>
<feBlend mode="normal" in="SourceGraphic" in2="BackgroundImageFix" result="shape"/>
<feGaussianBlur stdDeviation="28" result="effect1_foregroundBlur_295_35346"/>
</filter>
<filter id="filter2_f_295_35346" x="-110.56" y="-57.7598" width="268.64" height="269.52" filterUnits="userSpaceOnUse" color-interpolation-filters="sRGB">
<feFlood flood-opacity="0" result="BackgroundImageFix"/>
<feBlend mode="normal" in="SourceGraphic" in2="BackgroundImageFix" result="shape"/>
<feGaussianBlur stdDeviation="28" result="effect1_foregroundBlur_295_35346"/>
</filter>
<filter id="filter3_f_295_35346" x="-66.5601" y="46.96" width="268.64" height="269.52" filterUnits="userSpaceOnUse" color-interpolation-filters="sRGB">
<feFlood flood-opacity="0" result="BackgroundImageFix"/>
<feBlend mode="normal" in="SourceGraphic" in2="BackgroundImageFix" result="shape"/>
<feGaussianBlur stdDeviation="28" result="effect1_foregroundBlur_295_35346"/>
</filter>
</defs>
</svg>
