<svg width="176" height="176" viewBox="0 0 176 176" fill="none" xmlns="http://www.w3.org/2000/svg">
<mask id="mask0_295_34919" style="mask-type:alpha" maskUnits="userSpaceOnUse" x="0" y="2" width="176" height="172">
<path fill-rule="evenodd" clip-rule="evenodd" d="M53.9017 10.218C55.0262 7.97157 57.1189 5.39832 58.6482 4.38255C61.9611 2.18116 64.7131 2.11114 77.1768 3.91249C85.1549 5.0651 88.2079 5.13029 98.3512 4.36484C114.265 3.16394 116.958 3.96642 119.91 10.7831C121.386 14.1918 121.832 16.992 122.141 24.8269C122.537 34.8164 122.117 38.7853 120.666 38.7853C120.217 38.7853 117.236 40.4853 114.041 42.5635C106.881 47.2198 94.6511 59.2667 90.5027 65.7493C87.0384 71.1622 82.0971 81.9075 82.0819 84.0606C82.0649 86.4536 80.7852 85.6664 75.7369 80.1569C66.5957 70.1802 57.2815 54.9403 53.4043 43.6147C52.1752 40.0257 51.8887 36.8262 51.8895 26.7119C51.8895 15.0144 52.015 13.9857 53.9017 10.218ZM98.4309 63.3346C111.564 45.3549 124.015 35.6945 138.823 31.9985C141.602 31.3046 146.487 30.8676 150.349 30.9666C156.94 31.1356 157.096 31.1871 159.73 34.0622C162.486 37.0693 162.9 38.4392 166.082 55.0394C166.735 58.4457 168.611 64.422 170.252 68.3201C177.248 84.9468 177.537 87.644 172.853 92.5023C169.637 95.837 161.021 100.088 152.99 102.302L147.039 103.942L142.526 100.043C128.604 88.0175 111.843 80.969 95.353 80.2068C91.8114 80.0434 88.7898 79.8921 88.6385 79.8719C87.9801 79.7834 94.6752 68.4771 98.4309 63.3346ZM13.6691 47.9007C14.8217 42.0419 17.3917 37.1908 20.1123 35.7388C24.5054 33.3933 44.8225 36.6701 50.0881 40.5722C50.8753 41.1557 52.308 44.7456 53.3914 48.8465C54.4434 52.8307 56.1047 58.0827 57.0835 60.5175C61.6504 71.8793 71.9651 85.4507 80.3698 91.1566C82.6091 92.677 84.3468 94.2353 84.2309 94.62C83.9291 95.6245 69.0699 101.776 61.9499 103.845C53.4043 106.328 43.1717 108.005 36.5957 108C25.1654 107.99 8.31253 102.044 3.19259 96.2129C-1.41381 90.9666 -1.13049 86.8681 4.66233 74.9428C8.71175 66.6081 11.8315 57.2399 13.6691 47.9007ZM98.9243 94.7255C98.0171 91.1839 97.0795 87.5064 96.8396 86.5542C96.4049 84.8293 96.4275 84.8261 101.914 85.9199C122.827 90.0885 140.228 98.4054 150.244 109.02C162.191 121.682 166.449 134.849 160.579 140.976C159.387 142.22 154.909 145.158 150.627 147.505C140.1 153.275 136.765 155.575 128.756 162.592C119.12 171.033 116.052 172.141 110.359 169.237C106.687 167.364 98.2345 158.494 94.3823 152.473L91.5812 148.095L93.5943 143.545C100.534 127.862 102.589 109.042 98.9243 94.7255ZM60.4471 108.826C70.7795 107.02 82.7829 102.118 89.7187 96.8697C91.4895 95.5295 93.2031 94.4083 93.5266 94.3777C94.8789 94.2514 95.3513 99.6442 95.3208 114.848C95.2918 129.03 95.0648 131.804 93.4156 138.156C90.881 147.916 86.9981 155.781 81.4347 162.426C75.1992 169.873 70.1807 173.211 65.2797 173.174C60.8005 173.14 59.3798 172.4 53.7762 167.188C42.9036 157.073 39.3774 154.286 31.2858 149.412C22.4964 144.115 18.8751 140.826 18.001 137.345C17.2082 134.186 20.1123 126.667 24.9609 119.323C28.3262 114.225 29.8433 111.727 32.0624 110.528C34.3716 109.282 37.4411 109.443 44.1448 109.547C50.2926 109.643 57.6292 109.318 60.4471 108.826ZM88 91.5197C89.944 91.5197 91.52 89.9437 91.52 87.9996C91.52 86.0556 89.944 84.4797 88 84.4797C86.056 84.4797 84.48 86.0556 84.48 87.9996C84.48 89.9437 86.056 91.5197 88 91.5197Z" fill="white"/>
</mask>
<g mask="url(#mask0_295_34919)">
<g filter="url(#filter0_f_295_34919)">
<ellipse cx="121.44" cy="94.5998" rx="78.32" ry="78.76" fill="#D9D7FF"/>
</g>
<g filter="url(#filter1_f_295_34919)">
<ellipse cx="77.4401" cy="3.9602" rx="78.32" ry="78.76" fill="#CC81F4"/>
</g>
<g filter="url(#filter2_f_295_34919)">
<ellipse cx="23.7599" cy="77.0002" rx="78.32" ry="78.76" fill="#F8C3F9"/>
</g>
<g filter="url(#filter3_f_295_34919)">
<ellipse cx="67.7599" cy="181.72" rx="78.32" ry="78.76" fill="#AEA5FF"/>
</g>
</g>
<defs>
<filter id="filter0_f_295_34919" x="-12.8799" y="-40.1602" width="268.64" height="269.52" filterUnits="userSpaceOnUse" color-interpolation-filters="sRGB">
<feFlood flood-opacity="0" result="BackgroundImageFix"/>
<feBlend mode="normal" in="SourceGraphic" in2="BackgroundImageFix" result="shape"/>
<feGaussianBlur stdDeviation="28" result="effect1_foregroundBlur_295_34919"/>
</filter>
<filter id="filter1_f_295_34919" x="-56.8799" y="-130.8" width="268.64" height="269.52" filterUnits="userSpaceOnUse" color-interpolation-filters="sRGB">
<feFlood flood-opacity="0" result="BackgroundImageFix"/>
<feBlend mode="normal" in="SourceGraphic" in2="BackgroundImageFix" result="shape"/>
<feGaussianBlur stdDeviation="28" result="effect1_foregroundBlur_295_34919"/>
</filter>
<filter id="filter2_f_295_34919" x="-110.56" y="-57.7598" width="268.64" height="269.52" filterUnits="userSpaceOnUse" color-interpolation-filters="sRGB">
<feFlood flood-opacity="0" result="BackgroundImageFix"/>
<feBlend mode="normal" in="SourceGraphic" in2="BackgroundImageFix" result="shape"/>
<feGaussianBlur stdDeviation="28" result="effect1_foregroundBlur_295_34919"/>
</filter>
<filter id="filter3_f_295_34919" x="-66.5601" y="46.96" width="268.64" height="269.52" filterUnits="userSpaceOnUse" color-interpolation-filters="sRGB">
<feFlood flood-opacity="0" result="BackgroundImageFix"/>
<feBlend mode="normal" in="SourceGraphic" in2="BackgroundImageFix" result="shape"/>
<feGaussianBlur stdDeviation="28" result="effect1_foregroundBlur_295_34919"/>
</filter>
</defs>
</svg>
