<svg width="177" height="176" viewBox="0 0 177 176" fill="none" xmlns="http://www.w3.org/2000/svg">
<mask id="mask0_295_34939" style="mask-type:alpha" maskUnits="userSpaceOnUse" x="0" y="1" width="177" height="173">
<path fill-rule="evenodd" clip-rule="evenodd" d="M136.845 2.41391C134.957 2.56068 132.011 3.74784 128.262 5.87392C124.977 7.73628 119.312 11.8711 118.984 12.646C118.88 12.8911 120.074 14.6725 121.637 16.6044C123.201 18.5367 125.513 21.7291 126.777 23.6986C128.041 25.6687 129.168 27.3198 129.281 27.3677C129.394 27.4154 131.854 27.0073 134.747 26.4611C137.64 25.9144 141.605 25.344 143.557 25.193C146.185 24.9898 147.135 24.7378 147.216 24.2223C147.454 22.7073 146.196 15.5793 144.939 11.3199C142.996 4.73904 140.616 2.12077 136.845 2.41391ZM91.6529 1.44245C89.5315 1.32087 88.5753 1.63241 87.3317 2.85029C85.1848 4.95241 84.8484 6.76951 85.3783 13.3961C85.6498 16.79 85.7142 21.5693 85.5212 24.0169C84.9297 31.5189 84.1095 34.3607 78.3431 48.8795C74.1716 59.3827 73.0335 62.6036 72.6187 65.0816C71.015 74.6618 72.8078 81.8241 78.3988 88.1734C82.4056 92.7241 83.011 93.0737 81.5479 89.9925C78.37 83.2996 78.1711 75.1678 80.9547 65.7683C82.9561 59.0106 87.1201 52.3053 92.9274 46.4883C98.6286 40.7782 109.504 34.3485 119.776 30.6153L123.235 29.3588L122.623 28.1815C121.56 26.1368 116.41 19.3178 113.474 16.0681C106.173 7.9863 96.8537 1.74049 91.6529 1.44245ZM162.945 31.8416C149.236 29.2442 132.146 31.5309 117.45 37.929C105.083 43.313 96.8149 49.5125 91.3629 57.4905C88.6444 61.4683 85.6167 69.3813 85.08 73.9101C84.0255 82.8149 86.6714 89.8048 93.5062 96.171C104.409 106.327 121.505 109.406 132.267 103.151C136.267 100.827 139.662 97.4924 142.823 92.7822C143.588 91.6413 146.857 84.8354 150.087 77.658C156.322 63.7991 157.153 62.33 161.938 56.7066C163.236 55.1808 166.559 52.0343 169.323 49.7143C175.098 44.8672 176.179 43.3956 176.13 40.443C176.084 37.6337 174.797 36.2646 170.238 34.1738C167.768 33.0415 165.575 32.3398 162.945 31.8416ZM91.219 103.893L88.0955 102.741L86.6116 105.536C75.1971 127.041 58.8767 144.004 41.6997 152.218C32.0198 156.846 20.2738 159.273 9.73126 158.822C4.50283 158.599 0.978888 160.914 0.39997 164.953C0.0503273 167.39 0.598195 169.387 2.07949 171.077C3.81441 173.055 5.54389 173.652 9.93896 173.79C42.1671 174.803 72.3526 156.571 93.7585 123.16C96.9507 118.178 102 109.176 101.823 108.781C101.656 108.407 94.4443 105.083 91.219 103.893ZM27.4667 86.4325C22.6976 85.4348 19.1873 85.993 18.3911 87.8762C18.2307 88.2557 18.5836 90.5364 19.1751 92.9446C21.457 102.23 21.5251 105.922 19.6176 116.987C18.3124 124.56 18.5062 127.433 20.6842 132.802C23.3222 139.304 27.7285 143.753 34.2667 146.517L37.3984 147.842L40.5695 146.187C42.3136 145.277 45.121 143.655 46.8082 142.583L49.8762 140.635L49.4356 137.703C48.2557 129.85 44.8001 119.86 41.1633 113.79C37.792 108.162 37.7829 108.139 38.3626 106.768C38.7551 105.84 39.2606 105.396 40.2233 105.133C42.0345 104.639 42.5428 104.943 44.253 107.545C48.4815 113.981 52.8145 124.463 54.3326 131.931L55.243 136.412L57.6109 134.262C62.1816 130.113 62.0294 130.409 61.6526 126.443C60.3173 112.381 52.2678 99.684 39.6742 91.7751C36.1983 89.592 30.3644 87.039 27.4667 86.4325Z" fill="white"/>
</mask>
<g mask="url(#mask0_295_34939)">
<g filter="url(#filter0_f_295_34939)">
<ellipse cx="121.44" cy="76.5998" rx="78.32" ry="78.76" fill="#D9D7FF"/>
</g>
<g filter="url(#filter1_f_295_34939)">
<ellipse cx="77.4401" cy="3.9602" rx="78.32" ry="78.76" fill="#CC81F4"/>
</g>
<g filter="url(#filter2_f_295_34939)">
<ellipse cx="23.7599" cy="77.0002" rx="78.32" ry="78.76" fill="#F8C3F9"/>
</g>
<g filter="url(#filter3_f_295_34939)">
<ellipse cx="67.7599" cy="181.72" rx="78.32" ry="78.76" fill="#AEA5FF"/>
</g>
</g>
<defs>
<filter id="filter0_f_295_34939" x="-12.8799" y="-58.1602" width="268.64" height="269.52" filterUnits="userSpaceOnUse" color-interpolation-filters="sRGB">
<feFlood flood-opacity="0" result="BackgroundImageFix"/>
<feBlend mode="normal" in="SourceGraphic" in2="BackgroundImageFix" result="shape"/>
<feGaussianBlur stdDeviation="28" result="effect1_foregroundBlur_295_34939"/>
</filter>
<filter id="filter1_f_295_34939" x="-56.8799" y="-130.8" width="268.64" height="269.52" filterUnits="userSpaceOnUse" color-interpolation-filters="sRGB">
<feFlood flood-opacity="0" result="BackgroundImageFix"/>
<feBlend mode="normal" in="SourceGraphic" in2="BackgroundImageFix" result="shape"/>
<feGaussianBlur stdDeviation="28" result="effect1_foregroundBlur_295_34939"/>
</filter>
<filter id="filter2_f_295_34939" x="-110.56" y="-57.7598" width="268.64" height="269.52" filterUnits="userSpaceOnUse" color-interpolation-filters="sRGB">
<feFlood flood-opacity="0" result="BackgroundImageFix"/>
<feBlend mode="normal" in="SourceGraphic" in2="BackgroundImageFix" result="shape"/>
<feGaussianBlur stdDeviation="28" result="effect1_foregroundBlur_295_34939"/>
</filter>
<filter id="filter3_f_295_34939" x="-66.5601" y="46.96" width="268.64" height="269.52" filterUnits="userSpaceOnUse" color-interpolation-filters="sRGB">
<feFlood flood-opacity="0" result="BackgroundImageFix"/>
<feBlend mode="normal" in="SourceGraphic" in2="BackgroundImageFix" result="shape"/>
<feGaussianBlur stdDeviation="28" result="effect1_foregroundBlur_295_34939"/>
</filter>
</defs>
</svg>
