<svg width="176" height="176" viewBox="0 0 176 176" fill="none" xmlns="http://www.w3.org/2000/svg">
<mask id="mask0_295_35864" style="mask-type:alpha" maskUnits="userSpaceOnUse" x="14" y="0" width="148" height="176">
<path fill-rule="evenodd" clip-rule="evenodd" d="M160.421 48.5988H14.96V35.6801C14.96 20.4238 27.9586 14.149 34.7674 14.149H49.623V6.15175C49.5795 4.10116 50.8206 0 56.1333 0C62.3314 0 63.2406 4.30622 63.2406 6.15175V22.7615C63.2406 29.6514 57.8761 29.7334 55.1939 28.9132C69.672 33.8346 70.7432 20.68 69.8577 14.149L104.712 13.5338V5.53657C104.712 4.30622 105.95 0 111.521 0C116.587 0 118.07 5.24901 118.297 6.05332L118.297 6.05346C118.32 6.13354 118.33 6.1695 118.33 6.15175V21.5311C118.33 27.6266 114.391 28.8288 111.392 28.6009C126.445 30.8362 125.353 19.4673 124.756 13.5338H136.281C156.088 14.026 160.627 28.093 160.421 35.065V48.5988ZM14.96 58.4418H161.04V149.254L135.335 176H43.7998C34.1865 175.585 14.96 169.656 14.96 149.254V58.4418ZM48.2915 76.2816H127.708C135.251 76.2816 139.022 76.2816 141.365 78.6247C143.708 80.9678 143.708 84.7391 143.708 92.2816V133.124C143.708 136.494 143.708 138.18 143.065 139.685C142.422 141.191 141.204 142.356 138.768 144.686L128.742 154.277L128.742 154.277L128.742 154.277C126.451 156.468 125.306 157.564 123.872 158.139C122.438 158.715 120.853 158.715 117.682 158.715H48.2915C40.749 158.715 36.9778 158.715 34.6346 156.372C32.2915 154.029 32.2915 150.257 32.2915 142.715V92.2816C32.2915 84.7391 32.2915 80.9678 34.6346 78.6247C36.9778 76.2816 40.749 76.2816 48.2915 76.2816ZM63.8879 140.803C66.7695 142.081 70.0729 142.721 73.7982 142.721C77.619 142.721 81.002 142.097 83.9472 140.85C86.9083 139.588 89.2167 137.862 90.8724 135.672C92.544 133.466 93.3798 130.941 93.3798 128.096C93.3958 125.075 92.4326 122.557 90.4903 120.543C88.564 118.529 85.7064 117.299 81.9174 116.851V116.467C84.7512 116.052 87.0675 114.949 88.8665 113.159C90.6814 111.369 91.5809 109.091 91.565 106.326C91.565 103.657 90.8247 101.267 89.3441 99.1572C87.8635 97.0314 85.7939 95.3531 83.1353 94.1224C80.4766 92.8916 77.3961 92.2763 73.8937 92.2763C70.3753 92.2763 67.2391 92.9076 64.4849 94.1703C61.7467 95.433 59.5815 97.1832 57.9895 99.4209C56.3975 101.643 55.5856 104.216 55.5538 107.141H66.8491C66.8809 106.022 67.2073 105.039 67.8281 104.192C68.449 103.345 69.2848 102.69 70.3355 102.226C71.4022 101.763 72.5882 101.531 73.8937 101.531C75.1354 101.531 76.226 101.763 77.1653 102.226C78.1205 102.69 78.8607 103.345 79.3861 104.192C79.9274 105.023 80.1901 105.99 80.1741 107.093C80.1901 108.228 79.8876 109.235 79.2667 110.114C78.6458 110.977 77.7782 111.648 76.6638 112.128C75.5653 112.607 74.2917 112.847 72.843 112.847H68.0908V121.287H72.843C74.4986 121.287 75.9314 121.534 77.1414 122.03C78.3672 122.525 79.3145 123.221 79.9831 124.116C80.6517 125.011 80.9781 126.034 80.9622 127.184C80.9781 128.335 80.6836 129.358 80.0786 130.253C79.4737 131.132 78.6299 131.828 77.5473 132.339C76.4807 132.835 75.2469 133.082 73.8459 133.082C72.445 133.082 71.1952 132.851 70.0967 132.387C68.9983 131.924 68.1306 131.284 67.4938 130.469C66.857 129.638 66.5147 128.687 66.467 127.616H54.5747C54.6065 130.573 55.4503 133.186 57.106 135.456C58.7617 137.726 61.0223 139.508 63.8879 140.803ZM122.663 142.049V92.9476H111.702L99.6424 100.476V110.737L110.579 104.024H110.866V142.049H122.663Z" fill="white"/>
</mask>
<g mask="url(#mask0_295_35864)">
<g filter="url(#filter0_f_295_35864)">
<ellipse cx="139.04" cy="106.119" rx="92.4" ry="92.9191" fill="#D9D7FF"/>
</g>
<g filter="url(#filter1_f_295_35864)">
<ellipse cx="77.4401" cy="3.9602" rx="78.32" ry="78.76" fill="#CC81F4"/>
</g>
<g filter="url(#filter2_f_295_35864)">
<ellipse cx="23.7599" cy="77.0002" rx="78.32" ry="78.76" fill="#F8C3F9"/>
</g>
<g filter="url(#filter3_f_295_35864)">
<ellipse cx="67.7599" cy="181.72" rx="78.32" ry="78.76" fill="#AEA5FF"/>
</g>
</g>
<defs>
<filter id="filter0_f_295_35864" x="-19.4275" y="-52.8672" width="316.935" height="317.973" filterUnits="userSpaceOnUse" color-interpolation-filters="sRGB">
<feFlood flood-opacity="0" result="BackgroundImageFix"/>
<feBlend mode="normal" in="SourceGraphic" in2="BackgroundImageFix" result="shape"/>
<feGaussianBlur stdDeviation="33.0337" result="effect1_foregroundBlur_295_35864"/>
</filter>
<filter id="filter1_f_295_35864" x="-56.8799" y="-130.8" width="268.64" height="269.52" filterUnits="userSpaceOnUse" color-interpolation-filters="sRGB">
<feFlood flood-opacity="0" result="BackgroundImageFix"/>
<feBlend mode="normal" in="SourceGraphic" in2="BackgroundImageFix" result="shape"/>
<feGaussianBlur stdDeviation="28" result="effect1_foregroundBlur_295_35864"/>
</filter>
<filter id="filter2_f_295_35864" x="-110.56" y="-57.7598" width="268.64" height="269.52" filterUnits="userSpaceOnUse" color-interpolation-filters="sRGB">
<feFlood flood-opacity="0" result="BackgroundImageFix"/>
<feBlend mode="normal" in="SourceGraphic" in2="BackgroundImageFix" result="shape"/>
<feGaussianBlur stdDeviation="28" result="effect1_foregroundBlur_295_35864"/>
</filter>
<filter id="filter3_f_295_35864" x="-66.5601" y="46.96" width="268.64" height="269.52" filterUnits="userSpaceOnUse" color-interpolation-filters="sRGB">
<feFlood flood-opacity="0" result="BackgroundImageFix"/>
<feBlend mode="normal" in="SourceGraphic" in2="BackgroundImageFix" result="shape"/>
<feGaussianBlur stdDeviation="28" result="effect1_foregroundBlur_295_35864"/>
</filter>
</defs>
</svg>
