<svg width="176" height="176" viewBox="0 0 176 176" fill="none" xmlns="http://www.w3.org/2000/svg">
<mask id="mask0_295_35769" style="mask-type:alpha" maskUnits="userSpaceOnUse" x="0" y="0" width="176" height="176">
<path fill-rule="evenodd" clip-rule="evenodd" d="M10.8712 31.5981C4.1821 22.1422 1.62371 15.6533 0.566632 5.46353L7.28958e-10 0L2.83571 0.516095C24.2555 4.41935 66.6003 5.19778 86.9861 2.06265C93.5768 1.04933 101.159 0.217759 103.835 0.215187C119.849 0.200613 136.751 8.3809 152.623 23.8302C164.399 35.2914 170.542 44.9136 174.136 57.5261C175.9 63.7184 176.003 65.7879 176 95.0876C175.998 112.143 175.794 126.301 175.545 126.549C174.779 127.316 168.408 125.344 166.442 123.732C165.419 122.895 163.825 120.962 162.899 119.437C161.34 116.869 161.247 115.485 161.634 100.659C162.263 76.5495 159.339 61.2202 151.63 48.2194C146.25 39.1483 139.541 33.7225 129.209 30.0902C124.686 28.4999 122.024 28.1921 113.092 28.2273C103.925 28.2641 100.956 28.6525 92.3571 30.9372C86.8372 32.404 80.867 34.2232 79.0901 34.9793L75.859 36.3553L83.5624 39.1466C103.899 46.5176 116.489 56.686 120.794 69.2188C123.11 75.9622 123.083 80.4982 120.722 81.2483C118.075 82.0902 109.36 77.4333 102.821 71.6843C93.469 63.4637 87.1958 61.4165 63.8759 58.9758C56.8144 58.2368 48.5546 57.0443 45.5203 56.3259C33.4611 53.4703 19.0856 43.211 10.8712 31.5981ZM88.9787 35.3059C87.1881 35.2202 91.627 33.6094 97.2573 32.3011C104.968 30.5102 119.881 31.1712 126.133 33.5811C140.94 39.2898 151.18 51.922 156.025 70.4618C158.58 80.2333 160.668 117.636 158.696 118.295C156.805 118.926 149.255 114.943 147.237 112.249C145.286 109.644 145.209 109.054 145.612 99.657C146.439 80.3036 146.042 67.836 144.422 62.3647C138.895 43.7014 127.415 36.8722 99.6779 35.7474C94.4182 35.5348 89.6036 35.3351 88.9787 35.3059ZM0.0348124 79.9289C0.114477 63.7448 0.40915 50.1304 0.688403 49.6754C1.34371 48.6116 5.4854 49.7873 9.19622 52.0896C14.048 55.0997 14.3401 56.5652 14.4498 78.3929C14.5363 95.5652 14.8019 99.2711 16.4611 106.493C21.8594 129.996 31.9023 142.228 49.5115 146.75C57.406 148.777 65.6457 148.921 75.2714 147.201C82.7402 145.866 99.6847 140.798 99.6847 139.898C99.6847 139.591 97.4678 138.65 94.7592 137.806C88.1796 135.756 76.7431 130.368 71.9615 127.065C61.4543 119.807 54.6949 109.82 53.6926 100.074C53.2455 95.7174 53.3449 95.3846 55.2482 94.8694C58.2044 94.0687 66.4535 98.4222 73.1299 104.305C82.4609 112.527 89.0054 114.694 111.677 117.072C127.396 118.72 134.287 120.281 141.184 123.755C155.676 131.054 169.674 146.853 173.677 160.426C174.981 164.852 176.523 176.015 175.827 176C175.644 175.996 171.254 175.434 166.072 174.75C147.452 172.296 124.312 171.398 107.845 172.493C99.4585 173.05 89.4697 174.061 85.6475 174.741C62.448 178.861 43.1821 171.92 23.3199 152.285C10.6841 139.792 4.63821 129.809 1.48676 116.234C0.0750726 110.153 -0.0928219 105.939 0.0348124 79.9289ZM25.5368 119.743C19.3487 107.146 17.7409 98.9718 16.999 76.3357L16.3677 57.0786L18.8365 57.6807C23.2506 58.7583 27.2595 61.2799 29.3196 64.2771C31.2872 67.1385 31.3198 67.4833 30.6045 77.9629C28.5658 107.842 30.8812 119.721 40.721 129.86C45.2931 133.865 47.8629 135.155 52.5713 136.752C59.7266 138.898 71.5683 140.564 82.5526 140.97L88.1205 141.175L82.9809 142.8C76.4664 144.86 62.3521 145.599 55.7631 144.226C42.7478 141.513 31.9246 132.747 25.5368 119.743Z" fill="white"/>
</mask>
<g mask="url(#mask0_295_35769)">
<g filter="url(#filter0_f_295_35769)">
<ellipse cx="139.04" cy="106.119" rx="92.4" ry="92.9191" fill="#D9D7FF"/>
</g>
<g filter="url(#filter1_f_295_35769)">
<ellipse cx="77.4401" cy="3.9602" rx="78.32" ry="78.76" fill="#CC81F4"/>
</g>
<g filter="url(#filter2_f_295_35769)">
<ellipse cx="23.7599" cy="77.0002" rx="78.32" ry="78.76" fill="#F8C3F9"/>
</g>
<g filter="url(#filter3_f_295_35769)">
<ellipse cx="67.7599" cy="181.72" rx="78.32" ry="78.76" fill="#AEA5FF"/>
</g>
</g>
<defs>
<filter id="filter0_f_295_35769" x="-19.4275" y="-52.8672" width="316.935" height="317.973" filterUnits="userSpaceOnUse" color-interpolation-filters="sRGB">
<feFlood flood-opacity="0" result="BackgroundImageFix"/>
<feBlend mode="normal" in="SourceGraphic" in2="BackgroundImageFix" result="shape"/>
<feGaussianBlur stdDeviation="33.0337" result="effect1_foregroundBlur_295_35769"/>
</filter>
<filter id="filter1_f_295_35769" x="-56.8799" y="-130.8" width="268.64" height="269.52" filterUnits="userSpaceOnUse" color-interpolation-filters="sRGB">
<feFlood flood-opacity="0" result="BackgroundImageFix"/>
<feBlend mode="normal" in="SourceGraphic" in2="BackgroundImageFix" result="shape"/>
<feGaussianBlur stdDeviation="28" result="effect1_foregroundBlur_295_35769"/>
</filter>
<filter id="filter2_f_295_35769" x="-110.56" y="-57.7598" width="268.64" height="269.52" filterUnits="userSpaceOnUse" color-interpolation-filters="sRGB">
<feFlood flood-opacity="0" result="BackgroundImageFix"/>
<feBlend mode="normal" in="SourceGraphic" in2="BackgroundImageFix" result="shape"/>
<feGaussianBlur stdDeviation="28" result="effect1_foregroundBlur_295_35769"/>
</filter>
<filter id="filter3_f_295_35769" x="-66.5601" y="46.96" width="268.64" height="269.52" filterUnits="userSpaceOnUse" color-interpolation-filters="sRGB">
<feFlood flood-opacity="0" result="BackgroundImageFix"/>
<feBlend mode="normal" in="SourceGraphic" in2="BackgroundImageFix" result="shape"/>
<feGaussianBlur stdDeviation="28" result="effect1_foregroundBlur_295_35769"/>
</filter>
</defs>
</svg>
